<svg width="78" height="79" viewBox="0 0 78 79" fill="none" xmlns="http://www.w3.org/2000/svg">
<path d="M33.4425 13.0449L5.91501 58.9999C5.34745 59.9828 5.04715 61.0972 5.04397 62.2321C5.04079 63.3671 5.33485 64.4831 5.89689 65.4691C6.45893 66.4552 7.26936 67.2769 8.24756 67.8525C9.22575 68.428 10.3376 68.7375 11.4725 68.7499H66.5275C67.6624 68.7375 68.7743 68.428 69.7525 67.8525C70.7306 67.2769 71.5411 66.4552 72.1031 65.4691C72.6652 64.4831 72.9592 63.3671 72.956 62.2321C72.9529 61.0972 72.6526 59.9828 72.085 58.9999L44.5575 13.0449C43.9781 12.0898 43.1624 11.3001 42.1889 10.752C41.2154 10.2039 40.1171 9.91602 39 9.91602C37.8829 9.91602 36.7846 10.2039 35.8111 10.752C34.8377 11.3001 34.0219 12.0898 33.4425 13.0449V13.0449Z" stroke="#FF7400" stroke-width="7" stroke-linecap="round" stroke-linejoin="round"/>
<path d="M39 29.75V42.75" stroke="#FF7400" stroke-width="7" stroke-linecap="round" stroke-linejoin="round"/>
<path d="M39 55.75H39.0325" stroke="#FF7400" stroke-width="7" stroke-linecap="round" stroke-linejoin="round"/>
</svg>
