<svg width="17" height="18" viewBox="0 0 17 18" fill="none" xmlns="http://www.w3.org/2000/svg">
<g clip-path="url(#clip0_2820_15927)">
<path d="M12.75 5.7906C12.75 4.6582 12.3022 3.57217 11.5052 2.77145C10.7082 1.97072 9.62717 1.52087 8.5 1.52087C7.37283 1.52087 6.29183 1.97072 5.4948 2.77145C4.69777 3.57217 4.25 4.6582 4.25 5.7906C4.25 10.7719 2.125 12.1952 2.125 12.1952H14.875C14.875 12.1952 12.75 10.7719 12.75 5.7906Z" stroke="#505050" stroke-width="2" stroke-linecap="round" stroke-linejoin="round"/>
<path d="M9.72525 15.0416C9.60071 15.2573 9.42197 15.4363 9.20691 15.5608C8.99185 15.6852 8.74802 15.7507 8.49983 15.7507C8.25165 15.7507 8.00782 15.6852 7.79275 15.5608C7.57769 15.4363 7.39895 15.2573 7.27441 15.0416" stroke="#505050" stroke-width="2" stroke-linecap="round" stroke-linejoin="round"/>
</g>
<defs>
<clipPath id="clip0_2820_15927">
<rect width="17" height="17.0789" fill="white" transform="translate(0 0.0976562)"/>
</clipPath>
</defs>
</svg>
