<svg width="11" height="10" viewBox="0 0 11 10" fill="none" xmlns="http://www.w3.org/2000/svg">
<path fill-rule="evenodd" clip-rule="evenodd" d="M9.875 7.5V3.75C9.875 3.40482 9.59518 3.125 9.25 3.125H8.51777C8.02049 3.125 7.54357 2.92746 7.19194 2.57583L6.67417 2.05806C6.55696 1.94085 6.39799 1.875 6.23223 1.875H4.76777C4.60201 1.875 4.44304 1.94085 4.32583 2.05806L3.80806 2.57583C3.45643 2.92746 2.97951 3.125 2.48223 3.125H1.75C1.40482 3.125 1.125 3.40482 1.125 3.75V7.5C1.125 7.84518 1.40482 8.125 1.75 8.125H9.25C9.59518 8.125 9.875 7.84518 9.875 7.5ZM1.75 2.5C1.05964 2.5 0.5 3.05964 0.5 3.75V7.5C0.5 8.19036 1.05964 8.75 1.75 8.75H9.25C9.94036 8.75 10.5 8.19036 10.5 7.5V3.75C10.5 3.05964 9.94036 2.5 9.25 2.5H8.51777C8.18625 2.5 7.8683 2.3683 7.63388 2.13388L7.11612 1.61612C6.8817 1.3817 6.56375 1.25 6.23223 1.25H4.76777C4.43625 1.25 4.1183 1.3817 3.88388 1.61612L3.36612 2.13388C3.1317 2.3683 2.81375 2.5 2.48223 2.5H1.75Z" fill="#1E3869"/>
<path fill-rule="evenodd" clip-rule="evenodd" d="M5.5 6.875C6.36295 6.875 7.0625 6.17545 7.0625 5.3125C7.0625 4.44956 6.36295 3.75 5.5 3.75C4.63705 3.75 3.9375 4.44956 3.9375 5.3125C3.9375 6.17545 4.63705 6.875 5.5 6.875ZM5.5 7.5C6.70812 7.5 7.6875 6.52062 7.6875 5.3125C7.6875 4.10438 6.70812 3.125 5.5 3.125C4.29188 3.125 3.3125 4.10438 3.3125 5.3125C3.3125 6.52062 4.29188 7.5 5.5 7.5Z" fill="#1E3869"/>
<path d="M2.375 4.0625C2.375 4.23509 2.23509 4.375 2.0625 4.375C1.88991 4.375 1.75 4.23509 1.75 4.0625C1.75 3.88991 1.88991 3.75 2.0625 3.75C2.23509 3.75 2.375 3.88991 2.375 4.0625Z" fill="#1E3869"/>
</svg>
