<svg width="46" height="51" viewBox="0 0 46 51" fill="none" xmlns="http://www.w3.org/2000/svg">
<path d="M22.9885 20.9015C22.0463 20.9015 21.2824 20.0544 21.2824 19.0097C21.2824 17.965 22.0463 17.1181 22.9885 17.1181C23.9307 17.1181 24.6949 17.9652 24.6949 19.0097C24.6949 20.0541 23.9309 20.9015 22.9885 20.9015Z" fill="#D92700"/>
<path d="M23.0122 30.082C23.9543 30.082 24.718 30.9291 24.718 31.9738C24.718 33.0185 23.9543 33.8653 23.0122 33.8653C22.0701 33.8653 21.3061 33.0182 21.3061 31.9738C21.3061 30.9294 22.0695 30.082 23.0122 30.082Z" fill="#D92700"/>
<path d="M42.4484 25.0892C42.3433 25.2177 42.2856 25.3793 42.2854 25.5462C42.2851 25.7131 42.3423 25.8749 42.447 26.0037C47.2674 31.854 47.1271 40.9306 42.0224 46.5901C39.3971 49.5014 35.9576 50.9559 32.5171 50.9559C29.2676 50.9559 26.0171 49.6573 23.4542 47.0613C23.4011 47.0045 23.3372 46.9592 23.2663 46.9283C23.1954 46.8973 23.1189 46.8814 23.0417 46.8815C22.9645 46.8816 22.8881 46.8977 22.8173 46.9287C22.7464 46.9598 22.6826 47.0052 22.6297 47.0622C20.0516 49.6875 16.777 51 13.5024 51C10.047 51 6.59129 49.5382 3.95502 46.6151C-1.18011 40.9218 -1.3148 31.7843 3.55145 25.9102C3.65682 25.7819 3.71462 25.6204 3.71485 25.4535C3.71509 25.2866 3.65775 25.1249 3.55275 24.9963C-1.26761 19.1463 -1.12732 10.0694 3.97746 4.40986C6.60275 1.4989 10.0422 0.0438408 13.4826 0.0441708C16.7324 0.0441708 19.983 1.34274 22.5459 3.93872C22.599 3.99551 22.6629 4.04073 22.7338 4.0716C22.8048 4.10246 22.8812 4.11832 22.9584 4.11821C23.0356 4.1181 23.112 4.10201 23.1828 4.07094C23.2537 4.03986 23.3175 3.99446 23.3704 3.93751C25.9482 1.31254 29.2228 0 32.4977 0C35.9531 0 39.4088 1.46155 42.0454 4.38466C47.1799 10.0783 47.3149 19.2158 42.4484 25.0892ZM39.5598 43.8602C43.497 39.4954 43.4973 32.4186 39.5603 28.0532L20.6968 7.13956C18.7285 4.95702 16.1488 3.86605 13.5688 3.86605C10.9889 3.86605 8.40835 4.95762 6.44004 7.14016C2.50255 11.505 2.50255 18.5821 6.4395 22.9466L25.303 43.8605C27.2716 46.0428 29.8513 47.1341 32.4313 47.1341C35.0112 47.1341 37.5912 46.0428 39.5598 43.8602ZM26.0366 6.62095C25.8874 6.76274 25.7988 6.95795 25.7897 7.16495C25.7805 7.37195 25.8516 7.57437 25.9877 7.72908L39.0366 22.1966C39.099 22.2692 39.1767 22.3267 39.264 22.3648C39.3513 22.4029 39.4459 22.4207 39.5409 22.4167C39.6358 22.4128 39.7287 22.3872 39.8126 22.342C39.8965 22.2968 39.9693 22.2331 40.0257 22.1555C40.354 21.7279 40.7669 21.1677 40.9804 20.7927C43.4104 16.5267 42.9487 10.8174 39.5962 7.09995C37.6519 4.94431 35.104 3.8666 32.5555 3.8666C30.867 3.86969 29.2113 4.33902 27.7666 5.22408C27.1854 5.60941 26.5055 6.19552 26.0366 6.62095ZM19.9833 44.3769C20.1278 44.234 20.2123 44.0402 20.2192 43.8358C20.2261 43.6314 20.1549 43.4322 20.0203 43.2796L6.96739 28.8079C6.90755 28.7396 6.83421 28.6849 6.75214 28.6472C6.67007 28.6095 6.5811 28.5897 6.49098 28.589C6.3895 28.5901 6.28965 28.615 6.19936 28.6619C6.10906 28.7089 6.0308 28.7765 5.97079 28.8593C5.5966 29.3562 5.10097 30.0426 4.85847 30.4989C2.61144 34.7304 3.12668 40.2666 6.40375 43.9002C8.34806 46.0556 10.8958 47.1332 13.444 47.1332C15.3467 47.1287 17.2024 46.5342 18.7615 45.4298C19.0979 45.1938 19.5997 44.7385 19.9833 44.3769Z" fill="#D92700"/>
<path d="M17.1435 23.6024C18.0857 23.6024 18.8496 24.4491 18.8496 25.494C18.8496 26.5388 18.0857 27.3858 17.1435 27.3858C16.2013 27.3858 15.4372 26.5387 15.4372 25.494C15.4372 24.4492 16.2009 23.6024 17.1435 23.6024Z" fill="#D92700"/>
<path d="M28.835 23.5907C29.7771 23.5907 30.5411 24.4371 30.5411 25.4823C30.5411 26.5274 29.7771 27.3741 28.835 27.3741C27.8929 27.3741 27.1289 26.527 27.1289 25.4823C27.1289 24.4375 27.8928 23.5907 28.835 23.5907Z" fill="#D92700"/>
</svg>
