<svg width="45" height="58" viewBox="0 0 45 58" fill="none" xmlns="http://www.w3.org/2000/svg">
<path fill-rule="evenodd" clip-rule="evenodd" d="M41.2905 23.277C41.2311 23.0485 41.1272 22.8338 40.9848 22.6454C40.8424 22.4571 40.6643 22.2986 40.4606 22.179C40.2569 22.0595 40.0317 21.9813 39.7978 21.9488C39.5638 21.9163 39.3258 21.9303 39.0973 21.9898C32.514 23.7049 27.4732 24.4959 22.4791 24.4761C17.4778 24.4545 12.4298 23.6222 5.82674 21.9862C5.59491 21.9207 5.35228 21.9025 5.11325 21.9326C4.87423 21.9626 4.64369 22.0405 4.43533 22.1614C4.22698 22.2823 4.04506 22.4439 3.90037 22.6366C3.75569 22.8292 3.6512 23.0489 3.59311 23.2827C3.53502 23.5165 3.52452 23.7596 3.56222 23.9976C3.59993 24.2355 3.68508 24.4634 3.8126 24.6678C3.94013 24.8722 4.10744 25.0489 4.30458 25.1874C4.50173 25.3258 4.7247 25.4232 4.96024 25.4738C8.84692 26.4374 12.2734 27.1457 15.5183 27.5772L17.0787 27.7857V37.6391L15.2954 51.9112C15.239 52.3741 15.3648 52.8408 15.6461 53.2128C15.9273 53.5847 16.3422 53.8328 16.8029 53.9047C17.2637 53.9765 17.7343 53.8665 18.1155 53.5979C18.4967 53.3293 18.7586 52.923 18.8459 52.4649L21.5425 38.0831C21.5624 37.9764 21.5726 37.8681 21.573 37.7595H25.1685C25.1689 37.8681 25.1791 37.9764 25.1991 38.0831L27.8956 52.4649C27.9829 52.923 28.2448 53.3293 28.626 53.5979C29.0072 53.8665 29.4778 53.9765 29.9386 53.9047C30.3994 53.8328 30.8142 53.5847 31.0955 53.2128C31.3768 52.8408 31.5025 52.3741 31.4462 51.9112L29.6628 37.6409V27.6095L31.1801 27.3686C33.909 26.9372 36.7998 26.3044 40.0033 25.4702C40.2319 25.4108 40.4465 25.3069 40.6349 25.1645C40.8233 25.0221 40.9818 24.844 41.1013 24.6403C41.2209 24.4366 41.2991 24.2114 41.3316 23.9775C41.364 23.7436 41.3501 23.5055 41.2905 23.277ZM38.1912 18.5112C38.8794 18.3241 39.5978 18.2752 40.305 18.3675C41.0121 18.4598 41.694 18.6915 42.311 19.0491C42.928 19.4067 43.468 19.8831 43.8997 20.4507C44.3314 21.0184 44.6462 21.666 44.8259 22.3562C45.0056 23.0463 45.0467 23.7652 44.9467 24.4713C44.8468 25.1775 44.6077 25.8567 44.2435 26.4699C43.8793 27.083 43.397 27.6178 42.8247 28.0433C42.2524 28.4688 41.6014 28.7766 40.9094 28.9488C38.3819 29.6181 35.8296 30.1902 33.2583 30.6639V37.4161L35.0146 51.4654C35.1933 52.8588 34.8212 54.2669 33.9774 55.3902C33.1337 56.5135 31.885 57.2632 30.497 57.4798C29.109 57.6965 27.6912 57.363 26.5453 56.5503C25.3994 55.7376 24.6158 54.5099 24.3613 53.1283L23.3708 47.843L22.3784 53.1283C22.1173 54.5034 21.3317 55.7232 20.1877 56.5297C19.0438 57.3363 17.631 57.6665 16.248 57.4506C14.8651 57.2347 13.6202 56.4896 12.7765 55.3727C11.9329 54.2558 11.5565 52.8547 11.7269 51.4654L13.4833 37.4161V30.9174C10.535 30.4571 7.45728 29.7992 4.09553 28.965C3.40806 28.7946 2.7609 28.4904 2.19099 28.0698C1.62108 27.6493 1.13959 27.1206 0.774003 26.5139C0.408417 25.9073 0.165897 25.2346 0.0602897 24.5342C-0.0453171 23.8339 -0.0119418 23.1195 0.158509 22.4321C0.328959 21.7446 0.633147 21.0975 1.0537 20.5275C1.47426 19.9576 2.00295 19.4761 2.60959 19.1106C3.21623 18.745 3.88894 18.5024 4.58931 18.3968C5.28967 18.2912 6.00398 18.3246 6.69145 18.4951C13.1669 20.1004 17.9003 20.8609 22.4935 20.8788C27.0687 20.8968 31.7823 20.1795 38.1912 18.5112Z" fill="#CC0000"/>
<path fill-rule="evenodd" clip-rule="evenodd" d="M22.4719 3.59545C21.0415 3.59545 19.6698 4.16366 18.6583 5.17508C17.6469 6.1865 17.0787 7.55828 17.0787 8.98864C17.0787 10.419 17.6469 11.7908 18.6583 12.8022C19.6698 13.8136 21.0415 14.3818 22.4719 14.3818C23.9023 14.3818 25.274 13.8136 26.2855 12.8022C27.2969 11.7908 27.8651 10.419 27.8651 8.98864C27.8651 7.55828 27.2969 6.1865 26.2855 5.17508C25.274 4.16366 23.9023 3.59545 22.4719 3.59545ZM13.4833 8.98864C13.4833 6.6047 14.4303 4.31841 16.116 2.63271C17.8017 0.947014 20.088 0 22.4719 0C24.8558 0 27.1421 0.947014 28.8278 2.63271C30.5135 4.31841 31.4605 6.6047 31.4605 8.98864C31.4605 11.3726 30.5135 13.6589 28.8278 15.3446C27.1421 17.0303 24.8558 17.9773 22.4719 17.9773C20.088 17.9773 17.8017 17.0303 16.116 15.3446C14.4303 13.6589 13.4833 11.3726 13.4833 8.98864Z" fill="#CC0000"/>
</svg>
