<svg width="56" height="44" viewBox="0 0 56 44" fill="none" xmlns="http://www.w3.org/2000/svg">
<path fill-rule="evenodd" clip-rule="evenodd" d="M49.0374 18.2328V0.119019H52.1088V18.2328C52.1088 21.1046 53.1024 23.9426 54.3372 26.8712C55.2018 28.9229 55.9496 31.4246 55.9496 33.9047C55.9481 37.5121 54.3295 39.9017 52.1933 41.3253C50.1416 42.6921 47.7059 43.119 45.966 43.119C43.8666 43.119 42.4845 42.6706 41.3158 42.0978C40.9549 41.9212 40.5833 41.7138 40.2577 41.5342C40.1149 41.4543 39.9813 41.3806 39.86 41.3161C39.4479 41.0855 39.0162 40.8917 38.57 40.7371C38.1492 40.5958 37.2385 40.4976 35.9654 40.4776C34.7553 40.4592 33.4008 40.5114 32.2121 40.5805C30.9114 40.6557 29.7565 41.118 28.3421 41.6862C27.9106 41.8582 27.4529 42.0409 26.96 42.2268C25.501 42.7735 23.5614 43.119 20.6267 43.119C17.5814 43.119 16.127 42.9439 15.1273 42.5155C14.7126 42.3373 14.3702 42.1054 14.1675 41.9672C14.0753 41.9049 13.9816 41.845 13.8864 41.7876C13.4448 42.0898 12.9588 42.3214 12.4459 42.474C11.1866 42.8672 9.13033 43.119 5.26954 43.119C3.9519 43.119 2.82161 42.8027 1.94011 42.1362C1.05554 41.4651 0.573327 40.5574 0.346041 39.6591C-0.0916377 37.9467 0.324541 36.0639 0.760684 34.9014C0.87039 34.6087 1.06678 34.3565 1.32363 34.1784C1.58048 34.0003 1.88556 33.9049 2.19811 33.9047H7.80347L8.76636 33.1338C10.5555 31.7025 12.5903 30.7012 14.6528 29.9641C17.3141 29.0119 20.685 27.553 23.7411 25.6134C26.7265 23.7183 29.2697 21.4516 30.6442 18.8747L32.1522 3.04455L35.2083 3.33634L33.6726 19.4613C33.6551 19.6495 33.6031 19.8327 33.519 20.0019C31.8174 23.4035 28.6692 26.1233 25.3874 28.2072C22.081 30.3066 18.4859 31.8546 15.6863 32.8558C13.8434 33.5162 12.1342 34.3716 10.6845 35.5311L9.72158 36.3035C9.17667 36.7393 8.49964 36.9765 7.80193 36.9762H3.35143C3.21629 37.6427 3.17943 38.346 3.32072 38.9004C3.419 39.2813 3.58179 39.5254 3.79372 39.6867C4.01179 39.8526 4.43872 40.0476 5.26954 40.0476C9.08733 40.0476 10.7428 39.7865 11.5306 39.5408C11.8777 39.4333 12.0405 39.3304 12.1634 39.2459L12.2125 39.2091C12.3446 39.1077 12.7009 38.8374 13.0295 38.6747C13.3935 38.4923 13.8149 38.4619 14.2013 38.5902C14.923 38.8313 15.3761 39.0862 15.7431 39.3258L16.0011 39.4963C16.1562 39.6007 16.213 39.6391 16.3359 39.6913C16.6799 39.8387 17.5291 40.0476 20.6267 40.0476C23.3326 40.0476 24.876 39.7266 25.8819 39.3504C26.2121 39.2275 26.5622 39.0847 26.9293 38.9357C28.4128 38.3368 30.1804 37.6212 32.034 37.5137C33.3586 37.4308 34.6858 37.395 36.013 37.4062C37.2662 37.4261 38.6176 37.5137 39.5405 37.8223C40.2362 38.0542 40.8121 38.3399 41.3174 38.6117L41.8426 38.9004C42.1267 39.0586 42.3755 39.1968 42.6688 39.3412C43.4582 39.7282 44.3796 40.0476 45.966 40.0476C47.2974 40.0476 49.0835 39.7067 50.4887 38.7699C51.8094 37.8899 52.8767 36.4387 52.8767 33.9047C52.8767 31.9943 52.2885 29.9196 51.5068 28.0644C50.2552 25.0943 49.0374 21.7649 49.0374 18.2328Z" fill="#9D0BA0"/>
<path fill-rule="evenodd" clip-rule="evenodd" d="M43.6616 20.0833C44.0689 20.0833 44.4595 20.245 44.7475 20.5331C45.0355 20.8211 45.1973 21.2117 45.1973 21.619H43.6616H45.1973V21.6528L45.1958 21.7142C45.1958 21.7618 45.1912 21.8278 45.1866 21.9092C45.1213 22.8571 44.9371 23.793 44.6383 24.695C44.0855 26.3597 42.9429 28.4483 40.6117 29.8473C40.2622 30.0569 39.8438 30.119 39.4485 30.0201C39.0533 29.9212 38.7135 29.6693 38.5039 29.3198C38.2944 28.9703 38.2322 28.552 38.3311 28.1567C38.4301 27.7614 38.682 27.4216 39.0314 27.212C40.541 26.3075 41.3196 24.9407 41.7251 23.726C41.9385 23.0808 42.0716 22.4119 42.1213 21.7341L42.1259 21.6297V21.6113C42.1279 21.2053 42.2906 20.8167 42.5784 20.5303C42.8662 20.244 43.2556 20.0832 43.6616 20.0833Z" fill="#9D0BA0"/>
</svg>
