<svg width="61" height="52" viewBox="0 0 61 52" fill="none" xmlns="http://www.w3.org/2000/svg">
<path d="M53.8693 5.85472C53.9978 5.85545 54.1246 5.88352 54.2416 5.93708C54.3587 5.99064 54.4632 6.06849 54.5484 6.16557C54.7298 6.37283 54.8299 6.6399 54.8299 6.9165C54.8299 7.19311 54.7298 7.46018 54.5484 7.66743L45.2826 17.9085C45.198 18.0042 45.0943 18.0808 44.9785 18.1335C44.8627 18.1862 44.7372 18.2138 44.6101 18.2145C44.3534 18.2145 44.1123 18.1038 43.9241 17.8941C43.5531 17.4803 43.5555 16.8108 43.9305 16.3994L53.1899 6.16557C53.2752 6.0685 53.3797 5.99065 53.4968 5.93709C53.6139 5.88353 53.7408 5.85547 53.8693 5.85472Z" fill="#EF0000"/>
<path d="M58.3032 2.04118C59.4814 3.34675 60.1294 5.0812 60.1271 6.92545C60.1248 8.76969 59.4733 10.5025 58.2926 11.8039L47.4066 23.7483C47.3225 23.8432 47.2198 23.9194 47.105 23.972C46.9901 24.0247 46.8657 24.0527 46.7396 24.0542H39.8745C39.8254 24.0547 39.7769 24.0656 39.7322 24.0861C39.6875 24.1066 39.6475 24.1364 39.6148 24.1734L36.0235 28.1423C35.9389 28.238 35.8353 28.3147 35.7194 28.3675C35.6036 28.4202 35.478 28.4478 35.351 28.4486C35.0942 28.4486 34.8535 28.338 34.665 28.1278C34.4853 27.9208 34.3868 27.6546 34.3879 27.3793C34.3891 27.1041 34.49 26.8388 34.6714 26.6333L38.2561 22.6715C38.326 22.5926 38.3643 22.4902 38.3636 22.3843V14.7981C38.3625 14.5257 38.4612 14.2625 38.6407 14.0592L49.4577 2.01575C50.6371 0.715618 52.2036 0 53.869 0C55.5405 0 57.111 0.720073 58.3032 2.04118ZM56.942 10.293C58.4864 8.46114 58.4864 5.59129 56.942 3.75914C56.1254 2.7903 54.9695 2.23431 53.771 2.23431C52.6692 2.23431 51.6196 2.6911 50.8043 3.53083L40.3813 15.1096C40.3117 15.1883 40.2735 15.2904 40.2744 15.396V21.5365C40.2744 21.7608 40.4388 21.9424 40.6418 21.9424H46.1973C46.2463 21.942 46.2946 21.9313 46.3392 21.911C46.3839 21.8906 46.4238 21.8612 46.4566 21.8244L56.942 10.293Z" fill="#EF0000"/>
<path d="M41.9902 49.3182C42.0937 50.3355 41.3671 51.2325 40.4258 51.2325C39.6408 51.2325 38.9603 50.6024 38.8764 49.7545C38.2447 43.3712 34.788 37.9105 29.8942 34.8745C29.8065 34.8197 29.7051 34.7906 29.6015 34.7906C29.5197 34.7914 29.4389 34.8091 29.3644 34.8426C29.2899 34.8761 29.2232 34.9247 29.1686 34.9852L22.1009 42.6726C21.9635 42.8284 21.7941 42.9533 21.6041 43.0389C21.4141 43.1244 21.2079 43.1687 20.9994 43.1687C20.7908 43.1687 20.5846 43.1244 20.3946 43.0389C20.2047 42.9533 20.0353 42.8284 19.8978 42.6726L12.8306 34.9862C12.7761 34.9255 12.7094 34.8768 12.6349 34.8433C12.5603 34.8097 12.4795 34.792 12.3977 34.7912C12.294 34.7913 12.1925 34.8204 12.1047 34.8752C7.21133 37.9105 3.75419 43.3711 3.12249 49.7538C3.03877 50.6023 2.35824 51.2324 1.57375 51.2324C0.632723 51.2324 -0.0938792 50.3348 0.0098797 49.3177C0.878136 40.7879 6.04934 33.6778 13.1062 30.5816C13.5655 30.38 13.6705 29.7288 13.2821 29.3947C10.4002 26.9149 8.54894 23.0812 8.54894 18.7743C8.54894 11.2955 14.123 5.2323 20.9997 5.23254C21.4751 5.23272 21.9501 5.26136 22.422 5.31831C28.0974 6.00213 32.7168 11.0067 33.3665 17.1771C33.8876 22.1288 31.9486 26.6202 28.711 29.4022C28.3262 29.7332 28.4419 30.3832 28.8968 30.5832C35.9519 33.6805 41.1217 40.7893 41.9902 49.3182ZM11.7658 17.7592C11.7299 18.1485 12.0288 18.4828 12.3884 18.4828H29.6116C29.9705 18.4828 30.2699 18.1485 30.234 17.7592C29.7659 12.6564 25.8153 8.66981 21.0001 8.66981C16.1849 8.66981 12.234 12.6565 11.7658 17.7592ZM21 28.8785C24.7763 28.8785 28.0232 26.4253 29.4753 22.9053C29.6693 22.4347 29.3649 21.8982 28.8905 21.8982H13.1094C12.6346 21.8982 12.3305 22.4346 12.5246 22.9053C13.9764 26.4253 17.2231 28.8785 21.0001 28.8785H21ZM25.6061 34.0374C25.961 33.6515 25.7797 33.0054 25.2931 32.8753C22.4807 32.1257 19.5193 32.1257 16.7069 32.8753C16.2201 33.0052 16.0391 33.6513 16.3934 34.0374L20.5074 38.5117C20.5689 38.5813 20.6447 38.6371 20.7296 38.6752C20.8145 38.7134 20.9067 38.7332 20.9999 38.7332C21.0931 38.7332 21.1853 38.7134 21.2702 38.6752C21.3551 38.6371 21.4308 38.5813 21.4924 38.5117L25.6061 34.0374Z" fill="#EF0000"/>
</svg>
