<svg width="47" height="52" viewBox="0 0 47 52" fill="none" xmlns="http://www.w3.org/2000/svg">
<path d="M16.2485 43.2471C17.2107 43.2471 17.9906 42.4007 17.9906 41.3567C17.9906 40.3127 17.2107 39.4664 16.2485 39.4664C15.2864 39.4664 14.5065 40.3127 14.5065 41.3567C14.5065 42.4007 15.2864 43.2471 16.2485 43.2471Z" fill="#1D00CE"/>
<path d="M40.4197 0.119019C44.0478 0.119019 47 3.32218 47 7.25897V43.9787C47 47.9158 44.0478 51.119 40.4197 51.119H6.57998C2.95136 51.119 0 47.9158 0 43.9787V7.25897C0 3.32218 2.95141 0.119019 6.57998 0.119019H40.4197ZM43.5082 15.1272V7.25897C43.5082 5.41094 42.1231 3.90708 40.4197 3.90708H6.57998C4.87664 3.90708 3.49104 5.41088 3.49104 7.25897V15.1272C3.49104 15.5303 3.7915 15.856 4.1627 15.856H12.8402C12.9285 15.8552 13.0158 15.8363 13.0965 15.8007C13.1772 15.765 13.2496 15.7133 13.3093 15.6487L17.4387 11.2733C17.4646 11.2425 17.4916 11.2127 17.5203 11.1836C17.6793 11.0163 17.8721 10.8842 18.0863 10.7961C18.3004 10.708 18.5309 10.6659 18.7627 10.6725C18.9944 10.6791 19.2221 10.7343 19.4308 10.8344C19.6395 10.9346 19.8244 11.0774 19.9734 11.2535L26.7411 19.6462C26.7979 19.7207 26.8707 19.7816 26.9542 19.8247C27.0378 19.8677 27.13 19.8917 27.2241 19.8948C27.3182 19.898 27.4118 19.8803 27.4981 19.843C27.5844 19.8057 27.6612 19.7497 27.7229 19.6792L30.7164 16.4053C30.873 16.2322 31.0646 16.0939 31.2789 15.9992C31.4931 15.9045 31.725 15.8557 31.9595 15.8559H42.837C43.2077 15.8559 43.5082 15.5303 43.5082 15.1272ZM43.5082 30.8641V20.3736C43.5082 19.9708 43.2077 19.6447 42.837 19.6447H32.9505C32.8598 19.6454 32.7702 19.6652 32.6877 19.7027C32.6052 19.7403 32.5316 19.7947 32.4718 19.8624L28.4175 24.3414C28.2635 24.5122 28.0753 24.6493 27.8648 24.744C27.6544 24.8387 27.4264 24.8889 27.1953 24.8914C26.9515 24.8797 26.713 24.8162 26.4962 24.705C26.2794 24.5939 26.0892 24.4377 25.9387 24.2472L19.1705 15.8545C19.1134 15.7817 19.0413 15.7218 18.9589 15.6789C18.8765 15.6361 18.7858 15.6112 18.6929 15.606C18.6005 15.6038 18.5086 15.621 18.4234 15.6564C18.3381 15.6917 18.2613 15.7445 18.198 15.8113L15.0744 19.0953C14.9197 19.267 14.7304 19.4046 14.5187 19.4992C14.307 19.5938 14.0776 19.6434 13.8454 19.6447H4.16275C3.79155 19.6447 3.49109 19.9708 3.49109 20.3736V30.8642C3.49109 31.2667 3.79155 31.593 4.16275 31.593H42.837C43.2077 31.593 43.5082 31.2665 43.5082 30.8641ZM43.5082 43.9787V36.1097C43.5082 35.707 43.2077 35.3815 42.837 35.3815H4.16275C3.79155 35.3815 3.49109 35.707 3.49109 36.1098V43.9786C3.49109 45.8266 4.8767 47.3301 6.58004 47.3301H40.4197C42.1231 47.3301 43.5082 45.8265 43.5082 43.9787Z" fill="#1D00CE"/>
<path d="M8.99606 43.2471C9.95818 43.2471 10.7381 42.4007 10.7381 41.3567C10.7381 40.3127 9.95818 39.4664 8.99606 39.4664C8.03394 39.4664 7.25398 40.3127 7.25398 41.3567C7.25398 42.4007 8.03394 43.2471 8.99606 43.2471Z" fill="#1D00CE"/>
<path d="M3 8.11902C3 5.35759 5.23858 3.11902 8 3.11902H39C41.7614 3.11902 44 5.35759 44 8.11902V30.119C44 31.2236 43.1046 32.119 42 32.119H5C3.89543 32.119 3 31.2236 3 30.119V8.11902Z" fill="white"/>
</svg>
