<svg width="28" height="28" viewBox="0 0 28 28" fill="none" xmlns="http://www.w3.org/2000/svg">
<path d="M16.3333 2.33334H6.99996C6.38112 2.33334 5.78763 2.57918 5.35004 3.01676C4.91246 3.45435 4.66663 4.04784 4.66663 4.66668V23.3333C4.66663 23.9522 4.91246 24.5457 5.35004 24.9833C5.78763 25.4208 6.38112 25.6667 6.99996 25.6667H21C21.6188 25.6667 22.2123 25.4208 22.6499 24.9833C23.0875 24.5457 23.3333 23.9522 23.3333 23.3333V9.33334L16.3333 2.33334Z" stroke="#1E3869" stroke-width="2" stroke-linecap="round" stroke-linejoin="round"/>
<path d="M16.3334 2.33334V9.33334H23.3334" stroke="#1E3869" stroke-width="2" stroke-linecap="round" stroke-linejoin="round"/>
<path d="M18.6667 15.1667H9.33337" stroke="#1E3869" stroke-width="2" stroke-linecap="round" stroke-linejoin="round"/>
<path d="M18.6667 19.8333H9.33337" stroke="#1E3869" stroke-width="2" stroke-linecap="round" stroke-linejoin="round"/>
<path d="M11.6667 10.5H10.5H9.33337" stroke="#1E3869" stroke-width="2" stroke-linecap="round" stroke-linejoin="round"/>
</svg>
