<svg width="46" height="50" viewBox="0 0 46 50" fill="none" xmlns="http://www.w3.org/2000/svg">
  <path d="M45.6361 20.0942C46.8104 23.725 45.0482 27.7179 41.7079 28.9952C41.575 29.0506 41.4619 29.1445 41.3835 29.2647C41.3052 29.3848 41.2651 29.5257 41.2685 29.6688V34C41.2685 42.8226 34.6654 50 26.5485 50C18.4316 50 11.8287 42.8227 11.8287 34V32.4817C11.8287 32.1336 11.5974 31.8357 11.2817 31.7771C4.75597 30.5742 0.0112034 24.478 0 17.2852V1.8568C0 0.832708 0.766835 0 1.70874 0H6.44029C7.38242 0 8.14877 0.832708 8.14877 1.8568C8.14877 2.8809 7.38242 3.71361 6.44029 3.71361H4.07452C3.71176 3.71361 3.41771 4.03326 3.41771 4.42815V17.2854C3.41771 23.3511 7.95705 28.2856 13.5371 28.2856C19.1172 28.2856 23.6572 23.3511 23.6572 17.2854V4.42815C23.6572 4.03326 23.363 3.71361 22.9997 3.71361H20.6345C19.6923 3.71361 18.9257 2.88085 18.9257 1.8568C18.9257 0.832762 19.6926 0 20.6345 0H25.3656C26.308 0 27.0744 0.832708 27.0744 1.8568V17.2839C27.0632 24.4782 22.3183 30.5746 15.7929 31.7773C15.4775 31.836 15.2456 32.1337 15.2456 32.482V33.9999C15.2456 40.7744 20.316 46.2858 26.5484 46.2858C32.7808 46.2858 37.8512 40.7744 37.8512 33.9999V29.6687C37.8546 29.5257 37.8145 29.3849 37.7361 29.2647C37.6578 29.1446 37.5449 29.0507 37.4121 28.9951C34.8379 28.0114 33.1131 25.3579 33.1198 22.3917C33.1289 18.552 36.0097 15.4277 39.5781 15.428C42.299 15.428 44.7338 17.3034 45.6361 20.0942ZM39.5595 25.7142C41.2247 25.7114 42.5806 24.2378 42.5822 22.4281C42.5822 20.6166 41.2266 19.143 39.5595 19.143C37.8924 19.143 36.5368 20.6166 36.5368 22.4281C36.5368 24.2407 37.8924 25.7142 39.5595 25.7142Z" fill="#FF7A00" />
</svg>