<svg width="36" height="34" viewBox="0 0 36 34" fill="none" xmlns="http://www.w3.org/2000/svg">
<path d="M19.17 3.24844C19.0357 3.11676 18.8761 3.0123 18.7005 2.94103C18.5248 2.86975 18.3365 2.83307 18.1464 2.83307C17.9562 2.83307 17.7679 2.86975 17.5923 2.94103C17.4166 3.0123 17.2571 3.11676 17.1227 3.24844L4.09189 15.9984C3.88946 16.1966 3.75161 16.449 3.69577 16.7237C3.63993 16.9985 3.6686 17.2833 3.77816 17.5421C3.88773 17.8009 4.07325 18.0222 4.3113 18.1778C4.54934 18.3335 4.82921 18.4166 5.11553 18.4167H6.5634V28.3334C6.5634 29.8959 7.86214 31.1667 9.45914 31.1667H26.8336C28.4306 31.1667 29.7293 29.8959 29.7293 28.3334V18.4167H31.1772C31.4638 18.4173 31.7442 18.3346 31.9827 18.179C32.2212 18.0235 32.4071 17.8021 32.5167 17.543C32.6264 17.2839 32.6549 16.9987 32.5987 16.7237C32.5425 16.4487 32.404 16.1963 32.2008 15.9984L19.17 3.24844ZM26.835 28.3334H9.45914V14.7532L18.1464 6.25319L26.8336 14.7532V21.25L26.835 28.3334Z" fill="#1E3869"/>
<path d="M19.5938 14.1667H16.6981V18.4167H12.3545V21.25H16.6981V25.5H19.5938V21.25H23.9375V18.4167H19.5938V14.1667Z" fill="#1E3869"/>
</svg>
