<svg width="28" height="28" viewBox="0 0 28 28" fill="none" xmlns="http://www.w3.org/2000/svg">
<path d="M15.982 2.2832H6.84933C6.2438 2.2832 5.66306 2.52375 5.23489 2.95193C4.80671 3.38011 4.56616 3.96084 4.56616 4.56637V22.8317C4.56616 23.4373 4.80671 24.018 5.23489 24.4462C5.66306 24.8744 6.2438 25.1149 6.84933 25.1149H20.5484C21.1539 25.1149 21.7346 24.8744 22.1628 24.4462C22.591 24.018 22.8315 23.4373 22.8315 22.8317V9.13272L15.982 2.2832Z" stroke="#505050" stroke-width="1.61165" stroke-linecap="round" stroke-linejoin="round"/>
<path d="M15.9824 2.2832V9.13272H22.8319" stroke="#505050" stroke-width="1.61165" stroke-linecap="round" stroke-linejoin="round"/>
<path d="M18.2655 14.8406H9.13281" stroke="#505050" stroke-width="1.5" stroke-linecap="round" stroke-linejoin="round"/>
<path d="M18.2655 19.407H9.13281" stroke="#505050" stroke-width="1.5" stroke-linecap="round" stroke-linejoin="round"/>
<path d="M11.416 10.2742H10.2744H9.13281" stroke="#505050" stroke-width="1.5" stroke-linecap="round" stroke-linejoin="round"/>
</svg>
