<svg width="10" height="14" viewBox="0 0 10 14" fill="none" xmlns="http://www.w3.org/2000/svg">
<g clip-path="url(#clip0_2238_10333)">
<path d="M2.75684 10.3709C3.17145 10.8869 3.54881 11.4304 3.88617 11.9975C4.17422 12.5309 4.2943 12.8926 4.5048 13.5352C4.63391 13.8903 4.75059 13.9963 5.00145 13.9963C5.2748 13.9963 5.39883 13.816 5.49465 13.5372C5.69363 12.9303 5.84977 12.4671 6.09609 12.0294C6.57945 11.1845 7.18008 10.4336 7.77023 9.71198C7.93 9.50774 8.96297 8.3179 9.42801 7.37906C9.42801 7.37906 9.99957 6.34775 9.99957 4.90743C9.99957 3.56015 9.4359 2.62573 9.4359 2.62573L7.81305 3.05016L6.8275 5.58507L6.58367 5.93462L6.53492 5.99794L6.47008 6.07721L6.35625 6.20382L6.19359 6.36263L5.31598 7.06087L3.12184 8.29806L2.75684 10.3709Z" fill="#34A853"/>
<path d="M0.492188 7.20568C1.0277 8.40018 2.06035 9.45022 2.75902 10.3717L6.47 6.07885C6.47 6.07885 5.94719 6.74658 4.99883 6.74658C3.94246 6.74658 3.08906 5.92279 3.08906 4.88405C3.08906 4.17172 3.52789 3.68237 3.52789 3.68237L1.00879 4.34156L0.492188 7.20564V7.20568Z" fill="#FBBC04"/>
<path d="M6.51145 0.220741C7.74395 0.608812 8.79887 1.42352 9.43695 2.62489L6.47113 6.07637C6.47113 6.07637 6.90996 5.57816 6.90996 4.87027C6.90996 3.80734 5.99344 3.01326 5.00332 3.01326C4.06703 3.01326 3.5293 3.67989 3.5293 3.67989V1.5055L6.51145 0.220703V0.220741Z" fill="#4285F4"/>
<path d="M1.17285 1.7458C1.90898 0.8857 3.2043 0 4.99008 0C5.85648 0 6.50922 0.222131 6.50922 0.222131L3.52734 3.68181H1.41465L1.17285 1.74584V1.7458Z" fill="#1A73E8"/>
<path d="M0.492656 7.20574C0.492656 7.20574 0 6.26358 0 4.89867C0 3.60865 0.513516 2.48102 1.17246 1.74585L3.52863 3.68216L0.492656 7.20574Z" fill="#EA4335"/>
</g>
<defs>
<clipPath id="clip0_2238_10333">
<rect width="10" height="14" fill="white"/>
</clipPath>
</defs>
</svg>
