<svg width="18" height="16" viewBox="0 0 18 16" fill="none" xmlns="http://www.w3.org/2000/svg">
<path d="M15.6301 2.26549C15.247 1.90353 14.7922 1.61641 14.2916 1.42051C13.791 1.22461 13.2545 1.12378 12.7126 1.12378C12.1707 1.12378 11.6342 1.22461 11.1336 1.42051C10.633 1.61641 10.1782 1.90353 9.79509 2.26549L9.00009 3.01632L8.20509 2.26549C7.43132 1.53471 6.38186 1.12416 5.28759 1.12416C4.19331 1.12416 3.14386 1.53471 2.37009 2.26549C1.59632 2.99627 1.16162 3.98742 1.16162 5.02091C1.16162 6.05439 1.59632 7.04554 2.37009 7.77632L3.16509 8.52716L9.00009 14.038L14.8351 8.52716L15.6301 7.77632C16.0133 7.41454 16.3174 6.98498 16.5248 6.5122C16.7322 6.03942 16.839 5.53267 16.839 5.02091C16.839 4.50914 16.7322 4.0024 16.5248 3.52961C16.3174 3.05683 16.0133 2.62727 15.6301 2.26549Z" fill="#EF0000" stroke="#EF0000" stroke-width="2" stroke-linecap="round" stroke-linejoin="round"/>
</svg>
