<svg width="47" height="56" viewBox="0 0 47 56" fill="none" xmlns="http://www.w3.org/2000/svg">
<path d="M13.1547 41.0873C14.0703 41.0873 14.815 41.9742 14.815 43.0652C14.815 44.1561 14.0703 45.0441 13.1547 45.0441H10.8557C9.94068 45.0441 9.19543 44.1562 9.19543 43.0652C9.19543 41.9742 9.94063 41.0873 10.8557 41.0873H13.1547Z" fill="#1E3869"/>
<path d="M13.1547 30.1304C14.0703 30.1304 14.815 31.0183 14.815 32.1093C14.815 33.2004 14.0703 34.0868 13.1547 34.0868H10.8557C9.94068 34.0868 9.19543 33.2 9.19543 32.1093C9.19543 31.0187 9.94063 30.1304 10.8557 30.1304H13.1547Z" fill="#1E3869"/>
<path d="M26.9484 15.0647C27.8641 15.0647 28.6087 15.9529 28.6087 17.0436C28.6087 18.1343 27.8641 19.0215 26.9484 19.0215H25.7992C25.4463 19.0215 25.1603 19.3622 25.1603 19.7827V21.1519C25.1603 22.2429 24.4151 23.1309 23.5001 23.1309C22.585 23.1309 21.8396 22.2429 21.8396 21.1519V19.7827C21.8396 19.3622 21.5536 19.0215 21.201 19.0215H20.0514C19.1364 19.0215 18.3912 18.1346 18.3912 17.0436C18.3912 15.9526 19.1364 15.0647 20.0514 15.0647H21.201C21.5536 15.0647 21.8396 14.7246 21.8396 14.3041V12.9349C21.8396 11.844 22.5844 10.9567 23.5001 10.9567C24.4157 10.9567 25.1603 11.844 25.1603 12.9349V14.3041C25.1603 14.7246 25.4463 15.0647 25.7992 15.0647H26.9484Z" fill="#1E3869"/>
<path d="M36.1441 41.0873C37.0597 41.0873 37.8043 41.9742 37.8043 43.0652C37.8043 44.1561 37.0597 45.0441 36.1441 45.0441H33.8451C32.9298 45.0441 32.1848 44.1562 32.1848 43.0652C32.1848 41.9742 32.93 41.0873 33.8451 41.0873H36.1441Z" fill="#1E3869"/>
<path d="M36.1441 30.1304C37.0597 30.1304 37.8043 31.0183 37.8043 32.1093C37.8043 33.2004 37.0597 34.0868 36.1441 34.0868H33.8451C32.9298 34.0868 32.1848 33.2 32.1848 32.1093C32.1848 31.0187 32.93 30.1304 33.8451 30.1304H36.1441Z" fill="#1E3869"/>
<path d="M46.5142 14.2754C46.8312 14.659 47.0045 15.158 46.9999 15.6739V54.0239C46.9996 55.1138 46.2552 56 45.3397 56H1.65976C1.43769 55.9987 1.21836 55.9465 1.01611 55.8466C0.813863 55.7468 0.633253 55.6016 0.486058 55.4206C0.169083 55.037 -0.00432231 54.5381 8.18812e-05 54.0221V15.6721C0.000663236 14.5818 0.745269 13.6952 1.66064 13.6952H8.55762C8.90998 13.6952 9.1959 13.3552 9.1959 12.9347V1.97613C9.19648 0.886155 9.9411 0 10.8562 0H36.1455C36.3675 0.00134958 36.5867 0.0536466 36.7889 0.153477C36.9911 0.253307 37.1716 0.398426 37.3188 0.57936C37.6356 0.963048 37.8089 1.46199 37.8045 1.97786V12.9348C37.8045 13.3553 38.0904 13.6953 38.4427 13.6953H45.341C45.563 13.6967 45.7823 13.7491 45.9844 13.8491C46.1866 13.949 46.3672 14.0943 46.5142 14.2754ZM43.6791 51.2834V18.4133C43.6791 17.9927 43.3934 17.6521 43.0408 17.6521H36.1432C35.2282 17.6517 34.4838 16.7641 34.4838 15.6739V4.71726C34.4838 4.29674 34.1984 3.95669 33.8454 3.95669H13.1549C12.8025 3.95669 12.5166 4.29674 12.5166 4.71726V15.6749C12.516 16.7652 11.7714 17.6521 10.856 17.6521H3.95906C3.60671 17.6521 3.32078 17.9927 3.32078 18.4133V51.2834C3.32078 51.7039 3.60671 52.0439 3.95906 52.0439H43.0407C43.3933 52.0439 43.6791 51.7039 43.6791 51.2834Z" fill="#1E3869"/>
<path d="M24.6494 41.0873C25.565 41.0873 26.3097 41.9742 26.3097 43.0652C26.3097 44.1561 25.565 45.0441 24.6494 45.0441H22.3504C21.435 45.0441 20.6901 44.1562 20.6901 43.0652C20.6901 41.9742 21.435 41.0873 22.3504 41.0873H24.6494Z" fill="#1E3869"/>
<path d="M24.6494 30.1304C25.565 30.1304 26.3097 31.0183 26.3097 32.1093C26.3097 33.2004 25.565 34.0868 24.6494 34.0868H22.3504C21.435 34.0868 20.6901 33.2 20.6901 32.1093C20.6901 31.0187 21.435 30.1304 22.3504 30.1304H24.6494Z" fill="#1E3869"/>
</svg>
