<svg width="16" height="16" viewBox="0 0 16 16" fill="none" xmlns="http://www.w3.org/2000/svg">
<mask id="mask0_4903_8478" style="mask-type:alpha" maskUnits="userSpaceOnUse" x="0" y="0" width="16" height="16">
<path fill-rule="evenodd" clip-rule="evenodd" d="M11 1H5C4.44772 1 4 1.44772 4 2V14C4 14.5523 4.44772 15 5 15H11C11.5523 15 12 14.5523 12 14V2C12 1.44772 11.5523 1 11 1ZM5 0C3.89543 0 3 0.89543 3 2V14C3 15.1046 3.89543 16 5 16H11C12.1046 16 13 15.1046 13 14V2C13 0.895431 12.1046 0 11 0H5Z" fill="black"/>
<path fill-rule="evenodd" clip-rule="evenodd" d="M8 14C8.55228 14 9 13.5523 9 13C9 12.4477 8.55228 12 8 12C7.44772 12 7 12.4477 7 13C7 13.5523 7.44772 14 8 14Z" fill="black"/>
</mask>
<g mask="url(#mask0_4903_8478)">
<rect width="16" height="16" fill="#B5B5BD"/>
</g>
</svg>
