<svg width="17" height="17" viewBox="0 0 17 17" fill="none" xmlns="http://www.w3.org/2000/svg">
<path d="M8.5 12C9.42826 12 10.3185 11.6313 10.9749 10.9749C11.6313 10.3185 12 9.42826 12 8.5C12 7.57174 11.6313 6.6815 10.9749 6.02513C10.3185 5.36875 9.42826 5 8.5 5C7.57174 5 6.6815 5.36875 6.02513 6.02513C5.36875 6.6815 5 7.57174 5 8.5C5 9.42826 5.36875 10.3185 6.02513 10.9749C6.6815 11.6313 7.57174 12 8.5 12V12Z" stroke="white" stroke-linecap="round" stroke-linejoin="round"/>
<path d="M0.625 12V5C0.625 3.83968 1.08594 2.72688 1.90641 1.90641C2.72688 1.08594 3.83968 0.625 5 0.625H12C13.1603 0.625 14.2731 1.08594 15.0936 1.90641C15.9141 2.72688 16.375 3.83968 16.375 5V12C16.375 13.1603 15.9141 14.2731 15.0936 15.0936C14.2731 15.9141 13.1603 16.375 12 16.375H5C3.83968 16.375 2.72688 15.9141 1.90641 15.0936C1.08594 14.2731 0.625 13.1603 0.625 12Z" stroke="white"/>
<path d="M13.3125 3.69615L13.3213 3.68652" stroke="white" stroke-linecap="round" stroke-linejoin="round"/>
</svg>
