<svg width="24" height="25" viewBox="0 0 24 25" fill="none" xmlns="http://www.w3.org/2000/svg">
<path d="M8.8002 11.7001C7.73933 11.7001 6.72191 11.2787 5.97177 10.5285C5.22162 9.77838 4.8002 8.76096 4.8002 7.7001V4.5001C4.8002 4.28792 4.88448 4.08444 5.03451 3.93441C5.18454 3.78438 5.38802 3.7001 5.6002 3.7001H6.4002C6.61237 3.7001 6.81585 3.61581 6.96588 3.46578C7.11591 3.31575 7.2002 3.11227 7.2002 2.9001C7.2002 2.68792 7.11591 2.48444 6.96588 2.33441C6.81585 2.18438 6.61237 2.1001 6.4002 2.1001H5.6002C4.96368 2.1001 4.35323 2.35295 3.90314 2.80304C3.45305 3.25313 3.2002 3.86358 3.2002 4.5001V7.7001C3.20122 8.60389 3.42161 9.49392 3.84244 10.2938C4.26326 11.0936 4.87194 11.7793 5.6162 12.2921C6.33126 12.9225 6.91116 13.6913 7.3209 14.552C7.73064 15.4128 7.96172 16.3476 8.0002 17.3001C8.0002 18.7853 8.59019 20.2097 9.6404 21.2599C10.6906 22.3101 12.115 22.9001 13.6002 22.9001C15.0854 22.9001 16.5098 22.3101 17.56 21.2599C18.6102 20.2097 19.2002 18.7853 19.2002 17.3001V16.3881C19.9543 16.1934 20.6115 15.7303 21.0487 15.0857C21.4858 14.4411 21.6728 13.6591 21.5747 12.8865C21.4766 12.1138 21.1 11.4035 20.5156 10.8886C19.9312 10.3738 19.1791 10.0897 18.4002 10.0897C17.6213 10.0897 16.8692 10.3738 16.2848 10.8886C15.7004 11.4035 15.3238 12.1138 15.2257 12.8865C15.1276 13.6591 15.3146 14.4411 15.7517 15.0857C16.1888 15.7303 16.8461 16.1934 17.6002 16.3881V17.3001C17.6002 18.361 17.1788 19.3784 16.4286 20.1285C15.6785 20.8787 14.6611 21.3001 13.6002 21.3001C12.5393 21.3001 11.5219 20.8787 10.7718 20.1285C10.0216 19.3784 9.6002 18.361 9.6002 17.3001C9.64069 16.3464 9.87427 15.4109 10.2868 14.5501C10.6993 13.6893 11.2822 12.9211 12.0002 12.2921C12.7415 11.7776 13.3471 11.091 13.765 10.2913C14.183 9.49158 14.401 8.60247 14.4002 7.7001V4.5001C14.4002 3.86358 14.1473 3.25313 13.6973 2.80304C13.2472 2.35295 12.6367 2.1001 12.0002 2.1001H11.2002C10.988 2.1001 10.7845 2.18438 10.6345 2.33441C10.4845 2.48444 10.4002 2.68792 10.4002 2.9001C10.4002 3.11227 10.4845 3.31575 10.6345 3.46578C10.7845 3.61581 10.988 3.7001 11.2002 3.7001H12.0002C12.2124 3.7001 12.4159 3.78438 12.5659 3.93441C12.7159 4.08444 12.8002 4.28792 12.8002 4.5001V7.7001C12.8002 8.22538 12.6967 8.74553 12.4957 9.23083C12.2947 9.71613 12.0001 10.1571 11.6286 10.5285C11.2572 10.9 10.8162 11.1946 10.3309 11.3956C9.84563 11.5966 9.32548 11.7001 8.8002 11.7001ZM18.4002 14.9001C17.9758 14.9001 17.5689 14.7315 17.2688 14.4315C16.9688 14.1314 16.8002 13.7244 16.8002 13.3001C16.8002 12.8758 16.9688 12.4688 17.2688 12.1687C17.5689 11.8687 17.9758 11.7001 18.4002 11.7001C18.8245 11.7001 19.2315 11.8687 19.5316 12.1687C19.8316 12.4688 20.0002 12.8758 20.0002 13.3001C20.0002 13.7244 19.8316 14.1314 19.5316 14.4315C19.2315 14.7315 18.8245 14.9001 18.4002 14.9001Z" fill="#8E8E8E" />
</svg>
