<svg width="33" height="33" viewBox="0 0 33 33" fill="none" xmlns="http://www.w3.org/2000/svg">
<path d="M16.5 11.1627C13.5611 11.1627 11.1628 13.5611 11.1628 16.4999C11.1628 19.4388 13.5611 21.8371 16.5 21.8371C19.4389 21.8371 21.8372 19.4388 21.8372 16.4999C21.8372 13.5611 19.4389 11.1627 16.5 11.1627ZM32.5076 16.4999C32.5076 14.2898 32.5276 12.0996 32.4035 9.89347C32.2794 7.33098 31.6948 5.05676 29.821 3.18293C27.9432 1.3051 25.673 0.724531 23.1105 0.60041C20.9003 0.476289 18.7102 0.496308 16.504 0.496308C14.2939 0.496308 12.1037 0.476289 9.89757 0.60041C7.33507 0.724531 5.06085 1.3091 3.18702 3.18293C1.30919 5.06076 0.72862 7.33098 0.604499 9.89347C0.480378 12.1036 0.500397 14.2938 0.500397 16.4999C0.500397 18.7061 0.480378 20.9002 0.604499 23.1064C0.72862 25.6689 1.31319 27.9431 3.18702 29.8169C5.06485 31.6947 7.33507 32.2753 9.89757 32.3994C12.1077 32.5235 14.2979 32.5035 16.504 32.5035C18.7142 32.5035 20.9043 32.5235 23.1105 32.3994C25.673 32.2753 27.9472 31.6907 29.821 29.8169C31.6988 27.9391 32.2794 25.6689 32.4035 23.1064C32.5316 20.9002 32.5076 18.7101 32.5076 16.4999ZM16.5 24.7119C11.9556 24.7119 8.28799 21.0444 8.28799 16.4999C8.28799 11.9555 11.9556 8.28791 16.5 8.28791C21.0444 8.28791 24.712 11.9555 24.712 16.4999C24.712 21.0444 21.0444 24.7119 16.5 24.7119ZM25.0483 9.86945C23.9873 9.86945 23.1305 9.01262 23.1305 7.95158C23.1305 6.89055 23.9873 6.03371 25.0483 6.03371C26.1094 6.03371 26.9662 6.89055 26.9662 7.95158C26.9665 8.20353 26.9171 8.45306 26.8209 8.68589C26.7246 8.91872 26.5833 9.13027 26.4052 9.30842C26.227 9.48658 26.0155 9.62784 25.7827 9.72411C25.5498 9.82038 25.3003 9.86977 25.0483 9.86945Z" fill="#1E3869"/>
</svg>
