<svg width="27" height="27" viewBox="0 0 27 27" fill="none" xmlns="http://www.w3.org/2000/svg">
<path fill-rule="evenodd" clip-rule="evenodd" d="M12.8647 0.29602C13.2685 -0.0989202 13.9224 -0.0986371 14.3257 0.296653L21.4716 7.29942L21.4732 7.30094L26.577 12.2813C26.8735 12.5707 26.9627 13.0066 26.803 13.3856C26.6433 13.7646 26.2661 14.0118 25.8477 14.0118H24.1584V22.1545V22.1569C24.1584 22.3902 24.1584 23.4456 23.3913 24.4487C22.5832 25.5053 21.1094 26.2759 18.6402 26.2759C17.2948 26.2759 16.1795 26.0929 15.2803 25.6747C14.3514 25.2427 13.7126 24.587 13.2988 23.7658C12.9006 22.9753 12.7275 22.0649 12.6441 21.1258C12.5633 20.2152 12.5615 19.1945 12.5614 18.1289C12.2553 17.8545 12.0633 17.4598 12.0633 17.0212C12.0633 17.0003 12.0638 16.9794 12.0646 16.9586C11.7037 16.6145 11.3374 16.2784 10.9758 15.9466L10.9213 15.8966C10.4506 15.4647 9.98362 15.0351 9.57553 14.6258C9.17101 14.2201 8.78994 13.8006 8.50547 13.3823C8.23215 12.9804 7.96658 12.4635 7.96658 11.8829C7.96658 10.6282 8.60443 9.76379 9.3634 9.24148C10.0809 8.74772 10.9094 8.5486 11.4748 8.50667C12.044 8.46448 12.5403 8.88243 12.5834 9.44019C12.6265 9.99796 12.2 10.4844 11.6308 10.5266C11.3453 10.5477 10.8975 10.661 10.5513 10.8992C10.2467 11.1088 10.0336 11.3961 10.0336 11.8829C10.0336 11.8823 10.0337 11.882 10.0337 11.882C10.0337 11.882 10.0339 11.8825 10.0341 11.8835C10.0367 11.898 10.0581 12.0127 10.2255 12.2589C10.4037 12.5209 10.68 12.835 11.054 13.2102C11.4245 13.5817 11.8573 13.9804 12.3342 14.418L12.3956 14.4744C12.7572 14.8061 13.1402 15.1575 13.5221 15.522C13.5463 15.5209 13.5705 15.5203 13.5949 15.5203C13.6193 15.5203 13.6436 15.5209 13.6677 15.522C14.0497 15.1575 14.4327 14.8061 14.7942 14.4744L14.8556 14.418C15.3326 13.9804 15.7654 13.5817 16.1359 13.2102C16.5099 12.835 16.7862 12.5209 16.9643 12.2589C17.1318 12.0127 17.1531 11.898 17.1558 11.8835C17.1562 11.8817 17.1562 11.8815 17.1562 11.8829C17.1562 11.3961 16.9432 11.1088 16.6385 10.8992C16.2924 10.661 15.8445 10.5477 15.5591 10.5266C14.9899 10.4844 14.5634 9.99796 14.6065 9.44019C14.6495 8.88243 15.1458 8.46448 15.7151 8.50667C16.2805 8.5486 17.109 8.74772 17.8265 9.24148C18.5854 9.76379 19.2232 10.6282 19.2232 11.8829C19.2232 12.4635 18.9577 12.9804 18.6844 13.3823C18.3999 13.8006 18.0189 14.2201 17.6143 14.6258C17.2062 15.0351 16.7392 15.4647 16.2685 15.8966L16.2141 15.9466L16.2139 15.9468C15.8523 16.2785 15.4861 16.6145 15.1252 16.9586C15.1261 16.9794 15.1265 17.0003 15.1265 17.0212C15.1265 17.4598 14.9345 17.8545 14.6285 18.1289C14.6286 19.2122 14.6316 20.1412 14.7034 20.9503C14.7777 21.7873 14.9199 22.4078 15.1523 22.8691C15.3692 23.2997 15.6765 23.6168 16.1665 23.8446C16.6862 24.0863 17.4629 24.2502 18.6402 24.2502C20.6557 24.2502 21.4242 23.6431 21.7372 23.2338C22.0885 22.7745 22.0913 22.2796 22.0913 22.1545V12.999C22.0913 12.4396 22.5541 11.9861 23.1249 11.9861H23.3451L20.0131 8.73486L20.0116 8.73334L13.5943 2.44456L4.79516 11.0522L3.84044 11.9861H4.06499C4.6358 11.9861 5.09853 12.4396 5.09853 12.999H4.06499C5.09853 12.999 5.09853 12.999 5.09853 12.9991V12.9994V12.9998V13.0005V13.0013V13.0023V13.0035V13.0049V13.0065V13.0082V13.0101V13.0122V13.0145V13.0169V13.0195V13.0224V13.0906V13.1407V13.201V13.2092V13.2176V13.2262V13.2349V13.2437V13.2527V13.2619V13.2712V13.2806V13.2902V13.2999V13.3099V13.3199V13.3301V13.3404V13.3508V13.3941V13.4053V13.4167V13.4281V13.4397V13.5374V13.7579V13.8181V13.8801V13.944V13.9603V13.9767V13.9932V14.0097V14.2901V14.3643V14.4401V14.5174V14.537V14.5566V14.5764V14.5962V14.7581V14.9254V15.0978V15.275V15.4566V15.6422V16.0243V16.0486V16.0729V16.0973V16.1218V16.1463V16.1708V16.1954V16.22V16.2694V16.2942V16.319V16.4185V17.2327V22.488C5.09853 22.9779 5.26033 23.4639 5.56538 23.7879C5.8188 24.0571 6.26033 24.3116 7.07578 24.2681C7.23737 23.0917 8.26589 22.1846 9.51062 22.1846C10.8675 22.1846 11.9675 23.2626 11.9675 24.5923C11.9675 25.922 10.8675 27 9.51062 27C8.79253 27 8.14637 26.6981 7.69714 26.2167C7.61942 26.2439 7.5371 26.2624 7.45126 26.2708C5.97373 26.4156 4.81678 25.98 4.04616 25.1615C3.31011 24.3798 3.03146 23.3605 3.03146 22.488V17.2327V14.2901V14.0118H1.34215C0.923966 14.0118 0.546986 13.7649 0.387122 13.3862C0.227259 13.0075 0.316018 12.5717 0.611984 12.2822L3.33483 9.6186L12.8647 0.29602ZM9.51062 23.7038C9.00993 23.7038 8.60401 24.1016 8.60401 24.5923C8.60401 25.083 9.00993 25.4808 9.51062 25.4808C10.0113 25.4808 10.4172 25.083 10.4172 24.5923C10.4172 24.1016 10.0113 23.7038 9.51062 23.7038Z" fill="white"/>
</svg>
