<svg width="30" height="30" viewBox="0 0 30 30" fill="none" xmlns="http://www.w3.org/2000/svg">
<path d="M21.1039 2.75488H8.75128C5.34019 2.75488 2.57495 5.52012 2.57495 8.93122V21.2839C2.57495 24.695 5.34019 27.4602 8.75128 27.4602H21.1039C24.515 27.4602 27.2803 24.695 27.2803 21.2839V8.93122C27.2803 5.52012 24.515 2.75488 21.1039 2.75488Z" stroke="#1E3869" stroke-width="1.97643" stroke-linecap="round" stroke-linejoin="round"/>
<path d="M19.8687 14.3296C20.0212 15.3576 19.8456 16.4076 19.3669 17.3301C18.8882 18.2526 18.1309 19.0006 17.2026 19.4679C16.2742 19.9351 15.2222 20.0978 14.1961 19.9327C13.17 19.7676 12.2221 19.2831 11.4872 18.5482C10.7524 17.8133 10.2679 16.8654 10.1028 15.8393C9.93769 14.8133 10.1003 13.7612 10.5676 12.8329C11.0348 11.9046 11.7829 11.1472 12.7054 10.6685C13.6279 10.1899 14.6778 10.0143 15.7059 10.1667C16.7545 10.3222 17.7254 10.8109 18.475 11.5605C19.2246 12.3101 19.7132 13.2809 19.8687 14.3296Z" stroke="#1E3869" stroke-width="1.97643" stroke-linecap="round" stroke-linejoin="round"/>
<path d="M21.7217 8.31348H21.7342" stroke="#1E3869" stroke-width="1.97643" stroke-linecap="round" stroke-linejoin="round"/>
</svg>
