<svg width="27" height="27" viewBox="0 0 27 27" fill="none" xmlns="http://www.w3.org/2000/svg">
<path fill-rule="evenodd" clip-rule="evenodd" d="M22.9748 4.0669C21.7756 2.86551 20.3488 1.91289 18.777 1.26425C17.2052 0.615604 15.5197 0.283823 13.8181 0.288127C6.68309 0.288127 0.874706 6.06751 0.871822 13.1715C0.871822 15.442 1.46737 17.6578 2.59934 19.6125L0.763672 26.2874L7.62616 24.4949C9.52441 25.5234 11.6511 26.0626 13.8124 26.0636H13.8181C20.9517 26.0636 26.7601 20.2842 26.763 13.1802C26.7679 11.4874 26.4356 9.81039 25.7854 8.24616C25.1352 6.68194 24.1799 5.26148 22.9748 4.0669ZM13.8181 23.8893H13.8138C11.8866 23.8895 9.99484 23.3735 8.33707 22.3953L7.94485 22.1628L3.87263 23.2263L4.95846 19.2753L4.70322 18.8706C3.62574 17.1633 3.05535 15.1876 3.0579 13.1715C3.06078 7.2673 7.88717 2.46383 13.8224 2.46383C15.236 2.4607 16.6361 2.73662 17.9417 3.27563C19.2474 3.81463 20.4327 4.606 21.429 5.60395C22.4307 6.59714 23.2246 7.77807 23.7649 9.07847C24.3052 10.3789 24.5812 11.773 24.5769 13.1802C24.574 19.0844 19.7476 23.8893 13.8181 23.8893ZM19.7202 15.8682C19.3958 15.706 17.8067 14.9282 17.5096 14.8205C17.214 14.7129 16.9992 14.6598 16.7829 14.9813C16.5666 15.3027 15.9465 16.0275 15.7576 16.2428C15.5687 16.4581 15.3798 16.4839 15.0568 16.3231C14.7338 16.1624 13.6912 15.8223 12.4554 14.7258C11.4936 13.8719 10.8447 12.8185 10.6558 12.4956C10.4669 12.1727 10.6356 11.999 10.7986 11.8383C10.9442 11.6948 11.1216 11.4623 11.2831 11.2743C11.4446 11.0863 11.4979 10.9528 11.6061 10.7375C11.7142 10.5222 11.6609 10.3342 11.5787 10.1735C11.4979 10.0113 10.8505 8.42691 10.5808 7.78252C10.3198 7.15823 10.0531 7.24147 9.85406 7.23286C9.64796 7.22447 9.4417 7.22064 9.23544 7.22137C9.07142 7.22553 8.91003 7.26338 8.7614 7.33253C8.61276 7.40168 8.48008 7.50064 8.37168 7.62322C8.07463 7.94613 7.23971 8.72399 7.23971 10.3084C7.23971 11.8928 8.39908 13.4241 8.56058 13.6394C8.72208 13.8547 10.8418 17.1053 14.0863 18.5003C14.8592 18.8318 15.462 19.0299 15.9307 19.1791C16.705 19.4245 17.4102 19.3886 17.9682 19.3068C18.5897 19.215 19.8817 18.529 20.1514 17.777C20.4211 17.0249 20.4211 16.3806 20.3403 16.2456C20.2596 16.1107 20.0418 16.0289 19.7202 15.8682Z" fill="#1E3869"/>
</svg>
