<svg width="65" height="65" viewBox="0 0 65 65" fill="none" xmlns="http://www.w3.org/2000/svg">
  <path d="M56.875 27.0833C56.875 46.0417 32.5 62.2917 32.5 62.2917C32.5 62.2917 8.125 46.0417 8.125 27.0833C8.125 20.6187 10.6931 14.4188 15.2643 9.84761C19.8355 5.27641 26.0353 2.70834 32.5 2.70834C38.9647 2.70834 45.1645 5.27641 49.7357 9.84761C54.3069 14.4188 56.875 20.6187 56.875 27.0833Z" stroke="#1E3869" stroke-width="5" stroke-linecap="round" stroke-linejoin="round" />
  <path d="M32.5 35.2083C36.9873 35.2083 40.625 31.5706 40.625 27.0833C40.625 22.596 36.9873 18.9583 32.5 18.9583C28.0127 18.9583 24.375 22.596 24.375 27.0833C24.375 31.5706 28.0127 35.2083 32.5 35.2083Z" stroke="#1E3869" stroke-width="5" stroke-linecap="round" stroke-linejoin="round" />
</svg>