<svg width="18" height="22" viewBox="0 0 18 22" fill="none" xmlns="http://www.w3.org/2000/svg">
<path d="M9.00937 0.5C6.82209 0.502481 4.72512 1.37247 3.17848 2.91911C1.63184 4.46575 0.76185 6.56273 0.759369 8.75C0.759369 15.8094 8.25937 21.1437 8.57812 21.3687C8.70586 21.4538 8.8559 21.4992 9.00937 21.4992C9.16283 21.4992 9.31287 21.4538 9.44062 21.3687C9.75937 21.1437 17.2594 15.8094 17.2594 8.75C17.2569 6.56273 16.3869 4.46575 14.8403 2.91911C13.2936 1.37247 11.1966 0.502481 9.00937 0.5ZM9.00937 5.75C9.60271 5.75 10.1827 5.92595 10.6761 6.25559C11.1694 6.58524 11.5539 7.05377 11.781 7.60195C12.0081 8.15013 12.0675 8.75333 11.9517 9.33527C11.836 9.91721 11.5502 10.4518 11.1307 10.8713C10.7111 11.2909 10.1766 11.5766 9.59464 11.6924C9.0127 11.8081 8.40949 11.7487 7.86132 11.5216C7.31314 11.2946 6.8446 10.9101 6.51496 10.4167C6.18531 9.92336 6.00937 9.34334 6.00937 8.75C6.00937 7.95435 6.32544 7.19129 6.88805 6.62868C7.45066 6.06607 8.21372 5.75 9.00937 5.75Z" fill="white"/>
</svg>
