<svg width="16" height="20" viewBox="0 0 16 20" fill="none" xmlns="http://www.w3.org/2000/svg">
<path d="M6.134 8.53364L7.7435 7.05764C8.18395 6.65357 8.49366 6.12713 8.63291 5.54584C8.77215 4.96456 8.73457 4.35493 8.525 3.79514L7.83725 1.95914C7.58058 1.2741 7.07234 0.71272 6.41611 0.389414C5.75988 0.0661081 5.00507 0.00521423 4.3055 0.219143C1.7315 1.00664 -0.247002 3.39914 0.361998 6.24089C0.762498 8.10989 1.52825 10.4559 2.981 12.9526C4.1983 15.0554 5.72972 16.9599 7.52225 18.6001C9.67475 20.5591 12.7497 20.0694 14.7282 18.2251C15.2586 17.7307 15.5804 17.0525 15.6281 16.329C15.6757 15.6054 15.4457 14.8909 14.9847 14.3311L13.724 12.7996C13.344 12.3378 12.8347 12.0001 12.2614 11.8298C11.6881 11.6596 11.077 11.6646 10.5065 11.8441L8.4245 12.5004C8.34425 12.4179 8.252 12.3196 8.15 12.2064C7.72196 11.7328 7.34325 11.2169 7.01975 10.6666C6.70503 10.1112 6.4477 9.52521 6.25175 8.91764C6.20986 8.79047 6.1706 8.66244 6.134 8.53364Z" fill="white"/>
</svg>
