<svg width="12" height="13" viewBox="0 0 12 13" fill="none" xmlns="http://www.w3.org/2000/svg">
<mask id="mask0_4903_14578" style="mask-type:alpha" maskUnits="userSpaceOnUse" x="0" y="0" width="12" height="13">
<path fill-rule="evenodd" clip-rule="evenodd" d="M3.30432 1.50636C3.98382 0.920342 4.93019 0.5 6 0.5C8.01768 0.5 9.69247 1.99958 9.87427 3.93424C11.0686 4.10308 12 5.10242 12 6.32955C12 7.67712 10.8767 8.75 9.51562 8.75H7.5C7.29289 8.75 7.125 8.58211 7.125 8.375C7.125 8.16789 7.29289 8 7.5 8H9.51562C10.4845 8 11.25 7.24132 11.25 6.32955C11.25 5.41777 10.4845 4.65909 9.51562 4.65909H9.14062V4.28409C9.14062 2.6192 7.74548 1.25 6 1.25C5.12818 1.25 4.3519 1.59329 3.79415 2.07432C3.22673 2.56368 2.92969 3.15372 2.92969 3.61591V3.95195L2.59566 3.98866C1.54778 4.10384 0.75 4.96449 0.75 5.98864C0.75 7.08869 1.67295 8 2.83594 8H4.5C4.70711 8 4.875 8.16789 4.875 8.375C4.875 8.58211 4.70711 8.75 4.5 8.75H2.83594C1.28065 8.75 0 7.52449 0 5.98864C0 4.66634 0.949396 3.57134 2.20667 3.29375C2.3136 2.64628 2.72989 2.00177 3.30432 1.50636Z" fill="black"/>
<path fill-rule="evenodd" clip-rule="evenodd" d="M5.73484 3.60984C5.88128 3.46339 6.11872 3.46339 6.26517 3.60984L8.51517 5.85984C8.66161 6.00628 8.66161 6.24372 8.51517 6.39016C8.36872 6.53661 8.13128 6.53661 7.98483 6.39016L6.375 4.78033V11.375C6.375 11.5821 6.20711 11.75 6 11.75C5.79289 11.75 5.625 11.5821 5.625 11.375V4.78033L4.01516 6.39016C3.86872 6.53661 3.63128 6.53661 3.48484 6.39016C3.33839 6.24372 3.33839 6.00628 3.48484 5.85984L5.73484 3.60984Z" fill="black"/>
</mask>
<g mask="url(#mask0_4903_14578)">
<rect y="0.5" width="12" height="12" fill="white"/>
</g>
</svg>
