<svg width="24" height="24" viewBox="0 0 24 24" fill="none" xmlns="http://www.w3.org/2000/svg">
<path d="M8.64248 14.3979C9.08813 14.3979 9.45071 14.7389 9.45071 15.1581C9.45071 15.5773 9.08813 15.9186 8.64248 15.9186C8.19682 15.9186 7.83409 15.5775 7.83409 15.1581C7.83409 14.7387 8.19659 14.3979 8.64248 14.3979Z" fill="#FC6262"/>
<path d="M9.20192 9.13443C9.95622 9.13443 10.5699 9.71146 10.5699 10.4209C10.5699 11.1303 9.95622 11.7076 9.20192 11.7076C8.44761 11.7076 7.83402 11.1303 7.83402 10.4209C7.83402 9.71146 8.44746 9.13443 9.20192 9.13443Z" fill="#FC6262"/>
<path d="M14.7979 12.2925C15.5521 12.2925 16.166 12.8695 16.166 13.5792C16.166 14.2885 15.5521 14.8655 14.7979 14.8655C14.0438 14.8655 13.43 14.2885 13.43 13.5792C13.43 12.8695 14.0435 12.2925 14.7979 12.2925Z" fill="#FC6262"/>
<path d="M23.1918 11.2398C23.6375 11.2398 24 11.5808 24 11.9999C24 12.419 23.6375 12.7603 23.1918 12.7603H22.0067C21.8482 12.7603 21.7151 12.8721 21.6976 13.0201C21.493 14.7442 20.7745 16.3709 19.6198 17.7236C19.5716 17.7811 19.5476 17.851 19.5516 17.9218C19.5557 17.9926 19.5877 18.0601 19.6422 18.1133L20.4855 18.9063C20.638 19.0547 20.7222 19.2459 20.7222 19.4439C20.7222 19.6419 20.638 19.8331 20.4855 19.9815C20.4142 20.0515 20.3263 20.1075 20.2277 20.1459C20.1292 20.1843 20.0222 20.2042 19.914 20.2042C19.8058 20.2042 19.6988 20.1843 19.6002 20.1459C19.5017 20.1075 19.4138 20.0515 19.3425 19.9815L18.4994 19.1884C18.4717 19.1617 18.4378 19.1404 18.4 19.1256C18.3621 19.1109 18.3211 19.1031 18.2795 19.1028C18.2076 19.1031 18.1383 19.126 18.0849 19.1673C16.6466 20.2533 14.9176 20.9293 13.0846 21.1215C12.9273 21.138 12.8082 21.2631 12.8082 21.4123V22.5271C12.8082 22.9463 12.4455 23.2871 11.9999 23.2871C11.5543 23.2871 11.1918 22.9463 11.1918 22.5271V21.4123C11.1918 21.2631 11.0727 21.138 10.9153 21.1215C9.08249 20.9293 7.35328 20.2533 5.91504 19.1671C5.86151 19.1259 5.79225 19.103 5.72039 19.1028C5.67883 19.1031 5.63779 19.1108 5.59992 19.1255C5.56206 19.1403 5.5282 19.1617 5.50054 19.1883L4.65744 19.9815C4.58611 20.0514 4.49823 20.1074 4.39967 20.1458C4.30111 20.1842 4.19416 20.204 4.08595 20.204C3.97775 20.204 3.87079 20.1842 3.77224 20.1458C3.67368 20.1074 3.5858 20.0514 3.51447 19.9815C3.36191 19.8331 3.27771 19.6419 3.27771 19.4439C3.27771 19.2459 3.36191 19.0547 3.51447 18.9063L4.35741 18.1132C4.41206 18.0601 4.44407 17.9926 4.44821 17.9218C4.45234 17.851 4.42834 17.7811 4.38015 17.7235C3.22548 16.3709 2.50683 14.7442 2.30233 13.02C2.28499 12.8721 2.15164 12.7602 1.9934 12.7602H0.808054C0.362397 12.7602 0 12.4192 0 11.9999C0 11.5805 0.362397 11.2398 0.808054 11.2398H1.9933C2.15154 11.2398 2.28489 11.1278 2.30223 10.98C2.50673 9.25579 3.22537 7.62943 4.38005 6.27648C4.42825 6.21892 4.45225 6.149 4.44811 6.07819C4.44398 6.00737 4.41196 5.93987 4.35731 5.88675L3.51436 5.0936C3.3618 4.94522 3.2776 4.75405 3.2776 4.55605C3.2776 4.35806 3.3618 4.16689 3.51436 4.0185C3.58564 3.94852 3.67351 3.89243 3.77207 3.85401C3.87063 3.81558 3.97762 3.7957 4.08585 3.7957C4.19408 3.7957 4.30107 3.81558 4.39963 3.85401C4.49819 3.89243 4.58606 3.94852 4.65734 4.0185L5.50043 4.81152C5.52807 4.83823 5.56191 4.85965 5.59978 4.87441C5.63765 4.88918 5.67871 4.89694 5.72029 4.89721C5.79214 4.89697 5.86139 4.87409 5.91493 4.83292C7.3532 3.7467 9.08239 3.07086 10.9152 2.87852C11.0726 2.86205 11.1917 2.73702 11.1917 2.58792V1.47296C11.1917 1.05376 11.5543 0.712891 11.9998 0.712891C12.4453 0.712891 12.8081 1.05376 12.8081 1.47296V2.58792C12.8081 2.73691 12.9272 2.86207 13.0845 2.87852C14.9175 3.07086 16.6465 3.74668 18.0848 4.83274C18.1382 4.87403 18.2075 4.89697 18.2794 4.89719C18.321 4.89689 18.362 4.88911 18.3999 4.87435C18.4378 4.85959 18.4716 4.83818 18.4993 4.8115L19.3425 4.01848C19.4138 3.94849 19.5017 3.8924 19.6003 3.85398C19.6988 3.81555 19.8058 3.79567 19.9141 3.79567C20.0223 3.79567 20.1293 3.81555 20.2279 3.85398C20.3265 3.8924 20.4143 3.94849 20.4856 4.01848C20.6381 4.16691 20.7222 4.35806 20.7222 4.55603C20.7222 4.754 20.6381 4.94515 20.4856 5.09358L19.6422 5.88672C19.5877 5.93989 19.5557 6.00742 19.5516 6.07822C19.5476 6.14903 19.5716 6.21892 19.6198 6.27645C20.7742 7.62912 21.4929 9.25533 21.6976 10.98C21.7151 11.1278 21.8482 11.2398 22.0067 11.2398L23.1918 11.2398ZM18.7151 12.7603C18.2693 12.7603 17.9067 12.4192 17.9067 11.9999C17.9067 11.5806 18.2693 11.2398 18.7151 11.2398H19.7449C19.7904 11.2394 19.8352 11.2301 19.876 11.2126C19.9167 11.1951 19.9522 11.1699 19.9799 11.1388C20.0094 11.106 20.0311 11.0684 20.0435 11.0283C20.056 10.9881 20.059 10.9463 20.0524 10.9052C19.5364 7.57587 16.7037 4.91114 13.164 4.42574C13.0447 4.42271 12.9727 4.44772 12.9157 4.49382C12.8813 4.52255 12.8541 4.55696 12.8356 4.59498C12.8171 4.633 12.8078 4.67383 12.8081 4.71503V6.7366C12.8081 7.15567 12.4454 7.49667 11.9998 7.49667C11.5542 7.49667 11.1917 7.15567 11.1917 6.7366V4.71503C11.1921 4.67383 11.1827 4.633 11.1642 4.59498C11.1458 4.55696 11.1185 4.52255 11.0842 4.49382C11.0296 4.44852 10.9568 4.42306 10.8809 4.42272C7.29647 4.91114 4.4636 7.57587 3.94726 10.9052C3.94077 10.9463 3.94383 10.9881 3.95628 11.0282C3.96872 11.0683 3.9903 11.1059 4.01976 11.1388C4.04751 11.1699 4.08312 11.1951 4.12389 11.2126C4.16467 11.2301 4.20954 11.2394 4.25511 11.2398H5.2848C5.73063 11.2398 6.09288 11.5808 6.09288 11.9999C6.09288 12.419 5.73063 12.7603 5.2848 12.7603H4.25498C4.20942 12.7607 4.16456 12.77 4.12379 12.7875C4.08302 12.805 4.04741 12.8302 4.01964 12.8613C3.99016 12.8941 3.96858 12.9317 3.95613 12.9719C3.94368 13.012 3.94063 13.0538 3.94713 13.0949C4.46347 16.4247 7.29634 19.089 10.836 19.5741C10.9549 19.5772 11.0273 19.5519 11.0842 19.506C11.1185 19.4772 11.1457 19.4428 11.1642 19.4048C11.1827 19.3668 11.192 19.326 11.1917 19.2848V17.2635C11.1917 16.8443 11.5543 16.5034 11.9998 16.5034C12.4453 16.5034 12.8081 16.8443 12.8081 17.2635V19.2849C12.8078 19.3261 12.8172 19.3669 12.8356 19.4049C12.8541 19.4429 12.8814 19.4773 12.9157 19.5061C12.9704 19.5513 13.0432 19.5768 13.1191 19.5773C16.7037 19.0891 19.5364 16.4248 20.0524 13.0951C20.059 13.054 20.056 13.0121 20.0435 12.972C20.0311 12.9319 20.0094 12.8943 19.9799 12.8614C19.9522 12.8304 19.9166 12.8052 19.8759 12.7877C19.8352 12.7702 19.7904 12.7609 19.7449 12.7604L18.7151 12.7603Z" fill="#FC6262"/>
<path d="M15.3574 8.08146C15.8031 8.08146 16.166 8.42277 16.166 8.84199C16.166 9.26122 15.8032 9.60207 15.3574 9.60207C14.9117 9.60207 14.5491 9.2612 14.5491 8.84199C14.5491 8.42279 14.9119 8.08146 15.3574 8.08146Z" fill="#FC6262"/>
</svg>
