<svg width="648" height="584" viewBox="0 0 648 584" fill="none" xmlns="http://www.w3.org/2000/svg">
<path d="M43.8847 156.983C48.1447 150.193 54.8147 149.153 60.0147 149.853C64.5247 150.463 66.4647 155.023 63.4247 158.483C59.9247 162.483 56.2047 163.703 55.8947 167.973H57.0647C63.2647 167.973 79.7947 167.443 83.0647 167.343C82.9619 165.892 82.5853 164.473 81.9547 163.163C80.5147 160.163 76.6247 157.773 73.5447 156.633C71.4847 155.873 67.9647 154.893 67.3547 152.413C65.9647 146.743 73.2747 144.143 77.1247 144.033C84.3647 143.813 90.7747 150.383 93.5147 156.143C95.199 159.58 96.3586 163.251 96.9547 167.033H97.9547L103.445 166.913L103.335 167.413C108.085 195.273 148.595 200.693 167.775 206.693C186.955 212.693 203.555 222.633 209.035 231.763C217.655 246.093 218.405 255.543 218.405 255.543V257.173C222.765 255.246 227.098 253.436 231.405 251.743L231.805 251.653C232.945 249.303 235.525 247.303 240.015 245.863C243.827 244.821 247.775 244.36 251.725 244.493C256.275 244.493 257.515 243.723 259.505 247.223L262.685 246.223C262.555 245.993 262.425 245.773 262.305 245.543C263.171 244.256 264.177 243.069 265.305 242.003L265.055 241.263C251.295 213.203 231.695 208.263 220.665 203.463C210.195 198.933 192.155 192.903 181.585 187.863C173.505 184.003 163.695 174.583 160.845 166.463V166.093L172.165 166.013C182.795 166.013 195.785 165.823 222.165 165.823C248.545 165.823 227.575 129.113 213.605 115.193C205.085 106.703 194.605 99.6527 183.065 102.193C163.705 106.483 168.925 125.453 169.285 141.703C160.795 128.643 139.595 81.7027 117.355 86.4727C104.145 89.3027 109.585 112.083 113.355 120.273C101.955 106.203 52.1047 85.7627 33.7447 96.7427C13.7447 108.683 40.1647 125.043 56.5047 137.313C44.8147 131.413 38.5547 130.313 25.5047 131.683C14.6947 132.853 4.6347 135.493 2.3847 147.423C-0.245302 161.343 11.0047 167.423 24.0747 167.423C28.7847 167.423 33.2447 167.563 39.2047 167.703H40.2047C40.2647 164.373 41.3647 160.963 43.8847 156.983Z" fill="#56B7CD"/>
<path d="M647.265 107.743C643.145 91.0128 607.435 91.5028 595.325 98.9428C606.735 88.9428 615.385 69.1028 606.835 56.7328C598.285 44.3628 586.265 41.9328 568.495 43.9728C550.725 46.0128 537.385 53.6728 512.065 70.7128C525.245 46.7128 519.885 2.93282 485.425 2.77282C461.865 2.66282 438.915 13.0628 427.155 26.2428C422.885 17.0428 413.845 5.11282 396.455 1.38282C375.715 -3.06718 360.015 3.97281 353.635 11.8428C347.255 19.7128 353.695 37.1828 358.505 46.0128C363.315 54.8428 378.575 69.2028 399.415 81.1828C380.625 72.5628 366.025 70.1828 349.215 69.1828C332.885 68.2528 318.865 68.7928 302.655 72.0228C297.185 73.1128 286.345 74.8328 285.935 81.7628C285.375 91.2628 308.495 93.9528 315.495 95.6728C300.925 92.4728 258.355 95.0128 257.115 116.143C256.365 128.113 268.305 132.283 275.305 133.283C276.013 130.992 277.243 128.896 278.899 127.161C280.554 125.425 282.589 124.098 284.845 123.283C297.755 118.493 312.975 119.583 325.475 125.083C331.375 127.683 334.405 132.873 335.775 138.653C358.775 137.953 381.675 137.653 404.605 137.383C411.705 159.053 407.215 181.313 398.915 200.163C388.035 224.893 358.495 227.083 339.235 242.263C340.486 243.751 341.142 245.65 341.075 247.593L343.845 248.423C347.155 245.273 352.435 244.963 357.395 245.983C361.715 246.873 367.865 247.533 369.145 251.543L369.385 251.473C373.719 252.569 377.989 253.904 382.175 255.473H382.245C391.535 245.403 399.245 237.393 407.745 229.653C436.885 202.983 458.595 180.903 492.885 162.723C513.475 151.803 522.595 146.063 533.705 134.933C553.475 134.103 573.245 132.933 593.025 131.203C607.075 130.043 653.045 131.193 647.265 107.743ZM483.075 136.393C482.325 145.243 479.615 154.183 473.185 160.393C465.265 167.833 456.917 174.805 448.185 181.273C441.105 186.553 433.125 193.023 427.185 199.473C433.605 191.473 437.625 178.783 441.605 169.343C446.355 158.093 449.225 147.233 449.355 137.423V136.973C462.285 136.823 468.215 136.643 481.135 136.373L483.075 136.393Z" fill="#56B7CD"/>
<path d="M440.815 570.883C443.485 578.403 458.025 581.653 462.465 573.503C467.775 563.773 453.725 558.083 445.465 558.623C436.865 539.423 429.315 525.273 408.875 514.543C383.075 500.993 356.515 494.633 326.805 494.683C295.805 494.743 263.435 495.843 232.725 499.263C210.305 501.753 188.235 508.463 170.525 521.643C160.525 529.073 147.965 544.253 149.815 556.863C142.745 556.323 135.155 567.543 140.035 572.533C144.575 577.163 153.655 573.083 158.285 570.883C189.635 579.483 230.005 578.883 263.035 580.563C307.405 582.863 352.345 580.813 396.325 578.763C408.035 578.223 433.245 580.493 440.815 570.883Z" fill="#FAB550" stroke="#FAB550" stroke-width="4" stroke-linecap="round" stroke-linejoin="round"/>
<path d="M184.705 549.863C218.995 530.013 261.405 521.863 301.385 521.863C328.005 521.863 354.275 524.603 379.725 532.413C391.185 535.933 403.725 543.673 413.505 549.633" stroke="#1E3869" stroke-width="4" stroke-linecap="round" stroke-linejoin="round"/>
<path d="M272.675 503.643C283.116 505.189 293.293 508.174 302.915 512.513" stroke="#1E3869" stroke-width="4" stroke-linecap="round" stroke-linejoin="round"/>
<path d="M308.635 504.043C313.395 505.153 317.535 507.473 321.935 509.483" stroke="#1E3869" stroke-width="4" stroke-linecap="round" stroke-linejoin="round"/>
<path d="M446.895 568.623C448.171 570.29 449.965 571.486 451.995 572.023" stroke="#1E3869" stroke-width="4" stroke-linecap="round" stroke-linejoin="round"/>
<path d="M147.745 568.623C148.459 568.461 149.132 568.15 149.718 567.711C150.303 567.272 150.79 566.713 151.145 566.073" stroke="#1E3869" stroke-width="4" stroke-linecap="round" stroke-linejoin="round"/>
<path d="M149.295 557.573C149.555 562.213 151.385 567.813 156.095 569.473" stroke="#1E3869" stroke-width="4" stroke-linecap="round" stroke-linejoin="round"/>
<path d="M443.215 571.283C446.155 568.603 448.025 565.353 447.215 561.403" stroke="#1E3869" stroke-width="4" stroke-linecap="round" stroke-linejoin="round"/>
<path d="M306.615 258.473L303.615 255.543L301.725 257.543C300.035 260.143 297.285 263.703 293.785 265.763C296.385 273.293 307.925 277.363 314.785 266.853C311.697 264.44 308.949 261.621 306.615 258.473Z" fill="#F15D4A" stroke="#F15D4A" stroke-width="4" stroke-linecap="round" stroke-linejoin="round"/>
<path d="M301.875 314.933C302.123 315.64 302.297 316.37 302.395 317.113V316.833C303.395 314.493 308.245 307.903 314.345 299.003L315.285 297.003C314.855 292.093 312.925 287.483 311.515 283.543C310.585 280.973 307.735 272.643 307.735 272.643L300.075 272.253C298.725 277.253 292.075 292.153 290.375 298.033C294.735 303.493 300.135 310.153 301.875 314.933Z" fill="#F15D4A" stroke="#F15D4A" stroke-width="4" stroke-linecap="round" stroke-linejoin="round"/>
<path d="M334.864 236.763C334.864 236.763 335.164 211.763 335.324 206.983C338.904 210.073 344.384 210.213 346.884 202.803C347.984 199.573 348.364 195.613 345.594 193.383C342.824 191.153 339.704 191.663 336.844 192.383C336.994 187.883 337.114 183.383 337.124 178.813C337.124 164.993 337.204 159.883 336.724 146.023C336.434 137.643 333.814 128.793 325.474 125.123C312.974 119.623 297.754 118.533 284.844 123.323C276.254 126.503 274.224 134.463 273.364 142.813C272.304 153.063 271.844 155.703 271.364 166.023C270.974 174.243 270.884 182.493 270.934 190.763C264.554 189.253 257.044 190.253 257.984 199.923C258.984 209.923 265.764 208.923 271.114 204.843C271.344 217.053 271.694 224.343 271.654 236.543" stroke="#1E3869" stroke-width="4" stroke-linecap="round" stroke-linejoin="round"/>
<path d="M294.225 190.763C297.142 192.682 300.573 193.672 304.065 193.603C308.315 193.603 312.125 192.073 313.225 191.153" stroke="#1E3869" stroke-width="4" stroke-linecap="round" stroke-linejoin="round"/>
<path d="M262.364 245.523C264.434 242.203 268.744 239.373 270.814 236.083C277.864 241.763 303.654 254.263 303.654 254.263C303.654 254.263 317.034 247.263 322.504 244.613C326.844 242.523 330.724 239.563 335.034 237.363C338.084 240.793 341.834 244.363 341.034 248.113C340.114 252.473 336.824 256.663 334.864 260.593C332.815 264.734 329.225 267.907 324.864 269.433C315.154 272.813 303.634 254.263 303.634 254.263C303.634 254.263 293.834 274.543 281.064 264.703C274.364 259.493 266.364 253.183 262.364 245.523Z" stroke="#1E3869" stroke-width="4" stroke-linecap="round" stroke-linejoin="round"/>
<path d="M317.625 352.653C318.275 349.143 323.225 341.453 325.145 338.393C330.335 330.093 335.425 322.393 340.945 314.323C346.465 306.253 354.104 297.783 355.854 288.023C356.674 283.393 354.424 273.713 348.474 278.563C354.474 273.253 368.995 262.983 369.395 253.473C369.635 247.763 362.325 247.053 357.395 246.043C351.145 244.763 344.395 245.573 341.705 251.533C337.135 261.783 335.365 272.083 332.125 282.533C328.626 293.302 325.79 304.276 323.634 315.393C319.364 338.973 316.224 362.673 312.694 386.313C311.694 392.793 311.184 406.113 310.854 412.713" stroke="#1E3869" stroke-width="4" stroke-linecap="round" stroke-linejoin="round"/>
<path d="M285.594 413.083C284.974 410.083 284.514 387.353 284.204 381.723C283.564 370.013 283.204 358.323 281.934 346.593C279.934 328.103 275.544 310.233 271.284 292.153C268.904 282.073 267.124 271.813 264.004 261.893C262.594 257.403 262.074 252.023 259.894 247.893C257.714 243.763 256.574 244.503 251.764 244.523C247.814 244.39 243.867 244.851 240.054 245.893C217.654 253.033 242.954 274.373 254.764 282.073C247.034 280.603 238.024 283.073 241.194 291.223C245.684 302.733 252.624 310.013 259.544 319.993C267.104 330.913 276.884 349.993 283.184 361.993" stroke="#1E3869" stroke-width="4" stroke-linecap="round" stroke-linejoin="round"/>
<path d="M349.215 302.713C349.215 302.713 361.125 303.843 367.795 305.053" stroke="#1E3869" stroke-width="4" stroke-linecap="round" stroke-linejoin="round"/>
<path d="M262.165 249.013C268.025 262.573 277.605 280.773 286.215 292.713C290.325 298.413 299.505 308.433 301.875 314.933C303.105 318.283 302.525 323.453 302.345 326.933C302.005 333.823 301.165 340.533 300.815 347.423C300.235 358.903 299.195 370.213 298.095 381.613C297.595 386.783 298.215 387.953 293.805 388.293C290.805 388.523 285.355 387.193 284.425 387.293" stroke="#1E3869" stroke-width="4" stroke-linecap="round" stroke-linejoin="round"/>
<path d="M302.364 316.833C304.654 311.603 325.804 285.313 337.974 259.273" stroke="#1E3869" stroke-width="4" stroke-linecap="round" stroke-linejoin="round"/>
<path d="M298.515 386.853C299.855 388.403 306.515 387.923 311.405 387.853" stroke="#1E3869" stroke-width="4" stroke-linecap="round" stroke-linejoin="round"/>
<path d="M294.095 343.583V342.583" stroke="#1E3869" stroke-width="4" stroke-linecap="round" stroke-linejoin="round"/>
<path d="M293.165 361.943L293.215 360.943" stroke="#1E3869" stroke-width="4" stroke-linecap="round" stroke-linejoin="round"/>
<path d="M292.234 380.283L292.284 379.283" stroke="#1E3869" stroke-width="4" stroke-linecap="round" stroke-linejoin="round"/>
<path d="M369.364 251.533C388.514 256.273 410.094 267.533 424.844 279.633C432.844 286.173 437.944 290.223 446.334 296.103C453.134 300.863 463.004 306.443 463.654 316.103C463.764 312.863 462.524 305.233 467.424 305.163C472.844 305.083 474.274 316.273 475.234 319.763C474.524 313.763 474.174 299.173 484.234 307.993C471.734 303.993 501.234 262.823 506.504 252.293C511.774 241.763 521.364 227.143 521.364 227.143C524.754 227.043 543.564 239.143 548.364 241.883C556.224 246.463 565.364 250.883 572.104 256.883C564.584 274.723 552.104 297.513 541.934 314.053C533.764 327.173 518.364 355.283 504.974 363.823C492.244 371.993 480.314 370.513 466.364 369.063C457.954 368.183 449.254 361.783 441.864 357.523C433.304 352.603 406.714 338.633 400.094 334.373C395.094 331.173 384.194 325.053 384.194 325.053C384.194 325.053 384.034 339.543 384.034 346.353C384.034 351.113 383.524 356.353 383.414 360.983" stroke="#1E3869" stroke-width="4" stroke-linecap="round" stroke-linejoin="round"/>
<path d="M351.465 374.383C360.825 371.583 370.995 359.603 381.835 361.553C395.185 363.963 370.835 378.433 367.195 380.073C371.115 375.293 382.925 368.443 389.145 371.923C389.435 375.023 387.395 376.073 385.565 378.183C381.565 382.793 377.345 386.323 374.345 391.883" stroke="#1E3869" stroke-width="4" stroke-linecap="round" stroke-linejoin="round"/>
<path d="M524.515 227.613C524.515 227.613 530.105 217.613 534.025 212.783C545.485 215.253 570.565 233.453 572.935 236.863L565.135 250.743" stroke="#1E3869" stroke-width="4" stroke-linecap="round" stroke-linejoin="round"/>
<path d="M265.775 412.063C262.125 415.243 259.245 419.753 256.295 423.063C250.115 430.063 243.725 436.883 237.385 443.723C232.535 448.953 227.975 454.493 222.835 459.453C220.375 461.823 214.285 468.293 212.305 471.353C210.325 474.413 226.215 472.113 229.655 468.233C239.195 457.503 248.285 446.803 257.655 435.963C260.165 433.073 274.245 416.533 279.145 410.773C279.302 410.587 279.405 410.361 279.443 410.12C279.48 409.88 279.449 409.633 279.355 409.409C279.261 409.184 279.107 408.99 278.909 408.847C278.711 408.705 278.478 408.62 278.235 408.603C276.295 408.408 274.342 408.361 272.395 408.463C269.922 409.09 267.646 410.328 265.775 412.063Z" fill="#1E3869" stroke="#1E3869" stroke-width="4" stroke-linecap="round" stroke-linejoin="round"/>
<path d="M237.465 459.393C233.725 468.393 236.465 483.473 246.815 481.603C253.465 480.403 255.305 463.153 248.225 462.083C243.825 461.413 244.745 466.923 246.165 469.573C252.345 481.133 264.895 472.183 260.365 461.473C258.265 456.473 250.185 451.733 245.585 450.013" stroke="#1E3869" stroke-width="4" stroke-linecap="round" stroke-linejoin="round"/>
<path d="M278.715 412.793C300.805 413.913 347.015 412.793 347.015 412.793" stroke="#1E3869" stroke-width="4" stroke-linecap="round" stroke-linejoin="round"/>
<path d="M494.865 368.493C507.945 368.833 527.775 369.993 539.565 374.883C551.755 379.883 561.205 387.383 566.115 400.223C572.275 416.343 569.895 435.223 560.765 449.763C555.765 457.703 548.905 464.763 539.505 466.663C529.095 468.773 518.125 471.183 507.415 471.573C477.055 472.683 446.625 473.203 416.225 474.713C389.735 476.023 362.085 476.013 334.145 472.993C335.085 458.533 339.305 446.993 341.355 436.553C342.9 428.671 344.954 420.898 347.505 413.283C348.505 410.513 349.345 407.283 352.325 406.073C357.115 404.173 367.325 404.673 372.645 404.433C394.725 403.433 416.275 400.763 438.325 399.923C461.625 399.023 495.885 395.923 517.215 407.053C513.705 406.313 506.685 401.423 508.395 398.233C510.105 395.043 516.175 397.093 520.165 397.643" stroke="#1E3869" stroke-width="4" stroke-linecap="round" stroke-linejoin="round"/>
<path d="M388.045 375.743C388.045 375.743 426.805 371.293 437.705 370.433C447.345 369.673 453.575 368.853 463.235 368.493" stroke="#1E3869" stroke-width="4" stroke-linecap="round" stroke-linejoin="round"/>
<path d="M260.864 462.893C272.196 464.456 283.625 465.204 295.064 465.133C305.944 465.133 333.904 466.593 333.904 466.593" stroke="#1E3869" stroke-width="4" stroke-linecap="round" stroke-linejoin="round"/>
<path d="M223.675 325.283C220.575 324.853 219.435 329.133 219.405 332.453C221.315 332.023 223.505 330.923 225.705 331.303C217.795 332.743 218.825 342.013 218.525 348.543C218.315 353.203 218.135 361.223 220.775 365.053" stroke="#1E3869" stroke-width="4" stroke-linecap="round" stroke-linejoin="round"/>
<path d="M241.595 372.283C237.215 370.053 214.785 359.983 213.095 367.873C212.025 372.873 219.505 375.443 222.965 377.033C229.375 380.033 233.835 383.893 239.505 388.263C243.245 391.401 246.659 394.909 249.695 398.733" stroke="#1E3869" stroke-width="4" stroke-linecap="round" stroke-linejoin="round"/>
<path d="M231.444 251.743C210.587 259.946 190.562 270.125 171.644 282.143C163.974 287.043 157.514 292.933 154.904 302.013C155.964 299.083 159.054 292.573 156.074 290.083C152.794 287.363 147.854 291.433 146.294 294.203C144.734 296.973 146.484 300.503 149.864 298.303C153.654 295.823 154.924 287.413 153.004 284.103C150.214 279.273 146.344 272.953 143.164 268.543C140.214 264.453 136.894 260.543 134.214 256.273C129.764 249.193 110.114 218.753 110.114 218.753C110.114 218.753 84.5044 233.523 73.8244 240.473C69.5444 243.263 60.6944 248.403 58.0244 252.073C63.5844 263.283 68.4944 274.553 74.7444 285.373C83.1344 299.893 91.2844 313.853 99.3644 328.543C103.839 336.635 108.924 344.374 114.574 351.693C118.884 357.263 122.824 362.333 127.754 367.033C134.574 373.543 150.914 375.133 159.364 372.363C169.364 369.093 179.104 359.933 187.654 353.963C194.654 349.063 216.434 332.413 219.714 329.593" stroke="#1E3869" stroke-width="4" stroke-linecap="round" stroke-linejoin="round"/>
<path d="M62.2144 246.453C62.2144 246.453 55.5544 235.323 53.7344 230.093C62.8744 224.543 69.3844 219.643 78.7344 214.293C85.1044 210.643 90.9244 207.833 97.1844 204.443C99.9144 208.313 106.124 219.833 106.124 219.833" stroke="#1E3869" stroke-width="4" stroke-linecap="round" stroke-linejoin="round"/>
<path d="M90.9951 205.433C89.8651 203.433 85.1451 196.183 86.6951 193.913C89.0451 190.473 92.9851 186.703 94.8451 182.583C98.7851 173.823 97.7051 164.943 93.5251 156.163C90.7851 150.403 84.3751 143.833 77.1351 144.053C73.2851 144.163 65.9751 146.763 67.3651 152.433C67.9751 154.913 71.4951 155.893 73.5551 156.653C76.6351 157.793 80.5551 160.153 81.9651 163.183C85.1751 169.963 81.2951 176.263 74.8051 179.573C67.8751 183.113 59.3451 180.893 56.8051 173.293C53.7551 164.203 58.8051 163.763 63.4351 158.483C66.4351 155.023 64.5351 150.483 60.0251 149.853C54.8251 149.153 48.1551 150.193 43.8951 156.983C39.6351 163.773 39.3151 168.983 41.5051 175.043" stroke="#1E3869" stroke-width="4" stroke-linecap="round" stroke-linejoin="round"/>
<path d="M30.0546 184.183C29.0546 173.423 43.4046 174.183 49.4946 177.343C52.2646 178.783 57.3646 181.593 58.7046 185.133C60.0446 188.673 58.8446 194.753 51.0246 191.863" stroke="#1E3869" stroke-width="4" stroke-linecap="round" stroke-linejoin="round"/>
<path d="M33.0746 196.353C40.0246 200.303 58.5446 197.213 48.3046 187.893C43.7246 183.723 23.0846 182.113 26.0046 193.403C19.0646 190.293 -2.08543 190.253 3.56457 199.543C6.81457 204.863 13.7146 203.003 19.1246 203.223C24.7246 203.453 36.7646 206.313 41.2446 209.683C45.9746 213.243 52.5846 218.123 58.3446 226.683" stroke="#1E3869" stroke-width="4" stroke-linecap="round" stroke-linejoin="round"/>
<path d="M537.555 211.783C538.555 209.683 543.985 201.323 542.335 199.113C539.845 195.783 536.725 192.183 534.695 188.113C530.385 179.523 531.095 170.603 534.905 161.663C537.395 155.783 543.535 148.963 550.775 148.863C554.625 148.863 562.035 151.113 560.885 156.863C560.375 159.363 556.885 160.493 554.885 161.343C551.885 162.613 548.065 165.133 546.755 168.223C543.835 175.123 547.975 181.223 554.595 184.293C561.665 187.533 570.095 184.963 572.325 177.293C574.995 168.073 569.935 167.843 565.085 162.763C561.905 159.433 563.655 154.763 568.085 154.003C573.255 153.083 579.965 153.843 584.505 160.453C589.045 167.063 589.575 172.213 587.645 178.393" stroke="#1E3869" stroke-width="4" stroke-linecap="round" stroke-linejoin="round"/>
<path d="M599.484 187.023C600.034 176.233 585.734 177.603 579.784 181.023C577.074 182.573 572.094 185.593 570.904 189.183C569.714 192.773 571.174 198.803 578.904 195.583" stroke="#1E3869" stroke-width="4" stroke-linecap="round" stroke-linejoin="round"/>
<path d="M596.985 199.283C590.205 203.523 571.575 201.213 581.405 191.463C585.815 187.103 606.405 184.643 603.925 196.033C610.925 195.173 631.865 191.723 626.595 201.233C623.595 206.693 616.595 205.113 611.205 205.563C605.625 206.023 593.715 209.383 589.375 212.943C584.805 216.703 577.435 225.723 572.035 234.463" stroke="#1E3869" stroke-width="4" stroke-linecap="round" stroke-linejoin="round"/>
<path d="M134.535 371.283C121.685 371.283 109.825 369.463 104.235 369.863C97.6046 370.343 71.0346 372.233 64.2346 373.603C42.5446 377.943 33.3746 392.353 30.4646 411.603C28.9246 421.793 28.1146 434.273 33.5746 443.603C38.7446 452.383 51.7246 456.103 60.9446 458.163C74.9446 461.303 89.5846 461.753 103.945 462.483C133.495 463.983 218.025 464.563 218.025 464.563" stroke="#1E3869" stroke-width="4" stroke-linecap="round" stroke-linejoin="round"/>
<path d="M219.824 375.633C214.124 374.013 192.714 372.633 176.394 371.933C172.654 371.773 168.454 371.683 162.574 371.583" stroke="#1E3869" stroke-width="4" stroke-linecap="round" stroke-linejoin="round"/>
<path d="M100.454 386.963C96.1043 388.533 91.3243 387.443 87.0343 386.273C88.9143 386.973 96.2043 388.273 96.6843 392.013C97.5943 399.013 80.8843 397.813 77.1143 400.563C80.9443 401.093 85.3343 399.013 89.0543 398.143C94.0543 396.983 98.9543 396.483 103.994 395.673C113.494 394.283 123.115 393.905 132.694 394.543C166.464 396.173 181.194 396.873 214.804 400.143C220.894 400.743 227.114 401.423 233.024 402.513C234.024 409.513 233.804 420.663 233.814 428.273C233.814 433.973 232.574 443.693 232.294 449.393" stroke="#1E3869" stroke-width="4" stroke-linecap="round" stroke-linejoin="round"/>
<path d="M234.165 412.523C234.165 412.523 256.055 413.203 263.755 414.023" stroke="#1E3869" stroke-width="4" stroke-linecap="round" stroke-linejoin="round"/>
<path d="M315.805 172.223C317.915 175.033 323.585 174.563 325.235 171.543" stroke="#1E3869" stroke-width="4" stroke-linecap="round" stroke-linejoin="round"/>
<path d="M275.305 173.223C275.305 181.783 290.445 187.903 297.065 178.723C304.225 168.803 295.575 157.883 284.235 160.883C280.035 161.993 275.365 164.653 275.305 173.223Z" stroke="#1E3869" stroke-width="4" stroke-linecap="round" stroke-linejoin="round"/>
<path d="M332.304 173.373C332.304 181.943 317.074 187.973 310.504 178.763C303.404 168.763 312.114 157.933 323.444 160.993C327.624 162.123 332.364 164.813 332.304 173.373Z" stroke="#1E3869" stroke-width="4" stroke-linecap="round" stroke-linejoin="round"/>
<path d="M275.305 171.263L268.305 171.783" stroke="#1E3869" stroke-width="4" stroke-linecap="round" stroke-linejoin="round"/>
<path d="M300.035 169.363C302.648 168.735 305.372 168.735 307.985 169.363" stroke="#1E3869" stroke-width="4" stroke-linecap="round" stroke-linejoin="round"/>
<path d="M291.365 172.153C289.235 174.953 283.575 174.453 281.935 171.423" stroke="#1E3869" stroke-width="4" stroke-linecap="round" stroke-linejoin="round"/>
<path d="M332.245 171.413L339.245 171.973" stroke="#1E3869" stroke-width="4" stroke-linecap="round" stroke-linejoin="round"/>
<path d="M295.024 325.283V324.283" stroke="#1E3869" stroke-width="4" stroke-linecap="round" stroke-linejoin="round"/>
<path d="M381.625 325.413C382.657 325.623 383.731 325.468 384.661 324.973C385.592 324.479 386.321 323.676 386.725 322.703" stroke="#1E3869" stroke-width="4" stroke-linecap="round" stroke-linejoin="round"/>
<path d="M271.835 158.123C278.985 153.733 281.835 139.013 281.665 134.183C286.065 140.773 296.805 139.743 304.045 139.743C312.045 139.743 320.175 139.043 327.045 135.343C327.475 140.943 330.955 152.593 335.685 158.123" stroke="#1E3869" stroke-width="4" stroke-linecap="round" stroke-linejoin="round"/>
</svg>
