<svg width="510" height="472" viewBox="0 0 510 472" fill="none" xmlns="http://www.w3.org/2000/svg">
<path d="M343.57 237.043C336.944 232.875 330.478 230.279 327.83 222.408C327.715 222.069 327.642 221.718 327.612 221.361C327.401 221.303 325.044 218.728 325.117 217.23C324.891 216.626 327.786 215.68 327.626 215.047C327.357 213.985 325.211 210.596 325.793 209.592C325.793 209.316 329.488 209.163 330.674 209.425C335.613 210.545 340.355 211.84 345.811 212.196C345.6 211.556 347.2 210.123 347.113 209.454C346.603 205.482 344.101 201.606 342.414 198.027C338.932 190.559 334.875 183.373 330.281 176.533C328.463 175.762 326.826 174.918 325.321 175.995C317.53 181.566 317.407 191.233 315.646 199.998C315.566 200.107 314.657 207.505 314.919 210.967C315.093 214.758 314.971 218.556 314.555 222.328C314.519 222.714 313.959 240.178 313.959 240.178C314.204 241.311 314.653 242.391 315.283 243.364C318.92 249.503 322.557 251.685 322.557 251.685C329.983 250.776 346.102 248.776 353.55 247.554C355.172 247.285 357.252 246.775 358.22 245.968C353.557 243.488 348.015 239.844 343.57 237.043Z" fill="#56B7CD"/>
<path d="M499.322 412.23C499.322 378.626 497.919 345.05 496.893 311.467C495.933 279.943 497.329 249.11 497.329 217.695C497.329 203.322 496.602 183.945 496.602 174.561C496.602 165.178 496.42 128.868 495.3 106.436C494.507 90.5572 494.304 70.5908 494.304 55.9561C494.304 55.9561 481.691 55.4687 473.115 55.7815C471.733 55.8251 470.351 55.8615 468.962 55.8906V56.6834C468.962 56.6834 469.158 92.8048 469.158 110.509C469.158 144.106 470.555 177.689 471.58 211.272C472.541 242.796 471.144 273.63 471.144 305.037C471.144 319.418 471.871 338.788 471.871 348.178C471.871 357.568 472.061 393.864 473.181 416.296C473.966 432.175 474.177 451.414 474.177 466.056H499.512C499.512 466.056 499.322 429.898 499.322 412.23Z" fill="#442257"/>
<path d="M468.962 56.6836C468.962 56.6836 469.158 92.8049 469.158 110.509C469.158 144.106 470.555 177.689 471.58 211.272C472.54 242.796 471.144 273.63 471.144 305.038C471.144 319.418 471.871 338.788 471.871 348.178C471.871 357.568 472.06 393.864 473.181 416.296C473.966 432.175 474.177 451.414 474.177 466.056H462.896C462.896 451.414 462.692 432.175 461.899 416.296C460.786 393.864 460.597 357.561 460.597 348.178C460.597 338.795 459.87 319.418 459.87 305.038C459.87 273.63 461.266 242.796 460.306 211.272C459.28 177.689 457.877 144.106 457.877 110.509C457.877 92.834 457.688 56.6836 457.688 56.6836H468.962Z" fill="#FAB550"/>
<path d="M327.641 252.805C327.641 255.714 327.575 260.078 327.713 262.922C345.898 263.941 365.748 259.053 383.626 260.238" stroke="#442257" stroke-width="2.5" stroke-linecap="round" stroke-linejoin="round"/>
<path d="M361.012 262.443C357.172 262.574 349.374 267.403 353.433 272.16C356.532 274.277 359.696 265.279 362.467 262.443C364.547 270.56 374.032 274.379 370.934 266.08C369.952 263.454 364.438 261.672 362.082 261.432C360.721 267.636 357.907 277.288 358.518 282.438" stroke="#442257" stroke-width="2.5" stroke-linecap="round" stroke-linejoin="round"/>
<path d="M364.468 278.642C364.78 273.899 363.522 268.655 361.98 264.247" stroke="#442257" stroke-width="2.5" stroke-linecap="round" stroke-linejoin="round"/>
<path d="M329.634 264.028C329.634 293.283 328.637 322.575 328.637 351.909C328.637 375.222 326.455 398.272 326.644 421.672C326.703 429.018 322.491 443.587 333.656 442.991C340.465 442.635 351.492 441.944 358.387 441.944" stroke="#442257" stroke-width="2.5" stroke-linecap="round" stroke-linejoin="round"/>
<path d="M356.532 292.323C357.983 292.76 359.502 292.927 361.013 292.818" stroke="#442257" stroke-width="2.5" stroke-linecap="round" stroke-linejoin="round"/>
<path d="M360.016 293.342C360.133 315.214 360.998 336.744 360.664 358.667C360.38 377.186 360.14 395.719 359.827 414.166C359.674 423.149 359.514 438.482 359.514 441.806C359.514 445.13 359.405 445.828 363.479 446.388C369.021 447.159 375.778 446.25 381.408 445.974C386.536 445.726 398.138 445.734 404.364 445.763C405.489 445.767 406.574 445.343 407.398 444.578C408.222 443.812 408.724 442.761 408.801 441.638C409.15 436.423 409.645 427.469 409.376 421.614C409.056 414.915 409.332 408.128 409.332 401.422V353.946C409.332 329.041 410.329 299.175 409.819 274.277" stroke="#442257" stroke-width="2.5" stroke-linecap="round" stroke-linejoin="round"/>
<path d="M411.158 225.063C411.26 228.198 410.889 231.61 411.616 234.592C412.227 237.072 416.351 241.756 416.351 241.756C411.616 234.592 397.672 228.831 385.54 224.132C373.902 219.615 357.798 209.447 346.065 206.181C346.284 207.555 346.494 212 346.494 212C339.344 212.618 332.58 209.243 325.212 209.577C325.597 213.389 332.354 217.579 335.337 219.397C333.307 218.553 326.754 213.694 325.117 217.215C323.662 220.364 333.911 225.791 335.657 227.485C332.689 226.758 331.089 223.245 327.714 223.987C328.063 230.198 343.847 236.883 348.349 239.574C363.268 248.499 378.477 258.035 394.086 265.585C404.197 270.473 416.475 279.958 427.546 276.496C443.613 271.448 439.489 243.8 438.231 229.588" stroke="#442257" stroke-width="2.5" stroke-linecap="round" stroke-linejoin="round"/>
<path d="M407.892 204.646C408.081 209.738 408.619 215.069 408.83 219.812C409.07 225.631 410.881 225.071 416.737 226.496C420.374 227.384 431.582 229.231 438.558 228.613C439.413 228.535 440.204 228.122 440.755 227.464C441.307 226.806 441.576 225.956 441.504 225.1C440.515 212.865 438.878 196.79 437.591 190.491C435.598 180.73 431.044 164.597 419.712 160.516C411.219 157.441 402.23 155.961 393.199 156.152C388.769 162.4 386.776 165.121 382.107 171.201C378.964 175.289 374.375 180.315 371.923 183.792" stroke="#442257" stroke-width="2.5" stroke-linecap="round" stroke-linejoin="round"/>
<path d="M388.405 189.989C391.977 189.262 401.854 189.989 401.854 189.989" stroke="#442257" stroke-width="2.5" stroke-linecap="round" stroke-linejoin="round"/>
<path d="M392.522 186.039C391.228 190.12 392.021 195.08 392.021 199.408" stroke="#442257" stroke-width="2.5" stroke-linecap="round" stroke-linejoin="round"/>
<path d="M378.637 184.12C373.981 183.814 369.306 183.985 364.686 184.629" stroke="#442257" stroke-width="2.5" stroke-linecap="round" stroke-linejoin="round"/>
<path d="M371.967 183.305C368.33 176.526 358.402 159.433 358.402 159.433C358.402 159.433 355.958 158.08 347.876 160.109C343.704 161.261 339.906 163.484 336.858 166.558C333.811 169.632 331.622 173.45 330.507 177.632" stroke="#442257" stroke-width="2.5" stroke-linecap="round" stroke-linejoin="round"/>
<path d="M360.104 162.306C369.668 172.663 384.107 165.528 391.206 157.941" stroke="#442257" stroke-width="2.5" stroke-linecap="round" stroke-linejoin="round"/>
<path d="M392.653 116.845C392.61 120.482 392.231 130.337 392.231 130.337C392.231 130.337 396.305 130.417 398.938 133.08C403.731 137.924 396.756 140.964 391.97 140.703C391.7 146.1 391.897 156.523 391.897 156.523" stroke="#442257" stroke-width="2.5" stroke-linecap="round" stroke-linejoin="round"/>
<path d="M358.401 159.433C358.401 146.602 358.35 133.902 359.056 121.224C359.274 117.311 359.856 107.637 361.769 104.734" stroke="#442257" stroke-width="2.5" stroke-linecap="round" stroke-linejoin="round"/>
<path d="M366.992 123.137V120.053" stroke="#442257" stroke-width="2.5" stroke-linecap="round" stroke-linejoin="round"/>
<path d="M375.953 122.627V119.543" stroke="#442257" stroke-width="2.5" stroke-linecap="round" stroke-linejoin="round"/>
<path d="M372.469 132.913C375 133.545 377.233 132.396 377.946 129.821" stroke="#442257" stroke-width="2.5" stroke-linecap="round" stroke-linejoin="round"/>
<path d="M346.065 206.18C346.065 206.18 335.693 185.247 330.506 177.631C325.32 170.016 313.617 175.718 305.609 176.22C299.79 176.584 285.744 177.129 285.744 177.129C272.324 177.755 272.862 196.376 272.346 206.442C271.502 222.874 274.426 237.072 265.327 251.176C273.808 259.351 294.276 255.489 304.605 255.198C306.183 250.107 306.001 244.229 306.896 239.007C307.856 233.421 307.798 227.551 307.682 221.899C307.311 203.817 308.329 189.349 322.804 177.427" stroke="#442257" stroke-width="2.5" stroke-linecap="round" stroke-linejoin="round"/>
<path d="M359.514 246.55C352.124 248.179 331.401 250.783 324.317 251.641C323.574 251.732 322.82 251.64 322.12 251.374C321.421 251.108 320.797 250.675 320.302 250.114L313.166 242.04" stroke="#442257" stroke-width="2.5" stroke-linecap="round" stroke-linejoin="round"/>
<path d="M327.626 174.969C314.744 177.209 314.533 205.7 314.679 216C314.795 227.281 315.406 235.042 312.111 245.953C310.406 245.94 308.703 246.069 307.02 246.339" stroke="#442257" stroke-width="2.5" stroke-linecap="round" stroke-linejoin="round"/>
<path d="M292.771 176.017C292.771 170.532 292.771 164.772 296.64 161.593C300.124 158.749 304.91 158.88 309.209 158.683C320.185 158.131 321.662 164.364 321.662 173.551" stroke="#442257" stroke-width="2.5" stroke-linecap="round" stroke-linejoin="round"/>
<path d="M302.234 158.109C299.324 148.166 294.407 135.219 294.407 135.219L299.121 134.019C303.158 141.132 308.293 157.593 308.293 157.593" stroke="#442257" stroke-width="2.5" stroke-linecap="round" stroke-linejoin="round"/>
<path d="M306.525 168.234C310.57 167.39 317.13 165.717 320.971 168.234" stroke="#442257" stroke-width="2.5" stroke-linecap="round" stroke-linejoin="round"/>
<path d="M332.616 445.035C332.616 449.821 331.459 457.495 333.118 461.488" stroke="#442257" stroke-width="2.5" stroke-linecap="round" stroke-linejoin="round"/>
<path d="M366.992 448.119V463.03" stroke="#442257" stroke-width="2.5" stroke-linecap="round" stroke-linejoin="round"/>
<path d="M402.851 447.603C402.851 452.352 403.084 462.514 403.084 462.514" stroke="#442257" stroke-width="2.5" stroke-linecap="round" stroke-linejoin="round"/>
<path d="M405.768 463.62C405.877 465.802 405.841 468.107 405.841 470.304H360.016C357.798 458.455 405.753 463.387 405.768 463.62Z" fill="#442257" stroke="#442257" stroke-width="2.5" stroke-linecap="round" stroke-linejoin="round"/>
<path d="M368.941 463.62C369.05 465.802 369.013 468.107 369.013 470.304H323.189C320.97 458.455 368.926 463.387 368.941 463.62Z" fill="#442257" stroke="#442257" stroke-width="2.5" stroke-linecap="round" stroke-linejoin="round"/>
<path d="M369.086 464.609C369.086 462.303 369.479 459.736 369.683 457.445C369.843 455.706 369.857 453.364 370.905 451.938C371.389 451.288 372.088 450.83 372.878 450.646C373.667 450.462 374.497 450.564 375.218 450.935C378.062 452.651 372.803 459.554 371.843 461.358C374.971 459.59 377.248 455.211 381.066 454.761C384.579 454.346 383.808 458.717 381.568 459.976C378.659 461.62 374.294 461.598 371.901 463.729" stroke="#442257" stroke-width="2.5" stroke-linecap="round" stroke-linejoin="round"/>
<path d="M335.606 462.514C336.806 459.284 345.883 452.709 341.665 449.276C336.522 445.093 332.842 457.924 332.209 460.761C330.827 455.48 327.844 449.945 321.713 450.731C320.985 460.463 325.844 459.263 332.623 461.488" stroke="#442257" stroke-width="2.5" stroke-linecap="round" stroke-linejoin="round"/>
<path d="M338.479 149.468V164.917" stroke="#442257" stroke-width="2.5" stroke-linecap="round" stroke-linejoin="round"/>
<path d="M499.511 466.028C499.511 466.028 499.322 429.899 499.322 412.202C499.322 378.597 497.919 345.022 496.893 311.439C495.933 279.915 497.329 249.081 497.329 217.666C497.329 203.293 496.602 183.916 496.602 174.533C496.602 165.15 496.42 128.84 495.3 106.407C494.507 90.5289 494.303 70.5625 494.303 55.9278C494.303 55.9278 481.691 55.4404 473.115 55.7532C457.506 56.3205 441.969 55.3386 426.44 56.146C406.982 57.1643 386.922 58.2917 367.428 57.317C354.226 56.6551 338.479 57.7971 338.479 57.7971V135.43" stroke="#442257" stroke-width="2.5" stroke-linecap="round" stroke-linejoin="round"/>
<path d="M406.837 467.657H508" stroke="#442257" stroke-width="2.5" stroke-linecap="round" stroke-linejoin="round"/>
<path d="M416.22 42.6318L403.324 34.1143" stroke="#442257" stroke-width="2.5" stroke-linecap="round" stroke-linejoin="round"/>
<path d="M405.47 34.3172C405.47 34.3172 413.762 19.5734 417.646 13.3835C420.665 8.56826 422.468 9.8557 425.611 11.3759C426.025 11.5796 426.811 12.0451 427.626 12.5397C427.995 12.7659 428.315 13.063 428.569 13.4138C428.822 13.7647 429.004 14.1624 429.102 14.5838C429.201 15.0053 429.215 15.4421 429.144 15.8691C429.073 16.2961 428.918 16.7047 428.687 17.0712C426.229 21.0063 421.85 28.0764 420.257 31.0659C418.504 34.3391 416.388 38.0632 415.006 41.1909" stroke="#442257" stroke-width="2.5" stroke-linecap="round" stroke-linejoin="round"/>
<path d="M423.719 9.90656C424.41 9.17919 424.796 8.01539 425.574 6.99707L429.211 8.91733L427.029 11.9287" stroke="#442257" stroke-width="2.5" stroke-linecap="round" stroke-linejoin="round"/>
<path d="M427.785 7.46984L431.662 2" stroke="#442257" stroke-width="2.5" stroke-linecap="round" stroke-linejoin="round"/>
<path d="M403.818 42.2236C405.496 43.4355 407.261 44.5222 409.099 45.475" stroke="#442257" stroke-width="2.5" stroke-linecap="round" stroke-linejoin="round"/>
<path d="M406.474 43.6278L409.645 38.5508" stroke="#442257" stroke-width="2.5" stroke-linecap="round" stroke-linejoin="round"/>
<path d="M418.438 28.5342C418.744 28.4491 419.005 28.2482 419.166 27.9741L425.712 16.7944C425.837 16.5866 425.918 16.3559 425.952 16.116C425.986 15.8761 425.971 15.6319 425.908 15.3978C425.786 14.9257 425.483 14.5207 425.065 14.2704L422.883 12.9829C422.675 12.8585 422.444 12.777 422.204 12.7432C421.964 12.7095 421.72 12.7242 421.486 12.7866C421.014 12.9087 420.609 13.2118 420.359 13.6303L413.812 24.81C413.731 24.9478 413.677 25.1003 413.655 25.2588C413.632 25.4174 413.641 25.5788 413.681 25.7338C413.768 26.0391 413.968 26.2995 414.241 26.4612L417.507 28.3814C417.644 28.4677 417.798 28.5256 417.957 28.5519C418.117 28.5781 418.281 28.5721 418.438 28.5342Z" fill="#F9570F"/>
<path d="M211.305 186.418C210.467 189.001 210.305 191.755 210.832 194.419" stroke="#442257" stroke-width="2.5" stroke-linecap="round" stroke-linejoin="round"/>
<path d="M216.018 187.872C209.683 192.964 208.876 201.656 216.877 205.235C218.499 198.594 223.423 193.953 229.242 191.284C232.821 189.64 243.164 185.894 244.873 191.706C249.528 190.251 249.739 177.296 244.982 175.252C239.345 172.823 228.296 179.238 225.918 183.981" stroke="#442257" stroke-width="2.5" stroke-linecap="round" stroke-linejoin="round"/>
<path d="M218.375 173.275C223.241 170.184 241.651 162.255 241.011 173.762" stroke="#442257" stroke-width="2.5" stroke-linecap="round" stroke-linejoin="round"/>
<path d="M230.558 167.725C223.445 163.717 209.952 165.499 197.15 165.499C184.348 165.499 175.693 165.63 165.088 167.907C158.723 169.267 149.849 171.493 145.449 176.635C139.055 184.091 138.248 195.293 138.248 204.807C138.248 212.873 139.251 223.667 140.139 231.196L149.82 230.701" stroke="#442257" stroke-width="2.5" stroke-linecap="round" stroke-linejoin="round"/>
<path d="M150.482 198.595C150.482 212.32 149.958 225.769 150.518 239.459C150.839 247.147 150.591 258.574 150.737 265.789C157.392 266.284 165.233 265.244 171.918 264.56C179.439 263.782 186.749 263.542 194.357 263.36C200.176 263.214 205.762 263.28 211.421 262.72C214.425 262.422 218.695 262.094 221.423 262.385" stroke="#442257" stroke-width="2.5" stroke-linecap="round" stroke-linejoin="round"/>
<path d="M218.222 202.369C218.222 216.007 222.805 266.909 223.088 279.056C223.372 291.072 224.376 308.151 224.543 320.131C224.674 324.17 224.572 328.214 224.238 332.241C223.852 336.024 223.983 334.685 221.764 337.959C218.92 342.163 217.706 345.487 218.855 350.433" stroke="#442257" stroke-width="2.5" stroke-linecap="round" stroke-linejoin="round"/>
<path d="M243.782 191.103C243.782 191.103 245.528 216.648 246.175 228.519C246.801 240.04 247.441 251.567 248.095 263.098C249.259 283.69 249.281 304.158 249.281 324.721C249.281 334.177 248.219 345.764 245.455 354.652C241.673 366.792 220.404 368.8 213.763 359.678C209.981 354.47 211.778 337.683 218.419 344.302" stroke="#442257" stroke-width="2.5" stroke-linecap="round" stroke-linejoin="round"/>
<path d="M220.645 363.948C223.78 363.577 227.547 360.056 227.293 356.885" stroke="#442257" stroke-width="2.5" stroke-linecap="round" stroke-linejoin="round"/>
<path d="M231.198 364.457C233.897 362.886 237.017 359.365 237.126 355.961" stroke="#442257" stroke-width="2.5" stroke-linecap="round" stroke-linejoin="round"/>
<path d="M227.336 270.67C227.552 270.129 227.871 269.635 228.274 269.215" stroke="#442257" stroke-width="2.5" stroke-linecap="round" stroke-linejoin="round"/>
<path d="M141.521 231.704C141.521 257.802 142.342 284.169 144.35 310.093C144.917 317.476 147.172 344.403 154.41 349.728" stroke="#442257" stroke-width="2.5" stroke-linecap="round" stroke-linejoin="round"/>
<path d="M145.528 272.124C145.768 272.27 145.948 272.497 146.035 272.764C146.122 273.031 146.11 273.32 146.001 273.579" stroke="#442257" stroke-width="2.5" stroke-linecap="round" stroke-linejoin="round"/>
<path d="M153.311 266.771C153.311 305.496 155.494 345.509 153.741 384.19C153.21 395.959 153.311 407.888 152.824 419.635C152.519 427.054 152.584 442.067 152.584 442.067C156.948 442.3 180.828 442.067 180.828 442.067" stroke="#442257" stroke-width="2.5" stroke-linecap="round" stroke-linejoin="round"/>
<path d="M181.599 305.467C181.599 339.253 183.163 371.265 181.701 404.957C181.3 414.238 181.25 423.665 181.126 432.91C181.126 435.245 180.159 441.151 181.788 443.035C183.417 444.919 187.985 444.111 190.56 444.489C195.652 444.489 213.836 444.642 221.015 444.7C221.817 444.709 222.591 444.404 223.172 443.851C223.753 443.299 224.096 442.541 224.128 441.74C224.419 434.466 224.79 416.9 224.725 412.1C224.586 402.527 225.168 370.29 225.452 366.093" stroke="#442257" stroke-width="2.5" stroke-linecap="round" stroke-linejoin="round"/>
<path d="M186.131 445.959C186.131 450.287 185.876 461.299 185.876 461.299" stroke="#442257" stroke-width="2.5" stroke-linecap="round" stroke-linejoin="round"/>
<path d="M216.018 445.959V461.568" stroke="#442257" stroke-width="2.5" stroke-linecap="round" stroke-linejoin="round"/>
<path d="M158.024 443.035V461.547" stroke="#442257" stroke-width="2.5" stroke-linecap="round" stroke-linejoin="round"/>
<path d="M155.711 462.513C164.68 462.513 205.282 458.389 203.325 470.304H155.202C154.998 467.696 155.17 465.072 155.711 462.513Z" fill="#442257" stroke="#442257" stroke-width="2.5" stroke-linecap="round" stroke-linejoin="round"/>
<path d="M185.214 462.513C193.942 462.513 233.373 458.389 231.475 470.304H184.719C184.522 467.697 184.688 465.075 185.214 462.513Z" fill="#442257" stroke="#442257" stroke-width="2.5" stroke-linecap="round" stroke-linejoin="round"/>
<path d="M172.099 146.471C172.359 147.079 172.771 147.61 173.296 148.013C173.821 148.416 174.441 148.676 175.096 148.769C185.207 150.086 193.462 145.482 194.801 133.749C195.302 129.319 194.43 124.293 195.273 119.929C196.219 115.048 197.303 116.059 202.271 114.736C202.664 111.71 200.881 108.189 199.696 105.534C204.06 106.08 211.77 104.501 214.534 100.792C218.295 95.7366 214.723 85.1897 208.439 91.2705V91.2341C208.524 90.7548 208.492 90.2619 208.344 89.798C208.197 89.334 207.938 88.9129 207.592 88.5708C207.246 88.2287 206.821 87.9759 206.356 87.8342C205.89 87.6925 205.397 87.6661 204.918 87.7573C200.852 88.4847 194.306 89.8085 191.346 90.8632C185.708 92.8635 178.347 95.3001 173.787 99.5407C167.073 105.774 169.808 117.841 169.794 126.395C169.801 132.251 169.335 140.215 172.099 146.471Z" stroke="#442257" stroke-width="2.5" stroke-linecap="round" stroke-linejoin="round"/>
<path d="M174.529 165.477L174.783 149.169" stroke="#442257" stroke-width="2.5" stroke-linecap="round" stroke-linejoin="round"/>
<path d="M209.887 164.982V144.543C209.887 141.43 209.763 139.175 210.519 138.208C211.123 137.429 214.542 137.138 214.542 137.138C212.36 126.955 211.632 115.79 208.948 106.072" stroke="#442257" stroke-width="2.5" stroke-linecap="round" stroke-linejoin="round"/>
<path d="M71.453 145.874C71.7803 151.09 74.7771 156.851 68.0853 160.08C61.8226 163.099 55.5454 163.062 48.7445 163.411C43.1842 163.714 37.6076 163.47 32.0949 162.684C27.9561 162.175 23.17 161.957 23.6501 157.098C24.4357 149.031 25.985 142.092 27.3524 134.513C29.9782 119.965 33.8988 103.832 48.519 97.5988C65.1467 90.5214 84.4221 100.101 83.4328 120.147C79.283 120.655 75.1095 120.946 70.9293 121.02C70.9293 129.618 71.0966 140.165 71.453 145.874Z" stroke="#442257" stroke-width="2.5" stroke-linecap="round" stroke-linejoin="round"/>
<path d="M81.4542 120.228C81.8542 122.737 83.8836 132.986 84.32 137.415C84.4655 138.87 81.1123 138.579 81.1123 138.579C80.8577 143.438 80.9596 169.078 80.9596 169.078" stroke="#442257" stroke-width="2.5" stroke-linecap="round" stroke-linejoin="round"/>
<path d="M48.9116 169.535V163.869" stroke="#442257" stroke-width="2.5" stroke-linecap="round" stroke-linejoin="round"/>
<path d="M84.1383 191.968L84.0583 191.932C80.8215 190.434 80.7197 185.706 80.7124 182.731C80.7673 177.381 82.5111 172.185 85.6949 167.885C87.7024 165.07 91.1211 161.891 92.1758 167.078C90.9756 161.222 101.072 158.778 105.596 158.778C110.12 158.778 109.444 162.895 108.12 164.321C121.998 159.149 118.405 185.887 110.076 178.919C113.328 181.771 111.007 185.626 107.625 187.226C104.835 188.591 101.648 188.909 98.6434 188.123C95.6387 187.336 93.016 185.498 91.252 182.942C91.0702 185.357 91.5793 187.364 90.1901 189.641C88.8953 191.721 86.5386 193.03 84.1383 191.968Z" stroke="#442257" stroke-width="2.5" stroke-linecap="round" stroke-linejoin="round"/>
<path d="M35.9571 175.552C29.9854 171.784 18.893 169.645 12.223 174.475C7.85875 177.647 6.44038 184.6 10.1718 189.11C6.30218 185.902 -0.96428 190.296 3.81456 194.347C3.2763 194.347 2.65804 194.507 2.11251 194.514C1.95976 197.998 1.33422 202.224 6.06942 202.028C5.81484 208.829 21.4606 205.01 24.501 203.534" stroke="#442257" stroke-width="2.5" stroke-linecap="round" stroke-linejoin="round"/>
<path d="M27.6942 255.068C27.6942 235.363 21.7007 211.629 26.7995 192.347" stroke="#442257" stroke-width="2.5" stroke-linecap="round" stroke-linejoin="round"/>
<path d="M32.0586 179.763C41.8854 170.038 60.6516 169.1 67.9108 169.1C73.2747 169.105 78.6241 169.656 83.8766 170.743" stroke="#442257" stroke-width="2.5" stroke-linecap="round" stroke-linejoin="round"/>
<path d="M89.6446 248.092C77.8902 248.135 60.0405 248.055 48.6426 250.368C41.6161 251.823 31.462 251.721 25.5267 256.529C20.646 260.486 18.1584 269.295 16.1145 275.245C12.354 286.206 12.6376 298.571 11.5975 309.933C10.31 324.109 11.4811 338.533 11.1538 352.775C10.841 366.537 7.26234 380.197 6.36767 393.923C5.40754 408.63 5.01477 422.712 4.68018 436.939C9.38628 440.671 20.7478 435.987 26.254 436.096C31.222 436.19 36.3718 438.023 41.5289 437.434C46.8969 436.816 51.923 434.357 57.1019 433.121C67.2851 430.691 76.2536 436.99 86.1095 435.114C90.932 434.205 94.838 431.201 99.9951 431.862C102.905 432.233 105.545 433.179 108.069 433.179C110.593 433.179 111.226 432.357 113.459 431.222C114.775 419.432 114.448 407.35 114.441 395.348C114.441 387.682 112.87 349.255 112.87 349.255" stroke="#442257" stroke-width="2.5" stroke-linecap="round" stroke-linejoin="round"/>
<path d="M38.4449 252.202C29.5928 263.404 26.1378 286.621 26.6178 300.652" stroke="#442257" stroke-width="2.5" stroke-linecap="round" stroke-linejoin="round"/>
<path d="M48.0023 250.536C36.9171 262.385 35.9351 288.49 35.2514 303.802C34.8223 313.563 35.7024 323.237 35.3023 332.897C34.9387 341.676 33.4184 353.816 35.7169 362.217" stroke="#442257" stroke-width="2.5" stroke-linecap="round" stroke-linejoin="round"/>
<path d="M35.2586 378.662C35.3093 381.489 35.1586 384.316 34.8076 387.121" stroke="#442257" stroke-width="2.5" stroke-linecap="round" stroke-linejoin="round"/>
<path d="M58.4697 249.168C62.3321 252.267 63.7432 262.195 64.2014 266.625" stroke="#442257" stroke-width="2.5" stroke-linecap="round" stroke-linejoin="round"/>
<path d="M70.3037 248.972C77.4611 260.806 77.6429 272.393 78.4939 286.068C79.0758 295.524 78.8358 307.649 79.3159 317.076" stroke="#442257" stroke-width="2.5" stroke-linecap="round" stroke-linejoin="round"/>
<path d="M81.3164 249.379C83.0039 252.827 83.404 256.653 84.495 260.188" stroke="#442257" stroke-width="2.5" stroke-linecap="round" stroke-linejoin="round"/>
<path d="M96.6924 416.733C96.6488 403.684 95.7832 390.78 95.7832 377.724" stroke="#442257" stroke-width="2.5" stroke-linecap="round" stroke-linejoin="round"/>
<path d="M52.0977 423.781C52.0977 410.965 55.4799 398.49 55.2835 385.718" stroke="#442257" stroke-width="2.5" stroke-linecap="round" stroke-linejoin="round"/>
<path d="M67.1175 420.959C67.0521 418.29 66.6157 415.649 66.6593 412.958" stroke="#442257" stroke-width="2.5" stroke-linecap="round" stroke-linejoin="round"/>
<path d="M85.0479 193.029C85.0479 193.029 89.834 241.538 91.0487 265.897C91.8997 282.816 93.2308 291.479 93.4563 308.361" stroke="#442257" stroke-width="2.5" stroke-linecap="round" stroke-linejoin="round"/>
<path d="M109.437 186.236C109.437 186.236 112.491 213.404 113.263 227.289C113.99 239.975 115.306 252.689 115.816 265.345C116.245 276.212 117.176 308.93 117.176 308.93" stroke="#442257" stroke-width="2.5" stroke-linecap="round" stroke-linejoin="round"/>
<path d="M117.627 324.778C117.627 337.66 118.354 348.782 105.341 353.466C96.3945 356.695 82.3999 358.223 81.1997 345.523C80.5233 338.358 85.4985 335.674 88.2334 341.268" stroke="#442257" stroke-width="2.5" stroke-linecap="round" stroke-linejoin="round"/>
<path d="M88.5029 346.622C88.5029 341.53 88.5029 333.529 94.3219 331.972C94.4165 329.987 94.3874 327.95 94.3947 325.942" stroke="#442257" stroke-width="2.5" stroke-linecap="round" stroke-linejoin="round"/>
<path d="M98.4241 349.728C97.9513 351.568 96.9185 353.161 96.1475 354.899" stroke="#442257" stroke-width="2.5" stroke-linecap="round" stroke-linejoin="round"/>
<path d="M106.527 347.8C106.294 349.065 104.65 352.208 103.974 353.277" stroke="#442257" stroke-width="2.5" stroke-linecap="round" stroke-linejoin="round"/>
<path d="M10.3242 206.188C10.3242 206.188 11.1534 249.262 11.6044 258.34C12.0554 267.418 13.4228 285.144 13.4228 285.144" stroke="#442257" stroke-width="2.5" stroke-linecap="round" stroke-linejoin="round"/>
<path d="M96.5255 252.209C96.0078 252.818 95.5222 253.455 95.0708 254.115" stroke="#442257" stroke-width="2.5" stroke-linecap="round" stroke-linejoin="round"/>
<path d="M16.6016 254.129C16.1827 254.691 15.8742 255.328 15.6924 256.006" stroke="#442257" stroke-width="2.5" stroke-linecap="round" stroke-linejoin="round"/>
<path d="M27.9777 436.729C27.9777 442.417 28.2468 447.45 27.9777 453.138C27.7813 457.299 27.7886 463.896 27.7886 463.896" stroke="#442257" stroke-width="2.5" stroke-linecap="round" stroke-linejoin="round"/>
<path d="M53.1959 435.361C53.1959 445.923 53.0068 454.098 53.0068 464.667" stroke="#442257" stroke-width="2.5" stroke-linecap="round" stroke-linejoin="round"/>
<path d="M87.1424 435.062C87.6443 444.3 85.3385 454.338 86.2259 463.255" stroke="#442257" stroke-width="2.5" stroke-linecap="round" stroke-linejoin="round"/>
<path d="M25.7083 470.304H62.7025C62.7685 469.009 62.688 467.711 62.4624 466.434C51.37 463.256 36.7644 463.205 25.3228 464.252C25.1264 466.754 23.9481 468.405 25.7083 470.304Z" fill="#442257" stroke="#442257" stroke-width="2.5" stroke-linecap="round" stroke-linejoin="round"/>
<path d="M53.196 470.304H94.4016C94.4431 469.153 94.1114 468.019 93.456 467.071C92.8007 466.124 91.8567 465.413 90.7648 465.045C78.1085 462.791 64.3248 463.343 52.7669 464.318C52.5559 466.755 51.2394 468.406 53.196 470.304Z" fill="#442257" stroke="#442257" stroke-width="2.5" stroke-linecap="round" stroke-linejoin="round"/>
<path d="M20.7041 364.566C19.6639 379.012 19.4094 393.472 18.3838 407.86C17.8528 415.337 15.9471 426.699 16.0853 433.82" stroke="#442257" stroke-width="2.5" stroke-linecap="round" stroke-linejoin="round"/>
<path d="M90.6699 322.174C88.4877 319.41 88.2914 308.165 90.4589 308.776C92.6265 309.387 101.631 309.947 102.941 310.042C105.76 310.287 108.598 310.211 111.4 309.816C114.579 309.336 117.292 308.5 119.714 309.431C122.136 310.362 121.743 316.304 121.321 319.046C120.281 325.891 115.015 325.978 106.985 326.189C98.9546 326.4 92.8301 324.938 90.6699 322.174Z" stroke="#442257" stroke-width="2.5" stroke-linecap="round" stroke-linejoin="round"/>
<path d="M93.5141 317.614C93.3468 317.076 93.5141 316.763 93.9433 316.661" stroke="#442257" stroke-width="2.5" stroke-linecap="round" stroke-linejoin="round"/>
<path d="M100.854 319.768L101.283 318.822" stroke="#442257" stroke-width="2.5" stroke-linecap="round" stroke-linejoin="round"/>
<path d="M100.25 314.145L101.151 313.65" stroke="#442257" stroke-width="2.5" stroke-linecap="round" stroke-linejoin="round"/>
<path d="M108.477 315.338C108.84 314.952 109.459 314.291 109.371 314.843" stroke="#442257" stroke-width="2.5" stroke-linecap="round" stroke-linejoin="round"/>
<path d="M109.531 320.982C110.062 320.364 110.608 319.877 110.877 320.008" stroke="#442257" stroke-width="2.5" stroke-linecap="round" stroke-linejoin="round"/>
<path d="M114.833 314.705C115.188 314.261 115.481 313.771 115.706 313.25" stroke="#442257" stroke-width="2.5" stroke-linecap="round" stroke-linejoin="round"/>
<path d="M118.106 317.904H119.467" stroke="#442257" stroke-width="2.5" stroke-linecap="round" stroke-linejoin="round"/>
<path d="M176.224 270.793C175.954 270.793 156.235 272.124 153.915 272.248C154.293 281.827 153.188 294.796 165.655 299.204C165.655 299.204 175.503 294.934 176.362 285.791C176.805 281.158 176.391 275.492 176.224 270.793Z" stroke="#442257" stroke-width="2.5" stroke-linecap="round" stroke-linejoin="round"/>
<path d="M155.813 278.976C158.658 278.845 163.436 278.685 163.436 278.685" stroke="#442257" stroke-width="2.5" stroke-linecap="round" stroke-linejoin="round"/>
<path d="M169.903 278.379L175.234 278.132" stroke="#442257" stroke-width="2.5" stroke-linecap="round" stroke-linejoin="round"/>
<path d="M213.349 270.524C213.08 270.524 193.324 270.975 190.997 270.968C190.953 280.555 189.236 293.517 201.529 298.419C201.529 298.419 211.567 294.586 212.818 285.486C213.458 280.897 213.305 275.223 213.349 270.524Z" stroke="#442257" stroke-width="2.5" stroke-linecap="round" stroke-linejoin="round"/>
<path d="M192.909 277.819C199.456 277.819 206.431 276.954 212.752 277.412" stroke="#442257" stroke-width="2.5" stroke-linecap="round" stroke-linejoin="round"/>
<path d="M178.312 303.583C180.137 304.049 182.712 304.47 184.334 304.921" stroke="#442257" stroke-width="2.5" stroke-linecap="round" stroke-linejoin="round"/>
<path d="M451.81 288.883C451.81 297.524 438.347 300.186 435.495 292.04C433.684 286.853 435.35 280.074 441.205 279.049C447.606 277.921 451.81 282.649 451.81 288.883Z" fill="#FAB550" stroke="#FAB550" stroke-width="2.5" stroke-linecap="round" stroke-linejoin="round"/>
<path d="M444.013 283.282C444.815 283.415 445.548 283.818 446.088 284.426C446.628 285.034 446.943 285.809 446.981 286.621" stroke="#442257" stroke-width="2.5" stroke-linecap="round" stroke-linejoin="round"/>
<path d="M466.3 290.97V285.398" stroke="#442257" stroke-width="2.5" stroke-linecap="round" stroke-linejoin="round"/>
<path d="M76.5303 130.825V129.676" stroke="#442257" stroke-width="2.5" stroke-linecap="round" stroke-linejoin="round"/>
<path d="M206.002 125.733V124.584" stroke="#442257" stroke-width="2.5" stroke-linecap="round" stroke-linejoin="round"/>
<path d="M359.725 101.832C364.686 110.03 372.905 113.47 381.052 115.71C384.689 116.707 393.264 117.507 396.712 116.023" stroke="#442257" stroke-width="2.5" stroke-linecap="round" stroke-linejoin="round"/>
<path d="M392.181 149.729C397.825 149.504 403.346 149.096 408.976 148.653C412.503 148.376 417.471 148.325 420.985 148.013C421.792 146.98 421.246 144.703 420.905 143.598C420.177 141.372 418.25 139.328 416.831 137.393C414.693 134.484 414.649 132.003 414.373 128.425C413.965 123.464 411.281 119.143 408.321 115.463C406.364 113.026 403.542 111.244 402.022 108.495C399.556 104.028 397.941 98.966 395.126 96.0638C392.312 93.1616 384.769 89.7065 376.76 89.5902C368.752 89.4738 360.169 92.4996 356.117 96.2456C351.273 100.734 350.822 108.24 348.727 113.281C347.694 115.768 345.352 117.092 343.854 119.267C341.126 123.217 342.85 127.821 341.25 131.96C340.268 134.505 337.482 135.887 335.853 137.99C333.562 140.957 332.652 145.489 332.449 149.038C337.184 149.257 341.905 149.853 346.582 150.122C350.64 150.362 353.964 150.406 358.016 150.428" stroke="#442257" stroke-width="2.5" stroke-linecap="round" stroke-linejoin="round"/>
</svg>
