<svg width="194" height="65" viewBox="0 0 194 65" fill="none" xmlns="http://www.w3.org/2000/svg">
<path d="M178.552 0.000162086H15.4685C14.874 0.000162086 14.2867 0.000162086 13.6937 0.00340381C13.1975 0.00664552 12.7051 0.0160465 12.2041 0.0239887C11.1155 0.0367913 10.0295 0.132537 8.95553 0.310395C7.88303 0.492124 6.84413 0.834747 5.87397 1.32667C4.90502 1.82278 4.01967 2.46741 3.25004 3.23718C2.47636 4.00472 1.83144 4.8919 1.34005 5.86459C0.847307 6.83545 0.505642 7.87581 0.326862 8.94974C0.146369 10.0223 0.0492448 11.1072 0.0363596 12.1947C0.0212833 12.6917 0.0196622 13.1902 0.0117188 13.6874V51.1522C0.0196622 51.6555 0.0212833 52.1431 0.0363596 52.6467C0.0492569 53.7341 0.146382 54.8189 0.326862 55.8913C0.505162 56.9658 0.846846 58.0067 1.34005 58.9779C1.8312 59.9475 2.47622 60.8311 3.25004 61.5945C4.01676 62.3676 4.90268 63.0127 5.87397 63.505C6.84412 63.9982 7.88291 64.3429 8.95553 64.5274C10.0297 64.7038 11.1156 64.7996 12.2041 64.814C12.705 64.825 13.1975 64.8313 13.6939 64.8313C14.2867 64.8346 14.874 64.8346 15.4685 64.8346H178.552C179.135 64.8346 179.727 64.8346 180.309 64.8313C180.803 64.8313 181.31 64.825 181.804 64.814C182.89 64.8004 183.974 64.7046 185.046 64.5274C186.122 64.3416 187.165 63.997 188.139 63.505C189.11 63.0124 189.995 62.3674 190.761 61.5945C191.533 60.8281 192.179 59.9452 192.677 58.9779C193.166 58.006 193.504 56.9652 193.68 55.8913C193.861 54.8187 193.961 53.7341 193.981 52.6465C193.988 52.1431 193.988 51.6555 193.988 51.1522C194.001 50.5634 194.001 49.9777 194.001 49.3793V15.457C194.001 14.8633 194.001 14.2746 193.988 13.6874C193.988 13.1902 193.988 12.6917 193.981 12.1945C193.962 11.1069 193.861 10.0223 193.68 8.94958C193.504 7.87638 193.166 6.83621 192.677 5.86476C191.676 3.91493 190.089 2.32777 188.139 1.32651C187.165 0.835791 186.122 0.49326 185.046 0.310233C183.974 0.131619 182.89 0.0358667 181.804 0.0238266C181.31 0.0158844 180.803 0.00632135 180.309 0.00324172C179.727 0 179.135 0 178.552 0L178.552 0.000162086Z" fill="#A6A6A6"/>
<path d="M13.7015 63.4163C13.2075 63.4163 12.7256 63.41 12.2355 63.399C11.2203 63.3858 10.2076 63.2975 9.20548 63.1348C8.27107 62.9738 7.36589 62.6744 6.51979 62.2465C5.68142 61.8222 4.91676 61.2659 4.2551 60.5988C3.58382 59.9395 3.02493 59.1749 2.6006 58.3352C2.17164 57.4901 1.87477 56.5842 1.72034 55.6491C1.55362 54.6444 1.46345 53.6284 1.45059 52.61C1.44021 52.2682 1.42676 51.1302 1.42676 51.1302V13.6872C1.42676 13.6872 1.44102 12.5665 1.45059 12.2372C1.46294 11.2204 1.55263 10.2061 1.71888 9.20292C1.87362 8.26528 2.17074 7.35678 2.59995 6.50888C3.02265 5.66976 3.57836 4.90456 4.24554 4.24292C4.91201 3.57501 5.67915 3.01577 6.51898 2.58559C7.36315 2.15914 8.26664 1.86196 9.19916 1.70401C10.2046 1.53969 11.2209 1.45088 12.2395 1.43835L13.7023 1.41825H180.301L181.781 1.43884C182.791 1.45083 183.798 1.53893 184.794 1.70239C185.736 1.86237 186.649 2.16167 187.503 2.59046C189.185 3.45735 190.554 4.82887 191.418 6.51277C191.84 7.35486 192.133 8.25599 192.286 9.18557C192.454 10.1969 192.548 11.2192 192.567 12.2443C192.572 12.7033 192.572 13.1964 192.572 13.6872C192.585 14.295 192.585 14.8735 192.585 15.4568V49.3792C192.585 49.968 192.585 50.5426 192.572 51.1219C192.572 51.649 192.572 52.1319 192.566 52.6288C192.547 53.6357 192.454 54.6398 192.288 55.6331C192.137 56.5749 191.842 57.4879 191.413 58.3399C190.986 59.1705 190.43 59.9285 189.767 60.5859C189.105 61.2566 188.339 61.8163 187.498 62.2433C186.647 62.6744 185.735 62.9748 184.794 63.1344C183.792 63.2981 182.779 63.3864 181.764 63.3988C181.279 63.4101 180.794 63.4159 180.309 63.4161L178.552 63.4194L13.7015 63.4163Z" fill="#1E3869"/>
<path d="M40.1649 32.9048C40.1823 31.5519 40.5417 30.2255 41.2097 29.0488C41.8776 27.8722 42.8323 26.8836 43.985 26.175C43.2527 25.1293 42.2867 24.2687 41.1635 23.6616C40.0404 23.0545 38.7912 22.7176 37.515 22.6776C34.7927 22.3919 32.1537 24.3063 30.7664 24.3063C29.3524 24.3063 27.2166 22.706 24.9168 22.7533C23.4291 22.8014 21.9793 23.2339 20.7085 24.0087C19.4377 24.7836 18.3894 25.8743 17.6656 27.1747C14.5303 32.6022 16.8689 40.5784 19.8724 44.9654C21.375 47.1137 23.131 49.5132 25.4289 49.4281C27.6774 49.3349 28.5171 47.9945 31.2315 47.9945C33.9206 47.9945 34.7084 49.4281 37.0529 49.374C39.4657 49.3349 40.9858 47.2163 42.4357 45.0478C43.5154 43.5171 44.3461 41.8254 44.8972 40.0353C43.4955 39.4425 42.2992 38.4502 41.4577 37.1822C40.6161 35.9142 40.1665 34.4266 40.1649 32.9048ZM35.7367 19.7923C37.0522 18.2133 37.7004 16.1837 37.5434 14.1346C35.5335 14.3456 33.6769 15.3061 32.3435 16.8246C31.6916 17.5664 31.1923 18.4294 30.8742 19.3642C30.5561 20.2991 30.4253 21.2875 30.4895 22.2729C31.4948 22.2833 32.4894 22.0654 33.3983 21.6357C34.3072 21.2061 35.1067 20.5758 35.7367 19.7923V19.7923ZM68.5884 43.9898H60.9151L59.0724 49.4301H55.822L63.0903 29.3023H66.467L73.7351 49.4301H70.4295L68.5884 43.9898ZM61.7097 41.4793H67.7921L64.7937 32.6501H64.7098L61.7097 41.4793ZM89.4316 42.0936C89.4316 46.6537 86.9904 49.5836 83.3066 49.5836C82.3734 49.6324 81.4453 49.4175 80.6286 48.9634C79.8118 48.5094 79.1395 47.8345 78.6886 47.0161H78.6189V54.2847H75.6062V34.7553H78.5224V37.1962H78.5778C79.0495 36.3817 79.7332 35.7104 80.5561 35.2536C81.379 34.7967 82.3104 34.5715 83.2512 34.6018C86.9761 34.6018 89.4316 37.5459 89.4316 42.0934V42.0936ZM86.335 42.0936C86.335 39.1226 84.7995 37.1693 82.4565 37.1693C80.1545 37.1693 78.6064 39.1636 78.6064 42.0934C78.6064 45.0504 80.1545 47.0306 82.4565 47.0306C84.7995 47.0306 86.335 45.0915 86.335 42.0934V42.0936ZM105.586 42.0936C105.586 46.6537 103.145 49.5836 99.4606 49.5836C98.5274 49.6324 97.5994 49.4174 96.7827 48.9634C95.966 48.5093 95.2937 47.8345 94.8427 47.0161H94.773V54.2847H91.7604V34.7553H94.6764V37.1962H94.7318C95.2035 36.3817 95.8872 35.7104 96.7101 35.2536C97.533 34.7967 98.4644 34.5715 99.4052 34.6018C103.13 34.6018 105.586 37.5459 105.586 42.0934V42.0936ZM102.489 42.0936C102.489 39.1226 100.953 37.1693 98.6105 37.1693C96.3085 37.1693 94.7604 39.1636 94.7604 42.0934C94.7604 45.0504 96.3085 47.0306 98.6105 47.0306C100.953 47.0306 102.489 45.0915 102.489 42.0934V42.0936ZM116.262 43.8221C116.485 45.818 118.425 47.1286 121.075 47.1286C123.614 47.1286 125.441 45.818 125.441 44.0182C125.441 42.4559 124.339 41.5205 121.73 40.8794L119.121 40.251C115.425 39.3582 113.709 37.6297 113.709 34.8248C113.709 31.352 116.736 28.9667 121.034 28.9667C125.287 28.9667 128.204 31.352 128.302 34.8248H125.261C125.078 32.8163 123.418 31.6037 120.991 31.6037C118.564 31.6037 116.903 32.8305 116.903 34.6159C116.903 36.039 117.964 36.8764 120.559 37.5173L122.777 38.0619C126.907 39.0384 128.623 40.6974 128.623 43.6414C128.623 47.4071 125.623 49.7656 120.852 49.7656C116.387 49.7656 113.373 47.4624 113.178 43.8219L116.262 43.8221ZM135.125 31.2826V34.7553H137.916V37.1407H135.125V45.2308C135.125 46.4876 135.684 47.0732 136.911 47.0732C137.242 47.0674 137.573 47.0442 137.902 47.0035V49.3748C137.35 49.4778 136.79 49.5244 136.228 49.5139C133.257 49.5139 132.098 48.3981 132.098 45.552V37.1407H129.964V34.7553H132.098V31.2826H135.125ZM139.532 42.0936C139.532 37.4763 142.252 34.5749 146.493 34.5749C150.749 34.5749 153.456 37.4763 153.456 42.0936C153.456 46.7234 150.763 49.6121 146.493 49.6121C142.225 49.6121 139.532 46.7234 139.532 42.0936ZM150.386 42.0936C150.386 38.9263 148.935 37.0568 146.493 37.0568C144.052 37.0568 142.602 38.9404 142.602 42.0936C142.602 45.2736 144.052 47.1286 146.493 47.1286C148.935 47.1286 150.386 45.2736 150.386 42.0936ZM155.94 34.7553H158.813V37.2531H158.883C159.077 36.473 159.534 35.7836 160.177 35.3007C160.82 34.8179 161.61 34.5711 162.413 34.6018C162.76 34.6006 163.107 34.6383 163.445 34.7141V37.5317C163.007 37.3978 162.55 37.3363 162.092 37.3497C161.654 37.3319 161.218 37.4091 160.813 37.5758C160.408 37.7426 160.044 37.995 159.745 38.3158C159.447 38.6365 159.222 39.018 159.085 39.434C158.948 39.8501 158.903 40.2908 158.952 40.7259V49.4301H155.94V34.7553ZM177.336 45.1199C176.93 47.7839 174.335 49.6121 171.016 49.6121C166.746 49.6121 164.096 46.7519 164.096 42.1631C164.096 37.5602 166.76 34.5749 170.889 34.5749C174.95 34.5749 177.503 37.3639 177.503 41.8133V42.8453H167.137V43.0274C167.089 43.5674 167.157 44.1115 167.335 44.6234C167.514 45.1354 167.8 45.6035 168.173 45.9966C168.546 46.3898 168.999 46.699 169.501 46.9037C170.003 47.1084 170.543 47.204 171.085 47.1841C171.797 47.2508 172.512 47.0859 173.122 46.714C173.733 46.3421 174.208 45.783 174.475 45.1199H177.336ZM167.151 40.7402H174.489C174.516 40.2546 174.442 39.7686 174.273 39.3128C174.103 38.857 173.841 38.4412 173.503 38.0914C173.165 37.7417 172.758 37.4656 172.308 37.2805C171.859 37.0953 171.375 37.0052 170.889 37.0156C170.398 37.0127 169.912 37.107 169.458 37.2929C169.004 37.4789 168.592 37.753 168.244 38.0992C167.897 38.4455 167.621 38.8572 167.434 39.3105C167.246 39.7637 167.15 40.2496 167.151 40.7402V40.7402ZM61.3322 14.1519C61.9638 14.1066 62.5976 14.202 63.1879 14.4312C63.7782 14.6605 64.3102 15.0179 64.7456 15.4776C65.181 15.9373 65.5089 16.4879 65.7057 17.0897C65.9025 17.6915 65.9633 18.3295 65.8836 18.9576C65.8836 22.0473 64.2134 23.8234 61.3322 23.8234H57.8382V14.1518L61.3322 14.1519ZM59.3406 22.4556H61.1644C61.6157 22.4825 62.0674 22.4085 62.4865 22.239C62.9056 22.0694 63.2816 21.8085 63.5871 21.4753C63.8927 21.1421 64.1201 20.745 64.2528 20.3129C64.3855 19.8807 64.4201 19.4244 64.3542 18.9772C64.4154 18.5318 64.3772 18.0783 64.2425 17.6493C64.1077 17.2203 63.8798 16.8265 63.5749 16.4959C63.2701 16.1654 62.8958 15.9064 62.4791 15.7374C62.0624 15.5684 61.6134 15.4937 61.1644 15.5186H59.3406V22.4556ZM67.5807 20.1708C67.5348 19.6912 67.5897 19.2072 67.7418 18.75C67.8939 18.2928 68.1399 17.8725 68.4641 17.5159C68.7882 17.1593 69.1833 16.8745 69.624 16.6795C70.0647 16.4845 70.5413 16.3838 71.0232 16.3838C71.5051 16.3838 71.9817 16.4845 72.4224 16.6795C72.8631 16.8745 73.2581 17.1593 73.5823 17.5159C73.9064 17.8725 74.1524 18.2928 74.3045 18.75C74.4566 19.2072 74.5115 19.6912 74.4656 20.1708C74.5125 20.651 74.4584 21.1357 74.3067 21.5938C74.155 22.0518 73.9092 22.473 73.585 22.8304C73.2608 23.1878 72.8653 23.4734 72.4241 23.6688C71.9829 23.8642 71.5057 23.9652 71.0232 23.9652C70.5406 23.9652 70.0634 23.8642 69.6222 23.6688C69.181 23.4734 68.7855 23.1878 68.4613 22.8304C68.1371 22.473 67.8913 22.0518 67.7396 21.5938C67.588 21.1357 67.5338 20.651 67.5807 20.1708ZM72.9839 20.1708C72.9839 18.5887 72.273 17.6635 71.0256 17.6635C69.7733 17.6635 69.0689 18.5887 69.0689 20.1708C69.0689 21.7656 69.7734 22.6836 71.0256 22.6836C72.273 22.6836 72.9839 21.7593 72.9839 20.1708V20.1708ZM83.6177 23.8233H82.123L80.6144 18.4478H80.5005L78.9982 23.8233H77.518L75.5058 16.5245H76.9669L78.2747 22.0938H78.3823L79.8832 16.5245H81.2652L82.766 22.0938H82.8799L84.1812 16.5245H85.6219L83.6177 23.8233ZM87.3142 16.5247H88.701V17.6841H88.8086C88.9913 17.2676 89.2993 16.9185 89.6898 16.6854C90.0803 16.4523 90.5338 16.3468 90.9871 16.3837C91.3423 16.357 91.6989 16.4105 92.0306 16.5404C92.3623 16.6702 92.6605 16.873 92.9031 17.1337C93.1458 17.3944 93.3266 17.7063 93.4323 18.0464C93.538 18.3865 93.5659 18.746 93.5137 19.0983V23.8231H92.0731V19.4601C92.0731 18.2872 91.5632 17.7039 90.4978 17.7039C90.2567 17.6927 90.016 17.7337 89.7922 17.8242C89.5684 17.9147 89.3668 18.0525 89.2013 18.2282C89.0357 18.4039 88.9101 18.6132 88.833 18.842C88.756 19.0707 88.7293 19.3134 88.7548 19.5534V23.8233H87.3142V16.5247ZM95.8092 13.6754H97.2498V23.8233H95.8092V13.6754ZM99.2525 20.1708C99.2066 19.6911 99.2614 19.2071 99.4136 18.7498C99.5657 18.2926 99.8118 17.8722 100.136 17.5156C100.46 17.1589 100.855 16.874 101.296 16.679C101.737 16.4841 102.213 16.3833 102.695 16.3833C103.177 16.3833 103.654 16.4841 104.095 16.679C104.536 16.874 104.931 17.1589 105.255 17.5156C105.579 17.8722 105.825 18.2926 105.977 18.7498C106.129 19.2071 106.184 19.6911 106.138 20.1708C106.185 20.6509 106.131 21.1355 105.979 21.5934C105.827 22.0513 105.581 22.4724 105.257 22.8296C104.933 23.1868 104.537 23.4723 104.096 23.6676C103.655 23.8629 103.178 23.9639 102.695 23.9639C102.213 23.9639 101.736 23.8629 101.295 23.6676C100.854 23.4723 100.458 23.1868 100.134 22.8296C99.8096 22.4724 99.5637 22.0513 99.4119 21.5934C99.2601 21.1355 99.2058 20.6509 99.2525 20.1708V20.1708ZM104.656 20.1708C104.656 18.5887 103.945 17.6635 102.697 17.6635C101.445 17.6635 100.741 18.5887 100.741 20.1708C100.741 21.7656 101.445 22.6836 102.697 22.6836C103.945 22.6836 104.656 21.7593 104.656 20.1708ZM107.655 21.7593C107.655 20.4454 108.633 19.688 110.37 19.5803L112.347 19.4664V18.8364C112.347 18.0655 111.837 17.6303 110.853 17.6303C110.049 17.6303 109.491 17.9254 109.331 18.4415H107.937C108.084 17.1878 109.263 16.3838 110.919 16.3838C112.749 16.3838 113.781 17.2948 113.781 18.8364V23.8233H112.395V22.7976H112.281C112.049 23.1655 111.724 23.4654 111.339 23.6668C110.954 23.8681 110.522 23.9636 110.088 23.9435C109.782 23.9754 109.472 23.9427 109.179 23.8476C108.886 23.7524 108.616 23.5969 108.387 23.3912C108.158 23.1854 107.974 22.9338 107.848 22.6527C107.722 22.3717 107.656 22.0673 107.655 21.7593V21.7593ZM112.347 21.1356V20.5253L110.565 20.6392C109.559 20.7065 109.103 21.0485 109.103 21.6918C109.103 22.3488 109.673 22.7311 110.457 22.7311C110.687 22.7544 110.919 22.7312 111.139 22.663C111.359 22.5947 111.564 22.4829 111.74 22.334C111.917 22.1851 112.061 22.0023 112.166 21.7964C112.27 21.5905 112.332 21.3658 112.347 21.1356V21.1356ZM115.675 20.1708C115.675 17.8645 116.861 16.4036 118.705 16.4036C119.161 16.3826 119.614 16.4918 120.01 16.7186C120.407 16.9453 120.73 17.2802 120.944 17.6841H121.051V13.6752H122.492V23.8231H121.111V22.6699H120.997C120.768 23.071 120.433 23.4017 120.029 23.6262C119.625 23.8507 119.167 23.9604 118.705 23.9434C116.848 23.9434 115.675 22.4823 115.675 20.1707V20.1708ZM117.163 20.1708C117.163 21.7187 117.893 22.6504 119.113 22.6504C120.328 22.6504 121.078 21.7054 121.078 20.177C121.078 18.656 120.32 17.6975 119.113 17.6975C117.901 17.6975 117.163 18.6354 117.163 20.1708ZM128.452 20.1708C128.406 19.6912 128.461 19.2072 128.613 18.75C128.765 18.2928 129.011 17.8725 129.336 17.5159C129.66 17.1593 130.055 16.8745 130.495 16.6795C130.936 16.4845 131.413 16.3838 131.895 16.3838C132.376 16.3838 132.853 16.4845 133.294 16.6795C133.734 16.8745 134.13 17.1593 134.454 17.5159C134.778 17.8725 135.024 18.2928 135.176 18.75C135.328 19.2072 135.383 19.6912 135.337 20.1708C135.384 20.651 135.33 21.1357 135.178 21.5938C135.026 22.0518 134.781 22.473 134.456 22.8304C134.132 23.1878 133.737 23.4734 133.296 23.6688C132.854 23.8642 132.377 23.9652 131.895 23.9652C131.412 23.9652 130.935 23.8642 130.494 23.6688C130.052 23.4734 129.657 23.1878 129.333 22.8304C129.009 22.473 128.763 22.0518 128.611 21.5938C128.459 21.1357 128.405 20.651 128.452 20.1708V20.1708ZM133.855 20.1708C133.855 18.5887 133.144 17.6635 131.897 17.6635C130.645 17.6635 129.94 18.5887 129.94 20.1708C129.94 21.7656 130.645 22.6836 131.897 22.6836C133.144 22.6836 133.855 21.7593 133.855 20.1708ZM137.27 16.5247H138.657V17.6841H138.765C138.947 17.2676 139.255 16.9185 139.646 16.6854C140.036 16.4523 140.49 16.3468 140.943 16.3837C141.298 16.357 141.655 16.4105 141.986 16.5404C142.318 16.6702 142.616 16.873 142.859 17.1337C143.102 17.3944 143.283 17.7063 143.388 18.0464C143.494 18.3865 143.522 18.746 143.47 19.0983V23.8231H142.029V19.4601C142.029 18.2872 141.519 17.7039 140.454 17.7039C140.213 17.6927 139.972 17.7337 139.748 17.8242C139.524 17.9147 139.323 18.0525 139.157 18.2282C138.992 18.4039 138.866 18.6132 138.789 18.842C138.712 19.0707 138.685 19.3134 138.711 19.5534V23.8233H137.27L137.27 16.5247ZM151.61 14.7075V16.5579H153.192V17.7711H151.61V21.5241C151.61 22.2886 151.925 22.6235 152.642 22.6235C152.826 22.6229 153.009 22.6117 153.191 22.5901V23.79C152.933 23.8363 152.671 23.8609 152.408 23.8636C150.806 23.8636 150.168 23.3001 150.168 21.893V17.7711H149.009V16.5578H150.168V14.7077L151.61 14.7075ZM155.159 13.6754H156.587V17.6975H156.701C156.893 17.2772 157.209 16.9261 157.608 16.6921C158.006 16.4582 158.467 16.3527 158.927 16.39C159.28 16.3708 159.634 16.4298 159.962 16.5627C160.289 16.6957 160.584 16.8994 160.824 17.1593C161.064 17.4192 161.244 17.7289 161.351 18.0663C161.457 18.4037 161.488 18.7604 161.441 19.1111V23.8233H159.999V19.4664C159.999 18.3005 159.456 17.7102 158.438 17.7102C158.19 17.6899 157.941 17.7239 157.708 17.8099C157.475 17.8959 157.264 18.0318 157.089 18.2081C156.914 18.3843 156.779 18.5967 156.695 18.8303C156.61 19.0639 156.578 19.3131 156.6 19.5606V23.8233H155.159V13.6754ZM169.841 21.8525C169.645 22.5195 169.221 23.0966 168.643 23.4826C168.065 23.8686 167.369 24.0391 166.678 23.9641C166.197 23.9768 165.719 23.8847 165.277 23.6942C164.836 23.5037 164.441 23.2194 164.12 22.861C163.799 22.5025 163.56 22.0786 163.419 21.6186C163.279 21.1585 163.24 20.6734 163.306 20.1969C163.242 19.7189 163.281 19.2328 163.421 18.7713C163.562 18.3099 163.799 17.884 164.119 17.5224C164.438 17.1608 164.831 16.872 165.271 16.6755C165.712 16.4791 166.189 16.3795 166.672 16.3837C168.703 16.3837 169.928 17.7711 169.928 20.063V20.5657H164.774V20.6464C164.751 20.9142 164.785 21.1838 164.872 21.4379C164.96 21.6919 165.1 21.9249 165.283 22.1217C165.466 22.3186 165.688 22.475 165.935 22.5811C166.182 22.6871 166.449 22.7403 166.718 22.7373C167.062 22.7787 167.411 22.7166 167.721 22.5591C168.03 22.4015 168.285 22.1555 168.454 21.8525H169.841ZM164.774 19.5004H168.461C168.479 19.2555 168.445 19.0094 168.363 18.7781C168.28 18.5468 168.15 18.3353 167.981 18.1572C167.812 17.9792 167.607 17.8385 167.38 17.7442C167.153 17.6499 166.909 17.6041 166.664 17.6097C166.415 17.6066 166.167 17.6533 165.937 17.7472C165.706 17.8412 165.496 17.9803 165.32 18.1565C165.144 18.3328 165.005 18.5424 164.911 18.7732C164.817 19.0041 164.77 19.2513 164.774 19.5004V19.5004Z" fill="white"/>
</svg>
