<svg width="389" height="426" viewBox="0 0 389 426" fill="none" xmlns="http://www.w3.org/2000/svg">
<path d="M307.521 61.4088H307.352C311.215 67.1462 320.573 69.1149 325.556 62.8718C326.79 61.2372 327.481 59.2565 327.531 57.2085C323.182 59.784 312.159 62.6695 307.521 61.4088Z" fill="#1E3869"/>
<path d="M212.755 40.2724C212.674 47.0549 212.627 55.0712 219.868 53.8037C224.944 52.907 223.798 44.2907 223.643 39.7937C223.542 36.9419 218.101 36.0991 218.101 36.0991C218.101 36.0991 212.788 37.7172 212.755 40.2724Z" fill="#FAB550" stroke="#FAB550" stroke-width="2" stroke-linecap="round" stroke-linejoin="round"/>
<path d="M224.513 40.1642C220.885 39.1799 215.384 39.4159 211.824 40.2451C211.588 36.7056 211.15 29.2691 213.928 26.869C217.299 23.9632 223.205 25.8577 223.71 30.6108C223.886 32.0334 224.513 40.1642 224.513 40.1642Z" fill="#F15D4A" stroke="#F15D4A" stroke-width="2" stroke-linecap="round" stroke-linejoin="round"/>
<path d="M228.592 94.3031C228.592 94.3031 227.277 79.0257 226.212 71.5083C225.625 67.335 224.344 55.5567 220.427 56.2309C216.51 56.9051 216.908 65.5484 215.788 68.4137C214.44 71.8387 209.977 75.621 205.615 71.7848" stroke="#1E3869" stroke-width="2" stroke-linecap="round" stroke-linejoin="round"/>
<path d="M196.742 46.6439C196.702 36.0859 202.958 30.672 206.181 28.5887C209.404 26.5054 213.294 25.6829 212.714 22.2782C212.134 18.8735 206.963 18.4892 204.462 19.514C200.841 20.9972 195.758 24.1592 192.906 28.8719C189.899 33.8475 187.681 37.6028 187.438 48.9564" stroke="#1E3869" stroke-width="2" stroke-linecap="round" stroke-linejoin="round"/>
<path d="M204.785 104.558C202.938 97.175 201.34 91.0735 201.34 91.0735C198.354 89.2733 197.086 88.6666 194.194 86.2934C188.746 81.8234 185.618 75.4589 183.899 68.7641C182.658 63.9031 183.508 58.1117 190.007 61.004C193.56 62.5884 198.96 71.7913 197.241 75.8365C194.78 81.6616 189.71 73.6386 188.591 70.1799" stroke="#1E3869" stroke-width="2" stroke-linecap="round" stroke-linejoin="round"/>
<path d="M184.155 61.7996C181.782 50.8641 191.922 50.0281 196.567 56.6015C199.749 61.1052 206.943 75.8433 197.241 75.8433" stroke="#1E3869" stroke-width="2" stroke-linecap="round" stroke-linejoin="round"/>
<path d="M185.551 53.1835C187.047 44.2638 197.538 45.3762 201.731 52.0643C203.363 54.6533 211.015 73.4433 203.167 72.4387" stroke="#1E3869" stroke-width="2" stroke-linecap="round" stroke-linejoin="round"/>
<path d="M212.815 6.5352L212.026 1" stroke="#1E3869" stroke-width="2" stroke-linecap="round" stroke-linejoin="round"/>
<path d="M230.217 8.90825L233.379 4.95068" stroke="#1E3869" stroke-width="2" stroke-linecap="round" stroke-linejoin="round"/>
<path d="M239.062 13.9447L242.224 12.3604" stroke="#1E3869" stroke-width="2" stroke-linecap="round" stroke-linejoin="round"/>
<path d="M245.258 36.5845L249.607 37.3733" stroke="#1E3869" stroke-width="2" stroke-linecap="round" stroke-linejoin="round"/>
<path d="M231.659 101.571L230.581 93.6353C225.821 94.9365 217.71 99.0289 213.159 101.18C210.577 102.4 204.968 104.321 204.044 107.052C203.518 108.663 205.635 117.367 205.635 117.367" stroke="#1E3869" stroke-width="2" stroke-linecap="round" stroke-linejoin="round"/>
<path d="M256.949 188.375C256.949 188.375 251.204 196.674 247.334 201.063C241.017 208.243 222.868 223.608 215.188 206.551C208.406 191.489 208.406 172.666 206.808 156.276C205.905 147.039 205.305 137.115 204.705 127.959C204.354 122.626 202.999 120.145 207.132 116.963C215.519 110.511 226.65 105.259 236.203 100.721C238.725 118.568 242.069 139.218 234.531 156.296C236.743 150.181 238.954 146.756 240.505 147.181C243.289 147.949 241.934 157.752 239.217 164.595C239.217 155.264 242.204 148.212 246.047 140.823C249.89 133.434 256.456 125.114 262.41 116.977C267.918 109.439 275.058 102.077 283.896 99.5146" stroke="#1E3869" stroke-width="2" stroke-linecap="round" stroke-linejoin="round"/>
<path d="M339.572 62.4669C344.244 59.0959 350.791 64.1322 347.433 70.3011C345.492 73.8609 341.952 73.3553 338.5 73.153C338.123 77.2589 336.902 81.7558 335.952 85.8954C335.338 88.5923 333.693 96.6827 333.693 96.6827" stroke="#1E3869" stroke-width="2" stroke-linecap="round" stroke-linejoin="round"/>
<path d="M299.032 91.0737C299.032 91.0737 300.522 46.2459 306.745 24.0107" stroke="#1E3869" stroke-width="2" stroke-linecap="round" stroke-linejoin="round"/>
<path d="M305.68 56.9252C306.732 65.791 319.447 70.4902 325.549 62.8313C327.356 60.5659 328.59 55.9476 326.223 53.6082C323.486 50.9113 320.587 53.0688 317.883 54.343C314.674 55.8533 310.13 56.2915 306.678 55.0172C305.586 55.7117 305.815 56.1432 305.68 56.9252Z" stroke="#1E3869" stroke-width="2" stroke-linecap="round" stroke-linejoin="round"/>
<path d="M307.521 61.4088C312.193 62.6965 323.243 59.7975 327.558 57.1748" stroke="#1E3869" stroke-width="2" stroke-linecap="round" stroke-linejoin="round"/>
<path d="M271.707 166.78L270.136 157.948C270.136 157.948 292.385 152.608 299.356 151.206C299.902 153.228 300.779 159.357 300.779 159.357" stroke="#1E3869" stroke-width="2" stroke-linecap="round" stroke-linejoin="round"/>
<path d="M309.503 46.1848V43.3936" stroke="#1E3869" stroke-width="2" stroke-linecap="round" stroke-linejoin="round"/>
<path d="M306.138 22.9789C306.852 24.3338 307.76 25.5764 308.835 26.6668C314.903 32.6807 324.531 26.7949 331.819 26.6196C330.369 29.667 327.511 30.9345 327.099 34.791C326.688 38.6474 328.508 40.67 330.99 43.4275C333.686 46.4547 334.704 48.747 335.884 52.7719C336.761 55.7789 336.761 60.8152 340.449 61.6107C343.402 58.8802 342.869 51.3089 343.509 47.1356C344.13 43.0904 344.332 39.0452 344.905 35.0674C345.579 30.4828 347.73 22.5946 345.431 18.1786C344.993 17.3359 343.705 17.7067 343.354 17.2347C342.727 16.4055 342.882 15.0638 342.107 14.3626C339.619 12.1243 335.48 11.5175 332.291 10.7826C328.724 9.95334 325.906 9.76456 322.69 7.95095C320.499 6.71042 319.198 4.02035 317.175 7.89701C315.584 5.93508 314.04 4.00012 312.786 7.70149C308.842 2.69891 304.696 9.57578 304.183 13.4862C303.863 16.7752 304.544 20.0843 306.138 22.9789V22.9789Z" stroke="#1E3869" stroke-width="2" stroke-linecap="round" stroke-linejoin="round"/>
<path d="M334.408 95.9345C326.041 95.557 319.056 94.6872 312.961 94.3029C307.871 93.9861 302.693 92.6174 297.718 92.0039C300.907 96.0491 299.625 104.814 301.23 109.917C303.475 104.524 308.107 99.737 310.19 94.3299C312.651 100.472 315.395 107.221 316.771 113.754C321.888 107.659 327.666 99.8381 334.408 95.9345Z" stroke="#1E3869" stroke-width="2" stroke-linecap="round" stroke-linejoin="round"/>
<path d="M308.228 108.886C307.419 118.291 306.57 147.389 306.118 156.828" stroke="#1E3869" stroke-width="2" stroke-linecap="round" stroke-linejoin="round"/>
<path d="M326.816 191.678L322.164 191.219C322.164 191.219 321.018 170.265 321.261 162.067C327.126 160.719 336.208 161.838 341.77 163.975C342.714 168.445 342.97 187.815 342.97 187.815" stroke="#1E3869" stroke-width="2" stroke-linecap="round" stroke-linejoin="round"/>
<path d="M322.859 191.348C323.688 188.294 327.686 181.376 331.32 181.356C334.448 181.356 337.388 185.334 338.905 189.022" stroke="#1E3869" stroke-width="2" stroke-linecap="round" stroke-linejoin="round"/>
<path d="M332.129 174.547C335.783 175.187 336.046 181.086 331.873 180.803C327.699 180.52 328.481 173.906 332.129 174.547Z" stroke="#1E3869" stroke-width="2" stroke-linecap="round" stroke-linejoin="round"/>
<path d="M332.715 161.588C332.972 158.616 333.076 155.632 333.025 152.648" stroke="#1E3869" stroke-width="2" stroke-linecap="round" stroke-linejoin="round"/>
<path d="M323.229 154.152C323.229 154.152 336.43 153.1 342.363 152.23" stroke="#1E3869" stroke-width="2" stroke-linecap="round" stroke-linejoin="round"/>
<path d="M350.056 102.319C355.099 110.578 349.604 117.664 344.764 121.608C337.388 127.628 332.938 131.667 325.212 137.209C332.938 131.667 337.556 133.413 337.779 137.58C338.001 141.746 328.825 147.032 320.924 156.828C318.53 159.795 315.908 163.375 313.379 167.238" stroke="#1E3869" stroke-width="2" stroke-linecap="round" stroke-linejoin="round"/>
<path d="M284.672 153.539C282.521 144.774 280.141 128.87 287.807 131.371C283.303 120.739 280.337 110.922 284.517 99.4945C286.263 94.7751 291.818 91.7682 297.084 92.7525C297.084 92.7525 295.169 132.53 295.061 150.923" stroke="#1E3869" stroke-width="2" stroke-linecap="round" stroke-linejoin="round"/>
<path d="M354.351 139.138C353.784 147.781 353.299 153.748 352.382 162.377C351.425 171.445 350.036 183.035 350.036 183.035" stroke="#1E3869" stroke-width="2" stroke-linecap="round" stroke-linejoin="round"/>
<path d="M203.296 134.897L203.97 135.032" stroke="#1E3869" stroke-width="2" stroke-linecap="round" stroke-linejoin="round"/>
<path d="M203.842 140.371C204.128 140.488 204.405 140.625 204.671 140.782" stroke="#1E3869" stroke-width="2" stroke-linecap="round" stroke-linejoin="round"/>
<path d="M203.707 145.63C204.181 145.667 204.641 145.807 205.055 146.041" stroke="#1E3869" stroke-width="2" stroke-linecap="round" stroke-linejoin="round"/>
<path d="M318.247 44.7755V41.9775" stroke="#1E3869" stroke-width="2" stroke-linecap="round" stroke-linejoin="round"/>
<path d="M270.264 194.301C275.658 194.826 275.307 201.13 281.301 205.034C283.795 206.665 287.274 205.924 291.468 205.378L293.234 205.115C293.268 204.285 293.308 203.422 293.356 202.499C295.722 202.499 304.015 200.301 304.015 200.301L304.305 200.234C304.21 199.445 304.116 198.663 304.015 197.901C309.563 196.653 314.465 195.433 318.807 194.301C316.723 187.471 311.573 156.633 311.573 156.633C311.573 156.633 289.405 161.258 283.647 162.498C278.928 163.516 263.482 168.27 263.482 168.27C264.082 178.632 268.444 202.769 268.444 202.769L269.314 205.748C268.794 201.177 268.127 194.085 270.264 194.301Z" fill="#56B7CD" stroke="#56B7CD" stroke-width="2" stroke-linecap="round" stroke-linejoin="round"/>
<path d="M355.982 180.453C352.517 181.127 348.566 183.675 347.892 187.269C350.744 188.192 353.508 189.763 354.324 192.791C348.357 183.149 339.141 190.006 304.015 197.901C304.952 205.068 305.511 213.563 305.943 220.244C306.371 227.067 306.371 233.91 305.943 240.733C305.943 240.733 329.688 236.101 341.5 231.786C349.112 229.002 376.977 222.139 382.33 215.511C388.33 208.095 387.596 192.588 387.596 173.306C387.596 154.024 389.699 134.6 384.312 121.763C379.647 110.666 365.468 104.059 350.029 102.319C346.159 97.3504 333.666 97.3706 333.666 97.3706C333.666 97.3706 328.077 107.308 326.297 111.178C319.467 126.132 314.525 138.47 310.136 154.152" stroke="#1E3869" stroke-width="2" stroke-linecap="round" stroke-linejoin="round"/>
<path d="M304.015 200.294C304.015 200.294 295.722 202.458 293.356 202.492C292.938 209.908 293.275 213.738 293.275 221.194C293.275 226.736 292.661 234.463 292.547 239.897L306.091 238.049" stroke="#1E3869" stroke-width="2" stroke-linecap="round" stroke-linejoin="round"/>
<path d="M268.444 202.614C259.221 203.113 262.133 217.163 262.133 223.386C262.133 227.89 261.668 232.609 264.325 236.405C267.311 240.679 271.633 240.025 276.413 239.567C281.55 239.081 286.283 237.652 291.104 236.91" stroke="#1E3869" stroke-width="2" stroke-linecap="round" stroke-linejoin="round"/>
<path d="M291.468 205.378C287.274 205.924 283.795 206.665 281.301 205.034C275.307 201.13 275.671 194.826 270.264 194.301C267.399 194.017 269.59 206.814 269.671 209.133" stroke="#1E3869" stroke-width="2" stroke-linecap="round" stroke-linejoin="round"/>
<path d="M262.133 221.95C262.558 223.811 265.403 225.752 267.931 226.089" stroke="#1E3869" stroke-width="2" stroke-linecap="round" stroke-linejoin="round"/>
<path d="M262.228 230.107C262.639 231.766 267.965 233.478 269.644 233.418" stroke="#1E3869" stroke-width="2" stroke-linecap="round" stroke-linejoin="round"/>
<path d="M324.457 237.463L325.926 239.297" stroke="#1E3869" stroke-width="2" stroke-linecap="round" stroke-linejoin="round"/>
<path d="M329.992 235.845L331.455 238.043" stroke="#1E3869" stroke-width="2" stroke-linecap="round" stroke-linejoin="round"/>
<path d="M319.251 238.798L320.721 241.003" stroke="#1E3869" stroke-width="2" stroke-linecap="round" stroke-linejoin="round"/>
<path d="M299.032 239.297C299.032 239.297 297.751 287.28 297.718 298.391C297.677 311.329 297.043 323.296 297.718 336.268C305.134 338.479 306.988 339.389 314.876 339.888C323.877 340.461 343.348 340.758 352.058 338.54C356.259 337.474 362.758 336.881 366.008 333.712C367.868 331.892 370.235 324.732 365.165 327.314C365.522 325.238 370.734 318.455 364.787 319.594C369.399 307.257 366.587 275.488 367.16 268.025C367.619 262.152 367.16 246.518 367.12 240.679C367.046 235.697 367.794 224.195 367.794 224.195" stroke="#1E3869" stroke-width="2" stroke-linecap="round" stroke-linejoin="round"/>
<path d="M273.763 240.619C273.858 249.04 273.959 266.144 273.608 274.558C272.819 293.335 274.518 313.703 273.52 332.499C269.666 332.973 265.787 333.212 261.904 333.214C255.513 333.214 249.654 332.54 247.806 332.499C247.806 327.921 248.481 309.826 248.514 305.531C248.602 298.209 248.784 289.519 249.236 282.237C250.341 264.412 252.499 246.653 253.362 228.834C254.589 203.43 257.299 184.336 262.126 159.62C262.969 155.312 269.664 130.778 269.664 130.778" stroke="#1E3869" stroke-width="2" stroke-linecap="round" stroke-linejoin="round"/>
<path d="M259.43 247.59C259.43 247.59 252.425 255.195 249.876 259.483" stroke="#1E3869" stroke-width="2" stroke-linecap="round" stroke-linejoin="round"/>
<path d="M340.253 340.016C340.253 340.016 340.381 358.159 340.199 364.092C340.011 370.342 340.105 376.544 339.781 382.781C339.572 386.826 340.004 391.842 340.037 396.447C340.078 401.638 338.062 405.521 332.507 405.818C326.843 406.122 321.045 405.96 315.368 406.074C308.963 406.216 301.952 406.789 295.608 405.892C288.865 404.935 288.286 403.121 287.8 397.04C287.214 389.732 286.769 382.47 286.769 375.115C286.68 369.746 286.876 364.377 287.355 359.028C288.313 350.014 287.632 340.724 287.564 331.642C287.483 321.588 287.353 311.535 287.173 301.485C286.877 284.806 287.922 238.38 287.922 238.38" stroke="#1E3869" stroke-width="2" stroke-linecap="round" stroke-linejoin="round"/>
<path d="M259.349 333.167C259.16 342.787 258.277 353.028 259.686 362.508C261.095 371.987 259.248 381.743 260.232 391.323C260.481 393.771 259.949 398.975 261.459 400.856C263.569 403.479 273.271 402.205 276.44 402.205C280.074 402.205 288.063 402.461 288.063 402.461" stroke="#1E3869" stroke-width="2" stroke-linecap="round" stroke-linejoin="round"/>
<path d="M336.43 423.651H292.607C292.195 423.598 291.818 423.389 291.556 423.067C291.293 422.744 291.165 422.333 291.198 421.918C291.202 421.86 291.202 421.801 291.198 421.743C291.163 421.436 291.202 421.126 291.311 420.838C291.42 420.549 291.596 420.291 291.825 420.084C296.895 416.484 304.972 417.913 311.714 417.387C316.899 417.01 323.782 416.882 328.92 416.518C331.266 416.349 333.889 415.843 336.12 416.356C336.511 418.5 336.869 421.567 336.43 423.651Z" fill="#1E3869" stroke="#1E3869" stroke-width="2" stroke-linecap="round" stroke-linejoin="round"/>
<path d="M301.271 422.066H260.818C260.337 422.067 259.872 421.889 259.514 421.566C259.157 421.243 258.932 420.799 258.883 420.32C258.844 419.967 258.904 419.609 259.056 419.287C259.209 418.966 259.448 418.693 259.746 418.5C265.942 414.536 278.159 416.437 284.914 416.551C291.495 416.666 293.733 416.302 300.226 415.823L301.271 422.066Z" fill="#1E3869" stroke="#1E3869" stroke-width="2" stroke-linecap="round" stroke-linejoin="round"/>
<path d="M261.702 213.151C262.032 215.032 264.554 217.958 267.095 217.958" stroke="#1E3869" stroke-width="2" stroke-linecap="round" stroke-linejoin="round"/>
<path d="M319.245 251.905C328.05 255.701 334.596 263.98 342.006 269.677" stroke="#1E3869" stroke-width="2" stroke-linecap="round" stroke-linejoin="round"/>
<path d="M327.308 168.378C328.178 167.879 331.515 165.924 331.549 168.175C333.059 167.697 335.871 166.416 336.478 168.931" stroke="#1E3869" stroke-width="2" stroke-linecap="round" stroke-linejoin="round"/>
<path d="M128.567 278.407C128.567 278.407 128.216 287.246 128.075 289.7" stroke="#1E3869" stroke-width="2" stroke-linecap="round" stroke-linejoin="round"/>
<path d="M164.778 321.361V321.246C163.889 321.445 162.988 321.584 162.081 321.664C161.441 321.698 160.834 321.752 160.274 321.819L160.463 323.06C160.665 325.399 161.292 329.215 161.292 329.215C161.292 329.215 150.465 330.935 134.243 332.694C118.022 334.454 108.759 335.438 108.759 335.438C108.759 335.438 107.983 325.831 107.653 321.172C107.309 316.331 106.203 300.717 106.203 300.717C106.203 300.717 112.662 299.092 119.175 298.175L120.146 298.034C118.636 296.786 117.887 294.191 117.415 291.575H117.112L106.203 292.991L105.671 293.058C104.997 306.07 104.552 319.102 103.864 331.002C103.006 331.494 102.082 331.859 101.12 332.088L102.232 341.526L166.282 333.996L164.778 321.361Z" fill="#56B7CD" stroke="#56B7CD" stroke-width="2" stroke-linecap="round" stroke-linejoin="round"/>
<path d="M155.839 293.247C155.839 293.247 156.31 296.105 156.6 297.757L156.634 297.986C158.266 297.73 160.228 297.393 161.927 297.117L160.686 286.592L125.162 290.86L124.569 290.914C124.407 293.752 124.043 296.22 123.302 297.602L123.746 297.541C124.569 297.38 155.839 293.247 155.839 293.247Z" fill="#56B7CD" stroke="#56B7CD" stroke-width="2" stroke-linecap="round" stroke-linejoin="round"/>
<path d="M58.1668 141.079C62.003 161.076 65.4751 169.025 61.6726 179.118C62.212 177.446 64.8414 166.571 67.0663 167.07C69.9653 167.744 70.3092 178.653 71.2328 180.871C70.2822 176.151 72.1969 170.448 75.8241 166.584C80.3413 161.771 97.9313 148.664 103.109 144.646C111.543 138.106 118.616 134.074 126.032 126.402C126.032 126.402 132.302 136.818 134.871 141.147C136.759 144.342 140.838 152.507 140.804 156.121C140.804 158.217 137.48 160.726 136.233 162.242C132.262 167.056 129.963 170.387 125.445 174.85C117.867 182.381 108.24 192.42 103.008 197.712C97.7762 203.005 91.5129 211.129 75.3118 217.264C68.8596 219.718 55.7599 222.193 48.4583 220.082C41.1566 217.972 34.9742 208.459 32.9516 201.697C29.6862 191.047 27.4488 180.108 26.2703 169.032" stroke="#1E3869" stroke-width="2" stroke-linecap="round" stroke-linejoin="round"/>
<path d="M134.446 155.871C134.446 155.871 127.38 163.341 122.459 168.054C120.369 170.077 118.413 172.099 116.391 174.061" stroke="#1E3869" stroke-width="2" stroke-linecap="round" stroke-linejoin="round"/>
<path d="M121.002 166.584C121.327 167.613 121.59 168.66 121.791 169.72" stroke="#1E3869" stroke-width="2" stroke-linecap="round" stroke-linejoin="round"/>
<path d="M126.376 162.242C126.322 163.27 126.462 164.299 126.787 165.276" stroke="#1E3869" stroke-width="2" stroke-linecap="round" stroke-linejoin="round"/>
<path d="M130.381 158.353C130.732 158.927 130.979 159.559 131.109 160.22" stroke="#1E3869" stroke-width="2" stroke-linecap="round" stroke-linejoin="round"/>
<path d="M128.048 127.979L133.091 123.934L146.211 146.634L140.473 152.52" stroke="#1E3869" stroke-width="2" stroke-linecap="round" stroke-linejoin="round"/>
<path d="M75.5139 85.9091C75.5139 85.9091 76.1544 77.9266 76.0465 73.7735C61.5309 83.1517 61.3287 57.9567 75.9454 61.7592C76.4443 60.2288 76.714 54.498 76.714 54.498" stroke="#1E3869" stroke-width="2" stroke-linecap="round" stroke-linejoin="round"/>
<path d="M43.152 110.389C42.1475 103.647 42.6059 97.1411 46.523 91.5452C52.8201 82.5648 56.6361 73.3417 57.9845 62.4601C58.8542 55.7181 61.9084 50.7829 64.6524 44.5061C66.7761 39.6451 67.3492 34.2986 69.7291 29.5051C74.0036 20.8483 81.7434 17.039 91.0676 15.212C97.8096 13.8636 108.772 13.7961 111.968 21.5562C113.006 24.0777 115.723 32.2558 112.433 33.4491C110.262 34.2312 101.289 27.8802 99.0771 26.8757C96.0365 32.6199 91.4115 37.1168 87.4674 42.4565C85.2223 45.5039 78.3319 53.9179 73.208 56.2035" stroke="#1E3869" stroke-width="2" stroke-linecap="round" stroke-linejoin="round"/>
<path d="M93.751 62.3794C95.2073 63.8424 97.2973 65.2043 99.4682 64.584" stroke="#1E3869" stroke-width="2" stroke-linecap="round" stroke-linejoin="round"/>
<path d="M14.6603 340.718C14.2138 349.567 13.2344 358.381 11.7275 367.113C9.47563 379.713 6.91366 392.058 3.85278 404.093C11.4848 404.356 19.6763 403.418 27.4499 403.068C32.8974 402.839 38.7832 402.899 44.0892 402.562C48.3839 389.961 50.6627 372.58 52.8538 359.413C54.2022 351.222 54.9843 346.536 55.8743 338.284" stroke="#1E3869" stroke-width="2" stroke-linecap="round" stroke-linejoin="round"/>
<path d="M1.22339 424.325H49.3884C49.5368 419.039 47.204 418.372 42.5925 418.095C35.8504 417.691 28.8859 417.792 22.1439 417.724C15.4019 417.657 8.88233 418.217 2.38976 417.799L1.22339 424.325Z" fill="#1E3869" stroke="#1E3869" stroke-width="2" stroke-linecap="round" stroke-linejoin="round"/>
<path d="M4.50684 417.745L6.73846 405.629" stroke="#1E3869" stroke-width="2" stroke-linecap="round" stroke-linejoin="round"/>
<path d="M34.9741 416.997C36.3967 411.724 37.0911 408.299 38.3047 403.014" stroke="#1E3869" stroke-width="2" stroke-linecap="round" stroke-linejoin="round"/>
<path d="M45.7141 397.161C45.7141 397.161 56.9868 397.768 63.6681 397.573C69.1899 397.411 82.0537 396.797 82.0537 396.797C82.0537 396.797 86.9214 372.256 88.2024 363.492C90.6767 346.515 93.124 329.411 93.9466 312.252C94.7084 296.429 95.1197 286.073 95.9153 270.256C96.3805 260.932 98.221 226.999 98.2075 217.904C92.1055 219.265 85.878 219.983 79.6265 220.048" stroke="#1E3869" stroke-width="2" stroke-linecap="round" stroke-linejoin="round"/>
<path d="M70.1809 398.658C68.583 403.998 65.7783 414.077 65.7783 414.077" stroke="#1E3869" stroke-width="2" stroke-linecap="round" stroke-linejoin="round"/>
<path d="M34.1448 421.763H76.4173C81.9188 412.109 64.1401 414.165 35.891 414.165" fill="#1E3869"/>
<path d="M34.1448 421.763H76.4173C81.9188 412.109 64.1401 414.165 35.891 414.165" stroke="#1E3869" stroke-width="2" stroke-linecap="round" stroke-linejoin="round"/>
<path d="M92.915 332.93C95.7669 333.126 101.437 332.566 103.851 331.029C105.199 307.472 105.664 279.473 108.57 255.997C110.384 241.434 112.238 188.226 112.238 188.226" stroke="#1E3869" stroke-width="2" stroke-linecap="round" stroke-linejoin="round"/>
<path d="M97.7627 218.087C105.651 216.435 107.748 212.12 106.527 204.852C105.462 198.508 106.089 194.901 106.089 194.901" stroke="#1E3869" stroke-width="2" stroke-linecap="round" stroke-linejoin="round"/>
<path d="M26.2566 253.658C35.3718 251.635 47.7434 244.32 53.3932 238.623" stroke="#1E3869" stroke-width="2" stroke-linecap="round" stroke-linejoin="round"/>
<path d="M129.922 170.09C130.953 184.72 131.864 197.988 132.201 203.712C133.394 224.06 134.378 235.804 134.115 256.266C134.068 259.887 134.115 266.278 133.475 269.75C128.648 271.611 111.9 271.416 108.401 271.773" stroke="#1E3869" stroke-width="2" stroke-linecap="round" stroke-linejoin="round"/>
<path d="M129.747 271.12L129.922 277.403L108.401 278.408" stroke="#1E3869" stroke-width="2" stroke-linecap="round" stroke-linejoin="round"/>
<path d="M162.068 321.651C163.962 321.557 168.601 320.336 168.601 320.336C168.156 312.644 167.34 304.283 165.432 296.625C163.261 296.746 155.204 298.371 153.512 298.344C154.348 304.014 156.883 322.426 156.883 322.426C158.581 321.996 160.318 321.736 162.068 321.651V321.651Z" stroke="#1E3869" stroke-width="2" stroke-linecap="round" stroke-linejoin="round"/>
<path d="M146.15 301.331C146.824 302.679 146.265 304.992 146.413 306.67C146.582 308.565 147.087 310.655 147.458 312.583C148.233 316.486 148.624 320.456 148.624 324.436" stroke="#1E3869" stroke-width="2" stroke-linecap="round" stroke-linejoin="round"/>
<path d="M140.116 302.308C141.208 309.401 141.074 317.43 142.894 324.24" stroke="#1E3869" stroke-width="2" stroke-linecap="round" stroke-linejoin="round"/>
<path d="M121.265 304.418C121.94 305.766 121.38 308.072 121.528 309.758C121.697 311.645 122.203 313.742 122.573 315.67C123.348 319.571 123.739 323.539 123.74 327.516" stroke="#1E3869" stroke-width="2" stroke-linecap="round" stroke-linejoin="round"/>
<path d="M115.231 305.389C116.324 312.482 116.189 320.518 118.009 327.328" stroke="#1E3869" stroke-width="2" stroke-linecap="round" stroke-linejoin="round"/>
<path d="M134.898 302.719C132.909 307.162 135.99 314.329 136.159 319.089C136.233 321.253 136.159 323.559 136.873 325.501" stroke="#1E3869" stroke-width="2" stroke-linecap="round" stroke-linejoin="round"/>
<path d="M128.048 303.724C128.297 308.18 129.221 312.778 129.565 317.302C129.787 320.161 129.315 324.044 130.306 326.775" stroke="#1E3869" stroke-width="2" stroke-linecap="round" stroke-linejoin="round"/>
<path d="M124.636 282.257C124.812 290.422 124.758 301.378 120.315 298.195C117.544 296.173 117.22 289.822 116.62 286.458" stroke="#1E3869" stroke-width="2" stroke-linecap="round" stroke-linejoin="round"/>
<path d="M111.921 34.0293C112.169 46.2631 111.407 58.4964 109.642 70.6048C108.921 75.9512 107.963 87.9318 106.473 96.3256" stroke="#1E3869" stroke-width="2" stroke-linecap="round" stroke-linejoin="round"/>
<path d="M98.3289 51.6259L98.666 49.6235" stroke="#1E3869" stroke-width="2" stroke-linecap="round" stroke-linejoin="round"/>
<path d="M106.285 51.7544L106.682 49.5093" stroke="#1E3869" stroke-width="2" stroke-linecap="round" stroke-linejoin="round"/>
<path d="M84.9528 153.539C80.3412 141.187 69.581 127.123 67.2347 124.878C62.7445 120.584 65.4481 112.453 73.2621 115.507C68.5427 110.969 56.6565 104.666 56.5891 101.652C56.4745 97.0944 66.9718 91.0401 70.599 91.4311C76.7814 92.1053 80.3277 107.956 81.4334 112.837C82.5391 117.718 87.1507 144.774 85.0067 158.352" stroke="#1E3869" stroke-width="2" stroke-linecap="round" stroke-linejoin="round"/>
<path d="M71.7922 91.4378C71.7922 91.4378 72.7092 88.741 73.2485 86.6442C78.0354 85.2216 85.6538 88.8151 89.9148 90.5343C93.2251 91.8827 94.0746 96.8179 94.5938 99.8249C95.4298 104.666 96.4815 109.466 97.0276 114.354C97.958 122.667 98.7064 140.452 97.6546 148.691" stroke="#1E3869" stroke-width="2" stroke-linecap="round" stroke-linejoin="round"/>
<path d="M80.6514 105.865C82.7818 106.681 84.6966 108.097 87.0495 108.185C89.234 104.429 89.4699 96.0019 90.0632 91.6128" stroke="#1E3869" stroke-width="2" stroke-linecap="round" stroke-linejoin="round"/>
<path d="M79.485 215.558C79.2153 220.864 71.9609 275.744 71.4957 281.165C70.8215 288.783 67.9561 315.88 67.0122 321.705C66.5875 324.334 65.3132 334.454 63.3648 336.537C61.659 338.344 52.5775 338.654 50.1504 338.897C42.9364 339.625 35.9315 340.144 28.8995 340.441C19.4607 340.839 13.9188 340.96 4.54734 340.009C0.812254 339.632 1.66849 340.124 1.12912 337.414C0.562794 334.535 2.01907 279.203 2.41685 265.564C2.81463 251.925 4.98556 234.645 6.24632 223.831C7.4464 213.529 12.3142 161.71 23.8363 138.625C27.2073 131.95 34.7314 119.41 39.7407 113.835C43.2466 109.931 50.056 104.537 56.7239 103.047" stroke="#1E3869" stroke-width="2" stroke-linecap="round" stroke-linejoin="round"/>
<path d="M110.674 103.398C117.207 111.718 121.791 121.062 123.201 129.146" stroke="#1E3869" stroke-width="2" stroke-linecap="round" stroke-linejoin="round"/>
<path d="M97.6548 121.17C99.9134 111.927 105.745 97.5729 110.296 89.4824C112.507 91.505 114.793 99.8651 113.95 102.933C112.272 102.562 107.417 103.351 105.786 102.805" stroke="#1E3869" stroke-width="2" stroke-linecap="round" stroke-linejoin="round"/>
<path d="M110.674 138.18C110.674 138.18 110.606 125.795 109.999 121.17C109.271 115.622 108.247 109.142 106.628 103.944" stroke="#1E3869" stroke-width="2" stroke-linecap="round" stroke-linejoin="round"/>
<path d="M134.844 125.498C136.829 123.74 138.556 121.711 139.974 119.471C142.462 115.763 141.566 104.052 145.179 100.472C151.699 94.6603 151.159 107.888 150.849 114.199C159.257 108.131 166.08 105.265 166.194 113.491C170.01 111.765 170.961 117.893 169.437 120.233C173.206 122.357 171.77 126.975 169.761 129.213C172.741 131.91 169.087 137.02 166.538 139.259C163.624 141.625 160.074 143.075 156.337 143.425C154.16 143.54 150.485 143.29 148.247 142.245L144.957 144.423" stroke="#1E3869" stroke-width="2" stroke-linecap="round" stroke-linejoin="round"/>
<path d="M157.167 122.545C160.753 120.395 164.684 117.489 166.181 113.491" stroke="#1E3869" stroke-width="2" stroke-linecap="round" stroke-linejoin="round"/>
<path d="M159.526 129.146C162.547 127.326 168.291 123.941 169.424 120.206" stroke="#1E3869" stroke-width="2" stroke-linecap="round" stroke-linejoin="round"/>
<path d="M163.834 134.721C166.068 133.18 168.058 131.315 169.74 129.186" stroke="#1E3869" stroke-width="2" stroke-linecap="round" stroke-linejoin="round"/>
<path d="M301.23 416.66C301.082 413.45 301.17 407.362 301.17 407.362" stroke="#1E3869" stroke-width="2" stroke-linecap="round" stroke-linejoin="round"/>
<path d="M333.504 406.486L333.147 417.334" stroke="#1E3869" stroke-width="2" stroke-linecap="round" stroke-linejoin="round"/>
<path d="M270.763 416.14C270.635 411.717 271.309 407.375 271.275 402.973" stroke="#1E3869" stroke-width="2" stroke-linecap="round" stroke-linejoin="round"/>
</svg>
