<svg width="92" height="27" viewBox="0 0 92 27" fill="none" xmlns="http://www.w3.org/2000/svg">
<g clip-path="url(#clip0_151_352)">
<path d="M29.8619 8.91798L17.2885 1.0799C16.8219 0.810676 16.288 0.668457 15.7438 0.668457C15.1996 0.668457 14.6656 0.810676 14.1991 1.0799L1.98881 8.68865C1.71505 8.84075 1.48714 9.05866 1.32745 9.32099C1.16776 9.58332 1.08179 9.88105 1.07795 10.185C1.07412 10.4889 1.15257 10.7885 1.3056 11.0545C1.45863 11.3205 1.68097 11.5436 1.95082 11.7021L14.19 19.7271C14.6518 20.0089 15.1861 20.1616 15.7331 20.168C16.28 20.1745 16.8181 20.0345 17.287 19.7636L29.8619 11.927C30.1373 11.7751 30.366 11.5561 30.5251 11.2921C30.6841 11.028 30.7679 10.7283 30.7679 10.4232C30.7679 10.1181 30.6841 9.8184 30.5251 9.55436C30.366 9.29033 30.1373 9.07131 29.8619 8.91944V8.91798ZM16.0333 17.8939C15.9493 17.9285 15.8587 17.9457 15.7673 17.9445C15.6759 17.9432 15.5858 17.9235 15.5029 17.8866L3.80173 10.2195L15.4588 2.94812C15.5487 2.91124 15.6453 2.89222 15.743 2.89222C15.8407 2.89222 15.9374 2.91124 16.0272 2.94812L28.0186 10.4196L16.0333 17.8939Z" fill="white"/>
<path d="M14.1991 7.13874L7.57956 11.2637L9.6493 12.6266L15.4589 9.00697C15.5487 8.97008 15.6454 8.95106 15.743 8.95106C15.8407 8.95106 15.9374 8.97008 16.0272 9.00697L22.01 12.7347L24.1375 11.4113L17.2885 7.13874C16.8218 6.86998 16.2879 6.72803 15.7438 6.72803C15.1997 6.72803 14.6658 6.86998 14.1991 7.13874Z" fill="white"/>
<path d="M29.8619 14.9739L28.552 14.1574L26.4245 15.4808L28.0232 16.4785L16.0318 23.9499C15.9481 23.9849 15.8578 24.003 15.7666 24.003C15.6753 24.003 15.5851 23.9849 15.5014 23.9499L3.80021 16.2813L5.31985 15.3362L3.24251 13.9675L1.98881 14.7475C1.71505 14.8996 1.48714 15.1175 1.32745 15.3799C1.16776 15.6422 1.08179 15.9399 1.07795 16.2439C1.07412 16.5478 1.15257 16.8474 1.3056 17.1134C1.45863 17.3794 1.68097 17.6025 1.95082 17.7609L14.19 25.7831C14.6517 26.0652 15.1862 26.2179 15.7333 26.2241C16.2804 26.2302 16.8184 26.0897 17.287 25.8181L29.8604 17.9815C30.1357 17.8296 30.3645 17.6106 30.5235 17.3466C30.6826 17.0826 30.7664 16.7828 30.7664 16.4777C30.7664 16.1726 30.6826 15.8729 30.5235 15.6089C30.3645 15.3448 30.1357 15.1258 29.8604 14.9739H29.8619Z" fill="white"/>
<path d="M45.3136 10.4838C44.6136 9.41258 43.5691 8.877 42.1801 8.877C41.5198 8.86636 40.8652 8.99702 40.2639 9.2595C39.6625 9.52199 39.1294 9.90973 38.7032 10.3947C37.758 11.4376 37.2854 12.7955 37.2854 14.4685C37.2854 16.1415 37.7808 17.5194 38.7716 18.6023C39.2086 19.1 39.755 19.4983 40.3715 19.7686C40.988 20.0388 41.6591 20.1743 42.3366 20.1652C43.755 20.1652 44.8076 19.5133 45.4944 18.2094L45.8136 19.8585H48.0322V4.76807H45.3136V10.4838ZM45.3136 15.1229C45.3243 15.4809 45.2588 15.8373 45.1211 16.1701C44.9834 16.5029 44.7763 16.8052 44.5128 17.0583C44.2706 17.3077 43.9749 17.5035 43.6463 17.6323C43.3176 17.761 42.9638 17.8195 42.6092 17.8038C42.2547 17.7881 41.908 17.6986 41.593 17.5414C41.278 17.3841 41.0024 17.163 40.7851 16.8933C40.2664 16.2856 40.007 15.4832 40.007 14.4861C40.007 13.4889 40.2603 12.6938 40.7669 12.1007C40.9917 11.8201 41.2813 11.5936 41.6128 11.439C41.9442 11.2843 42.3086 11.2059 42.677 11.2097C43.4399 11.2097 44.0477 11.4293 44.5006 11.8685C45.0156 12.3655 45.3074 13.0367 45.3136 13.7382V15.1229Z" fill="white"/>
<path d="M56.7504 8.87845C55.2875 8.87845 54.1731 9.55281 53.4072 10.9015V4.7666H50.7129V19.8512H53.4117V14.9067C53.4421 13.6749 53.7126 12.7498 54.2232 12.1314C54.7338 11.5131 55.3477 11.2053 56.065 11.2083C56.7813 11.2083 57.3385 11.4098 57.7366 11.813C58.1348 12.2161 58.3328 12.8136 58.3308 13.6053V19.8497H61.0281V13.6067C61.0281 12.184 60.6812 11.0403 59.9872 10.1755C59.2932 9.31082 58.2143 8.87845 56.7504 8.87845Z" fill="white"/>
<path d="M66.3119 9.14282H63.613V19.8512H66.3119V9.14282Z" fill="white"/>
<path d="M64.9625 4.19556C64.4296 4.19556 64.0178 4.3314 63.727 4.60309C63.579 4.74941 63.464 4.92353 63.3892 5.11456C63.3144 5.30558 63.2814 5.50939 63.2924 5.71322C63.2813 5.91707 63.3141 6.12092 63.3889 6.31197C63.4637 6.50302 63.5788 6.67713 63.727 6.82334C64.0173 7.09503 64.4291 7.22942 64.9625 7.22942C65.4959 7.22942 65.8895 7.09503 66.1858 6.82334C66.3372 6.67882 66.4552 6.50528 66.5322 6.31401C66.6091 6.12274 66.6433 5.91804 66.6326 5.71322C66.6433 5.5084 66.6091 5.30369 66.5322 5.11243C66.4552 4.92116 66.3372 4.74761 66.1858 4.60309C65.891 4.3314 65.4807 4.19556 64.9625 4.19556Z" fill="white"/>
<path d="M75.8278 14.1121L73.1973 13.167C72.2977 12.9167 71.8479 12.5355 71.8479 12.0233C71.8479 11.7312 72.012 11.4707 72.3403 11.2418C72.667 11.0154 73.129 10.9015 73.7231 10.9015C74.3173 10.9015 74.7762 11.0052 75.0908 11.2097C75.2407 11.2993 75.3664 11.4218 75.4578 11.5669C75.5491 11.7121 75.6036 11.876 75.6166 12.0452H78.1559C78.145 11.6051 78.0313 11.1731 77.8232 10.7809C77.6151 10.3888 77.318 10.0466 76.9539 9.77967C76.1839 9.17883 75.0863 8.87842 73.6608 8.87842C72.2354 8.87842 71.0992 9.15351 70.2523 9.70371C69.4053 10.2529 68.9819 10.9833 68.9819 11.8947C68.9819 13.2581 69.8815 14.2401 71.6807 14.841L74.1122 15.675C74.4975 15.7752 74.8616 15.9393 75.1881 16.16C75.3022 16.25 75.3927 16.3647 75.4521 16.4946C75.5115 16.6245 75.5382 16.7661 75.53 16.9078C75.53 17.2292 75.3431 17.5126 74.9708 17.7536C74.5429 18.0099 74.0445 18.1361 73.5408 18.1158C72.0323 18.1158 71.2618 17.6104 71.2294 16.5996H68.7144C68.7296 17.7292 69.1855 18.6057 70.0821 19.2289C70.9787 19.8521 72.1696 20.1642 73.6548 20.1652C75.1339 20.1652 76.3232 19.8283 77.2229 19.1544C78.0921 18.5088 78.5267 17.7468 78.5267 16.8684C78.539 16.5567 78.4833 16.2459 78.3631 15.9561C78.243 15.6663 78.0611 15.4039 77.8292 15.1857C77.3672 14.7485 76.7001 14.3906 75.8278 14.1121Z" fill="white"/>
<path d="M83.3759 17.4762V16.9518C83.3719 16.7725 83.4076 16.5945 83.4807 16.4295C83.5538 16.2646 83.6626 16.1165 83.7999 15.995C84.081 15.7394 84.543 15.5291 85.1843 15.3684L87.5853 14.7958C88.9266 14.4725 89.9012 14.0139 90.5091 13.4198C91.1169 12.8258 91.4183 11.9864 91.4132 10.9016C91.4132 9.81777 90.9482 8.90922 90.0182 8.17595C89.0558 7.41347 87.8279 7.03223 86.3346 7.03223C84.7349 7.03223 83.4539 7.36186 82.4914 8.02112C81.4804 8.72517 80.9617 9.73694 80.9353 11.0564H83.9321C84.084 9.88788 84.9305 9.3036 86.4714 9.3036C87.1724 9.3036 87.721 9.46477 88.1171 9.78709C88.3059 9.9319 88.4578 10.1163 88.561 10.3262C88.6643 10.5361 88.7162 10.7659 88.7128 10.998C88.7183 11.2244 88.6753 11.4494 88.5867 11.6591C88.4981 11.8689 88.3657 12.059 88.1977 12.2177C87.8542 12.5478 87.2631 12.8151 86.4243 13.0196L84.2466 13.5192C83.0096 13.8113 82.1095 14.2656 81.5462 14.882C80.9678 15.5413 80.678 16.479 80.677 17.6953V19.8513H91.4968V17.4762H83.3759Z" fill="white"/>
</g>
<defs>
<clipPath id="clip0_151_352">
<rect width="91.1781" height="26.5846" fill="white" transform="translate(0.698639 0.153809)"/>
</clipPath>
</defs>
</svg>
