<svg width="129" height="57" viewBox="0 0 129 57" fill="none" xmlns="http://www.w3.org/2000/svg">
<path d="M123.825 26.2329H34.0546C31.3962 26.2329 29.2412 28.3879 29.2412 31.0463V51.5033C29.2412 54.1617 31.3962 56.3167 34.0546 56.3167H123.825C126.483 56.3167 128.638 54.1617 128.638 51.5033V31.0463C128.638 28.3879 126.483 26.2329 123.825 26.2329Z" fill="#D8DEED"/>
<path d="M113.583 50.1176C108.786 50.1176 104.897 46.2254 104.897 41.4243C104.897 36.6231 108.786 32.731 113.583 32.731C118.38 32.731 122.269 36.6231 122.269 41.4243C122.269 46.2254 118.38 50.1176 113.583 50.1176ZM113.579 41.3068C114.761 41.3068 115.72 40.3601 115.72 39.1922C115.72 38.0243 114.761 37.0776 113.579 37.0776C112.396 37.0776 111.437 38.0243 111.437 39.1922C111.437 40.3601 112.396 41.3068 113.579 41.3068ZM113.579 42.3641C111.435 42.3641 109.697 44.08 109.697 46.1968H117.46C117.46 44.08 115.722 42.3641 113.579 42.3641ZM38.496 40.5549H88.7808C89.0466 40.5549 89.2621 40.7704 89.2621 41.0363V43.5509C89.2621 43.8168 89.0466 44.0323 88.7808 44.0323H38.496C38.2302 44.0323 38.0146 43.8168 38.0146 43.5509V41.0363C38.0146 40.7704 38.2302 40.5549 38.496 40.5549ZM38.496 46.2056H93.1238C93.3896 46.2056 93.6051 46.4211 93.6051 46.6869V49.2016C93.6051 49.4674 93.3896 49.6829 93.1238 49.6829H38.496C38.2302 49.6829 38.0146 49.4674 38.0146 49.2016V46.6869C38.0146 46.4211 38.2302 46.2056 38.496 46.2056Z" fill="#F2F6FB"/>
<path d="M93.9934 34.9048H38.497C38.2311 34.9048 38.0156 35.1203 38.0156 35.3861V37.9008C38.0156 38.1666 38.2311 38.3821 38.497 38.3821H93.9934C94.2592 38.3821 94.4747 38.1666 94.4747 37.9008V35.3861C94.4747 35.1203 94.2592 34.9048 93.9934 34.9048Z" fill="#E1E5F0"/>
<path d="M94.9448 0H5.17474C2.51636 0 0.361328 2.15504 0.361328 4.81341V25.2704C0.361328 27.9288 2.51636 30.0838 5.17474 30.0838H94.9448C97.6032 30.0838 99.7582 27.9288 99.7582 25.2704V4.81341C99.7582 2.15504 97.6032 0 94.9448 0Z" fill="#F2F6FB"/>
<path d="M17.8218 23.7421C13.0246 23.7421 9.13574 19.85 9.13574 15.0488C9.13574 10.2476 13.0246 6.35547 17.8218 6.35547C22.6189 6.35547 26.5078 10.2476 26.5078 15.0488C26.5078 19.85 22.6189 23.7421 17.8218 23.7421ZM17.8173 14.9313C19.0002 14.9313 19.9591 13.9846 19.9591 12.8167C19.9591 11.6489 19.0002 10.7021 17.8173 10.7021C16.6344 10.7021 15.6755 11.6489 15.6755 12.8167C15.6755 13.9846 16.6344 14.9313 17.8173 14.9313ZM17.8173 15.9886C15.6734 15.9886 13.9354 17.7045 13.9354 19.8213H21.6992C21.6992 17.7045 19.9612 15.9886 17.8173 15.9886ZM31.3321 13.3101H81.6169C81.8828 13.3101 82.0983 13.5256 82.0983 13.7915V16.3061C82.0983 16.5719 81.8828 16.7874 81.6169 16.7874H31.3321C31.0663 16.7874 30.8508 16.5719 30.8508 16.3061V13.7915C30.8508 13.5256 31.0663 13.3101 31.3321 13.3101ZM31.3321 18.9608H90.3029C90.5688 18.9608 90.7843 19.1763 90.7843 19.4421V21.9567C90.7843 22.2226 90.5688 22.4381 90.3029 22.4381H31.3321C31.0663 22.4381 30.8508 22.2226 30.8508 21.9567V19.4421C30.8508 19.1763 31.0663 18.9608 31.3321 18.9608Z" fill="#D8DEED"/>
<path d="M69.4563 7.65918H31.3319C31.0661 7.65918 30.8506 7.87468 30.8506 8.14052V10.6552C30.8506 10.921 31.0661 11.1365 31.3319 11.1365H69.4563C69.7221 11.1365 69.9377 10.921 69.9377 10.6552V8.14052C69.9377 7.87468 69.7221 7.65918 69.4563 7.65918Z" fill="#E1E5F0"/>
</svg>
