<svg width="155" height="116" viewBox="0 0 155 116" fill="none" xmlns="http://www.w3.org/2000/svg">
<g clip-path="url(#clip0_2960_18351)">
<path d="M148.566 0H6.43449C3.15696 0 0.5 2.67018 0.5 5.96401V110.036C0.5 113.33 3.15696 116 6.43449 116H148.566C151.843 116 154.5 113.33 154.5 110.036V5.96401C154.5 2.67018 151.843 0 148.566 0Z" fill="#F2F6FB"/>
<path d="M68.7464 17.8921H12.072C10.761 17.8921 9.69824 18.9602 9.69824 20.2777V21.1723C9.69824 22.4898 10.761 23.5579 12.072 23.5579H68.7464C70.0574 23.5579 71.1202 22.4898 71.1202 21.1723V20.2777C71.1202 18.9602 70.0574 17.8921 68.7464 17.8921Z" fill="#D8DEED"/>
<path fill-rule="evenodd" clip-rule="evenodd" d="M9.40137 30.4147C9.40137 29.7569 9.934 29.2236 10.5886 29.2236H92.4839C93.1396 29.2236 93.6711 29.7593 93.6711 30.4147V37.8659C93.6711 38.5237 93.1385 39.0569 92.4839 39.0569H10.5886C9.93291 39.0569 9.40137 38.5213 9.40137 37.8659V30.4147ZM9.40137 45.1646C9.40137 44.5068 9.934 43.9736 10.5886 43.9736H92.4839C93.1396 43.9736 93.6711 44.5092 93.6711 45.1646V52.6159C93.6711 53.2736 93.1385 53.8069 92.4839 53.8069H10.5886C9.93291 53.8069 9.40137 53.2712 9.40137 52.6159V45.1646ZM9.40137 59.9146C9.40137 59.2568 9.93322 58.7235 10.5885 58.7235H48.2424C48.898 58.7235 49.4295 59.2592 49.4295 59.9146V67.3658C49.4295 68.0236 48.8976 68.5568 48.2424 68.5568H10.5885C9.93285 68.5568 9.40137 68.0212 9.40137 67.3658V59.9146ZM54.3452 59.9146C54.3452 59.2568 54.8788 58.7235 55.5329 58.7235H92.4835C93.1394 58.7235 93.6711 59.2592 93.6711 59.9146V67.3658C93.6711 68.0236 93.1376 68.5568 92.4835 68.5568H55.5329C54.877 68.5568 54.3452 68.0212 54.3452 67.3658V59.9146ZM9.40137 74.6645C9.40137 74.0067 9.934 73.4735 10.5886 73.4735H92.4839C93.1396 73.4735 93.6711 74.0092 93.6711 74.6645V82.1158C93.6711 82.7735 93.1385 83.3068 92.4839 83.3068H10.5886C9.93291 83.3068 9.40137 82.7711 9.40137 82.1158V74.6645Z" fill="white"/>
<path d="M14.2937 88.2236H32.599C33.6096 88.2236 34.4901 88.4314 35.2149 88.8212C35.9397 89.211 36.5088 89.7829 36.8967 90.5113C37.2846 91.2397 37.4913 92.1246 37.4913 93.1403C37.4913 94.156 37.2846 95.0408 36.8967 95.7692C36.5088 96.4976 35.9397 97.0696 35.2149 97.4594C34.4901 97.8492 33.6096 98.0569 32.599 98.0569H14.2937C13.283 98.0569 12.4025 97.8492 11.6777 97.4594C10.9529 97.0696 10.3839 96.4976 9.99596 95.7692C9.60807 95.0408 9.40137 94.156 9.40137 93.1403C9.40137 92.1246 9.60807 91.2397 9.99596 90.5113C10.3839 89.7829 10.9529 89.211 11.6777 88.8212C12.4025 88.4314 13.283 88.2236 14.2937 88.2236Z" fill="#474BFF"/>
<path d="M108.527 29.2236H137.332C138.654 29.2236 139.725 30.3006 139.725 31.6291V32.4641C139.725 33.7926 138.654 34.8696 137.332 34.8696H108.527C107.205 34.8696 106.134 33.7926 106.134 32.4641V31.6291C106.134 30.3006 107.205 29.2236 108.527 29.2236ZM108.527 38.3983H140.131C141.453 38.3983 142.525 39.4752 142.525 40.8038V41.6387C142.525 42.9672 141.453 44.0442 140.131 44.0442H108.527C107.205 44.0442 106.134 42.9672 106.134 41.6387V40.8038C106.134 39.4752 107.205 38.3983 108.527 38.3983ZM108.527 47.5729H138.731C140.053 47.5729 141.125 48.6499 141.125 49.9784V50.8133C141.125 52.1419 140.053 53.2188 138.731 53.2188H108.527C107.205 53.2188 106.134 52.1419 106.134 50.8133V49.9784C106.134 48.6499 107.205 47.5729 108.527 47.5729ZM108.527 56.7475H140.831C142.153 56.7475 143.224 57.8245 143.224 59.153V59.988C143.224 61.3165 142.153 62.3935 140.831 62.3935H108.527C107.205 62.3935 106.134 61.3165 106.134 59.988V59.153C106.134 57.8245 107.205 56.7475 108.527 56.7475ZM108.527 65.9222H135.932C137.254 65.9222 138.326 66.9991 138.326 68.3277V69.1626C138.326 70.4911 137.254 71.5681 135.932 71.5681H108.527C107.205 71.5681 106.134 70.4911 106.134 69.1626V68.3277C106.134 66.9991 107.205 65.9222 108.527 65.9222Z" fill="#E1E5F0"/>
</g>
<defs>
<clipPath id="clip0_2960_18351">
<rect width="154" height="116" fill="white" transform="translate(0.5)"/>
</clipPath>
</defs>
</svg>
