<svg width="149" height="114" viewBox="0 0 149 114" fill="none" xmlns="http://www.w3.org/2000/svg">
<g clip-path="url(#clip0_2960_18266)">
<path d="M142.662 0H6.33826C3.11388 0 0.5 2.62414 0.5 5.86118V108.139C0.5 111.376 3.11388 114 6.33826 114H142.662C145.886 114 148.5 111.376 148.5 108.139V5.86118C148.5 2.62414 145.886 0 142.662 0Z" fill="#F2F6FB"/>
<path d="M10.7174 31.5864H63.03C63.8361 31.5864 64.4896 32.2425 64.4896 33.0517V35.6389C64.4896 36.4482 63.8361 37.1042 63.03 37.1042H10.7174C9.91128 37.1042 9.25781 36.4482 9.25781 35.6389V33.0517C9.25781 32.2425 9.91128 31.5864 10.7174 31.5864ZM10.7174 40.5528H69.934C70.7401 40.5528 71.3935 41.2089 71.3935 42.0181V44.6054C71.3935 45.4146 70.7401 46.0707 69.934 46.0707H10.7174C9.91128 46.0707 9.25781 45.4146 9.25781 44.6054V42.0181C9.25781 41.2089 9.91128 40.5528 10.7174 40.5528ZM10.7174 58.4857H76.838C77.644 58.4857 78.2975 59.1417 78.2975 59.951V62.5382C78.2975 63.3475 77.644 64.0035 76.838 64.0035H10.7174C9.91128 64.0035 9.25781 63.3475 9.25781 62.5382V59.951C9.25781 59.1417 9.91128 58.4857 10.7174 58.4857ZM10.7174 67.4521H56.126C56.9321 67.4521 57.5856 68.1082 57.5856 68.9174V71.5046C57.5856 72.3139 56.9321 72.9699 56.126 72.9699H10.7174C9.91128 72.9699 9.25781 72.3139 9.25781 71.5046V68.9174C9.25781 68.1082 9.91128 67.4521 10.7174 67.4521ZM10.7174 76.4185H69.934C70.7401 76.4185 71.3935 77.0746 71.3935 77.8838V80.4711C71.3935 81.2803 70.7401 81.9364 69.934 81.9364H10.7174C9.91128 81.9364 9.25781 81.2803 9.25781 80.4711V77.8838C9.25781 77.0746 9.91128 76.4185 10.7174 76.4185ZM10.7174 85.385H76.838C77.644 85.385 78.2975 86.041 78.2975 86.8503V89.4375C78.2975 90.2467 77.644 90.9028 76.838 90.9028H10.7174C9.91128 90.9028 9.25781 90.2467 9.25781 89.4375V86.8503C9.25781 86.041 9.91128 85.385 10.7174 85.385Z" fill="#E1E5F0"/>
<path d="M76.838 22.8584H10.7174C9.91128 22.8584 9.25781 23.5144 9.25781 24.3237V26.5271C9.25781 27.3364 9.91128 27.9924 10.7174 27.9924H76.838C77.644 27.9924 78.2975 27.3364 78.2975 26.5271V24.3237C78.2975 23.5144 77.644 22.8584 76.838 22.8584Z" fill="#D8DEED"/>
<path d="M96.1217 31.5864H141.786C142.592 31.5864 143.246 32.2425 143.246 33.0517V35.714C143.246 36.5232 142.592 37.1793 141.786 37.1793H96.1217C95.3156 37.1793 94.6621 36.5232 94.6621 35.714V33.0517C94.6621 32.2425 95.3156 31.5864 96.1217 31.5864ZM96.1217 40.6748H127.905C128.711 40.6748 129.365 41.3308 129.365 42.1401V44.8023C129.365 45.6116 128.711 46.2676 127.905 46.2676H96.1217C95.3156 46.2676 94.6621 45.6116 94.6621 44.8023V42.1401C94.6621 41.3308 95.3156 40.6748 96.1217 40.6748ZM96.1217 49.7631H134.846C135.652 49.7631 136.305 50.4192 136.305 51.2284V53.8907C136.305 54.6999 135.652 55.356 134.846 55.356H96.1217C95.3156 55.356 94.6621 54.6999 94.6621 53.8907V51.2284C94.6621 50.4192 95.3156 49.7631 96.1217 49.7631ZM96.1217 58.8515H120.965C121.771 58.8515 122.424 59.5075 122.424 60.3168V62.979C122.424 63.7883 121.771 64.4443 120.965 64.4443H96.1217C95.3156 64.4443 94.6621 63.7883 94.6621 62.979V60.3168C94.6621 59.5075 95.3156 58.8515 96.1217 58.8515Z" fill="#E1E5F0"/>
</g>
<defs>
<clipPath id="clip0_2960_18266">
<rect width="148" height="114" fill="white" transform="translate(0.5)"/>
</clipPath>
</defs>
</svg>
