<svg width="49" height="57" viewBox="0 0 49 57" fill="none" xmlns="http://www.w3.org/2000/svg">
<path d="M48.5 12.3335C48.5 17.4802 44.3133 21.6668 39.1667 21.6668C34.02 21.6668 29.8333 17.4802 29.8333 12.3335C29.8333 7.18684 34.02 3.00018 39.1667 3.00018C44.3133 3.00018 48.5 7.18684 48.5 12.3335ZM43.1667 26.4402C41.8333 26.7868 40.5 27.0002 39.1667 27.0002C35.279 26.9931 31.5526 25.4456 28.8036 22.6966C26.0545 19.9476 24.507 16.2212 24.5 12.3335C24.5 8.41351 26.0467 4.86684 28.5 2.22684C28.0161 1.63362 27.4059 1.15583 26.7139 0.828294C26.0219 0.500758 25.2656 0.331724 24.5 0.33351C21.5667 0.33351 19.1667 2.73351 19.1667 5.66684V6.44018C11.2467 8.78684 5.83333 16.0668 5.83333 24.3335V40.3335L0.5 45.6668V48.3335H48.5V45.6668L43.1667 40.3335V26.4402ZM24.5 56.3335C27.46 56.3335 29.8333 53.9602 29.8333 51.0002H19.1667C19.1667 52.4147 19.7286 53.7712 20.7288 54.7714C21.729 55.7716 23.0855 56.3335 24.5 56.3335Z" fill="#D8DEED"/>
</svg>
