<svg width="171" height="130" viewBox="0 0 171 130" fill="none" xmlns="http://www.w3.org/2000/svg">
<g clip-path="url(#clip0_2960_18317)">
<path d="M163.459 0H7.20611C3.50243 0 0.5 2.99244 0.5 6.6838V123.316C0.5 127.008 3.50243 130 7.20611 130H163.459C167.162 130 170.165 127.008 170.165 123.316V6.6838C170.165 2.99244 167.162 0 163.459 0Z" fill="#F2F6FB"/>
<path d="M8.88253 21.3882H13.7109C14.0813 21.3882 14.3815 21.6874 14.3815 22.0566V23.7984C14.3815 24.1675 14.0813 24.4668 13.7109 24.4668H8.88253C8.51216 24.4668 8.21191 24.1675 8.21191 23.7984V22.0566C8.21191 21.6874 8.51216 21.3882 8.88253 21.3882ZM139.987 21.3882H161.782C162.152 21.3882 162.453 21.6874 162.453 22.0566V23.7984C162.453 24.1675 162.152 24.4668 161.782 24.4668H139.987C139.617 24.4668 139.316 24.1675 139.316 23.7984V22.0566C139.316 21.6874 139.617 21.3882 139.987 21.3882ZM98.3421 21.3882H120.137C120.507 21.3882 120.808 21.6874 120.808 22.0566V23.7984C120.808 24.1675 120.507 24.4668 120.137 24.4668H98.3421C97.9717 24.4668 97.6715 24.1675 97.6715 23.7984V22.0566C97.6715 21.6874 97.9717 21.3882 98.3421 21.3882ZM124.563 21.3882H135.561C135.931 21.3882 136.232 21.6874 136.232 22.0566V23.7984C136.232 24.1675 135.931 24.4668 135.561 24.4668H124.563C124.193 24.4668 123.892 24.1675 123.892 23.7984V22.0566C123.892 21.6874 124.193 21.3882 124.563 21.3882Z" fill="#D8DEED"/>
<path d="M16.5944 43.708H61.5254C61.8958 43.708 62.196 44.0073 62.196 44.3764V49.1968C62.196 49.566 61.8958 49.8652 61.5254 49.8652H16.5944C16.2241 49.8652 15.9238 49.566 15.9238 49.1968V44.3764C15.9238 44.0073 16.2241 43.708 16.5944 43.708ZM16.5944 53.7135H53.8134C54.1837 53.7135 54.484 54.0127 54.484 54.3818V59.2023C54.484 59.5714 54.1837 59.8707 53.8134 59.8707H16.5944C16.2241 59.8707 15.9238 59.5714 15.9238 59.2023V54.3818C15.9238 54.0127 16.2241 53.7135 16.5944 53.7135ZM16.5944 73.7244H38.3893C38.7597 73.7244 39.0599 74.0236 39.0599 74.3927V79.2132C39.0599 79.5823 38.7597 79.8816 38.3893 79.8816H16.5944C16.2241 79.8816 15.9238 79.5823 15.9238 79.2132V74.3927C15.9238 74.0236 16.2241 73.7244 16.5944 73.7244ZM16.5944 63.7189H61.5254C61.8958 63.7189 62.196 64.0182 62.196 64.3873V69.2077C62.196 69.5769 61.8958 69.8761 61.5254 69.8761H16.5944C16.2241 69.8761 15.9238 69.5769 15.9238 69.2077V64.3873C15.9238 64.0182 16.2241 63.7189 16.5944 63.7189Z" fill="#E1E5F0"/>
<path d="M63.9482 92.9658H105.175C107.334 92.9658 108.161 93.1985 108.981 93.6354C109.8 94.0723 110.443 94.7134 110.882 95.5303C111.32 96.3472 111.554 97.1712 111.554 99.3235V102.001C111.554 104.153 111.32 104.977 110.882 105.794C110.443 106.611 109.8 107.252 108.981 107.689C108.161 108.126 107.334 108.359 105.175 108.359H63.9482C61.7887 108.359 60.962 108.126 60.1424 107.689C59.3227 107.252 58.6795 106.611 58.2411 105.794C57.8028 104.977 57.5693 104.153 57.5693 102.001V99.3235C57.5693 97.1712 57.8028 96.3472 58.2411 95.5303C58.6795 94.7134 59.3227 94.0723 60.1424 93.6354C60.962 93.1985 61.7887 92.9658 63.9482 92.9658Z" fill="#D8DEED"/>
<path d="M103.104 52.2349H141.328V67.0768C141.328 69.3168 139.928 71.3193 137.819 72.0939C132.618 74.0045 127.417 74.9598 122.216 74.9598C117.015 74.9598 111.814 74.0045 106.613 72.0939C104.504 71.3193 103.104 69.3168 103.104 67.0768V52.2349Z" fill="#D8DEED"/>
<path d="M87.435 53.6348L118.246 64.7159C121.031 65.7174 124.088 65.664 126.836 64.566L154.255 53.6088C155.287 53.1967 155.787 52.0294 155.374 51.0015C155.162 50.4758 154.738 50.0638 154.205 49.8672L126.548 39.6663C123.973 38.7164 121.15 38.6701 118.544 39.5349L87.4821 49.8463C86.4279 50.1962 85.858 51.3316 86.2091 52.3823C86.4038 52.9648 86.8555 53.4263 87.435 53.6348Z" fill="#E1E5F0"/>
<path d="M148.538 66.09C149.42 66.4264 150.047 67.2781 150.047 68.2758C150.047 69.1356 149.581 69.8871 148.888 70.2936C148.949 70.4027 148.994 70.4992 149.025 70.583C150.488 74.5474 152.345 78.7511 148.103 78.966C145.665 79.0895 145.271 76.2618 146.92 70.4829C146.007 70.1626 145.352 69.2953 145.352 68.2758C145.352 67.2781 145.979 66.4264 146.861 66.09V57.0414L122.029 51.3781C121.578 51.2752 121.296 50.8271 121.399 50.3773C121.503 49.9275 121.952 49.6463 122.403 49.7493L147.887 55.5611C148.268 55.648 148.538 55.9859 148.538 56.3755V66.09Z" fill="#D8DEED"/>
</g>
<defs>
<clipPath id="clip0_2960_18317">
<rect width="170" height="130" fill="white" transform="translate(0.5)"/>
</clipPath>
</defs>
</svg>
