<svg width="119" height="89" viewBox="0 0 119 89" fill="none" xmlns="http://www.w3.org/2000/svg">
<g clip-path="url(#clip0_2960_18289)">
<path d="M117.136 0H1.86416C1.11076 0 0.5 0.614601 0.5 1.37275V87.6273C0.5 88.3854 1.11076 89 1.86416 89H117.136C117.889 89 118.5 88.3854 118.5 87.6273V1.37275C118.5 0.614601 117.889 0 117.136 0Z" fill="#F2F6FB"/>
<path d="M20.7344 24.5073H98.4222V74.0558C98.4222 74.5603 98.0135 74.9693 97.5127 74.9693H21.6439C21.1416 74.9693 20.7344 74.5594 20.7344 74.0558V24.5073ZM27.8898 32.1144V38.5268C27.8898 39.0314 28.2974 39.4399 28.8002 39.4399H35.1572C35.662 39.4399 36.0675 39.0311 36.0675 38.5268V32.1144C36.0675 31.6098 35.6599 31.2013 35.1572 31.2013H28.8002C28.2954 31.2013 27.8898 31.6101 27.8898 32.1144ZM27.8898 46.0172V52.4296C27.8898 52.9342 28.2974 53.3427 28.8002 53.3427H35.1572C35.662 53.3427 36.0675 52.9339 36.0675 52.4296V46.0172C36.0675 45.5126 35.6599 45.104 35.1572 45.104H28.8002C28.2954 45.104 27.8898 45.5129 27.8898 46.0172ZM41.6896 32.1144V38.5268C41.6896 39.0314 42.0972 39.4399 42.6 39.4399H48.957C49.4618 39.4399 49.8673 39.0311 49.8673 38.5268V32.1144C49.8673 31.6098 49.4597 31.2013 48.957 31.2013H42.6C42.0952 31.2013 41.6896 31.6101 41.6896 32.1144ZM41.6896 46.0172V52.4296C41.6896 52.9342 42.0972 53.3427 42.6 53.3427H48.957C49.4618 53.3427 49.8673 52.9339 49.8673 52.4296V46.0172C49.8673 45.5126 49.4597 45.104 48.957 45.104H42.6C42.0952 45.104 41.6896 45.5129 41.6896 46.0172ZM55.4894 32.1144V38.5268C55.4894 39.0314 55.897 39.4399 56.3998 39.4399H62.7568C63.2616 39.4399 63.6671 39.0311 63.6671 38.5268V32.1144C63.6671 31.6098 63.2595 31.2013 62.7568 31.2013H56.3998C55.895 31.2013 55.4894 31.6101 55.4894 32.1144ZM55.4894 46.0172V52.4296C55.4894 52.9342 55.897 53.3427 56.3998 53.3427H62.7568C63.2616 53.3427 63.6671 52.9339 63.6671 52.4296V46.0172C63.6671 45.5126 63.2595 45.104 62.7568 45.104H56.3998C55.895 45.104 55.4894 45.5129 55.4894 46.0172ZM69.2893 32.1144V38.5268C69.2893 39.0314 69.6968 39.4399 70.1996 39.4399H76.5566C77.0614 39.4399 77.4669 39.0311 77.4669 38.5268V32.1144C77.4669 31.6098 77.0594 31.2013 76.5566 31.2013H70.1996C69.6948 31.2013 69.2893 31.6101 69.2893 32.1144ZM83.0891 32.1144V38.5268C83.0891 39.0314 83.4966 39.4399 83.9994 39.4399H90.3564C90.8612 39.4399 91.2667 39.0311 91.2667 38.5268V32.1144C91.2667 31.6098 90.8592 31.2013 90.3564 31.2013H83.9994C83.4946 31.2013 83.0891 31.6101 83.0891 32.1144ZM83.0891 46.0172V52.4296C83.0891 52.9342 83.4966 53.3427 83.9994 53.3427H90.3564C90.8612 53.3427 91.2667 52.9339 91.2667 52.4296V46.0172C91.2667 45.5126 90.8592 45.104 90.3564 45.104H83.9994C83.4946 45.104 83.0891 45.5129 83.0891 46.0172ZM27.8898 59.92V66.3324C27.8898 66.837 28.2974 67.2455 28.8002 67.2455H35.1572C35.662 67.2455 36.0675 66.8367 36.0675 66.3324V59.92C36.0675 59.4154 35.6599 59.0068 35.1572 59.0068H28.8002C28.2954 59.0068 27.8898 59.4157 27.8898 59.92ZM41.6896 59.92V66.3324C41.6896 66.837 42.0972 67.2455 42.6 67.2455H48.957C49.4618 67.2455 49.8673 66.8367 49.8673 66.3324V59.92C49.8673 59.4154 49.4597 59.0068 48.957 59.0068H42.6C42.0952 59.0068 41.6896 59.4157 41.6896 59.92ZM55.4894 59.92V66.3324C55.4894 66.837 55.897 67.2455 56.3998 67.2455H62.7568C63.2616 67.2455 63.6671 66.8367 63.6671 66.3324V59.92C63.6671 59.4154 63.2595 59.0068 62.7568 59.0068H56.3998C55.895 59.0068 55.4894 59.4157 55.4894 59.92ZM69.2893 59.92V66.3324C69.2893 66.837 69.6968 67.2455 70.1996 67.2455H76.5566C77.0614 67.2455 77.4669 66.8367 77.4669 66.3324V59.92C77.4669 59.4154 77.0594 59.0068 76.5566 59.0068H70.1996C69.6948 59.0068 69.2893 59.4157 69.2893 59.92ZM83.0891 59.92V66.3324C83.0891 66.837 83.4966 67.2455 83.9994 67.2455H90.3564C90.8612 67.2455 91.2667 66.8367 91.2667 66.3324V59.92C91.2667 59.4154 90.8592 59.0068 90.3564 59.0068H83.9994C83.4946 59.0068 83.0891 59.4157 83.0891 59.92Z" fill="#E1E5F0"/>
<path d="M76.5573 45.104H70.1985C69.6962 45.104 69.2891 45.5137 69.2891 46.0192V52.4275C69.2891 52.933 69.6962 53.3427 70.1985 53.3427H76.5573C77.0596 53.3427 77.4667 52.933 77.4667 52.4275V46.0192C77.4667 45.5137 77.0596 45.104 76.5573 45.104Z" fill="#FFCB3D"/>
<path d="M20.7344 14.6714C20.7344 14.1652 21.143 13.7549 21.6439 13.7549H97.5127C98.015 13.7549 98.4222 14.1638 98.4222 14.6714V26.15H20.7344V14.6714ZM47.2554 17.8866C47.0043 17.8866 46.8007 18.0915 46.8007 18.3442V21.5607C46.8007 21.8134 47.0043 22.0183 47.2554 22.0183H71.9012C72.1523 22.0183 72.3559 21.8134 72.3559 21.5607V18.3442C72.3559 18.0915 72.1523 17.8866 71.9012 17.8866H47.2554Z" fill="#D8DEED"/>
</g>
<defs>
<clipPath id="clip0_2960_18289">
<rect width="118" height="89" fill="white" transform="translate(0.5)"/>
</clipPath>
</defs>
</svg>
