<svg width="663" height="362" viewBox="0 0 663 362" fill="none" xmlns="http://www.w3.org/2000/svg">
<path fill-rule="evenodd" clip-rule="evenodd" d="M173.556 143.045C174.278 143.045 174.863 143.631 174.863 144.353C174.863 145.049 174.319 145.618 173.633 145.658L173.556 145.66H126.115C93.7066 145.66 67.3555 171.699 66.8318 203.997L66.8238 204.978V359.786C66.8238 360.508 66.2387 361.094 65.5169 361.094C64.8209 361.094 64.2519 360.55 64.2122 359.863L64.21 359.786V204.978C64.21 171.125 91.3839 143.601 125.091 143.054L126.115 143.045H173.556Z" fill="#1E3869"/>
<path fill-rule="evenodd" clip-rule="evenodd" d="M241.356 223.111C242.269 222.806 243.256 223.299 243.562 224.212L243.824 225.011L244.239 226.298C244.327 226.574 244.417 226.86 244.51 227.155C245.22 229.408 245.929 231.765 246.592 234.112C246.891 235.173 247.175 236.209 247.44 237.214L247.596 237.814C248.637 241.83 249.326 245.158 249.568 247.605C249.662 248.563 248.963 249.417 248.005 249.512C247.047 249.606 246.194 248.906 246.099 247.948C245.886 245.784 245.258 242.72 244.305 239.009L244.223 238.689C243.921 237.523 243.591 236.31 243.238 235.06C242.667 233.038 242.06 231.006 241.448 229.041L241.186 228.203C241.033 227.717 240.887 227.258 240.749 226.829L240.256 225.317C239.951 224.404 240.444 223.416 241.356 223.111Z" fill="#1E3869"/>
<path fill-rule="evenodd" clip-rule="evenodd" d="M305.659 217.402C306.591 217.457 307.308 218.235 307.299 219.158L307.257 220.011C307.23 220.574 307.203 221.218 307.178 221.935L307.169 222.208C306.897 230.249 307.006 239.33 307.772 248.238C307.854 249.197 307.144 250.041 306.185 250.124C305.226 250.206 304.382 249.496 304.299 248.536C303.544 239.746 303.417 230.817 303.662 222.835L303.705 221.541C303.721 221.096 303.738 220.679 303.755 220.294L303.817 219.04C303.872 218.108 304.649 217.39 305.572 217.399L305.659 217.402Z" fill="#1E3869"/>
<path fill-rule="evenodd" clip-rule="evenodd" d="M353.348 169.001C353.864 168.497 354.692 168.506 355.196 169.023C355.488 169.322 355.682 169.703 355.866 170.228L355.932 170.422C356.062 170.822 356.193 171.315 356.344 171.965L356.531 172.795C356.701 173.575 357.045 175.187 357.125 175.551C357.781 178.551 358.38 180.852 359.159 183.123C362.021 191.468 366.331 196.063 373.017 195.956C373.738 195.944 374.333 196.52 374.344 197.242C374.356 197.964 373.78 198.559 373.058 198.571C364.971 198.701 359.874 193.265 356.687 183.971C355.903 181.686 355.299 179.398 354.656 176.492L353.912 173.054L353.805 172.585C353.646 171.902 353.517 171.428 353.401 171.097C353.365 170.996 353.333 170.914 353.305 170.853L353.285 170.811C353.277 170.796 353.285 170.807 353.326 170.85C352.822 170.334 352.832 169.506 353.348 169.001Z" fill="#1E3869"/>
<path fill-rule="evenodd" clip-rule="evenodd" d="M178.174 177.869C171.03 181.007 160.748 187.152 152.471 199.835C164.146 195.041 204.269 230.953 232.717 222.803C219.517 221.409 191.156 200.576 178.174 177.869Z" fill="#1E3869"/>
<path fill-rule="evenodd" clip-rule="evenodd" d="M200.789 119.375C201.441 119.065 202.221 119.343 202.531 119.995C202.841 120.647 202.563 121.427 201.912 121.737C185.878 129.363 176.676 138.718 173.626 149.376C170.955 158.707 173.043 168.98 179.216 179.563C179.68 180.359 179.198 181.372 178.289 181.514C174.643 182.083 169.333 185.203 162.185 191.801L161.612 192.334C152.214 201.133 140.591 215.055 126.528 234.935C103.403 267.585 93.4505 297.949 99.1025 320.124C105.197 344.037 129.069 357.719 170.573 358.435C171.295 358.448 171.87 359.043 171.857 359.765C171.845 360.487 171.25 361.063 170.528 361.05C127.966 360.315 103.002 346.007 96.5697 320.77C90.6895 297.7 100.871 266.637 124.395 233.423L125.258 232.205C139.174 212.636 150.719 198.89 160.122 190.148L160.412 189.879C166.807 183.977 171.918 180.659 175.918 179.4L176.09 179.347L176.015 179.21C170.305 168.746 168.408 158.466 171.028 148.96L171.113 148.656C174.392 137.199 184.13 127.299 200.789 119.375Z" fill="#1E3869"/>
<path fill-rule="evenodd" clip-rule="evenodd" d="M387.397 73.5344C388.025 73.0023 388.975 73.1788 389.376 73.8825L389.421 73.9693L389.68 74.4841C389.886 74.8918 390.137 75.3806 390.433 75.9526L391.003 77.0453C391.897 78.7518 392.981 80.7796 394.263 83.1369C394.46 83.4923 394.649 83.595 395.48 83.7542L395.587 83.7744C397.321 84.0965 398.109 84.3497 399.266 85.1891C400.796 86.2981 402.165 88.1473 403.459 90.9878L403.492 91.0686L403.52 91.1515L430.835 181.587L430.855 181.662L431.104 182.708C434.211 195.871 435.825 205.782 436.024 214.874L436.031 215.233C436.238 226.852 433.969 236.379 428.683 244.046C416.529 261.675 388.703 268.833 340.742 264.468L340.087 264.407L340.045 264.433C339.877 264.528 339.686 264.586 339.483 264.598L339.406 264.6C338.71 264.6 338.141 264.056 338.101 263.369L338.099 263.292V263.031C338.099 262.26 338.762 261.656 339.529 261.729C387.541 266.293 414.928 259.391 426.531 242.562C431.472 235.396 433.615 226.394 433.417 215.279C433.26 206.43 431.709 196.73 428.679 183.814L428.322 182.306L401.045 91.9956L400.978 91.8508C399.927 89.5954 398.889 88.1861 397.835 87.3825L397.733 87.3066C397.036 86.8014 396.562 86.6277 395.412 86.4029L395.11 86.3454C393.491 86.0448 392.663 85.6397 391.973 84.3969L390.959 82.5262C389.991 80.7299 389.155 79.1563 388.446 77.7975L387.919 76.7824L387.797 76.5448L387.716 76.6042C383.856 79.4056 378.939 81.2081 373.207 82.1647L372.855 82.2222C366.528 83.2342 359.804 83.1678 353.444 82.4507C352.877 82.3867 352.339 82.3201 351.835 82.2524L351.113 82.151L351.075 82.8498C351.042 83.5085 351.008 84.2564 350.976 85.0984L350.909 86.9917L350.851 88.9203C350.84 89.3246 350.83 89.7401 350.819 90.1669C350.748 93.1069 349.791 94.7507 347.406 97.0419L346.756 97.6545C344.097 100.149 343.248 101.781 343.564 105.419L343.577 105.557L355.546 169.697C355.713 170.589 354.944 171.367 354.062 171.229L353.989 171.215L320.705 164.111C320.188 164.001 319.788 163.589 319.693 163.068C318.434 156.207 316.419 149.313 313.566 142.937C310.017 135.004 305.369 128.321 299.52 123.291C298.973 122.821 298.911 121.995 299.381 121.447C299.852 120.9 300.677 120.837 301.224 121.308C307.39 126.61 312.256 133.607 315.952 141.868C318.724 148.063 320.723 154.709 322.027 161.351L322.101 161.735L352.616 168.249L340.991 105.949L340.98 105.863C340.731 103.275 341.072 101.203 341.96 99.447C342.615 98.1514 343.373 97.2566 344.8 95.905L345.313 95.4236C347.412 93.4558 348.121 92.3522 348.202 90.2482L348.25 88.4457C348.261 88.0463 348.272 87.6581 348.284 87.2808L348.342 85.569C348.395 84.1258 348.45 82.9302 348.505 81.9616L348.559 81.0983L348.603 80.5133C348.672 79.7728 349.341 79.2439 350.068 79.3366L350.635 79.4323C350.772 79.4546 350.922 79.4783 351.085 79.5031C351.861 79.6219 352.751 79.7409 353.737 79.8522C359.881 80.545 366.383 80.6091 372.442 79.64C378.599 78.6553 383.697 76.6689 387.397 73.5344Z" fill="#1E3869"/>
<path fill-rule="evenodd" clip-rule="evenodd" d="M343.699 320.91C344.395 320.899 344.972 321.435 345.022 322.121L345.026 322.198L345.592 359.461C345.603 360.183 345.027 360.778 344.305 360.789C343.609 360.799 343.032 360.264 342.982 359.578L342.978 359.501L342.412 322.237C342.401 321.515 342.977 320.921 343.699 320.91Z" fill="#1E3869"/>
<path fill-rule="evenodd" clip-rule="evenodd" d="M336.487 166.145C331.216 163.966 324.245 163.138 319.628 162.397C320.63 167.801 320.891 172.508 320.76 175.69C319.758 198.658 310.784 207.593 308.649 216.048C336.269 205.893 338.404 178.958 336.487 166.145Z" fill="#1E3869"/>
<path fill-rule="evenodd" clip-rule="evenodd" d="M295.145 300.338C294.578 305.176 293.446 307.225 282.119 313.065C279.2 314.547 273.101 317.772 264.955 321.869C266.654 342.832 267.612 358.261 267.612 358.261L301.636 358.74C301.636 358.74 300.677 323.699 299.98 288.091C297.976 291.97 295.493 297.418 295.145 300.338Z" fill="#56B7CD"/>
<path fill-rule="evenodd" clip-rule="evenodd" d="M299.109 219.317C299.545 200.532 292.356 182.096 285.386 169.806C284.253 186.934 280.638 206.808 276.717 213.302C258.42 200.619 244.697 193.341 233.719 187.544C226.792 176.387 220.954 166.406 218.428 159.171C218.471 158.082 218.515 156.949 218.515 155.859C218.079 155.903 217.687 155.946 217.339 155.99C220.388 166.058 226.966 180.353 240.602 199.53C243.216 202.581 245.786 206.024 248.226 209.815C251.493 214.915 254.455 229.341 257.026 247.297C272.186 245.205 283.905 244.769 286.04 247.995L299.196 250.522C298.717 225.418 298.891 229.602 299.109 219.317Z" fill="#56B7CD"/>
<path fill-rule="evenodd" clip-rule="evenodd" d="M316.359 281.624C317.067 281.479 317.757 281.935 317.902 282.643C318.042 283.325 317.623 283.992 316.959 284.168L316.884 284.186L296.67 288.326C295.963 288.471 295.272 288.015 295.127 287.308C294.988 286.626 295.407 285.959 296.071 285.782L296.146 285.765L316.359 281.624Z" fill="#1E3869"/>
<path fill-rule="evenodd" clip-rule="evenodd" d="M301.029 248.721C313.61 244.549 324.338 247.13 333.047 254.769C339.2 260.168 343.872 267.791 346.172 274.321L346.317 274.741C348.458 281.03 351.214 293.229 351.546 297.612L351.828 301.389C351.903 302.407 351.969 303.335 352.033 304.275L352.112 305.471C352.291 308.233 352.428 310.792 352.518 313.232L352.546 314.016C352.7 318.676 352.662 322.534 352.386 325.454L352.347 325.852C351.926 329.899 351.078 332.105 349.027 332.239C346.825 332.375 345.153 329.664 343.162 324.437C341.846 320.984 340.525 316.618 339.404 312.304C339.223 311.605 339.642 310.892 340.34 310.71C341.039 310.528 341.752 310.947 341.934 311.646C343.033 315.875 344.328 320.157 345.604 323.506L345.798 324.008C346.507 325.817 347.185 327.265 347.81 328.278C348.123 328.786 348.413 329.168 348.662 329.41L348.748 329.489L348.812 329.543L348.844 329.493C348.917 329.373 348.994 329.21 349.071 329.007L349.109 328.903C349.402 328.08 349.63 326.829 349.784 325.208C350.062 322.264 350.088 318.236 349.906 313.329L349.865 312.287C349.777 310.186 349.656 307.987 349.504 305.639L349.425 304.453C349.377 303.751 349.328 303.056 349.275 302.325L348.928 297.658C348.554 293.289 345.769 281.065 343.706 275.189C341.545 269.053 337.105 261.807 331.323 256.736C323.205 249.614 313.317 247.287 301.491 251.324L301.436 251.342L301.379 251.357L281.557 256.195C280.856 256.366 280.149 255.936 279.978 255.234C279.813 254.558 280.207 253.876 280.864 253.675L280.938 253.654L300.705 248.829L301.029 248.721Z" fill="#1E3869"/>
<path fill-rule="evenodd" clip-rule="evenodd" d="M316.41 277.635C316.48 276.916 317.12 276.39 317.838 276.461C318.557 276.531 319.082 277.171 319.011 277.89L318.986 278.138C318.948 278.476 318.9 278.846 318.837 279.279L318.681 280.302C318.582 280.926 318.398 282.075 318.346 282.404L318.249 283.037C317.859 285.624 317.664 287.569 317.648 289.51C317.624 292.596 318.106 295.137 319.205 297.138C319.552 297.77 319.321 298.565 318.688 298.913C318.056 299.261 317.261 299.029 316.914 298.397C315.57 295.949 315.007 292.985 315.034 289.49C315.052 287.319 315.273 285.189 315.712 282.333L316.149 279.577L316.249 278.916C316.323 278.407 316.375 277.997 316.41 277.635Z" fill="#1E3869"/>
<path fill-rule="evenodd" clip-rule="evenodd" d="M344.437 296.076C345.128 296.157 345.63 296.764 345.59 297.45L345.579 297.557L345.554 297.763C345.53 297.948 345.501 298.163 345.467 298.404L345.39 298.933C345.309 299.476 345.215 300.06 345.108 300.676C344.7 303.027 344.185 305.379 343.553 307.584L343.413 308.063C341.698 313.842 339.49 317.542 336.343 318.262C332.863 319.058 330.44 318.068 329.146 315.904C328.813 315.347 328.586 314.76 328.443 314.173C328.355 313.814 328.313 313.523 328.3 313.328C328.251 312.607 328.795 311.984 329.515 311.935C330.21 311.888 330.814 312.392 330.9 313.074L330.908 313.151C330.911 313.205 330.932 313.349 330.982 313.552C331.067 313.9 331.201 314.247 331.389 314.562C332.093 315.739 333.368 316.26 335.76 315.713C337.68 315.274 339.568 312.003 341.041 306.863C341.644 304.758 342.139 302.494 342.533 300.229L342.632 299.644C342.711 299.167 342.781 298.713 342.843 298.289L342.915 297.775L342.987 297.223C343.071 296.505 343.72 295.992 344.437 296.076Z" fill="#1E3869"/>
<path fill-rule="evenodd" clip-rule="evenodd" d="M337.227 295.44C337.935 295.584 338.391 296.275 338.247 296.982L338.203 297.189C338.168 297.351 338.126 297.538 338.078 297.748C337.94 298.345 337.775 299.008 337.584 299.722C337.037 301.765 336.384 303.808 335.625 305.724L335.439 306.185C333.354 311.281 330.883 314.519 327.713 315.011C324.28 315.543 321.955 314.464 320.774 312.317C320.441 311.713 320.231 311.077 320.115 310.443C320.044 310.057 320.02 309.744 320.02 309.535C320.02 308.812 320.605 308.227 321.327 308.227C322.023 308.227 322.592 308.771 322.631 309.458L322.636 309.589C322.641 309.668 322.655 309.801 322.686 309.971C322.755 310.345 322.878 310.718 323.064 311.056C323.703 312.219 324.943 312.794 327.313 312.426C329.317 312.116 331.399 309.294 333.195 304.76C333.913 302.948 334.536 300.997 335.059 299.045L335.192 298.542C335.298 298.131 335.394 297.74 335.481 297.375L335.583 296.932L335.686 296.46C335.83 295.752 336.52 295.296 337.227 295.44Z" fill="#1E3869"/>
<path fill-rule="evenodd" clip-rule="evenodd" d="M310.593 294.862C313.326 292.555 316.878 293.522 320.386 299.121C320.77 299.733 320.585 300.54 319.973 300.923C319.362 301.307 318.555 301.122 318.172 300.51C316.599 298.001 315.204 296.738 314.058 296.426C313.375 296.24 312.806 296.416 312.279 296.861C312.181 296.944 312.095 297.027 312.023 297.102L311.987 297.141L311.99 297.191C311.996 297.271 312.006 297.362 312.02 297.464L312.036 297.569C312.12 298.096 312.3 298.722 312.602 299.447C313.461 301.511 315.122 303.967 317.792 306.809C319.17 308.275 320.152 308.366 321.272 307.454C322.414 306.524 323.559 304.621 324.601 302.063C325.186 300.626 325.701 299.078 326.141 297.528L326.268 297.073C326.349 296.776 326.424 296.493 326.491 296.227L326.595 295.809L326.673 295.479C326.829 294.774 327.527 294.329 328.232 294.486C328.911 294.637 329.349 295.292 329.239 295.97L329.219 296.068L329.136 296.423C329.118 296.498 329.098 296.577 329.077 296.662L328.97 297.084C328.876 297.446 328.771 297.834 328.655 298.242C328.191 299.878 327.646 301.514 327.021 303.049C325.828 305.982 324.489 308.206 322.922 309.482C320.716 311.279 318.186 311.046 315.887 308.6C313.013 305.541 311.176 302.825 310.189 300.453C309.532 298.874 309.318 297.629 309.377 296.738L309.386 296.637C309.393 296.557 309.402 296.491 309.412 296.438C309.442 296.276 309.503 296.122 309.59 295.982C309.784 295.673 310.115 295.266 310.593 294.862Z" fill="#1E3869"/>
<path fill-rule="evenodd" clip-rule="evenodd" d="M295.406 297.288C279.984 284.779 274.8 253.312 281.291 246.426C281.552 244.246 286.562 247.907 289.568 248.256C296.844 249.084 299.98 249.302 299.98 249.302C297.018 258.367 300.329 269.351 303.683 277.152C305.644 281.815 307.691 285.476 308.693 287.176C308.127 287.481 305.774 288.614 300.198 291.055C297.018 292.493 296.364 294.89 295.406 297.288Z" fill="#1E3869"/>
<path fill-rule="evenodd" clip-rule="evenodd" d="M173.143 248.759C177.815 247.201 184.02 246.285 189.472 246.78C197.03 247.465 202.719 250.708 205.467 257.017C205.756 257.679 205.453 258.45 204.791 258.738C204.13 259.027 203.359 258.724 203.071 258.062C200.754 252.743 195.926 249.991 189.236 249.384C184.173 248.925 178.322 249.789 173.97 251.24C173.285 251.468 172.545 251.098 172.316 250.413C172.088 249.728 172.458 248.987 173.143 248.759Z" fill="#1E3869"/>
<path fill-rule="evenodd" clip-rule="evenodd" d="M229.718 250.665C263.456 243.996 283.72 242.102 287.131 247.275C287.157 247.314 287.181 247.355 287.202 247.397L287.233 247.461L303.265 283.374C303.42 283.722 303.415 284.119 303.255 284.462L303.206 284.556L302.92 285.082L302.711 285.473C302.531 285.81 302.338 286.175 302.134 286.565C301.321 288.123 300.507 289.75 299.749 291.362C299.365 292.177 299.005 292.969 298.673 293.731C297.413 296.62 296.613 298.944 296.414 300.414L296.399 300.534C295.727 306.276 293.614 308.582 283.313 313.94L282.286 314.474C279.977 315.694 270.042 321.041 265.812 323.267C255.905 328.481 246.398 333.245 236.701 337.759C225.533 342.957 214.827 347.48 204.669 351.2C191.487 356.029 179.555 359.384 169.099 361.034C168.386 361.147 167.717 360.66 167.604 359.947C167.492 359.233 167.978 358.564 168.691 358.451C178.96 356.83 190.735 353.519 203.771 348.745C213.854 345.052 224.493 340.557 235.598 335.388C244.832 331.089 253.9 326.56 263.31 321.627L265.638 320.402C270.636 317.755 280.367 312.516 281.476 311.946L282.368 311.484C291.538 306.705 293.191 304.961 293.768 300.516L293.803 300.231C294.011 298.44 294.884 295.88 296.277 292.685C296.62 291.899 296.99 291.085 297.384 290.248C298.159 288.601 298.988 286.942 299.817 285.354L300.179 284.667L300.614 283.85L284.897 248.643L284.874 248.612C283.572 246.996 277.342 246.495 267.397 247.381L266.781 247.438C257.348 248.319 244.918 250.326 230.225 253.231C225.19 254.226 219.954 255.315 214.562 256.481C205.468 258.45 196.341 260.55 187.576 262.659L184.867 263.314C182.219 263.957 179.774 264.559 177.567 265.111L176.085 265.482L173.882 266.041C173.183 266.22 172.47 265.799 172.291 265.1C172.117 264.425 172.503 263.738 173.157 263.529L173.258 263.501L176.494 262.683L179.224 262.004C180.96 261.575 182.818 261.119 184.784 260.643L185.322 260.513C194.605 258.267 204.325 256.022 214.01 253.926C219.416 252.755 224.668 251.664 229.718 250.665Z" fill="#1E3869"/>
<path fill-rule="evenodd" clip-rule="evenodd" d="M219.22 133.588L219.297 133.588C220.019 133.612 220.585 134.215 220.562 134.937L219.816 157.995L219.785 158.967L219.839 159.119C222.035 165.221 226.476 173.292 234.382 186.062L234.685 186.553L236.767 187.656C251.755 195.621 261.748 201.464 274.903 210.44L276.299 211.396L276.399 211.185C279.682 204.14 282.892 187.049 284.055 170.749L284.126 169.719C284.173 168.999 284.796 168.453 285.516 168.501C286.236 168.549 286.781 169.172 286.734 169.892C285.526 188.15 281.768 207.537 277.879 213.978C277.49 214.623 276.637 214.806 276.017 214.378L274.984 213.665C260.439 203.659 250.024 197.609 233.152 188.701C232.947 188.592 232.775 188.431 232.652 188.234L231.408 186.223C223.708 173.727 219.399 165.793 217.237 159.603C217.184 159.451 217.16 159.291 217.165 159.13L217.949 134.853C217.971 134.157 218.533 133.606 219.22 133.588Z" fill="#1E3869"/>
<path fill-rule="evenodd" clip-rule="evenodd" d="M213.558 101.647C214.276 101.58 214.913 102.108 214.98 102.827C215.047 103.546 214.519 104.183 213.801 104.25C210.988 104.513 208.067 105.312 205.741 106.9C202.413 109.171 200.961 112.675 202.022 117.948C202.861 122.176 205.016 124.468 208.296 125.322C210.923 126.006 214.143 125.733 217.556 124.788C218.252 124.595 218.972 125.003 219.164 125.699C219.357 126.395 218.949 127.115 218.254 127.308C214.437 128.365 210.791 128.674 207.638 127.853C203.387 126.746 200.491 123.668 199.459 118.461C198.19 112.154 200.078 107.599 204.268 104.74C207.032 102.853 210.344 101.947 213.558 101.647Z" fill="#1E3869"/>
<path fill-rule="evenodd" clip-rule="evenodd" d="M299.942 77.3324C300.658 77.2391 301.313 77.744 301.407 78.4601C303.474 94.3422 303.053 112.665 300.841 129.789C300.748 130.505 300.093 131.011 299.377 130.918C298.661 130.826 298.156 130.17 298.248 129.454C300.433 112.537 300.85 94.4329 298.815 78.7978C298.722 78.0817 299.226 77.4256 299.942 77.3324Z" fill="#1E3869"/>
<path fill-rule="evenodd" clip-rule="evenodd" d="M298.249 129.408C298.343 128.692 298.999 128.188 299.715 128.282C300.43 128.376 300.934 129.033 300.84 129.748L300.658 131.113C299.94 136.37 299.137 141.059 298.338 144.719C298.184 145.425 297.488 145.872 296.783 145.718C296.077 145.563 295.631 144.867 295.785 144.161L295.919 143.536C296.725 139.725 297.534 134.847 298.249 129.408Z" fill="#1E3869"/>
<path fill-rule="evenodd" clip-rule="evenodd" d="M223.212 104.783L213.628 105.48C212.862 105.536 212.315 106.234 212.431 106.982L212.471 107.183L213.544 112.159L213.925 113.914C214.895 118.371 215.88 122.828 216.834 127.063L217.402 129.573L218.099 132.618C219.794 139.984 221.14 145.458 222.025 148.475L222.143 148.871C225.221 159.12 227.895 162.852 238.619 170.562C244.756 174.974 254.055 177.945 263.03 178.222C273.291 178.54 282.179 175.421 287.822 168.731C291.392 164.487 294.203 158.876 296.36 152.229C298.099 146.872 299.32 141.146 300.115 135.422C300.393 133.42 300.599 131.56 300.742 129.889L300.778 129.461C300.795 129.254 300.81 129.056 300.824 128.867L300.868 128.215L300.894 127.764C300.921 127.164 300.536 126.622 299.961 126.451C297.385 125.684 293.142 125.145 287.819 124.777C286.217 124.667 284.608 124.579 283.043 124.51L282.265 124.477C281.709 124.455 281.189 124.437 280.712 124.421L279.664 124.392L279.616 124.392C268.414 124.56 257.827 125.792 248.147 127.742C244.651 128.446 241.507 129.199 238.753 129.955L238.093 130.138C237.56 130.288 237.065 130.432 236.607 130.568L236.15 130.707L236.121 130.608C233.784 122.601 227.045 108.022 224.238 105.169C223.969 104.896 223.594 104.755 223.212 104.783ZM222.752 107.438L222.798 107.496C225.68 111.208 232.311 125.906 233.974 132.679C234.151 133.4 234.888 133.824 235.593 133.628L236.239 133.418L236.522 133.328C237.241 133.104 238.09 132.853 239.062 132.582L239.833 132.371C242.437 131.666 245.391 130.965 248.663 130.306L249.315 130.176C258.45 128.374 268.398 127.223 278.904 127.02L279.623 127.007L280.398 127.028C280.929 127.044 281.52 127.065 282.16 127.09C283.943 127.162 285.798 127.259 287.639 127.386L288.595 127.455C292.488 127.748 295.732 128.141 297.972 128.639L298.215 128.695L298.172 129.251C298.161 129.385 298.15 129.523 298.138 129.665L298.069 130.429C297.935 131.854 297.756 133.408 297.526 135.062C296.75 140.645 295.561 146.226 293.874 151.421C291.812 157.774 289.146 163.095 285.824 167.046C280.755 173.055 272.637 175.903 263.111 175.608C254.64 175.347 245.845 172.537 240.145 168.439L239.539 168.001C229.992 161.076 227.596 157.756 224.82 148.691L224.569 147.863C223.654 144.769 222.19 138.783 220.334 130.674L219.821 128.422L219.384 126.487C218.651 123.235 217.9 119.851 217.152 116.437L216.006 111.181L215.315 107.979L222.752 107.438Z" fill="#1E3869"/>
<path fill-rule="evenodd" clip-rule="evenodd" d="M272.448 148.581C272.448 148.581 279.549 147.142 282.467 150.019L272.448 148.581Z" fill="white"/>
<path fill-rule="evenodd" clip-rule="evenodd" d="M273.439 147.104C275.019 146.904 276.655 146.842 278.208 147.005C280.376 147.232 282.154 147.875 283.384 149.087C283.899 149.594 283.905 150.422 283.398 150.936C282.892 151.451 282.064 151.457 281.55 150.95C280.817 150.228 279.569 149.777 277.936 149.606C276.61 149.467 275.164 149.521 273.766 149.698C273.532 149.728 273.315 149.759 273.119 149.79L272.765 149.851C272.74 149.855 272.721 149.859 272.707 149.862C271.999 150.005 271.31 149.548 271.166 148.84C271.023 148.132 271.481 147.442 272.188 147.299L272.47 147.246C272.718 147.203 273.046 147.153 273.439 147.104Z" fill="#1E3869"/>
<path fill-rule="evenodd" clip-rule="evenodd" d="M281.362 114.201C282.053 114.123 282.68 114.6 282.797 115.277L282.807 115.354L285.421 138.453C285.521 139.338 284.729 140.054 283.87 139.883L283.796 139.866L275.693 137.774C274.994 137.593 274.574 136.88 274.754 136.181C274.928 135.507 275.597 135.092 276.271 135.225L276.346 135.242L282.611 136.859L280.21 115.648C280.132 114.956 280.608 114.329 281.286 114.212L281.362 114.201Z" fill="#1E3869"/>
<path fill-rule="evenodd" clip-rule="evenodd" d="M290.004 121.777C291.303 121.777 292.356 120.138 292.356 118.116C292.356 116.094 291.303 114.455 290.004 114.455C288.705 114.455 287.651 116.094 287.651 118.116C287.651 120.138 288.705 121.777 290.004 121.777Z" fill="#1E3869"/>
<path fill-rule="evenodd" clip-rule="evenodd" d="M267.263 121.341C268.563 121.341 269.616 119.702 269.616 117.68C269.616 115.658 268.563 114.019 267.263 114.019C265.964 114.019 264.911 115.658 264.911 117.68C264.911 119.702 265.964 121.341 267.263 121.341Z" fill="#1E3869"/>
<path fill-rule="evenodd" clip-rule="evenodd" d="M258.411 95.4431C260.896 93.6218 263.933 92.7174 267.456 93.2439C268.17 93.3505 268.662 94.016 268.556 94.7302C268.449 95.4444 267.784 95.9369 267.07 95.8302C264.276 95.4128 261.917 96.1157 259.956 97.5527C259.403 97.9577 258.927 98.3914 258.531 98.822L258.403 98.9632C258.286 99.0961 258.199 99.2029 258.143 99.2765L258.097 99.3389C257.684 99.9309 256.869 100.076 256.277 99.6623C255.686 99.2489 255.541 98.4338 255.954 97.8417C256.077 97.6648 256.295 97.3904 256.608 97.0509C257.114 96.5007 257.715 95.9535 258.411 95.4431Z" fill="#1E3869"/>
<path fill-rule="evenodd" clip-rule="evenodd" d="M289.411 92.7686C290.754 92.5583 292.18 92.5514 293.556 92.8916C295.876 93.4654 297.622 94.9521 298.397 97.4634C298.61 98.1534 298.224 98.8855 297.534 99.0986C296.845 99.3118 296.113 98.9253 295.9 98.2353C295.411 96.6532 294.404 95.795 292.929 95.4302C291.94 95.1858 290.844 95.1911 289.815 95.3522L289.653 95.379C289.527 95.4009 289.428 95.4211 289.357 95.437L289.287 95.4538C288.589 95.6355 287.875 95.2162 287.693 94.5174C287.512 93.8185 287.931 93.1046 288.63 92.9229C288.792 92.8806 289.059 92.8236 289.411 92.7686Z" fill="#1E3869"/>
<path fill-rule="evenodd" clip-rule="evenodd" d="M315.14 74.8808C314.574 73.1811 315.228 71.1326 316.404 69.0842L316.099 68.7355L314.618 72.876C314.618 72.876 310 74.8808 308.475 68.9535C307.996 67.1229 309.085 64.9438 310.784 62.7646L310.74 62.721C304.337 64.2029 291.746 66.6435 290.614 64.1157C289.002 60.5418 311.655 51.0406 318.582 48.0334C322.111 46.4644 334.352 43.1084 340.974 42.1496C343.675 41.7573 348.554 41.4087 354.131 41.9753C354.61 38.0527 353.956 34.0866 351.865 30.2513C349.731 26.2852 345.243 20.445 341.279 18.3094C301.94 -2.56713 282.772 32.692 282.772 32.692C282.772 32.692 277.24 17.5249 259.291 17.0019C251.972 16.784 244.828 19.6605 239.643 24.8469C224.962 39.5782 234.764 56.2271 234.764 56.2271C234.764 56.2271 227.925 52.7404 218.689 57.1859C207.667 62.5031 202.135 75.0116 205.01 86.9099C208.059 99.5491 213.679 111.578 213.679 111.578C249.489 117.113 258.638 81.9414 253.366 77.4087C261.295 83.2924 275.584 87.215 299.762 84.7743C305.295 84.2077 312.091 82.0285 319.018 78.7162C317.624 78.5854 316.099 77.7138 315.14 74.8808Z" fill="#1E3869"/>
<path fill-rule="evenodd" clip-rule="evenodd" d="M348.369 70.2561C349.045 70.0878 349.728 70.4785 349.933 71.1349L349.953 71.2089L355.33 92.8076L386.345 83.6079C387.013 83.4099 387.713 83.77 387.946 84.4167L387.97 84.4897C388.168 85.1573 387.808 85.8578 387.161 86.091L387.088 86.115L354.764 95.7034C354.074 95.9078 353.355 95.5171 353.145 94.8395L353.124 94.7658L347.417 71.8408C347.243 71.1401 347.669 70.4306 348.369 70.2561Z" fill="#1E3869"/>
<path fill-rule="evenodd" clip-rule="evenodd" d="M340.784 40.856C347.748 39.8304 357.087 40.2412 365.096 42.9027C376.623 46.7332 384.322 54.6824 386.422 67.4502L386.471 67.7658L391.072 84.9592C391.249 85.6185 390.889 86.2975 390.255 86.5266L390.181 86.551L359.424 95.66C358.732 95.8649 358.005 95.4698 357.8 94.7774C357.603 94.1097 357.963 93.4094 358.609 93.1764L358.682 93.1525L388.218 84.4047L383.93 68.3763C383.923 68.3535 383.918 68.3305 383.913 68.3074L383.9 68.2378C382.054 56.2807 375.038 48.9621 364.272 45.3844C356.818 42.9071 348.047 42.4861 341.488 43.3969L341.161 43.4436C335.087 44.3232 323.042 47.5286 319.225 49.1789L314.869 51.0653C314.404 51.2675 313.955 51.4639 313.502 51.6632L312.445 52.1292C310.183 53.1306 308.094 54.0809 306.104 55.0208C304.311 55.8681 302.651 56.6823 301.135 57.4626L300.566 57.7576C297.664 59.2712 295.385 60.6197 293.839 61.7649C292.984 62.3974 292.379 62.9508 292.05 63.3894C292.019 63.4313 291.991 63.4707 291.967 63.5073L291.918 63.5853L291.995 63.6161C292.316 63.735 292.802 63.8233 293.43 63.8684C294.692 63.9592 296.431 63.8716 298.548 63.6233C302.023 63.216 306.323 62.4011 310.446 61.4471C311.149 61.2844 311.851 61.7228 312.014 62.4264C312.176 63.1299 311.738 63.8321 311.035 63.9949C306.982 64.9327 302.764 65.7383 299.254 66.1722L298.853 66.2206C293.417 66.8578 290.31 66.6344 289.423 64.6534C288.237 62.0255 291.84 59.3228 299.7 55.2608L299.939 55.1373C301.484 54.3424 303.169 53.5154 304.988 52.6562L305.923 52.217C307.808 51.3369 309.785 50.4437 311.915 49.5046L314.106 48.5453L318.318 46.7232C322.491 44.9606 334.561 41.757 340.784 40.856Z" fill="#1E3869"/>
<path fill-rule="evenodd" clip-rule="evenodd" d="M356.682 66.0291C357.286 65.6335 358.096 65.8026 358.491 66.4067C358.887 67.0109 358.718 67.8213 358.114 68.2168C355.964 69.6248 351.388 71.8909 346.982 73.6591C341.352 75.9189 336.481 77.2313 333.143 77.1468C332.421 77.1285 331.851 76.5285 331.87 75.8066C331.888 75.0847 332.488 74.5143 333.209 74.5326C336.094 74.6056 340.688 73.3678 346.009 71.2321L346.734 70.9375C350.761 69.2779 354.808 67.2568 356.682 66.0291Z" fill="#1E3869"/>
<path fill-rule="evenodd" clip-rule="evenodd" d="M322.799 52.2656C323.205 52.8623 323.051 53.6757 322.455 54.0823L322.082 54.3426L321.904 54.4691C321.457 54.7881 320.958 55.154 320.42 55.5608C318.884 56.7229 317.348 57.9766 315.919 59.2716C314.139 60.8847 312.655 62.4451 311.571 63.895C310.072 65.9006 309.453 67.5502 309.74 68.6689C310.194 70.418 310.916 71.34 311.814 71.7189C312.432 71.9801 313.135 71.9795 313.803 71.8094C313.868 71.7928 313.928 71.7757 313.982 71.7587L314.107 71.716C314.771 71.4338 315.539 71.7439 315.821 72.4086C316.103 73.0733 315.793 73.8409 315.128 74.1231C314.978 74.1869 314.747 74.2672 314.448 74.3434C313.276 74.6423 312.017 74.6434 310.797 74.1281C309.104 73.4131 307.857 71.8229 307.209 69.3229C306.674 67.2409 307.549 64.9085 309.478 62.3288C310.676 60.726 312.27 59.0501 314.164 57.3333C315.656 55.9817 317.25 54.6805 318.844 53.475L319.255 53.1665C319.523 52.9661 319.781 52.7766 320.027 52.5986L320.574 52.2068L320.983 51.9213C321.579 51.5147 322.392 51.6688 322.799 52.2656Z" fill="#1E3869"/>
<path fill-rule="evenodd" clip-rule="evenodd" d="M326.564 58.1892C327.004 58.727 326.944 59.5092 326.442 59.9747L326.367 60.0393L326.12 60.2462L325.946 60.394C325.592 60.6969 325.197 61.0448 324.771 61.432C323.554 62.5384 322.337 63.7341 321.205 64.9714C319.738 66.5748 318.526 68.1261 317.66 69.5657C316.421 71.6254 315.984 73.3051 316.377 74.4589C316.908 76.0147 317.615 76.8747 318.431 77.2484C319.093 77.5515 319.842 77.534 320.568 77.3057L320.702 77.261C320.804 77.2252 320.878 77.1941 320.92 77.1742L320.942 77.1637C321.582 76.8307 322.371 77.0803 322.704 77.7211C323.037 78.3618 322.787 79.1512 322.147 79.4841C321.973 79.5746 321.703 79.6899 321.352 79.8003C320.063 80.2055 318.679 80.2379 317.343 79.6262C315.83 78.9334 314.653 77.502 313.903 75.3027C313.205 73.2518 313.823 70.8727 315.42 68.2172C316.388 66.6093 317.702 64.9271 319.277 63.2055C320.468 61.9039 321.741 60.6535 323.014 59.4966L323.388 59.1594C323.631 58.9414 323.864 58.737 324.084 58.5472L324.342 58.3259L324.725 58.0038C325.284 57.547 326.108 57.63 326.564 58.1892Z" fill="#1E3869"/>
<path fill-rule="evenodd" clip-rule="evenodd" d="M329.633 65.3386C330.185 64.8733 331.009 64.9437 331.475 65.4958C331.94 66.048 331.869 66.8729 331.317 67.3382L331.092 67.5326L330.978 67.6332C330.699 67.8791 330.387 68.1613 330.051 68.475C329.091 69.3717 328.131 70.3379 327.238 71.3336C326.163 72.5326 325.262 73.6906 324.594 74.7655L324.437 75.0241C322.734 77.8705 322.977 79.3553 325.554 80.0713C330.634 81.4833 334.04 81.5469 336.077 80.8669C336.211 80.8221 336.328 80.777 336.429 80.7329L336.478 80.7105L336.494 80.67C336.674 80.1718 336.71 79.674 336.546 79.2394L336.508 79.1473C336.028 78.0875 334.311 77.2392 330.768 76.969C330.048 76.9141 329.509 76.2859 329.564 75.5659C329.619 74.8459 330.247 74.3067 330.967 74.3616C335.362 74.6968 337.938 75.9695 338.889 78.0674C339.419 79.2371 339.356 80.4407 338.952 81.5582C338.835 81.8846 338.712 82.1368 338.614 82.302C338.534 82.4374 338.43 82.5572 338.307 82.6557C338.04 82.8702 337.581 83.1217 336.904 83.3474C334.331 84.2067 330.404 84.1333 324.854 82.591C320.124 81.2764 319.71 77.6758 322.374 73.3856C323.132 72.1652 324.123 70.8915 325.292 69.5873C326.241 68.5291 327.255 67.5094 328.268 66.5633L328.614 66.2431C328.726 66.1401 328.836 66.0408 328.942 65.9455L329.431 65.5126C329.519 65.4355 329.587 65.3771 329.633 65.3386Z" fill="#1E3869"/>
<path fill-rule="evenodd" clip-rule="evenodd" d="M345.548 96.934C351.734 105.128 393.6 98.9389 400.483 88.3481C397.172 83.8154 394.558 86.3868 393.077 83.7282C389.592 77.3215 388.198 74.4885 388.198 74.4885C380.923 80.6774 369.509 81.767 361.014 81.5926C355.96 81.5491 351.778 81.0261 349.818 80.7646C349.774 81.4183 349.6 84.0333 349.426 90.0914C349.382 93.6217 347.422 95.1907 345.548 96.934Z" fill="#1E3869"/>
<path fill-rule="evenodd" clip-rule="evenodd" d="M574.131 238.058H404.753C402.531 238.058 400.614 239.583 400.091 241.762L376.523 341.481H315.141C315.141 341.481 311.743 359.046 331.564 359.046H547.818C550.04 359.046 551.957 357.52 552.479 355.341L578.792 243.941C579.489 240.934 577.224 238.058 574.131 238.058Z" fill="#1E3869"/>
<path fill-rule="evenodd" clip-rule="evenodd" d="M560.147 280.421C549.43 280.421 541.022 271.268 541.893 260.59C542.547 252.702 542.634 247.82 543.462 244.159C544.594 239.104 554.309 232.174 565.679 223.806C571.648 219.447 575.786 215.35 578.095 211.559C580.404 207.767 581.58 203.104 581.58 197.525C581.58 190.639 579.402 185.191 575.002 181.225C570.646 177.258 565.331 175.297 559.101 175.297C546.729 175.297 538.452 181.835 534.182 194.953C531.351 203.67 522.594 208.987 513.533 207.723C501.466 206.024 494.277 193.472 498.765 182.14C502.816 171.898 508.61 163.53 516.147 156.992C528.65 146.183 543.984 140.779 562.02 140.779C580.448 140.779 595.913 146.096 608.372 156.687C620.832 167.321 627.105 180.789 627.105 197.089C627.105 217.312 616.737 234.222 595.957 247.82C586.939 253.791 581.45 258.455 579.533 261.811C578.879 262.944 578.357 264.382 577.921 266.169C576.004 274.493 568.685 280.421 560.147 280.421ZM562.63 335.031H560.974C549.343 335.031 539.889 325.573 539.889 313.936C539.889 302.3 549.343 292.842 560.974 292.842H562.63C574.262 292.842 583.715 302.3 583.715 313.936C583.715 325.617 574.305 335.031 562.63 335.031Z" fill="#56B7CD"/>
<path fill-rule="evenodd" clip-rule="evenodd" d="M129.905 101.946C127.509 102.992 124.764 101.772 123.937 99.2876C123.327 97.4571 122.891 96.3675 122.717 95.4958C122.499 94.2755 123.98 91.7912 125.679 88.8276C126.594 87.3021 127.117 85.9946 127.248 84.905C127.422 83.859 127.204 82.6823 126.681 81.4619C126.028 79.9365 125.026 78.9341 123.675 78.4983C122.325 78.0188 120.974 78.106 119.58 78.7162C116.836 79.8929 115.616 82.1593 115.921 85.4716C116.139 87.6944 114.701 89.6992 112.566 90.3094C109.735 91.0939 106.903 89.0019 106.816 86.0382C106.729 83.3796 107.208 80.9389 108.254 78.7598C109.996 75.1423 112.871 72.4837 116.879 70.7404C120.974 68.9535 124.895 68.6484 128.729 69.8251C132.519 71.0019 135.22 73.3554 136.788 76.9728C138.749 81.4619 138.052 86.2125 134.741 91.2246C133.303 93.4038 132.562 94.9728 132.432 95.8881C132.388 96.1932 132.432 96.5854 132.475 97.0213C132.867 99.1133 131.822 101.118 129.905 101.946ZM135.699 113.845L135.307 114.019C132.737 115.152 129.731 113.932 128.598 111.36C127.465 108.789 128.685 105.782 131.256 104.648L131.648 104.474C134.218 103.341 137.224 104.561 138.357 107.133C139.489 109.704 138.313 112.711 135.699 113.845Z" fill="#56B7CD"/>
<path fill-rule="evenodd" clip-rule="evenodd" d="M153.081 46.1592C149.553 45.9849 146.939 42.8033 147.418 39.3166C147.766 36.7452 147.897 35.1326 148.246 33.9123C148.725 32.2561 152.036 30.1641 155.957 27.5927C158.004 26.2416 159.442 24.9776 160.269 23.8009C161.097 22.5805 161.576 21.0987 161.663 19.2246C161.794 16.9583 161.184 15.1278 159.79 13.7331C158.44 12.3384 156.697 11.5975 154.65 11.4667C150.555 11.2488 147.723 13.2537 146.067 17.4813C144.978 20.3142 141.972 21.8832 139.01 21.3166C135.089 20.5321 132.911 16.2609 134.61 12.5999C136.135 9.28757 138.182 6.62897 140.796 4.62413C145.109 1.31178 150.25 -0.213643 156.218 0.135025C162.273 0.483694 167.283 2.48854 171.204 6.23672C175.125 9.98491 176.955 14.5176 176.65 19.8784C176.301 26.5466 172.555 31.9074 165.454 36.0479C162.361 37.8348 160.487 39.273 159.79 40.3626C159.572 40.7113 159.355 41.1907 159.18 41.7573C158.44 44.5031 155.913 46.29 153.081 46.1592ZM152.907 64.2028L152.341 64.1592C148.507 63.9413 145.545 60.6726 145.762 56.8372C145.98 53.0019 149.248 50.0382 153.081 50.2561L153.648 50.2997C157.481 50.5176 160.444 53.7864 160.226 57.6217C160.052 61.4571 156.741 64.4207 152.907 64.2028Z" fill="#56B7CD"/>
<path fill-rule="evenodd" clip-rule="evenodd" d="M661.651 358.392C662.373 358.392 662.958 358.977 662.958 359.699C662.958 360.395 662.414 360.965 661.728 361.004L661.651 361.007H2.30498C1.58318 361.007 0.998047 360.421 0.998047 359.699C0.998047 359.003 1.54213 358.434 2.22819 358.394L2.30498 358.392H661.651Z" fill="#1E3869"/>
</svg>
