<svg width="218" height="65" viewBox="0 0 218 65" fill="none" xmlns="http://www.w3.org/2000/svg">
<path d="M209.32 64.5005H8.05078C3.6229 64.5005 0 60.8723 0 56.4379V8.06259C0 3.62815 3.62283 0 8.05078 0H209.32C213.748 0 217.371 3.62815 217.371 8.06259V56.4379C217.371 60.8723 213.748 64.5005 209.32 64.5005" fill="#1E3869"/>
<path d="M209.32 0H8.05078C3.6229 0 0 3.62815 0 8.06259V56.4379C0 60.8723 3.62283 64.5005 8.05078 64.5005H209.32C213.748 64.5005 217.371 60.8723 217.371 56.4379V8.06259C217.371 3.62815 213.748 0 209.32 0H209.32ZM209.32 1.28997C213.049 1.28997 216.083 4.32864 216.083 8.06259V56.4379C216.083 60.1725 213.049 63.2111 209.32 63.2111H8.05078C4.32234 63.2111 1.28814 60.1725 1.28814 56.4379V8.06259C1.28814 4.32864 4.32227 1.29004 8.05078 1.29004H209.32" fill="#A6A6A6"/>
<path d="M76.3509 16.5175C76.3509 17.8685 75.9514 18.9444 75.1514 19.7469C74.2425 20.7012 73.0581 21.1787 71.602 21.1787C70.2076 21.1787 69.0221 20.6949 68.0471 19.7261C67.0704 18.758 66.583 17.5574 66.583 16.125C66.583 14.692 67.0704 13.4922 68.0471 12.5233C69.0221 11.5552 70.2076 11.0708 71.602 11.0708C72.2939 11.0708 72.9564 11.2063 73.5853 11.4765C74.2142 11.7474 74.7187 12.107 75.0961 12.5573L74.2469 13.4083C73.6073 12.643 72.7267 12.2606 71.602 12.2606C70.5851 12.2606 69.7058 12.6185 68.9637 13.3347C68.2214 14.0515 67.8503 14.9812 67.8503 16.125C67.8503 17.269 68.2214 18.1986 68.9637 18.9155C69.7058 19.6317 70.5851 19.9894 71.602 19.9894C72.6808 19.9894 73.5803 19.6297 74.3004 18.9092C74.7678 18.4398 75.0381 17.7874 75.1104 16.9495H71.602V15.7874H76.2835C76.3288 16.0401 76.3508 16.2826 76.3508 16.5175" fill="white"/>
<path d="M76.3507 16.5176H76.1897C76.1884 17.8378 75.8033 18.8632 75.0372 19.6329L75.0355 19.6342L75.0348 19.6355C74.1549 20.5569 73.0238 21.0155 71.6017 21.0175C70.2446 21.0155 69.1086 20.5519 68.16 19.6121C67.2136 18.6705 66.7456 17.5209 66.7438 16.1251C66.7456 14.7287 67.2136 13.5797 68.16 12.6387C69.1086 11.6983 70.2446 11.234 71.6017 11.2321C72.2729 11.2321 72.912 11.3632 73.5214 11.6246C74.1315 11.8879 74.6134 12.233 74.9725 12.6615L75.0958 12.5574L74.982 12.4434L74.1328 13.2949L74.2466 13.4083L74.3706 13.3051C73.7012 12.5019 72.7617 12.0971 71.6018 12.0995C70.5471 12.0981 69.6194 12.4756 68.852 13.2189C68.0771 13.9646 67.6878 14.9466 67.6891 16.1251C67.6878 17.3037 68.0771 18.2856 68.852 19.0314C69.6194 19.7747 70.5471 20.152 71.6017 20.1507C72.7163 20.1527 73.6662 19.774 74.4139 19.0232C74.9133 18.5218 75.1965 17.8271 75.2707 16.9634L75.2857 16.7883H71.7628V15.9487H76.2833V15.7875L76.1247 15.8158C76.1688 16.0603 76.1896 16.2926 76.1896 16.5176H76.5116C76.5116 16.2725 76.4889 16.0206 76.4417 15.7586L76.4179 15.6262H71.4408V17.1108H75.1102V16.9496L74.9499 16.9357C74.8788 17.7471 74.6209 18.3581 74.1863 18.7953C73.4944 19.4856 72.6453 19.8263 71.6018 19.8282C70.6226 19.8269 69.7917 19.4893 69.0753 18.7996C68.3659 18.1124 68.013 17.235 68.0112 16.1251C68.013 15.0152 68.3659 14.1378 69.0753 13.4506C69.7917 12.7609 70.6225 12.4232 71.6018 12.4219C72.6906 12.4246 73.5128 12.7848 74.1235 13.5123L74.2367 13.6471L75.2097 12.6715L75.3141 12.567L75.2191 12.454C74.8235 11.9818 74.2964 11.6069 73.6485 11.3286C72.9995 11.0494 72.3145 10.9096 71.6018 10.9096C70.1704 10.9083 68.9351 11.4122 67.9331 12.4094C66.9274 13.4046 66.4205 14.6556 66.4219 16.1251C66.4205 17.5939 66.9274 18.8456 67.9338 19.8414C68.9351 20.838 70.1704 21.3413 71.6018 21.34C73.0925 21.3413 74.3291 20.8454 75.2676 19.8584L75.1511 19.7469L75.2649 19.861C76.099 19.0264 76.5128 17.8989 76.5117 16.5176H76.3506H76.3507ZM83.7724 12.4762H79.3727V15.5438H83.3404V16.7064H79.3727V19.774H83.7724V20.9626H78.1324V11.2876H83.7724V12.4762" fill="white"/>
<path d="M83.7726 12.4762V12.3149H79.212V15.7051H83.1795V16.5447L79.2119 16.5452V19.9353H83.6115V20.8014H78.2937V11.4489H83.6115V12.4762H83.7726V12.3149V12.4762H83.9336V11.1264H77.9717V21.1239H83.9336V19.6128H79.5339V16.8677H83.5016V15.3826H79.5339V12.6374H83.9336V12.4762H83.7726V12.4762ZM89.0075 20.9627H87.7653V12.4761H85.0669V11.2875H91.7058V12.4761H89.0075V20.9626" fill="white"/>
<path d="M89.0077 20.9627V20.8014H87.9265V12.3149H85.2283V11.4489H91.545V12.3149H88.8468V20.9627H89.0077V20.8014V20.9627H89.1688V12.6374H91.8671V11.1264H84.9062V12.6374H87.6045V21.1238H89.1688V20.9626H89.0077V20.9627ZM96.5095 20.9627V11.2875H97.7504V20.9626H96.5095" fill="white"/>
<path d="M96.5096 20.9627H96.6707V11.4489H97.5895V20.8014H96.5096V20.9627H96.6707H96.5096V21.1239H97.9115V11.1264H96.3486V21.1239H96.5096V20.9627V20.9627ZM103.257 20.9627H102.015V12.4761H99.3167V11.2875H105.955V12.4761H103.257V20.9626" fill="white"/>
<path d="M103.257 20.9626V20.8013H102.175V12.3149H99.4773V11.4488H105.794V12.3149H103.096V20.9626H103.257V20.8013V20.9626H103.418V12.6373H106.116V11.1263H99.1553V12.6373H101.853V21.1237H103.418V20.9625H103.257V20.9626ZM112.355 18.9023C113.07 19.6272 113.945 19.9894 114.98 19.9894C116.015 19.9894 116.89 19.6272 117.604 18.9023C118.32 18.1773 118.678 17.2506 118.678 16.125C118.678 14.9996 118.32 14.0728 117.604 13.3478C116.89 12.6229 116.015 12.2606 114.98 12.2606C113.945 12.2606 113.07 12.6229 112.355 13.3478C111.641 14.0728 111.283 14.9995 111.283 16.125C111.283 17.2506 111.641 18.1773 112.355 18.9023ZM118.522 19.7122C117.573 20.6904 116.391 21.1787 114.98 21.1787C113.567 21.1787 112.387 20.6904 111.439 19.7122C110.489 18.7352 110.016 17.5392 110.016 16.125C110.016 14.7109 110.489 13.5147 111.439 12.5378C112.387 11.5595 113.567 11.0708 114.98 11.0708C116.384 11.0708 117.562 11.5621 118.516 12.5442C119.469 13.5261 119.946 14.7197 119.946 16.125C119.946 17.5392 119.47 18.7352 118.522 19.7122Z" fill="white"/>
<path d="M112.355 18.9024L112.241 19.0157C112.982 19.7697 113.908 20.1527 114.98 20.1507C116.052 20.1527 116.978 19.7697 117.718 19.0157C118.465 18.261 118.84 17.2847 118.839 16.1251C118.84 14.9656 118.465 13.9892 117.718 13.2345C116.978 12.4805 116.052 12.0976 114.98 12.0995C113.908 12.0976 112.982 12.4805 112.241 13.2345C111.496 13.9892 111.12 14.9656 111.122 16.1251C111.12 17.2846 111.496 18.261 112.241 19.0157L112.355 18.9024L112.47 18.789C111.787 18.0929 111.445 17.2173 111.444 16.1251C111.445 15.033 111.787 14.1574 112.47 13.4612C113.159 12.7653 113.982 12.4239 114.98 12.422C115.977 12.4239 116.802 12.7653 117.49 13.4612C118.174 14.1574 118.515 15.033 118.517 16.1251C118.515 17.2172 118.174 18.0929 117.49 18.789C116.802 19.485 115.977 19.8263 114.98 19.8282C113.982 19.8263 113.159 19.485 112.47 18.789L112.355 18.9024ZM118.522 19.7123L118.407 19.6003C117.484 20.5476 116.355 21.0156 114.98 21.0175C113.604 21.0155 112.475 20.5476 111.554 19.6003L111.549 19.5952L111.554 19.6003C110.633 18.6497 110.178 17.5033 110.177 16.1251C110.178 14.7469 110.633 13.6005 111.554 12.65C112.475 11.7026 113.604 11.234 114.98 11.2321C116.346 11.234 117.472 11.7046 118.401 12.6569C119.325 13.6118 119.783 14.7564 119.785 16.1251C119.783 17.5033 119.327 18.6497 118.407 19.6003L118.522 19.7123L118.638 19.8243C119.614 18.8204 120.108 17.5751 120.107 16.1251C120.108 14.6834 119.612 13.4406 118.632 12.4322C117.65 11.4198 116.422 10.9078 114.98 10.9096C113.531 10.9078 112.298 11.4174 111.323 12.4259V12.4251C110.345 13.4298 109.853 14.6751 109.854 16.1251C109.853 17.5751 110.345 18.8204 111.323 19.825L111.327 19.8296L111.323 19.8243C112.298 20.8328 113.531 21.3413 114.98 21.34C116.428 21.3413 117.661 20.8328 118.638 19.8243L118.522 19.7123V19.7123ZM121.688 20.9627V11.2875H123.199L127.894 18.814H127.947L127.894 16.9495V11.2875H129.136V20.9626H127.84L122.928 13.0713H122.875L122.928 14.9364V20.9626H121.688" fill="white"/>
<path d="M121.687 20.9627H121.848V11.4489H123.109L127.804 18.9754H128.112L128.054 16.9472V11.4489H128.975V20.8014H127.929L123.017 12.9101H122.709L122.767 14.9392V20.8014H121.687V20.9627H121.848H121.687V21.1239H123.089V14.934L123.035 13.067L122.874 13.0714V13.2326H122.928V13.0714L122.791 13.1571L127.751 21.1239H129.297V11.1264H127.732V16.9515L127.786 18.8185L127.947 18.8141V18.6529H127.893V18.8141L128.03 18.7286L123.287 11.1264H121.526V21.1239H121.688V20.9627L121.687 20.9627ZM172.183 48.3754H175.187V28.2171H172.183L172.183 48.3754ZM199.245 35.4786L195.801 44.2182H195.698L192.123 35.4785H188.887L194.247 47.6938L191.191 54.4884H194.326L202.586 35.4785L199.245 35.4786ZM182.206 46.0858C181.221 46.0858 179.849 45.5932 179.849 44.3738C179.849 42.8178 181.559 42.2214 183.034 42.2214C184.356 42.2214 184.976 42.5067 185.779 42.8961C185.546 44.763 183.94 46.0858 182.206 46.0858V46.0858ZM182.568 35.0375C180.393 35.0375 178.14 35.9974 177.208 38.124L179.875 39.2389C180.445 38.124 181.506 37.7605 182.62 37.7605C184.174 37.7605 185.753 38.6947 185.779 40.3544V40.5617C185.235 40.2504 184.071 39.7837 182.646 39.7837C179.772 39.7837 176.844 41.3653 176.844 44.322C176.844 47.0193 179.202 48.7571 181.842 48.7571C183.863 48.7571 184.976 47.8494 185.676 46.7862H185.779V48.342H188.679V40.6132C188.679 37.0349 186.012 35.0375 182.568 35.0375V35.0375ZM164 37.9324H159.727V31.0227H164C166.246 31.0227 167.521 32.8852 167.521 34.4775C167.521 36.0396 166.246 37.9324 164 37.9324ZM163.923 28.2171H156.724V48.3754H159.727V40.738H163.923C167.253 40.738 170.526 38.3236 170.526 34.4775C170.526 30.6315 167.253 28.2171 163.923 28.2171V28.2171ZM124.666 46.0895C122.59 46.0895 120.852 44.3491 120.852 41.9587C120.852 39.5432 122.59 37.7763 124.666 37.7763C126.715 37.7763 128.323 39.5431 128.323 41.9587C128.323 44.3491 126.715 46.0895 124.666 46.0895H124.666ZM128.115 36.6073H128.012C127.337 35.8022 126.04 35.0748 124.406 35.0748C120.982 35.0748 117.843 38.0881 117.843 41.9587C117.843 45.8036 120.982 48.7911 124.406 48.7911C126.04 48.7911 127.337 48.0635 128.012 47.2327H128.115V48.2198C128.115 50.844 126.715 52.2467 124.458 52.2467C122.616 52.2467 121.475 50.9214 121.007 49.8046L118.388 50.8956C119.14 52.714 121.138 54.9483 124.458 54.9483C127.986 54.9483 130.969 52.8696 130.969 47.8041V35.4905H128.115V36.6073ZM133.044 48.3754H136.053V28.2163H133.044V48.3754ZM140.489 41.7251C140.411 39.0751 142.538 37.7246 144.069 37.7246C145.263 37.7246 146.274 38.3217 146.61 39.1798L140.489 41.7251ZM149.827 39.4391C149.257 37.906 147.518 35.0748 143.965 35.0748C140.437 35.0748 137.506 37.8544 137.506 41.9329C137.506 45.7778 140.411 48.7911 144.302 48.7911C147.441 48.7911 149.257 46.8686 150.009 45.7518L147.675 44.1928C146.897 45.3361 145.833 46.0895 144.302 46.0895C142.772 46.0895 141.682 45.3879 140.982 44.0114L150.138 40.2183L149.827 39.4391ZM76.8743 37.1791V40.0885H83.8261C83.6186 41.7251 83.0738 42.92 82.2436 43.7513C81.2323 44.7648 79.6499 45.8817 76.8742 45.8817C72.594 45.8817 69.248 42.4267 69.248 38.1403C69.248 33.8539 72.594 30.3985 76.8743 30.3985C79.1831 30.3985 80.8687 31.3079 82.114 32.4769L84.1633 30.4249C82.4255 28.7619 80.1165 27.489 76.8743 27.489C71.0116 27.489 66.083 32.2692 66.083 38.1403C66.083 44.0114 71.0116 48.7911 76.8743 48.7911C80.0392 48.7911 82.4255 47.7525 84.2929 45.8036C86.2126 43.8811 86.8094 41.1796 86.8094 38.9977C86.8094 38.3217 86.7578 37.6988 86.6534 37.1791H76.8743ZM94.713 46.0895C92.6374 46.0895 90.8474 44.3749 90.8474 41.9329C90.8474 39.4649 92.6374 37.7763 94.713 37.7763C96.7879 37.7763 98.5779 39.4649 98.5779 41.9329C98.5779 44.3749 96.7879 46.0895 94.713 46.0895ZM94.713 35.0748C90.9253 35.0748 87.8383 37.9582 87.8383 41.9329C87.8383 45.8817 90.9253 48.7911 94.713 48.7911C98.4999 48.7911 101.587 45.8817 101.587 41.9329C101.587 37.9582 98.4999 35.0748 94.713 35.0748ZM109.709 46.0895C107.634 46.0895 105.844 44.3749 105.844 41.9329C105.844 39.4649 107.634 37.7763 109.709 37.7763C111.784 37.7763 113.574 39.4649 113.574 41.9329C113.574 44.3749 111.784 46.0895 109.709 46.0895H109.709ZM109.709 35.0748C105.921 35.0748 102.835 37.9582 102.835 41.9329C102.835 45.8817 105.921 48.7911 109.709 48.7911C113.496 48.7911 116.583 45.8817 116.583 41.9329C116.583 37.9582 113.496 35.0748 109.709 35.0748H109.709Z" fill="white"/>
<path d="M16.9205 12.2733C16.3802 12.7615 16.0576 13.5759 16.0576 14.6568V14.4125V50.083V49.8481C16.0576 50.8463 16.3343 51.6173 16.8028 52.1138L16.9224 52.2284V52.2289C17.3016 52.5716 17.7879 52.7536 18.3452 52.753C18.8897 52.753 19.5024 52.5792 20.149 52.212L43.5207 38.9132L51.5488 34.3446C52.5684 33.7645 53.1407 33.0162 53.2364 32.254V32.2509C53.1407 31.4869 52.5684 30.7391 51.5488 30.159L43.5201 25.591L20.1491 12.2921C19.5011 11.9244 18.888 11.7498 18.342 11.7498C17.7854 11.7498 17.2997 11.9312 16.9207 12.2733H16.9205Z" fill="#00C1FF"/>
<path d="M16.9225 52.2284L16.8028 52.1137C16.3343 51.6173 16.0576 50.8463 16.0576 49.848V50.083V14.4213V14.6568C16.0576 13.5759 16.3802 12.7615 16.9205 12.2733L36.87 32.2515L16.9225 52.2284Z" fill="url(#paint0_linear_1306_8633)"/>
<path d="M43.5208 38.9131L36.8701 32.2515L43.5203 25.591L51.5489 30.1589C52.5685 30.7391 53.1408 31.4868 53.2365 32.2509V32.2539C53.1408 33.0161 52.5685 33.7645 51.5489 34.3445L43.5209 38.913" fill="url(#paint1_linear_1306_8633)"/>
<path d="M18.3445 52.753C17.7873 52.7535 17.301 52.5715 16.9219 52.2288V52.2283L36.8694 32.2514L43.5202 38.913L20.1484 52.212C19.5018 52.5792 18.8891 52.753 18.3445 52.753Z" fill="url(#paint2_linear_1306_8633)"/>
<path d="M36.8705 32.2516L16.9209 12.2734C17.3001 11.9314 17.7857 11.75 18.3423 11.75C18.8883 11.75 19.5015 11.9244 20.1494 12.2923L43.5206 25.5911L36.8704 32.2516" fill="url(#paint3_linear_1306_8633)"/>
<path d="M18.3456 52.9892C17.7884 52.9892 17.3015 52.8071 16.9223 52.4645L16.9216 52.4651C16.92 52.4635 16.9184 52.4621 16.9166 52.4607L16.8129 52.3593C16.8096 52.3561 16.8066 52.3524 16.8027 52.3487L16.9223 52.2289C17.3016 52.5715 17.7878 52.7536 18.3451 52.7529C18.8896 52.7529 19.5023 52.5791 20.1489 52.2119L43.5206 38.9131L43.6704 39.0631L43.5187 39.1493L20.1488 52.4475C19.5596 52.782 18.9991 52.9564 18.4928 52.9855C18.4438 52.9879 18.3947 52.9891 18.3456 52.9891" fill="url(#paint4_linear_1306_8633)"/>
<path d="M16.8028 52.3487C16.3343 51.8522 16.0576 51.0818 16.0576 50.0827V49.8477C16.0576 50.8461 16.3343 51.6172 16.8028 52.1137L16.9224 52.2284L16.8028 52.3487" fill="url(#paint5_linear_1306_8633)"/>
<path d="M43.6703 39.063L43.5205 38.913L51.5485 34.3445C52.5681 33.7645 53.1405 33.0161 53.2362 32.2539C53.2362 32.5336 53.1738 32.8133 53.05 33.0855C52.8003 33.6341 52.2997 34.1524 51.5486 34.5801L43.6703 39.0631" fill="url(#paint6_linear_1306_8633)"/>
<path d="M53.2359 32.251C53.1402 31.4869 52.5678 30.7392 51.5483 30.1591L43.5195 25.5911L43.6693 25.4411H43.6699L51.5483 29.9241C52.6723 30.5641 53.2352 31.4074 53.2359 32.251" fill="url(#paint7_linear_1306_8633)"/>
<path d="M16.0576 14.6569V14.4104C16.0576 14.3216 16.06 14.2346 16.0646 14.1503V14.1464C16.0646 14.1453 16.0646 14.144 16.065 14.1427V14.1332C16.1135 13.2733 16.3802 12.6024 16.8028 12.1545L16.9205 12.2729C16.3802 12.7613 16.0576 13.5757 16.0576 14.6569Z" fill="url(#paint8_linear_1306_8633)"/>
<path d="M43.52 25.5911L20.1489 12.2921C19.501 11.9243 18.8879 11.7498 18.3419 11.7498C17.7852 11.7498 17.2996 11.9312 16.9204 12.2733L16.8027 12.1549C16.8395 12.1159 16.8777 12.0783 16.9173 12.0422C16.9185 12.0409 16.9204 12.0396 16.9217 12.0383C17.2979 11.6989 17.7783 11.5175 18.33 11.5142H18.3419C18.8879 11.5142 19.501 11.6888 20.1489 12.0567L43.6704 25.4405L43.6697 25.4411L43.52 25.5911" fill="url(#paint9_linear_1306_8633)"/>
<defs>
<linearGradient id="paint0_linear_1306_8633" x1="28.8066" y1="14.0444" x2="11.6172" y2="31.264" gradientUnits="userSpaceOnUse">
<stop stop-color="#00A0FF"/>
<stop offset="0.00657" stop-color="#00A1FF"/>
<stop offset="0.2601" stop-color="#00BEFF"/>
<stop offset="0.5122" stop-color="#00D2FF"/>
<stop offset="0.7604" stop-color="#00DFFF"/>
<stop offset="1" stop-color="#00E3FF"/>
</linearGradient>
<linearGradient id="paint1_linear_1306_8633" x1="54.4787" y1="32.1364" x2="15.5178" y2="32.1364" gradientUnits="userSpaceOnUse">
<stop stop-color="#FFE000"/>
<stop offset="0.4087" stop-color="#FFBD00"/>
<stop offset="0.7754" stop-color="#FFA500"/>
<stop offset="1" stop-color="#FF9C00"/>
</linearGradient>
<linearGradient id="paint2_linear_1306_8633" x1="39.9892" y1="38.585" x2="10.8605" y2="67.552" gradientUnits="userSpaceOnUse">
<stop stop-color="#FF3A44"/>
<stop offset="1" stop-color="#C31162"/>
</linearGradient>
<linearGradient id="paint3_linear_1306_8633" x1="11.7793" y1="9.31157" x2="24.7614" y2="22.2414" gradientUnits="userSpaceOnUse">
<stop stop-color="#32A071"/>
<stop offset="0.0685" stop-color="#2DA771"/>
<stop offset="0.4762" stop-color="#15CF74"/>
<stop offset="0.8009" stop-color="#06E775"/>
<stop offset="1" stop-color="#00F076"/>
</linearGradient>
<linearGradient id="paint4_linear_1306_8633" x1="39.9752" y1="43.2059" x2="16.6475" y2="66.5749" gradientUnits="userSpaceOnUse">
<stop stop-color="#CC2E36"/>
<stop offset="1" stop-color="#9C0E4E"/>
</linearGradient>
<linearGradient id="paint5_linear_1306_8633" x1="18.7152" y1="14.0385" x2="3.56928" y2="29.2091" gradientUnits="userSpaceOnUse">
<stop stop-color="#008DE0"/>
<stop offset="0.00657" stop-color="#008DE0"/>
<stop offset="0.2601" stop-color="#00A7E0"/>
<stop offset="0.5122" stop-color="#00B8E0"/>
<stop offset="0.7604" stop-color="#00C4E0"/>
<stop offset="1" stop-color="#00C7E0"/>
</linearGradient>
<linearGradient id="paint6_linear_1306_8633" x1="54.4784" y1="32.2524" x2="15.5175" y2="32.2524" gradientUnits="userSpaceOnUse">
<stop stop-color="#E0C500"/>
<stop offset="0.4087" stop-color="#E0A600"/>
<stop offset="0.7754" stop-color="#E09100"/>
<stop offset="1" stop-color="#E08900"/>
</linearGradient>
<linearGradient id="paint7_linear_1306_8633" x1="54.4781" y1="32.2526" x2="15.5173" y2="32.2526" gradientUnits="userSpaceOnUse">
<stop stop-color="#FFE840"/>
<stop offset="0.4087" stop-color="#FFCE40"/>
<stop offset="0.7754" stop-color="#FFBC40"/>
<stop offset="1" stop-color="#FFB540"/>
</linearGradient>
<linearGradient id="paint8_linear_1306_8633" x1="18.6987" y1="14.0717" x2="4.11057" y2="28.0505" gradientUnits="userSpaceOnUse">
<stop stop-color="#40B8FF"/>
<stop offset="0.00657" stop-color="#40B9FF"/>
<stop offset="0.2601" stop-color="#40CEFF"/>
<stop offset="0.5122" stop-color="#40DDFF"/>
<stop offset="0.7604" stop-color="#40E7FF"/>
<stop offset="1" stop-color="#40EAFF"/>
</linearGradient>
<linearGradient id="paint9_linear_1306_8633" x1="11.7497" y1="13.5364" x2="22.1666" y2="23.9718" gradientUnits="userSpaceOnUse">
<stop stop-color="#65B895"/>
<stop offset="0.0685" stop-color="#62BD95"/>
<stop offset="0.4762" stop-color="#50DB97"/>
<stop offset="0.8009" stop-color="#44ED98"/>
<stop offset="1" stop-color="#40F498"/>
</linearGradient>
</defs>
</svg>
