<svg width="516" height="367" viewBox="0 0 516 367" fill="none" xmlns="http://www.w3.org/2000/svg">
<path d="M514.5 1.5C514.5 39.5 490.453 98.7413 475 121.5C459.828 143.844 435.727 167.072 412.65 182.122C372.103 208.566 320.08 215.323 274.106 200.546C259.574 195.874 249.538 165.488 271.053 165.488C285.878 165.488 296.635 172.888 296.635 188.228C296.635 212.972 267.032 219.546 246.945 225.286C202.295 238.042 155.249 241.818 110.19 253.5C94.4691 257.575 82.0613 262.189 67.4482 268.765C61.8785 271.271 54.2153 274 46.4982 283.924C27 309 11.5 340.308 11.5 357" stroke="#56B7CD" stroke-width="3" stroke-linecap="round" stroke-dasharray="20 20"/>
<path d="M1.68555 355.764C3.94843 357.887 6.39318 359.912 8.28284 362.342C8.80208 363.009 9.39465 363.78 10.0408 364.297C11.5727 365.523 13.9521 363.052 15.0184 361.986C16.5924 360.412 18.0094 358.859 19.5417 357.265C20.4097 356.362 21.3351 354.828 22.307 354.342" stroke="#56B7CD" stroke-width="3" stroke-linecap="round"/>
</svg>
