<svg width="53" height="55" viewBox="0 0 53 55" fill="none" xmlns="http://www.w3.org/2000/svg">
<path fill-rule="evenodd" clip-rule="evenodd" d="M25.2457 1.10426C26.0411 0.31021 27.3294 0.310779 28.124 1.10553L42.202 15.1851L42.2052 15.1881L52.26 25.2014C52.8441 25.7832 53.02 26.6598 52.7053 27.4217C52.3906 28.1837 51.6476 28.6808 50.8233 28.6808H47.4952V45.0522V45.0571C47.4952 45.526 47.4953 47.6481 45.984 49.6648C44.3919 51.7892 41.4885 53.3385 36.6239 53.3385C33.9734 53.3385 31.7762 52.9705 30.0046 52.1298C28.1745 51.2613 26.9161 49.9429 26.1009 48.2918C25.3164 46.7024 24.9753 44.872 24.8111 42.984C24.6518 41.1531 24.6482 39.1008 24.6481 36.9585C24.0451 36.4067 23.6669 35.6132 23.6669 34.7314C23.6669 34.6892 23.6677 34.6472 23.6694 34.6054C22.9584 33.9136 22.2368 33.2379 21.5244 32.5708L21.4171 32.4703C20.4897 31.6018 19.5697 30.7382 18.7657 29.9152C17.9688 29.0995 17.218 28.2561 16.6576 27.4151C16.1191 26.607 15.5959 25.5678 15.5959 24.4005C15.5959 21.8778 16.8525 20.1398 18.3478 19.0897C19.7613 18.097 21.3934 17.6966 22.5074 17.6123C23.6287 17.5275 24.6066 18.3678 24.6914 19.4892C24.7763 20.6106 23.9361 21.5886 22.8148 21.6734C22.2524 21.716 21.37 21.9438 20.6881 22.4226C20.088 22.8441 19.6682 23.4216 19.6682 24.4005C19.6682 24.3992 19.6683 24.3986 19.6683 24.3986C19.6684 24.3986 19.6686 24.3996 19.669 24.4017C19.6743 24.4309 19.7164 24.6614 20.0462 25.1564C20.3973 25.6832 20.9415 26.3146 21.6784 27.069C22.4083 27.816 23.2609 28.6175 24.2006 29.4974L24.3215 29.6108C25.0339 30.2778 25.7884 30.9843 26.5407 31.7171C26.5884 31.7148 26.6361 31.7137 26.6843 31.7137C26.7323 31.7137 26.7802 31.7148 26.8277 31.7171C27.5802 30.9843 28.3347 30.2778 29.047 29.6108L29.168 29.4974C30.1076 28.6175 30.9603 27.816 31.6901 27.069C32.427 26.3146 32.9713 25.6832 33.3223 25.1564C33.6522 24.6614 33.6942 24.4309 33.6995 24.4017C33.7002 24.398 33.7002 24.3976 33.7002 24.4005C33.7002 23.4216 33.2806 22.8441 32.6803 22.4226C31.9985 21.9438 31.1161 21.716 30.5538 21.6734C29.4325 21.5886 28.5922 20.6106 28.6771 19.4892C28.7619 18.3678 29.7397 17.5275 30.8611 17.6123C31.975 17.6966 33.6073 18.097 35.0208 19.0897C36.516 20.1398 37.7725 21.8778 37.7725 24.4005C37.7725 25.5678 37.2494 26.607 36.711 27.4151C36.1505 28.2561 35.3998 29.0995 34.6028 29.9152C33.7989 30.7382 32.8788 31.6018 31.9515 32.4703L31.8442 32.5708L31.8439 32.5711C31.1315 33.2381 30.41 33.9137 29.6991 34.6054C29.7008 34.6472 29.7016 34.6892 29.7016 34.7314C29.7016 35.6132 29.3234 36.4067 28.7204 36.9585C28.7206 39.1366 28.7265 41.0042 28.868 42.6311C29.0144 44.3138 29.2946 45.5614 29.7524 46.4888C30.1798 47.3546 30.7851 47.9922 31.7504 48.4503C32.7744 48.9363 34.3045 49.2657 36.6239 49.2657C40.5945 49.2657 42.1087 48.0451 42.7253 47.2221C43.4174 46.2987 43.4229 45.3037 43.4229 45.0522V26.6444C43.4229 25.5198 44.3346 24.608 45.459 24.608H45.8928L39.3286 18.0711L39.3256 18.068L26.683 5.42404L9.34796 22.7303L7.46707 24.608H7.90947C9.034 24.608 9.94561 25.5198 9.94561 26.6444H7.90947C9.94561 26.6444 9.94561 26.6445 9.94561 26.6446V26.6452V26.6461V26.6474V26.6491V26.6511V26.6536V26.6563V26.6595V26.6629V26.6668V26.671V26.6755V26.6804V26.6857V26.6914V26.8286V26.9294V27.0505V27.0671V27.084V27.1012V27.1187V27.1365V27.1546V27.1729V27.1917V27.2106V27.2299V27.2495V27.2695V27.2896V27.3101V27.3308V27.3518V27.4389V27.4614V27.4842V27.5072V27.5305V27.7269V28.1703V28.2912V28.416V28.5444V28.5772V28.6101V28.6433V28.6766V29.2402V29.3895V29.5418V29.6973V29.7366V29.7761V29.8158V29.8557V30.1812V30.5177V30.8642V31.2205V31.5855V31.9587V32.7269V32.7758V32.8248V32.8738V32.923V32.9723V33.0216V33.071V33.1205V33.2198V33.2696V33.3195V33.5196V35.1565V45.7228C9.94561 46.7078 10.2644 47.6848 10.8654 48.3362C11.3646 48.8774 12.2345 49.3892 13.841 49.3018C14.1593 46.9364 16.1856 45.1127 18.6378 45.1127C21.3111 45.1127 23.4782 47.28 23.4782 49.9535C23.4782 52.6271 21.3111 54.7944 18.6378 54.7944C17.2231 54.7944 15.9501 54.1873 15.0651 53.2195C14.912 53.2742 14.7498 53.3114 14.5807 53.3283C11.6698 53.6195 9.39055 52.7436 7.87237 51.098C6.42229 49.5262 5.87332 47.4769 5.87332 45.7228V35.1565V29.2402V28.6808H2.54523C1.72137 28.6808 0.978686 28.1843 0.663741 27.4229C0.348796 26.6615 0.52366 25.7854 1.10674 25.2033L6.47097 19.8479L25.2457 1.10426ZM18.6378 48.1672C17.6514 48.1672 16.8517 48.967 16.8517 49.9535C16.8517 50.94 17.6514 51.7398 18.6378 51.7398C19.6242 51.7398 20.4239 50.94 20.4239 49.9535C20.4239 48.967 19.6242 48.1672 18.6378 48.1672Z" fill="#56B7CD"/>
</svg>
