<svg width="169" height="56" viewBox="0 0 169 56" fill="none" xmlns="http://www.w3.org/2000/svg">
<path fill-rule="evenodd" clip-rule="evenodd" d="M25.2457 1.10426C26.0411 0.310209 27.3294 0.310778 28.124 1.10553L42.202 15.1851L42.2052 15.1881L52.26 25.2014C52.8441 25.7832 53.02 26.6598 52.7053 27.4217C52.3906 28.1837 51.6476 28.6808 50.8233 28.6808H47.4952V45.0522V45.0571C47.4952 45.526 47.4953 47.6481 45.984 49.6648C44.3919 51.7892 41.4885 53.3385 36.6239 53.3385C33.9734 53.3385 31.7762 52.9705 30.0046 52.1298C28.1745 51.2613 26.9161 49.9429 26.1009 48.2918C25.3164 46.7024 24.9753 44.872 24.8111 42.984C24.6518 41.1531 24.6482 39.1008 24.6481 36.9585C24.0451 36.4067 23.6669 35.6132 23.6669 34.7314C23.6669 34.6892 23.6677 34.6472 23.6694 34.6054C22.9584 33.9136 22.2368 33.2379 21.5244 32.5708L21.4171 32.4703C20.4897 31.6018 19.5697 30.7382 18.7657 29.9152C17.9688 29.0995 17.218 28.2561 16.6576 27.4151C16.1191 26.607 15.5959 25.5678 15.5959 24.4005C15.5959 21.8778 16.8525 20.1398 18.3478 19.0897C19.7613 18.097 21.3934 17.6966 22.5074 17.6123C23.6287 17.5275 24.6066 18.3678 24.6914 19.4892C24.7763 20.6106 23.9361 21.5886 22.8148 21.6734C22.2524 21.716 21.37 21.9438 20.6881 22.4226C20.088 22.8441 19.6682 23.4216 19.6682 24.4005C19.6682 24.3992 19.6683 24.3986 19.6683 24.3986C19.6684 24.3986 19.6686 24.3996 19.669 24.4017C19.6743 24.4309 19.7164 24.6614 20.0462 25.1564C20.3973 25.6832 20.9415 26.3146 21.6784 27.069C22.4083 27.816 23.2609 28.6175 24.2006 29.4974L24.3215 29.6108C25.0339 30.2778 25.7884 30.9843 26.5407 31.7171C26.5884 31.7148 26.6361 31.7137 26.6843 31.7137C26.7323 31.7137 26.7802 31.7148 26.8277 31.7171C27.5802 30.9843 28.3347 30.2778 29.047 29.6108L29.168 29.4974C30.1076 28.6175 30.9603 27.816 31.6901 27.069C32.427 26.3146 32.9713 25.6832 33.3223 25.1564C33.6522 24.6614 33.6942 24.4309 33.6995 24.4017C33.7002 24.398 33.7002 24.3976 33.7002 24.4005C33.7002 23.4216 33.2806 22.8441 32.6803 22.4226C31.9985 21.9438 31.1161 21.716 30.5538 21.6734C29.4325 21.5886 28.5922 20.6106 28.6771 19.4892C28.7619 18.3678 29.7397 17.5275 30.8611 17.6123C31.975 17.6966 33.6073 18.097 35.0208 19.0897C36.516 20.1398 37.7725 21.8778 37.7725 24.4005C37.7725 25.5678 37.2494 26.607 36.711 27.4151C36.1505 28.2561 35.3998 29.0995 34.6028 29.9152C33.7989 30.7382 32.8788 31.6018 31.9515 32.4703L31.8442 32.5708L31.8439 32.5711C31.1315 33.2381 30.41 33.9137 29.6991 34.6054C29.7008 34.6472 29.7016 34.6892 29.7016 34.7314C29.7016 35.6132 29.3234 36.4067 28.7204 36.9585C28.7206 39.1366 28.7265 41.0042 28.868 42.6311C29.0144 44.3138 29.2946 45.5614 29.7524 46.4888C30.1798 47.3546 30.7851 47.9922 31.7504 48.4503C32.7744 48.9363 34.3045 49.2657 36.6239 49.2657C40.5945 49.2657 42.1087 48.0451 42.7253 47.2221C43.4174 46.2987 43.4229 45.3037 43.4229 45.0522V26.6444C43.4229 25.5198 44.3346 24.608 45.459 24.608H45.8928L39.3286 18.0711L39.3256 18.068L26.683 5.42404L9.34796 22.7303L7.46707 24.608H7.90947C9.034 24.608 9.94561 25.5198 9.94561 26.6444H7.90947C9.94561 26.6444 9.94561 26.6445 9.94561 26.6446V26.6452V26.6461V26.6474V26.6491V26.6511V26.6536V26.6563V26.6595V26.6629V26.6668V26.671V26.6755V26.6804V26.6857V26.6914V26.8286V26.9294V27.0505V27.0671V27.084V27.1012V27.1187V27.1365V27.1546V27.1729V27.1917V27.2106V27.2299V27.2495V27.2695V27.2896V27.3101V27.3308V27.3518V27.4389V27.4614V27.4842V27.5072V27.5305V27.7269V28.1703V28.2912V28.416V28.5444V28.5772V28.6101V28.6433V28.6766V29.2402V29.3895V29.5418V29.6973V29.7366V29.7761V29.8158V29.8557V30.1812V30.5177V30.8642V31.2205V31.5855V31.9587V32.7269V32.7758V32.8248V32.8738V32.923V32.9723V33.0216V33.071V33.1205V33.2198V33.2696V33.3195V33.5196V35.1565V45.7228C9.94561 46.7078 10.2644 47.6848 10.8654 48.3362C11.3646 48.8774 12.2345 49.3892 13.841 49.3018C14.1593 46.9364 16.1856 45.1127 18.6378 45.1127C21.3111 45.1127 23.4782 47.28 23.4782 49.9535C23.4782 52.6271 21.3111 54.7944 18.6378 54.7944C17.2231 54.7944 15.9501 54.1873 15.0651 53.2195C14.912 53.2742 14.7498 53.3114 14.5807 53.3283C11.6698 53.6195 9.39055 52.7436 7.87237 51.098C6.42229 49.5262 5.87332 47.4769 5.87332 45.7228V35.1565V29.2402V28.6808H2.54523C1.72137 28.6808 0.978686 28.1843 0.663741 27.4229C0.348796 26.6615 0.52366 25.7854 1.10674 25.2033L6.47097 19.8479L25.2457 1.10426ZM18.6378 48.1672C17.6514 48.1672 16.8517 48.967 16.8517 49.9535C16.8517 50.94 17.6514 51.7398 18.6378 51.7398C19.6242 51.7398 20.4239 50.94 20.4239 49.9535C20.4239 48.967 19.6242 48.1672 18.6378 48.1672Z" fill="#FFFFFF"/>
<path d="M61.2629 34.0967H67.7821C69.361 34.0967 70.8557 34.2731 72.2675 34.6257C73.6974 34.9784 74.942 35.5538 76.0007 36.3519C77.0592 37.1314 77.8951 38.1523 78.508 39.4144C79.1397 40.6764 79.4552 42.2077 79.4552 44.0081C79.4552 45.6043 79.1487 47.0149 78.5359 48.2399C77.9417 49.4463 77.1338 50.4672 76.112 51.3025C75.0903 52.1191 73.9112 52.7409 72.5739 53.1678C71.2367 53.5946 69.8346 53.8081 68.3672 53.8081H61.2629V34.0967ZM65.609 49.799H67.8656C68.8685 49.799 69.797 49.6969 70.6516 49.4928C71.5243 49.2886 72.2765 48.9546 72.9083 48.4905C73.54 48.008 74.0317 47.3861 74.3848 46.6252C74.756 45.8456 74.942 44.899 74.942 43.7854C74.942 42.8202 74.756 41.985 74.3848 41.2797C74.0317 40.5559 73.549 39.962 72.9361 39.4979C72.3232 39.0339 71.5988 38.6905 70.7631 38.4678C69.9461 38.2265 69.0824 38.1058 68.1721 38.1058H65.609V49.799ZM81.0934 47.0428C81.0934 45.9662 81.2883 44.9918 81.6783 44.1195C82.0685 43.2471 82.5978 42.5047 83.2663 41.8922C83.9531 41.2611 84.752 40.7786 85.6623 40.4445C86.5907 40.1104 87.5748 39.9433 88.6154 39.9433C89.6552 39.9433 90.6304 40.1104 91.5406 40.4445C92.4691 40.7786 93.268 41.2611 93.9365 41.8922C94.6233 42.5047 95.1624 43.2471 95.5524 44.1195C95.9425 44.9918 96.1374 45.9662 96.1374 47.0428C96.1374 48.1193 95.9425 49.0937 95.5524 49.9661C95.1624 50.8384 94.6233 51.5901 93.9365 52.2212C93.268 52.8337 92.4691 53.307 91.5406 53.641C90.6304 53.9752 89.6552 54.1422 88.6154 54.1422C87.5748 54.1422 86.5907 53.9752 85.6623 53.641C84.752 53.307 83.9531 52.8337 83.2663 52.2212C82.5978 51.5901 82.0685 50.8384 81.6783 49.9661C81.2883 49.0937 81.0934 48.1193 81.0934 47.0428ZM85.2722 47.0428C85.2722 48.0636 85.5599 48.8895 86.1359 49.5206C86.73 50.1517 87.5567 50.4672 88.6154 50.4672C89.6741 50.4672 90.4911 50.1517 91.067 49.5206C91.6612 48.8895 91.9585 48.0636 91.9585 47.0428C91.9585 46.0219 91.6612 45.196 91.067 44.565C90.4911 43.9339 89.6741 43.6184 88.6154 43.6184C87.5567 43.6184 86.73 43.9339 86.1359 44.565C85.5599 45.196 85.2722 46.0219 85.2722 47.0428ZM98.3203 32.7604H102.5V45.6229L107.124 40.2774H112.25L106.873 46.3746L112.389 53.8081H107.124L102.555 46.9592H102.5V53.8081H98.3203V32.7604ZM122.743 43.6184H119.066V48.1286C119.066 48.4997 119.085 48.8432 119.122 49.1587C119.159 49.4557 119.243 49.7155 119.372 49.9382C119.502 50.161 119.698 50.3372 119.957 50.4672C120.236 50.5786 120.598 50.6343 121.044 50.6343C121.267 50.6343 121.555 50.6156 121.907 50.5786C122.28 50.5229 122.558 50.4115 122.743 50.2445V53.7246C122.28 53.8916 121.796 54.003 121.294 54.0587C120.793 54.1144 120.302 54.1422 119.818 54.1422C119.112 54.1422 118.463 54.068 117.868 53.9195C117.274 53.7711 116.754 53.5389 116.308 53.2235C115.862 52.8893 115.509 52.4625 115.249 51.9428C115.008 51.423 114.886 50.7921 114.886 50.0496V43.6184H112.212V40.2774H114.886V36.2683H119.066V40.2774H122.743V43.6184ZM137.403 51.4695C136.735 52.3233 135.89 52.9822 134.868 53.4462C133.847 53.9102 132.788 54.1422 131.693 54.1422C130.652 54.1422 129.669 53.9752 128.739 53.641C127.83 53.307 127.031 52.8337 126.344 52.2212C125.675 51.5901 125.146 50.8384 124.756 49.9661C124.366 49.0937 124.17 48.1193 124.17 47.0428C124.17 45.9662 124.366 44.9918 124.756 44.1195C125.146 43.2471 125.675 42.5047 126.344 41.8922C127.031 41.2611 127.83 40.7786 128.739 40.4445C129.669 40.1104 130.652 39.9433 131.693 39.9433C132.659 39.9433 133.531 40.1104 134.311 40.4445C135.11 40.7786 135.778 41.2611 136.317 41.8922C136.875 42.5047 137.302 43.2471 137.599 44.1195C137.896 44.9918 138.045 45.9662 138.045 47.0428V48.3513H128.349C128.516 49.1494 128.879 49.7898 129.436 50.2723C129.993 50.7364 130.681 50.9683 131.497 50.9683C132.184 50.9683 132.761 50.8199 133.225 50.5229C133.709 50.2074 134.126 49.8083 134.478 49.3257L137.403 51.4695ZM133.865 45.5116C133.885 44.8063 133.653 44.203 133.169 43.7019C132.686 43.2007 132.064 42.9501 131.303 42.9501C130.839 42.9501 130.429 43.0245 130.077 43.1729C129.724 43.3214 129.417 43.5162 129.157 43.7576C128.916 43.9802 128.721 44.2494 128.572 44.565C128.443 44.862 128.368 45.1774 128.349 45.5116H133.865ZM140.308 40.2774H144.486V42.449H144.542C144.988 41.6138 145.517 40.9921 146.13 40.5837C146.743 40.1569 147.514 39.9433 148.442 39.9433C148.684 39.9433 148.925 39.9526 149.167 39.9711C149.408 39.9898 149.631 40.0268 149.835 40.0825V43.8967C149.538 43.804 149.241 43.7389 148.944 43.7019C148.665 43.6462 148.368 43.6184 148.052 43.6184C147.253 43.6184 146.623 43.7297 146.158 43.9524C145.693 44.1751 145.331 44.4906 145.071 44.899C144.83 45.2888 144.672 45.762 144.598 46.3189C144.524 46.8757 144.486 47.4883 144.486 48.1564V53.8081H140.308V40.2774Z" fill="#FFFFFF"/>
<path d="M76.865 18.1045C76.865 19.2771 76.7593 20.4138 76.548 21.5147C76.3601 22.6155 75.9845 23.5968 75.421 24.4583C74.8575 25.2959 74.0475 25.978 72.9909 26.5045C71.9578 27.0071 70.596 27.2583 68.9055 27.2583C66.9332 27.2583 65.2662 26.7797 63.9044 25.8224C62.5426 24.8651 61.6621 23.3694 61.2629 21.3353L66.2992 20.0788C66.3697 20.701 66.6397 21.2275 67.1093 21.6583C67.6024 22.089 68.1542 22.3045 68.7646 22.3045C69.3986 22.3045 69.8916 22.1489 70.2438 21.8378C70.596 21.5028 70.8543 21.0959 71.0186 20.6173C71.1829 20.1386 71.2769 19.6241 71.3004 19.0737C71.3474 18.4993 71.3708 17.9728 71.3708 17.4942V1.19678H76.865V18.1045ZM97.0455 26.6122H91.9739V24.2429H91.9036C91.7157 24.578 91.4692 24.9131 91.1639 25.248C90.8821 25.5831 90.53 25.8823 90.1074 26.1455C89.6847 26.4088 89.2034 26.6241 88.6633 26.7916C88.1234 26.9592 87.5363 27.0429 86.9024 27.0429C85.5641 27.0429 84.4723 26.8395 83.627 26.4327C82.8053 26.0019 82.1596 25.4155 81.69 24.6737C81.2439 23.9318 80.9386 23.0583 80.7743 22.0532C80.6334 21.048 80.5629 19.9592 80.5629 18.7866V9.16601H85.8458V17.7096C85.8458 18.2122 85.8575 18.7386 85.8811 19.289C85.928 19.8155 86.0337 20.3062 86.1981 20.7609C86.3859 21.2155 86.6559 21.5866 87.0081 21.8737C87.3837 22.1609 87.912 22.3045 88.5929 22.3045C89.2738 22.3045 89.8256 22.1848 90.2482 21.9455C90.6709 21.6823 90.9878 21.3472 91.1992 20.9403C91.4339 20.5096 91.5865 20.031 91.657 19.5045C91.7274 18.978 91.7627 18.4275 91.7627 17.8532V9.16601H97.0455V26.6122ZM100.434 9.16601H105.506V11.5353H105.576C105.741 11.2002 105.975 10.8651 106.281 10.5301C106.586 10.195 106.95 9.89592 107.372 9.63267C107.796 9.36943 108.276 9.15404 108.817 8.98652C109.356 8.819 109.944 8.73523 110.577 8.73523C111.775 8.73523 112.831 8.98652 113.747 9.48908C114.686 9.99165 115.39 10.7814 115.861 11.8583C116.471 10.7336 117.211 9.93182 118.079 9.45318C118.948 8.97455 120.017 8.73523 121.284 8.73523C122.434 8.73523 123.398 8.93866 124.172 9.34549C124.97 9.7284 125.592 10.2668 126.038 10.9609C126.508 11.631 126.837 12.4327 127.025 13.366C127.236 14.2754 127.342 15.2566 127.342 16.3096V26.6122H122.059V16.4532C122.059 15.6395 121.883 14.9455 121.53 14.3711C121.202 13.7728 120.603 13.4737 119.735 13.4737C119.124 13.4737 118.607 13.5814 118.185 13.7968C117.786 13.9883 117.457 14.2634 117.198 14.6224C116.963 14.9814 116.788 15.4002 116.67 15.8788C116.576 16.3575 116.53 16.8601 116.53 17.3866V26.6122H111.247V17.3866C111.247 17.0754 111.235 16.6925 111.211 16.2378C111.188 15.7831 111.105 15.3523 110.965 14.9455C110.824 14.5386 110.589 14.1916 110.26 13.9045C109.955 13.6173 109.498 13.4737 108.887 13.4737C108.206 13.4737 107.654 13.6053 107.232 13.8685C106.809 14.1079 106.48 14.4429 106.245 14.8737C106.034 15.2806 105.893 15.7472 105.823 16.2737C105.752 16.8002 105.718 17.3506 105.718 17.925V26.6122H100.434V9.16601ZM131.219 9.16601H136.08V11.4634H136.15C136.362 11.1523 136.631 10.8412 136.96 10.5301C137.313 10.195 137.712 9.89592 138.158 9.63267C138.628 9.36943 139.132 9.15404 139.672 8.98652C140.212 8.819 140.787 8.73523 141.398 8.73523C142.666 8.73523 143.816 8.96258 144.849 9.41728C145.883 9.84805 146.763 10.4703 147.491 11.284C148.243 12.0737 148.818 13.019 149.217 14.1198C149.616 15.2207 149.815 16.4293 149.815 17.7455C149.815 18.966 149.627 20.1386 149.251 21.2634C148.899 22.3642 148.383 23.3455 147.702 24.2071C147.044 25.0685 146.235 25.7626 145.272 26.289C144.31 26.7916 143.217 27.0429 141.997 27.0429C140.893 27.0429 139.86 26.8754 138.898 26.5403C137.958 26.1814 137.183 25.5831 136.573 24.7455H136.502V34.7968H131.219V9.16601ZM136.08 17.889C136.08 19.2053 136.444 20.2703 137.172 21.084C137.923 21.8976 138.968 22.3045 140.307 22.3045C141.644 22.3045 142.678 21.8976 143.406 21.084C144.157 20.2703 144.533 19.2053 144.533 17.889C144.533 16.5728 144.157 15.5079 143.406 14.6942C142.678 13.8806 141.644 13.4737 140.307 13.4737C138.968 13.4737 137.923 13.8806 137.172 14.6942C136.444 15.5079 136.08 16.5728 136.08 17.889ZM163.3 24.4224H163.23C162.643 25.3558 161.856 26.0258 160.87 26.4327C159.908 26.8395 158.887 27.0429 157.806 27.0429C157.008 27.0429 156.233 26.9233 155.482 26.684C154.754 26.4685 154.108 26.1336 153.545 25.6788C152.981 25.2241 152.535 24.6618 152.206 23.9916C151.878 23.3215 151.713 22.5438 151.713 21.6583C151.713 20.6532 151.889 19.8036 152.242 19.1096C152.617 18.4155 153.11 17.8412 153.721 17.3866C154.355 16.9318 155.071 16.5848 155.869 16.3455C156.667 16.0823 157.489 15.8907 158.335 15.7711C159.203 15.6515 160.06 15.5797 160.905 15.5558C161.774 15.5318 162.573 15.5198 163.3 15.5198C163.3 14.5626 162.96 13.8088 162.279 13.2583C161.621 12.684 160.835 12.3968 159.919 12.3968C159.05 12.3968 158.252 12.5882 157.524 12.9711C156.82 13.3301 156.187 13.8327 155.623 14.4788L152.805 11.5353C153.791 10.6019 154.941 9.90788 156.257 9.45318C157.571 8.97455 158.933 8.73523 160.342 8.73523C161.892 8.73523 163.159 8.93866 164.146 9.34549C165.155 9.7284 165.954 10.3028 166.54 11.0685C167.151 11.8344 167.574 12.7797 167.808 13.9045C168.043 15.0053 168.16 16.2857 168.16 17.7455V26.6122H163.3V24.4224ZM161.997 18.966C161.598 18.966 161.094 18.9899 160.483 19.0378C159.895 19.0618 159.32 19.1575 158.757 19.325C158.217 19.4925 157.747 19.7438 157.348 20.0788C156.973 20.4138 156.785 20.8806 156.785 21.4788C156.785 22.125 157.055 22.6036 157.595 22.9147C158.135 23.2258 158.698 23.3814 159.286 23.3814C159.802 23.3814 160.295 23.3096 160.765 23.166C161.258 23.0224 161.692 22.819 162.068 22.5558C162.444 22.2925 162.737 21.9575 162.949 21.5506C163.183 21.1438 163.3 20.6651 163.3 20.1147V18.966H161.997Z" fill="#FFFFFF"/>
</svg>
