<svg width="85" height="88" viewBox="0 0 85 88" fill="none" xmlns="http://www.w3.org/2000/svg">
<path fill-rule="evenodd" clip-rule="evenodd" d="M41.1816 0.488349C41.8118 -0.163191 42.8325 -0.162723 43.4621 0.489394L54.6165 12.042L54.619 12.0445L62.5856 20.2607C63.0485 20.7381 63.1878 21.4573 62.9385 22.0824C62.6891 22.7077 62.1004 23.1156 61.4473 23.1156H58.8104V36.5487V36.5527C58.8104 36.9375 58.8105 38.6787 57.613 40.3335C56.3516 42.0766 54.0511 43.3478 50.1968 43.3478C48.0967 43.3478 46.3558 43.0459 44.9521 42.3561C43.5021 41.6434 42.505 40.5617 41.8591 39.207C41.2375 37.9027 40.9673 36.4009 40.8372 34.8517C40.711 33.3494 40.7081 31.6655 40.7081 29.9076C40.2303 29.4549 39.9306 28.8038 39.9306 28.0803C39.9306 28.0457 39.9313 28.0112 39.9326 27.9769C39.3693 27.4092 38.7975 26.8548 38.233 26.3075L38.148 26.225C37.4132 25.5124 36.6843 24.8037 36.0473 24.1285C35.4158 23.4592 34.821 22.7671 34.3769 22.077C33.9503 21.414 33.5358 20.5613 33.5358 19.6035C33.5358 17.5335 34.5314 16.1075 35.7161 15.2458C36.8361 14.4313 38.1293 14.1028 39.0119 14.0336C39.9004 13.964 40.6751 14.6535 40.7423 15.5737C40.8096 16.4938 40.1439 17.2963 39.2555 17.3659C38.8099 17.4008 38.1107 17.5877 37.5705 17.9806C37.0949 18.3265 36.7624 18.8003 36.7624 19.6035C36.7624 19.6024 36.7624 19.6019 36.7624 19.6019C36.7625 19.6019 36.7627 19.6028 36.763 19.6045C36.7672 19.6284 36.8005 19.8176 37.0619 20.2238C37.34 20.656 37.7712 21.1741 38.3551 21.7931C38.9334 22.406 39.6089 23.0637 40.3535 23.7857L40.4493 23.8787C41.0137 24.426 41.6115 25.0057 42.2076 25.6069C42.2454 25.6051 42.2832 25.6042 42.3213 25.6042C42.3594 25.6042 42.3973 25.6051 42.435 25.6069C43.0312 25.0057 43.629 24.426 44.1934 23.8787L44.2892 23.7857C45.0338 23.0637 45.7093 22.406 46.2876 21.7931C46.8715 21.1741 47.3027 20.656 47.5808 20.2238C47.8422 19.8176 47.8755 19.6284 47.8797 19.6045C47.8803 19.6014 47.8803 19.6011 47.8803 19.6035C47.8803 18.8003 47.5478 18.3265 47.0722 17.9806C46.532 17.5877 45.8328 17.4008 45.3872 17.3659C44.4988 17.2963 43.8331 16.4938 43.9004 15.5737C43.9676 14.6535 44.7423 13.964 45.6308 14.0336C46.5133 14.1028 47.8066 14.4313 48.9266 15.2458C50.1113 16.1075 51.1068 17.5335 51.1068 19.6035C51.1068 20.5613 50.6924 21.414 50.2658 22.077C49.8217 22.7671 49.2269 23.4592 48.5954 24.1285C47.9584 24.8037 47.2295 25.5124 46.4947 26.225L46.4097 26.3075L46.4094 26.3077C45.845 26.855 45.2733 27.4093 44.7101 27.9769C44.7114 28.0112 44.7121 28.0457 44.7121 28.0803C44.7121 28.8038 44.4124 29.4549 43.9346 29.9076C43.9348 31.6948 43.9395 33.2273 44.0516 34.5621C44.1676 35.9429 44.3896 36.9665 44.7523 37.7276C45.091 38.4379 45.5705 38.9611 46.3354 39.337C47.1467 39.7357 48.3591 40.0061 50.1968 40.0061C53.3428 40.0061 54.5425 39.0045 55.0311 38.3292C55.5794 37.5715 55.5838 36.7551 55.5838 36.5487V21.4447C55.5838 20.5219 56.3062 19.7738 57.1971 19.7738H57.5408L52.3398 14.4101L52.3374 14.4076L42.3204 4.03284L28.5853 18.2331L27.0951 19.7738H27.4456C28.3366 19.7738 29.0589 20.5219 29.0589 21.4447H27.4456C29.0589 21.4447 29.0589 21.4448 29.0589 21.4448V21.4453V21.4461V21.4472V21.4485V21.4502V21.4522V21.4544V21.457V21.4599V21.4631V21.4665V21.4702V21.4742V21.4786V21.4833V21.5958V21.6785V21.7779V21.7915V21.8054V21.8195V21.8338V21.8484V21.8633V21.8783V21.8937V21.9093V21.9251V21.9412V21.9576V21.9741V21.9909V22.0079V22.0251V22.0966V22.115V22.1337V22.1526V22.1718V22.3329V22.6968V22.7959V22.8983V23.0037V23.0306V23.0576V23.0848V23.1121V23.5746V23.6971V23.8221V23.9497V23.9819V24.0143V24.0469V24.0797V24.3468V24.6228V24.9072V25.1995V25.499V25.8052V26.4355V26.4756V26.5158V26.5561V26.5964V26.6369V26.6773V26.7179V26.7585V26.84V26.8808V26.9218V27.0859V28.4291V37.099C29.0589 37.9072 29.3115 38.7089 29.7876 39.2434C30.1832 39.6874 30.8724 40.1074 32.1453 40.0356C32.3975 38.0948 34.003 36.5984 35.9459 36.5984C38.064 36.5984 39.7811 38.3767 39.7811 40.5704C39.7811 42.7641 38.064 44.5424 35.9459 44.5424C34.825 44.5424 33.8164 44.0443 33.1152 43.2503C32.9939 43.2951 32.8654 43.3256 32.7314 43.3395C30.425 43.5784 28.6191 42.8598 27.4162 41.5094C26.2673 40.2198 25.8323 38.5383 25.8323 37.099V28.4291V23.5746V23.1156H23.1954C22.5426 23.1156 21.9541 22.7082 21.7046 22.0835C21.4551 21.4587 21.5936 20.7398 22.0556 20.2622L26.3058 15.868L41.1816 0.488349ZM35.9459 39.1047C35.1644 39.1047 34.5308 39.7609 34.5308 40.5704C34.5308 41.3799 35.1644 42.0361 35.9459 42.0361C36.7275 42.0361 37.3611 41.3799 37.3611 40.5704C37.3611 39.7609 36.7275 39.1047 35.9459 39.1047Z" fill="#56B7CD"/>
<path d="M7.19434 71.5526H12.3596C13.6106 71.5526 14.7949 71.6973 15.9135 71.9866C17.0465 72.276 18.0326 72.7481 18.8714 73.403C19.7102 74.0426 20.3724 74.8802 20.858 75.9158C21.3585 76.9514 21.6085 78.2078 21.6085 79.6851C21.6085 80.9948 21.3657 82.1523 20.8801 83.1574C20.4094 84.1473 19.7692 84.9849 18.9597 85.6703C18.1501 86.3404 17.2159 86.8506 16.1563 87.2009C15.0968 87.5511 13.9859 87.7263 12.8232 87.7263H7.19434V71.5526ZM10.6378 84.4367H12.4258C13.2205 84.4367 13.9561 84.3529 14.6332 84.1854C15.3247 84.0179 15.9207 83.7438 16.4212 83.363C16.9217 82.9671 17.3114 82.4569 17.5911 81.8325C17.8852 81.1928 18.0326 80.4161 18.0326 79.5023C18.0326 78.7104 17.8852 78.0251 17.5911 77.4464C17.3114 76.8525 16.9289 76.3651 16.4432 75.9844C15.9576 75.6036 15.3837 75.3218 14.7215 75.1391C14.0742 74.9411 13.3899 74.8421 12.6686 74.8421H10.6378V84.4367ZM22.9065 82.1752C22.9065 81.2918 23.061 80.4922 23.37 79.7765C23.6791 79.0607 24.0985 78.4515 24.6282 77.949C25.1724 77.4311 25.8053 77.0352 26.5266 76.7611C27.2622 76.487 28.0419 76.3499 28.8664 76.3499C29.6903 76.3499 30.4629 76.487 31.1841 76.7611C31.9198 77.0352 32.5528 77.4311 33.0825 77.949C33.6266 78.4515 34.0538 79.0607 34.3628 79.7765C34.6718 80.4922 34.8263 81.2918 34.8263 82.1752C34.8263 83.0585 34.6718 83.858 34.3628 84.5738C34.0538 85.2895 33.6266 85.9063 33.0825 86.4241C32.5528 86.9268 31.9198 87.3151 31.1841 87.5892C30.4629 87.8634 29.6903 88.0004 28.8664 88.0004C28.0419 88.0004 27.2622 87.8634 26.5266 87.5892C25.8053 87.3151 25.1724 86.9268 24.6282 86.4241C24.0985 85.9063 23.6791 85.2895 23.37 84.5738C23.061 83.858 22.9065 83.0585 22.9065 82.1752ZM26.2175 82.1752C26.2175 83.0128 26.4455 83.6904 26.9018 84.2082C27.3726 84.7261 28.0276 84.9849 28.8664 84.9849C29.7052 84.9849 30.3526 84.7261 30.8089 84.2082C31.2796 83.6904 31.5153 83.0128 31.5153 82.1752C31.5153 81.3375 31.2796 80.6598 30.8089 80.142C30.3526 79.6242 29.7052 79.3653 28.8664 79.3653C28.0276 79.3653 27.3726 79.6242 26.9018 80.142C26.4455 80.6598 26.2175 81.3375 26.2175 82.1752ZM36.5558 70.4561H39.8672V81.0101L43.531 76.624H47.5924L43.3325 81.6269L47.7029 87.7263H43.531L39.9107 82.1066H39.8672V87.7263H36.5558V70.4561ZM55.9065 79.3653H52.9929V83.0661C52.9929 83.3706 53.0082 83.6524 53.0373 83.9113C53.0671 84.155 53.1333 84.3682 53.2357 84.5509C53.339 84.7337 53.4938 84.8783 53.6995 84.9849C53.9205 85.0763 54.2069 85.122 54.5602 85.122C54.7369 85.122 54.9651 85.1067 55.2442 85.0763C55.5395 85.0306 55.7597 84.9392 55.9065 84.8022V87.6578C55.5395 87.7948 55.1563 87.8862 54.7586 87.9319C54.3618 87.9776 53.9722 88.0004 53.589 88.0004C53.03 88.0004 52.5154 87.9395 52.0443 87.8177C51.5732 87.6959 51.161 87.5054 50.8077 87.2466C50.4544 86.9724 50.1753 86.6221 49.9688 86.1957C49.7776 85.7692 49.6816 85.2515 49.6816 84.6423V79.3653H47.5626V76.624H49.6816V73.3344H52.9929V76.624H55.9065V79.3653ZM67.5222 85.8073C66.993 86.5079 66.3235 87.0486 65.5136 87.4293C64.7046 87.8101 63.8657 88.0004 62.9977 88.0004C62.1733 88.0004 61.3941 87.8634 60.6576 87.5892C59.9373 87.3151 59.3041 86.9268 58.7596 86.4241C58.2296 85.9063 57.8102 85.2895 57.5012 84.5738C57.1923 83.858 57.0374 83.0585 57.0374 82.1752C57.0374 81.2918 57.1923 80.4922 57.5012 79.7765C57.8102 79.0607 58.2296 78.4515 58.7596 77.949C59.3041 77.4311 59.9373 77.0352 60.6576 76.7611C61.3941 76.487 62.1733 76.3499 62.9977 76.3499C63.7632 76.3499 64.4545 76.487 65.0724 76.7611C65.7056 77.0352 66.2348 77.4311 66.6615 77.949C67.1035 78.4515 67.4423 79.0607 67.6771 79.7765C67.9126 80.4922 68.0304 81.2918 68.0304 82.1752V83.2488H60.3487C60.481 83.9037 60.7682 84.4291 61.2094 84.825C61.6506 85.2058 62.1959 85.3961 62.8428 85.3961C63.3873 85.3961 63.8439 85.2743 64.2117 85.0306C64.5949 84.7718 64.9256 84.4443 65.2047 84.0483L67.5222 85.8073ZM64.7191 80.9187C64.7344 80.34 64.5505 79.845 64.1674 79.4338C63.785 79.0226 63.2921 78.817 62.6888 78.817C62.3209 78.817 61.9967 78.878 61.7176 78.9998C61.4377 79.1216 61.1949 79.2815 60.9884 79.4795C60.798 79.6622 60.6431 79.8831 60.5254 80.142C60.4229 80.3857 60.3632 80.6445 60.3487 80.9187H64.7191ZM69.8236 76.624H73.134V78.4058H73.1784C73.5317 77.7205 73.9511 77.2104 74.4368 76.8753C74.9224 76.5251 75.533 76.3499 76.2687 76.3499C76.4606 76.3499 76.651 76.3575 76.843 76.3727C77.0341 76.388 77.2108 76.4184 77.3721 76.4641V79.5937C77.1366 79.5176 76.9019 79.4642 76.6663 79.4338C76.4453 79.3881 76.2098 79.3653 75.9597 79.3653C75.3265 79.3653 74.8272 79.4566 74.4585 79.6394C74.0907 79.8221 73.8035 80.081 73.5978 80.4161C73.4067 80.7359 73.2816 81.1243 73.2228 81.5812C73.1639 82.0381 73.134 82.5407 73.134 83.0889V87.7263H69.8236V76.624Z" fill="#1E3869"/>
<path d="M12.3619 58.4298C12.3619 59.392 12.2782 60.3247 12.1107 61.228C11.9619 62.1313 11.6643 62.9364 11.2178 63.6433C10.7713 64.3306 10.1295 64.8902 9.29239 65.3222C8.47381 65.7346 7.39484 65.9408 6.0554 65.9408C4.49269 65.9408 3.17189 65.5481 2.09292 64.7626C1.01387 63.9771 0.316286 62.7498 0 61.0808L3.99039 60.0498C4.04621 60.5604 4.26013 60.9924 4.63224 61.3459C5.0229 61.6993 5.4601 61.876 5.94376 61.876C6.44606 61.876 6.83672 61.7484 7.11574 61.4932C7.39484 61.2182 7.59948 60.8844 7.72967 60.4916C7.85987 60.0989 7.93432 59.6767 7.95296 59.2251C7.99014 58.7538 8.00869 58.3218 8.00869 57.9291V44.5566H12.3619V58.4298ZM28.3515 65.4106H24.3331V63.4666H24.2774C24.1285 63.7415 23.9332 64.0164 23.6913 64.2913C23.4681 64.5662 23.189 64.8117 22.8542 65.0277C22.5193 65.2437 22.138 65.4204 21.71 65.5578C21.2822 65.6954 20.8171 65.764 20.3148 65.764C19.2545 65.764 18.3894 65.5971 17.7197 65.2633C17.0685 64.9099 16.557 64.4287 16.1849 63.82C15.8315 63.2113 15.5895 62.4946 15.4594 61.6699C15.3477 60.8451 15.2919 59.9517 15.2919 58.9895V51.0956H19.4777V58.1058C19.4777 58.5182 19.4869 58.9501 19.5056 59.4018C19.5428 59.8338 19.6265 60.2364 19.7568 60.6095C19.9056 60.9825 20.1195 61.287 20.3985 61.5226C20.6962 61.7582 21.1147 61.876 21.6542 61.876C22.1937 61.876 22.6309 61.7779 22.9658 61.5815C23.3007 61.3655 23.5518 61.0906 23.7192 60.7567C23.9053 60.4033 24.0262 60.0106 24.082 59.5786C24.1378 59.1466 24.1657 58.6949 24.1657 58.2236V51.0956H28.3515V65.4106ZM31.0365 51.0956H35.0549V53.0396H35.1105C35.2412 52.7647 35.4267 52.4897 35.6687 52.2149C35.9107 51.9399 36.1987 51.6945 36.5334 51.4785C36.869 51.2625 37.2497 51.0858 37.6781 50.9483C38.1056 50.8109 38.571 50.7421 39.0728 50.7421C40.0222 50.7421 40.8587 50.9483 41.5847 51.3607C42.3284 51.7731 42.8866 52.4211 43.2593 53.3047C43.7424 52.3818 44.3289 51.724 45.0169 51.3312C45.705 50.9385 46.552 50.7421 47.5562 50.7421C48.4678 50.7421 49.2308 50.909 49.8447 51.2429C50.4771 51.557 50.97 51.9988 51.3233 52.5684C51.6951 53.1182 51.9557 53.776 52.1049 54.5418C52.2719 55.288 52.3558 56.0931 52.3558 56.9571V65.4106H48.1701V57.0749C48.1701 56.4072 48.0306 55.8378 47.7515 55.3665C47.4909 54.8756 47.0166 54.6302 46.3285 54.6302C45.8445 54.6302 45.4356 54.7185 45.1008 54.8952C44.7846 55.0524 44.5241 55.2781 44.3192 55.5727C44.1328 55.8673 43.9941 56.2109 43.9005 56.6036C43.8263 56.9964 43.7892 57.4088 43.7892 57.8408V65.4106H39.6035V57.8408C39.6035 57.5855 39.5939 57.2712 39.5753 56.8982C39.5567 56.5251 39.4914 56.1716 39.3801 55.8378C39.2688 55.5039 39.0824 55.2192 38.8219 54.9836C38.5799 54.748 38.2177 54.6302 37.7337 54.6302C37.1941 54.6302 36.7569 54.7382 36.4221 54.9541C36.0874 55.1506 35.8268 55.4254 35.6405 55.7789C35.4735 56.1127 35.3614 56.4956 35.3057 56.9276C35.2501 57.3596 35.2226 57.8113 35.2226 58.2825V65.4106H31.0365V51.0956ZM55.4283 51.0956H59.2792V52.9807H59.3349C59.5027 52.7254 59.7164 52.4701 59.977 52.2149C60.2561 51.9399 60.5723 51.6945 60.9256 51.4785C61.2983 51.2625 61.6975 51.0858 62.1259 50.9483C62.5534 50.8109 63.0092 50.7421 63.4931 50.7421C64.4974 50.7421 65.4089 50.9287 66.2277 51.3018C67.0464 51.6552 67.7442 52.1658 68.3209 52.8334C68.9162 53.4814 69.372 54.257 69.6882 55.1603C70.0044 56.0636 70.1625 57.0553 70.1625 58.1353C70.1625 59.1367 70.0133 60.0989 69.7156 61.0218C69.4365 61.9251 69.0275 62.7302 68.4879 63.4371C67.9668 64.144 67.3255 64.7135 66.5624 65.1455C65.8001 65.5578 64.9346 65.764 63.9674 65.764C63.093 65.764 62.2743 65.6266 61.512 65.3517C60.7675 65.0572 60.1536 64.5663 59.6704 63.8789H59.614V72.1263H55.4283V51.0956ZM59.2792 58.2531C59.2792 59.3331 59.568 60.2069 60.1448 60.8746C60.7401 61.5422 61.5677 61.876 62.6284 61.876C63.6883 61.876 64.5071 61.5422 65.0838 60.8746C65.6791 60.2069 65.9768 59.3331 65.9768 58.2531C65.9768 57.1731 65.6791 56.2993 65.0838 55.6316C64.5071 54.964 63.6883 54.6302 62.6284 54.6302C61.5677 54.6302 60.7401 54.964 60.1448 55.6316C59.568 56.2993 59.2792 57.1731 59.2792 58.2531ZM80.8465 63.6138H80.7908C80.3262 64.3797 79.7027 64.9295 78.921 65.2633C78.1588 65.5971 77.3497 65.764 76.4938 65.764C75.8614 65.764 75.2476 65.6659 74.6523 65.4695C74.0755 65.2928 73.5633 65.0179 73.1172 64.6448C72.6703 64.2717 72.317 63.8103 72.0565 63.2604C71.7967 62.7106 71.6661 62.0724 71.6661 61.3459C71.6661 60.5211 71.8056 59.824 72.0847 59.2546C72.3824 58.6851 72.7728 58.2138 73.2568 57.8408C73.7593 57.4677 74.3264 57.1829 74.9588 56.9865C75.5912 56.7706 76.2422 56.6134 76.9125 56.5152C77.6006 56.4171 78.2797 56.3582 78.9493 56.3386C79.6373 56.3189 80.2706 56.3091 80.8465 56.3091C80.8465 55.5237 80.5771 54.9051 80.0374 54.4535C79.5163 53.9822 78.8936 53.7465 78.1676 53.7465C77.4796 53.7465 76.8471 53.9036 76.2704 54.2178C75.7122 54.5124 75.2105 54.9247 74.7636 55.4549L72.5308 53.0396C73.3124 52.2738 74.2239 51.7043 75.2661 51.3312C76.3075 50.9385 77.3868 50.7421 78.5032 50.7421C79.7309 50.7421 80.7352 50.909 81.5168 51.2429C82.3162 51.557 82.9494 52.0283 83.414 52.6567C83.898 53.2851 84.2328 54.0607 84.4183 54.9836C84.6047 55.8869 84.6974 56.9375 84.6974 58.1353V65.4106H80.8465V63.6138ZM79.814 59.1367C79.4978 59.1367 79.0985 59.1563 78.6145 59.1957C78.1491 59.2153 77.6933 59.2938 77.2472 59.4313C76.8189 59.5687 76.447 59.7749 76.1308 60.0498C75.8332 60.3247 75.6848 60.7077 75.6848 61.1986C75.6848 61.7288 75.8985 62.1215 76.326 62.3767C76.7544 62.632 77.2005 62.7597 77.6659 62.7597C78.0749 62.7597 78.4653 62.7008 78.8379 62.5829C79.2284 62.4651 79.5728 62.2982 79.8705 62.0822C80.1681 61.8662 80.4004 61.5913 80.5682 61.2575C80.7537 60.9236 80.8465 60.5309 80.8465 60.0793V59.1367H79.814Z" fill="#56B7CD"/>
</svg>
