<svg width="654" height="379" viewBox="0 0 654 379" fill="none" xmlns="http://www.w3.org/2000/svg">
<path fill-rule="evenodd" clip-rule="evenodd" d="M245.43 250.131C240.315 247.408 235.947 248.69 231.151 253.815C233.336 241.429 233.283 226.426 223.479 223.917C213.41 221.301 207.709 227.601 201.795 242.817C202.008 229.79 199.451 212.972 188.688 212.278C176.594 211.53 172.545 221.514 169.561 243.671C165.779 231.285 155.389 209.555 143.135 213.879C131.147 218.097 131.947 229.683 138.606 253.281C132.053 243.084 118.893 227.921 110.102 233.687C101.738 239.133 104.029 248.049 113.299 264.6C107.172 261.93 100.832 261.663 95.717 266.682C84.2621 278.001 89.8031 288.732 105.627 308.646C121.504 328.561 235.467 293.324 240.848 284.354C246.283 275.331 254.754 255.15 245.43 250.131Z" fill="white"/>
<path fill-rule="evenodd" clip-rule="evenodd" d="M174.212 218.786C172.012 222.795 170.408 228.348 169.03 236.46L168.935 237.03L168.922 236.999C166.726 231.405 163.899 225.879 160.824 221.576C155.228 213.745 149.035 210.099 142.604 212.369C136.154 214.638 132.882 219.007 132.304 225.938L132.269 226.401C131.968 230.998 132.745 236.724 134.713 244.825L134.82 245.266L134.683 245.094C131.97 241.716 129.062 238.641 126.216 236.267C119.869 230.972 114.001 229.216 109.227 232.347C104.562 235.384 102.728 239.563 103.504 245.198L103.534 245.411C104.144 249.528 106.097 254.503 109.677 261.293L109.909 261.731L109.775 261.697C104.022 260.268 98.8229 261.393 94.5987 265.538C88.5452 271.519 86.7757 277.617 88.9088 284.893L89.026 285.281C90.936 291.455 95.453 298.414 104.376 309.644C112.062 319.285 139.77 317.914 177.544 308.89C208.527 301.488 239.111 290.358 242.218 285.18C245.543 279.659 248.733 272.344 250.227 266.116C252.246 257.704 251.259 251.451 246.186 248.72L245.991 248.618C241.634 246.369 237.628 246.676 233.616 249.496L233.392 249.655L233.425 249.39C234.07 244.009 234.1 239.042 233.386 234.89C232.231 228.177 229.147 223.715 223.875 222.365L223.557 222.285C214.786 220.133 208.878 224.009 203.403 235.102L203.212 235.494L203.205 235.401C202.869 230.588 202.104 226.135 200.875 222.419C198.527 215.322 194.547 211.051 188.791 210.68C182.185 210.271 177.541 212.842 174.314 218.602L174.212 218.786ZM188.59 213.877C196.542 214.389 200.467 226.257 200.197 242.791C200.167 244.577 202.637 245.063 203.284 243.398C209.26 228.024 214.469 223.231 223.078 225.467C230.377 227.336 232.264 238.302 229.577 253.537C229.301 255.105 231.23 256.073 232.317 254.911L232.669 254.542C236.922 250.146 240.454 249.296 244.68 251.546C248.072 253.371 248.836 258.214 247.119 265.367C245.708 271.249 242.647 278.268 239.48 283.527C238.451 285.241 230.648 289.04 219.137 293.229C206.918 297.675 191.666 302.223 176.803 305.774C140.536 314.438 113.362 315.782 106.876 307.647L105.803 306.29C97.6637 295.944 93.5906 289.497 91.9759 283.989C90.1855 277.883 91.6036 272.996 96.8392 267.823C101.017 263.724 106.35 263.319 112.662 266.069C114.066 266.681 115.442 265.154 114.693 263.816C105.096 246.682 104.106 239.501 110.973 235.03C117.2 230.946 128.306 240.212 137.262 254.149C138.257 255.696 140.644 254.616 140.144 252.845C133.047 227.699 133.691 218.9 143.664 215.391C148.406 213.717 153.361 216.634 158.225 223.441C162.219 229.03 165.829 236.924 168.033 244.14C168.535 245.783 170.916 245.589 171.145 243.885C174.271 220.675 178.43 213.249 188.59 213.877Z" fill="#56B7CD"/>
<path fill-rule="evenodd" clip-rule="evenodd" d="M246.336 283.927L246.442 283.607L93.1597 284.087L93.2662 284.408C85.1146 286.009 79.3072 293.804 80.6392 302.4L92.0941 376.505L247.455 376.025L258.91 301.92C260.295 293.377 254.488 285.529 246.336 283.927Z" fill="#56B7CD"/>
<path fill-rule="evenodd" clip-rule="evenodd" d="M497.385 257.232C494.988 257.232 492.59 257.392 490.246 257.659C477.512 240.041 462.914 225.092 447.57 215.588C407.611 190.922 352.734 197.97 301.533 216.976C266.315 230.004 221.721 272.075 193.111 301.866C155.815 304.696 127.152 330.109 128.856 359.207C129.229 365.56 131.041 371.54 133.971 377.039L259.123 377.893C259.336 377.573 259.549 377.199 259.762 376.879L445.385 376.238C445.598 376.505 445.811 376.772 446.025 377.092L548.799 376.932C558.336 364.279 564.037 348.102 564.037 330.43C564.037 289.96 534.201 257.232 497.385 257.232Z" fill="#1E3869"/>
<path fill-rule="evenodd" clip-rule="evenodd" d="M451.246 217.991C403.988 247.355 361.578 247.996 334.086 243.244C308.619 238.866 290.238 229.042 284.27 225.198C283.258 225.786 282.246 226.373 281.18 226.96C286.082 230.324 305.262 241.429 332.967 246.287C342.024 247.889 351.135 248.69 360.299 248.69C369.623 248.69 378.947 247.889 388.217 246.234C410.647 242.23 432.758 233.42 454.07 220.02C453.111 219.272 452.205 218.631 451.246 217.991Z" fill="white"/>
<path fill-rule="evenodd" clip-rule="evenodd" d="M446.344 268.444C453.856 257.873 463.127 251.947 473.942 250.772C478.951 250.238 483.16 250.932 485.664 251.519C484.651 250.238 483.639 248.957 482.627 247.729C480.176 247.408 477.139 247.248 473.783 247.622C465.631 248.476 453.803 252.427 443.733 266.629C443.201 267.323 443.414 268.337 444.106 268.871C444.373 269.085 444.692 269.191 445.012 269.191C445.545 269.138 446.024 268.925 446.344 268.444Z" fill="white"/>
<path fill-rule="evenodd" clip-rule="evenodd" d="M446.93 305.977C447.836 305.977 448.528 305.283 448.582 304.429C448.688 299.731 450.553 289.053 457.106 279.016C464.672 267.323 475.86 260.169 490.245 257.606C489.553 256.645 488.86 255.684 488.114 254.723C473.729 257.66 462.114 265.401 454.389 277.254C447.942 287.184 445.491 298.076 445.332 304.322C445.332 305.23 446.024 305.977 446.93 305.977Z" fill="white"/>
<path fill-rule="evenodd" clip-rule="evenodd" d="M221.188 290.227C214.422 289.96 207.922 290.601 203.127 291.615C201.528 293.217 199.93 294.819 198.385 296.42C204.299 293.164 237.971 289.106 251.877 304.963C252.196 305.337 252.622 305.497 253.102 305.497C253.475 305.497 253.848 305.39 254.168 305.123C254.807 304.536 254.913 303.521 254.327 302.881C245.323 292.576 229.713 290.548 221.188 290.227Z" fill="white"/>
<path fill-rule="evenodd" clip-rule="evenodd" d="M192.045 301.973C192.045 301.973 192.098 301.973 192.151 301.973C192.098 301.92 192.045 301.973 192.045 301.973C192.045 301.973 191.992 301.973 192.045 301.973Z" fill="white"/>
<path fill-rule="evenodd" clip-rule="evenodd" d="M248.573 313.132C229.766 298.877 206.323 298.022 196.414 298.449C195.295 299.624 194.176 300.745 193.11 301.866C198.811 301.386 226.037 300.104 246.655 315.694C246.922 315.908 247.295 316.015 247.614 316.015C248.094 316.015 248.573 315.801 248.893 315.374C249.426 314.68 249.266 313.666 248.573 313.132Z" fill="white"/>
<path fill-rule="evenodd" clip-rule="evenodd" d="M167.324 376.559C167.324 376.559 184.799 324.771 233.975 334.167C283.152 343.564 350.443 363.745 350.443 363.745V376.719L167.324 376.559Z" fill="white"/>
<path fill-rule="evenodd" clip-rule="evenodd" d="M200.041 336.299C191.682 340.208 184.517 346.233 178.464 353.791C174.573 358.65 171.373 363.849 168.816 369.049C167.919 370.871 167.167 372.564 166.552 374.088L166.291 374.744C166.211 374.952 166.136 375.149 166.066 375.334L165.86 375.901C165.839 375.96 165.822 376.009 165.81 376.046C165.459 377.084 166.229 378.159 167.322 378.16L350.441 378.321C351.324 378.321 352.041 377.604 352.041 376.719V363.745C352.041 363.037 351.577 362.414 350.901 362.211L348.774 361.579L345.901 360.734C341.893 359.561 337.361 358.254 332.397 356.847C318.215 352.825 303.415 348.803 288.735 345.049C281.357 343.163 274.182 341.389 267.265 339.748L265.323 339.289C254.048 336.636 243.642 334.384 234.275 332.594C221.53 330.159 210.126 331.582 200.041 336.299ZM233.676 335.741C243.528 337.623 254.547 340.023 266.528 342.865C273.427 344.502 280.583 346.271 287.945 348.153C301.825 351.703 315.815 355.493 329.286 359.295L331.526 359.929C336.031 361.206 340.179 362.401 343.901 363.487L348.844 364.94V375.116L169.65 374.959L169.796 374.607C170.327 373.334 170.955 371.945 171.683 370.465C174.144 365.463 177.223 360.459 180.958 355.796C186.722 348.597 193.514 342.886 201.393 339.202C210.869 334.77 221.591 333.431 233.676 335.741Z" fill="#1E3869"/>
<path fill-rule="evenodd" clip-rule="evenodd" d="M555.619 185.263C555.619 185.263 551.676 183.288 551.197 178.749C550.717 174.211 553.754 154.457 558.656 151.681C563.61 148.905 586.147 136.678 590.303 136.945C594.459 137.212 596.164 173.464 555.619 185.263Z" fill="white"/>
<path fill-rule="evenodd" clip-rule="evenodd" d="M558.016 153.869C566.434 124.345 573.307 117.725 577.303 120.608C580.926 123.224 573.573 142.017 571.442 151.787" fill="white"/>
<path fill-rule="evenodd" clip-rule="evenodd" d="M567.982 124.206L568.241 123.819C571.648 118.803 575.186 117.107 578.238 119.308C580.037 120.608 580.231 123.292 579.511 127.56L579.406 128.162C578.924 130.802 578.132 133.886 576.838 138.369L574.723 145.603C573.733 149.021 573.403 150.302 573.004 152.13C572.815 152.994 571.964 153.541 571.101 153.352C570.239 153.163 569.692 152.31 569.881 151.446L570.032 150.765C570.376 149.247 570.727 147.915 571.534 145.122L573.665 137.833C575.089 132.919 575.906 129.715 576.359 127.027L576.425 126.621C576.857 123.835 576.721 122.162 576.369 121.908C575.143 121.023 573.276 121.968 570.654 125.966L570.417 126.333C567.05 131.631 563.372 140.916 559.553 154.31C559.311 155.16 558.426 155.653 557.577 155.41C556.728 155.167 556.237 154.28 556.479 153.43L556.754 152.471C560.647 138.993 564.421 129.635 567.982 124.206Z" fill="#1E3869"/>
<path fill-rule="evenodd" clip-rule="evenodd" d="M595.151 147.463C599.36 140.576 606.34 140.949 602.717 152.642C599.147 164.067 596.537 178.91 589.877 185.637C583.217 192.364 580.819 195.354 580.819 195.354C580.819 195.354 567.5 245.166 559.934 286.597C549.012 346.5 528.34 358.033 509.053 351.145C489.766 344.311 486.196 317.189 512.516 264.6C538.836 211.958 552.742 181.312 552.742 181.312" fill="white"/>
<path fill-rule="evenodd" clip-rule="evenodd" d="M593.788 146.627C596.178 142.717 599.652 140.524 602.44 141.588C605.509 142.76 606.108 146.938 604.315 152.882L603.928 154.141C603.467 155.664 602.992 157.333 602.364 159.611L601.206 163.826C597.819 176.068 595.312 182.34 591.148 186.626L590.101 187.688C587.924 189.905 586.108 191.819 584.625 193.443L584.037 194.092C583.42 194.776 582.914 195.352 582.513 195.822L582.273 196.104L581.431 199.306L580.676 202.212C579.943 205.047 579.15 208.151 578.309 211.487C575.268 223.561 572.226 236.193 569.387 248.764L568.774 251.494C567.457 257.385 566.218 263.123 565.069 268.672L564.608 270.914C563.62 275.744 562.71 280.394 561.882 284.845L561.506 286.885C556.296 315.463 548.621 334.567 538.794 345.016C530.002 354.364 519.625 356.621 508.52 352.655C497.849 348.874 492.097 339.435 492.084 325.032C492.07 310.04 498.205 289.783 510.706 264.646L513.163 259.725C523.118 239.759 531.908 221.72 539.501 205.792L542.455 199.576C544.279 195.723 545.934 192.202 547.418 189.02L549.753 183.99L551.286 180.649C551.652 179.844 552.6 179.488 553.403 179.854C554.178 180.207 554.536 181.103 554.233 181.888L554.033 182.335L552.371 185.948L550.09 190.856C548.361 194.561 546.406 198.715 544.227 203.303L541.992 207.999C533.953 224.845 524.592 244.022 513.945 265.318C489.769 313.623 489.796 342.623 509.59 349.636C519.529 353.186 528.566 351.22 536.467 342.819C545.698 333.004 553.103 314.705 558.208 287.147L558.362 286.309C559.415 280.543 560.612 274.433 561.939 268.021C563.269 261.599 564.719 254.926 566.27 248.057C568.956 236.158 571.824 224.207 574.702 212.724L575.873 208.079C576.417 205.935 576.939 203.898 577.434 201.98L578.427 198.157L579.275 194.939C579.333 194.724 579.434 194.524 579.573 194.35L579.793 194.084L580.083 193.741C580.504 193.248 581.028 192.65 581.665 191.944L582.472 191.057C584.152 189.224 586.23 187.046 588.742 184.509L588.985 184.258C592.398 180.664 594.714 175.057 597.7 164.494L599.615 157.558C600.146 155.651 600.572 154.179 600.998 152.788L601.19 152.167C602.63 147.521 602.286 144.958 601.302 144.582C600.319 144.206 598.198 145.545 596.514 148.299C596.053 149.054 595.069 149.291 594.317 148.829C593.564 148.367 593.327 147.381 593.788 146.627Z" fill="#1E3869"/>
<path fill-rule="evenodd" clip-rule="evenodd" d="M553.221 182.22C549.385 179.604 549.865 164.548 545.549 157.981C540.221 149.812 535 141.323 544.856 142.605C553.328 143.672 555.992 151.147 557.963 153.816" fill="white"/>
<path fill-rule="evenodd" clip-rule="evenodd" d="M537.957 147.135C536.849 142.664 539.451 140.286 545.056 141.015C549.761 141.608 553.168 143.941 555.927 147.664L556.056 147.841C557.063 149.254 558.981 152.474 559.233 152.843L559.248 152.863C559.773 153.575 559.623 154.578 558.914 155.104C558.204 155.63 557.203 155.48 556.678 154.769L556.624 154.691C556.169 154.017 554.176 150.673 553.361 149.574C551.082 146.499 548.404 144.666 544.651 144.193C542.691 143.938 541.552 144.119 541.134 144.501C540.887 144.727 540.804 145.252 541.027 146.227L541.06 146.363C541.614 148.6 543.216 151.462 546.705 156.825L546.884 157.1C548.516 159.583 549.52 162.869 550.546 168.124L550.753 169.208L551.378 172.597C552.352 177.765 553.113 180.146 554.071 180.861L554.12 180.895C554.85 181.393 555.039 182.389 554.542 183.121C554.046 183.852 553.052 184.041 552.322 183.544C550.323 182.18 549.463 179.66 548.296 173.506L547.576 169.612L547.472 169.068C546.522 164.125 545.615 161.066 544.297 158.991L543.307 157.463C540.089 152.461 538.588 149.68 537.957 147.135Z" fill="#1E3869"/>
<path fill-rule="evenodd" clip-rule="evenodd" d="M590.25 159.956C590.25 159.956 597.762 141.697 600.266 133.208C603.037 123.971 593.34 122.637 588.651 135.931" fill="white"/>
<path fill-rule="evenodd" clip-rule="evenodd" d="M597.152 124.522C601.309 124.251 603.333 128.307 601.85 133.487L601.799 133.662C601.034 136.257 599.778 139.862 598.141 144.243L597.848 145.024C597.622 145.626 597.389 146.239 597.152 146.862C596.113 149.585 595.011 152.403 593.9 155.189L592.99 157.46L592.046 159.788L591.728 160.567C591.391 161.385 590.457 161.774 589.641 161.437C588.854 161.112 588.464 160.23 588.739 159.434L590.025 156.26C590.165 155.912 590.309 155.554 590.457 155.186C591.563 152.426 592.67 149.616 593.72 146.884L594.4 145.104L594.857 143.894C596.564 139.357 597.876 135.621 598.669 132.971L598.736 132.747C599.756 129.345 598.914 127.617 597.36 127.719C595.058 127.869 592.093 130.979 590.159 136.464C589.864 137.299 588.951 137.736 588.119 137.441C587.287 137.146 586.85 136.231 587.145 135.397C589.46 128.832 593.33 124.771 597.152 124.522Z" fill="#1E3869"/>
<path fill-rule="evenodd" clip-rule="evenodd" d="M581.406 155.151C581.406 155.151 596.164 121.676 589.557 118.686C583.537 115.963 578.955 128.189 571.389 151.787" fill="white"/>
<path fill-rule="evenodd" clip-rule="evenodd" d="M579.851 124.202C583.056 117.992 586.313 115.461 590.215 117.226C594.228 119.042 593.466 125.975 589.878 137.297C589.268 139.22 588.583 141.227 587.835 143.296C586.869 145.966 585.843 148.621 584.81 151.166L584.423 152.115C584.061 152.996 583.722 153.806 583.412 154.533L582.867 155.798C582.511 156.607 581.567 156.974 580.759 156.616C579.952 156.259 579.586 155.313 579.943 154.504L580.359 153.541L580.706 152.725C580.945 152.158 581.199 151.547 581.467 150.896C582.613 148.105 583.76 145.162 584.829 142.204C585.563 140.174 586.235 138.207 586.831 136.327L587.092 135.492C589.781 126.765 590.387 120.819 588.899 120.146C587.05 119.309 585.078 120.909 582.48 126.086L582.182 126.69C579.791 131.614 577.231 138.802 572.911 152.277C572.641 153.12 571.74 153.583 570.9 153.312C570.059 153.042 569.597 152.14 569.867 151.298L570.796 148.414C574.745 136.213 577.171 129.574 579.547 124.801L579.851 124.202Z" fill="#1E3869"/>
<path fill-rule="evenodd" clip-rule="evenodd" d="M340.213 179.497L342.291 217.243C342.291 217.243 338.774 237.638 367.012 233.848C395.143 230.11 391.68 213.399 391.68 213.399L382.996 166.523L340.213 179.497Z" fill="white"/>
<path fill-rule="evenodd" clip-rule="evenodd" d="M382.532 164.99L339.75 177.964C339.044 178.178 338.576 178.848 338.617 179.585L340.686 217.166L340.664 217.337C340.653 217.43 340.641 217.536 340.63 217.653C340.367 220.365 340.672 223.457 342.001 226.435C345.246 233.705 353.331 237.3 367.224 235.435C378.564 233.929 385.94 230.245 389.986 224.967C392.925 221.132 393.724 217.099 393.336 213.679L393.309 213.462C393.291 213.329 393.273 213.219 393.257 213.133L384.567 166.231C384.393 165.292 383.444 164.714 382.532 164.99ZM341.878 180.665L381.75 168.574L390.123 213.774C390.134 213.839 390.146 213.926 390.159 214.041C390.462 216.702 389.825 219.918 387.45 223.016C383.969 227.557 377.363 230.857 366.802 232.26C354.21 233.95 347.532 230.981 344.919 225.127C343.85 222.733 343.598 220.169 343.812 217.962L343.836 217.737C343.848 217.63 343.859 217.556 343.866 217.516L343.882 217.397C343.889 217.316 343.891 217.236 343.886 217.155L341.878 180.665Z" fill="#1E3869"/>
<path fill-rule="evenodd" clip-rule="evenodd" d="M393.811 118.899C393.811 118.899 415.655 110.677 416.508 133.475C417.36 156.272 393.811 150.346 393.811 150.346" fill="white"/>
<path fill-rule="evenodd" clip-rule="evenodd" d="M395.926 116.618C399.082 115.871 402.338 115.603 405.429 116.108C412.959 117.337 417.71 122.857 418.105 133.415C418.513 144.331 413.663 150.307 405.513 152.094C402.195 152.822 398.7 152.779 395.398 152.276L394.882 152.193C394.232 152.083 393.735 151.978 393.422 151.899C392.566 151.684 392.046 150.814 392.261 149.956C392.468 149.128 393.283 148.614 394.109 148.772L394.456 148.85L394.621 148.885C394.987 148.961 395.409 149.037 395.878 149.109C398.827 149.558 401.95 149.596 404.829 148.965C411.499 147.502 415.26 142.869 414.911 133.534L414.886 132.992C414.424 124.316 410.805 120.231 404.915 119.269C402.299 118.842 399.442 119.077 396.662 119.736C396.124 119.863 395.627 119.998 395.179 120.134L394.96 120.202C394.797 120.253 394.663 120.297 394.56 120.332L394.373 120.398C393.547 120.71 392.625 120.29 392.315 119.462C392.005 118.634 392.423 117.711 393.249 117.4L393.455 117.325C394.01 117.128 394.855 116.872 395.926 116.618Z" fill="#1E3869"/>
<path fill-rule="evenodd" clip-rule="evenodd" d="M352.84 190.976C329.184 190.976 310.004 171.755 310.004 148.05V110.57C310.004 95.4078 322.311 83.0747 337.442 83.0747H374.951C386.406 83.0747 395.729 92.4179 395.729 103.897V147.997C395.729 171.702 376.549 190.976 352.84 190.976Z" fill="white"/>
<path fill-rule="evenodd" clip-rule="evenodd" d="M374.95 81.4731H337.442C321.428 81.4731 308.405 94.5233 308.405 110.571V148.05C308.405 172.64 328.301 192.577 352.84 192.577L353.563 192.572C377.838 192.177 397.327 172.33 397.327 147.997V103.897C397.327 91.5335 387.288 81.4731 374.95 81.4731ZM337.442 84.6765H374.95C385.523 84.6765 394.131 93.3027 394.131 103.897V147.997C394.131 170.581 376.041 189.002 353.524 189.368L352.827 189.374C330.067 189.374 311.602 170.871 311.602 148.05V110.571C311.602 96.2925 323.194 84.6765 337.442 84.6765Z" fill="#1E3869"/>
<path fill-rule="evenodd" clip-rule="evenodd" d="M405.693 168.338C405.639 153.763 403.615 143.138 403.082 140.469C403.082 140.309 403.135 140.095 403.135 139.935C403.135 136.572 400.418 133.849 397.061 133.849V139.935L397.221 146.022C398.5 145.968 399.672 145.541 400.631 144.847C402.602 157.127 406.492 193.752 390.082 224.878C387.098 230.591 384.274 235.877 381.504 240.949C366.053 269.833 355.824 288.946 356.09 305.977C356.09 306.832 356.836 307.579 357.688 307.579C358.594 307.579 359.287 306.832 359.287 305.977C359.074 289.747 369.143 270.954 384.328 242.497C387.045 237.372 389.869 232.139 392.906 226.373C403.615 206.032 405.799 183.608 405.693 168.338Z" fill="#56B7CD"/>
<path fill-rule="evenodd" clip-rule="evenodd" d="M305.848 146.716C306.594 147.143 307.393 147.41 308.299 147.463V135.344C305.475 135.611 303.237 137.746 302.865 140.523C302.705 140.79 302.598 141.11 302.598 141.43C302.598 143.886 302.598 201.387 319.647 227.334C337.069 253.923 342.451 269.085 343.676 294.819C343.729 295.673 344.422 296.367 345.274 296.367H345.328C346.233 296.314 346.873 295.567 346.873 294.712C345.647 268.231 340.16 252.748 322.311 225.573C308.672 204.857 306.274 161.718 305.848 146.716Z" fill="#56B7CD"/>
<path fill-rule="evenodd" clip-rule="evenodd" d="M339.706 120.661C340.557 120.647 341.264 121.302 341.327 122.142L341.331 122.236L341.905 156.13L341.93 156.139C342.046 156.177 342.175 156.169 342.351 156.104L342.429 156.072C343.251 155.72 344.333 154.528 345.576 152.248C345.999 151.471 346.97 151.186 347.745 151.61C348.52 152.034 348.805 153.007 348.382 153.783C345.462 159.142 342.319 160.489 339.809 158.588C339.437 158.306 339.174 158.015 339.007 157.774C338.849 157.546 338.753 157.281 338.727 157.005L338.721 156.887L338.135 122.29C338.12 121.406 338.823 120.676 339.706 120.661Z" fill="#1E3869"/>
<path fill-rule="evenodd" clip-rule="evenodd" d="M356.546 161.178C357.438 160.594 358.64 161.03 358.951 162.052L358.988 162.184C359.027 162.332 359.07 162.527 359.112 162.763C359.441 164.64 359.262 166.716 358.191 168.705C356.406 172.018 352.549 174.177 346.337 174.791C345.458 174.877 344.676 174.234 344.589 173.354C344.503 172.473 345.145 171.689 346.023 171.603C351.255 171.086 354.148 169.466 355.378 167.183C355.682 166.62 355.873 166.036 355.974 165.454L356.008 165.228L355.96 165.254C349.012 169.004 342.071 169.254 338.632 165.398L338.517 165.266C337.944 164.593 338.024 163.582 338.696 163.008C339.368 162.434 340.376 162.515 340.949 163.188C343.422 166.093 349.967 165.493 356.546 161.178Z" fill="#1E3869"/>
<path fill-rule="evenodd" clip-rule="evenodd" d="M354.261 108.165C357.749 105.507 361.89 105.223 366.355 108.783C367.046 109.334 367.161 110.341 366.611 111.033C366.062 111.726 365.056 111.841 364.365 111.29C361.134 108.714 358.593 108.888 356.196 110.715C355.872 110.962 355.583 111.215 355.271 111.515L354.684 112.096C354.602 112.176 354.532 112.239 354.457 112.3C354.25 112.468 354.071 112.58 353.76 112.658C352.904 112.873 352.036 112.351 351.822 111.493C351.661 110.849 351.914 110.199 352.412 109.824L352.481 109.774L352.831 109.425C353.31 108.95 353.745 108.559 354.261 108.165Z" fill="#1E3869"/>
<path fill-rule="evenodd" clip-rule="evenodd" d="M365.36 136.571C366.831 136.571 368.024 134.731 368.024 132.46C368.024 130.19 366.831 128.349 365.36 128.349C363.889 128.349 362.696 130.19 362.696 132.46C362.696 134.731 363.889 136.571 365.36 136.571Z" fill="#1E3869"/>
<path fill-rule="evenodd" clip-rule="evenodd" d="M326.627 137.586C328.098 137.586 329.291 135.745 329.291 133.475C329.291 131.204 328.098 129.364 326.627 129.364C325.156 129.364 323.963 131.204 323.963 133.475C323.963 135.745 325.156 137.586 326.627 137.586Z" fill="#1E3869"/>
<path fill-rule="evenodd" clip-rule="evenodd" d="M319.197 107.66C323.187 104.471 327.562 104.32 331.404 109.266C331.947 109.964 331.822 110.97 331.125 111.514C330.428 112.057 329.424 111.932 328.882 111.234C326.288 107.895 323.927 107.976 321.19 110.164C320.82 110.46 320.486 110.762 320.116 111.125L319.488 111.753C319.403 111.836 319.333 111.901 319.259 111.962C319.041 112.144 318.871 112.256 318.543 112.338C317.687 112.552 316.819 112.031 316.605 111.172C316.444 110.529 316.697 109.879 317.195 109.503L317.256 109.459L317.667 109.046C318.192 108.52 318.656 108.092 319.197 107.66Z" fill="#1E3869"/>
<path fill-rule="evenodd" clip-rule="evenodd" d="M363.549 73.7313C353.16 73.8915 345.274 74.372 340.586 75.2796C302.438 83.9822 308.619 112.279 308.619 112.279C308.619 112.279 327.266 115.856 342.451 93.3254C342.451 93.3254 363.283 110.357 394.131 117.244C394.61 117.137 395.197 116.977 395.729 116.817V118.365C397.541 117.885 400.471 117.351 403.508 117.564C403.188 106.406 401.164 92.311 392 83.2347C385.5 76.7745 375.91 73.5711 363.549 73.7313Z" fill="#1E3869"/>
<path fill-rule="evenodd" clip-rule="evenodd" d="M341.431 71.8249C347.51 70.979 357.079 70.4231 365.324 70.475C381.791 70.6498 392.796 76.73 399.318 87.4536C401.886 91.6753 403.677 96.4802 404.883 101.871C405.773 105.85 406.251 109.496 406.699 114.649C406.775 115.531 406.124 116.307 405.245 116.384C404.366 116.461 403.59 115.809 403.514 114.928L403.428 113.969C402.435 103.213 400.73 95.9301 396.589 89.1207C390.649 79.3548 380.67 73.8415 365.297 73.6783L364.358 73.6751C356.486 73.6698 347.56 74.2061 341.871 74.9979C340.997 75.1195 340.19 74.5079 340.068 73.6317C339.947 72.7556 340.557 71.9466 341.431 71.8249Z" fill="white"/>
<path fill-rule="evenodd" clip-rule="evenodd" d="M463.659 50.5069C450.5 12.8137 413.205 -8.38207 380.332 3.15013C353.319 12.6001 337.709 41.2705 340.266 72.0764C345.221 71.2222 353 70.6883 363.549 70.5281C376.815 70.3679 387.151 73.8383 394.291 80.9391C404.414 90.9764 406.491 106.193 406.758 118.045C411.659 119.38 416.188 123.384 416.561 133.475C416.614 134.489 415.709 142.337 415.922 142.284C415.922 144.793 416.455 147.943 418.319 151.04C421.996 156.966 429.455 160.65 440.537 161.931C440.59 161.931 440.643 161.931 440.75 161.931C441.549 161.931 442.241 161.344 442.348 160.543C442.455 159.689 441.815 158.888 440.963 158.781C430.946 157.607 424.233 154.457 421.09 149.385C419.811 147.356 419.332 145.274 419.172 143.459C421.889 146.662 426.631 150.132 434.143 150.132C435.955 150.132 437.926 149.919 440.057 149.492C440.909 149.331 441.496 148.477 441.282 147.623C441.123 146.769 440.27 146.181 439.418 146.395C429.721 148.424 424.34 144.74 421.516 141.43C423.7 140.949 425.832 140.362 427.963 139.615C460.782 128.029 476.766 88.1467 463.659 50.5069Z" fill="#1E3869"/>
<path fill-rule="evenodd" clip-rule="evenodd" d="M367.652 112.333C355.999 112.333 346.553 121.798 346.553 133.475C346.553 145.152 355.999 154.617 367.652 154.617C379.304 154.617 388.75 145.152 388.75 133.475C388.75 121.798 379.304 112.333 367.652 112.333ZM367.652 115.536C377.538 115.536 385.553 123.567 385.553 133.475C385.553 143.382 377.538 151.414 367.652 151.414C357.765 151.414 349.75 143.382 349.75 133.475C349.75 123.567 357.765 115.536 367.652 115.536Z" fill="#1E3869"/>
<path fill-rule="evenodd" clip-rule="evenodd" d="M347.725 131.393C348.608 131.393 349.323 132.11 349.323 132.994C349.323 133.847 348.658 134.545 347.819 134.593L347.725 134.596H335.045C334.162 134.596 333.446 133.879 333.446 132.994C333.446 132.141 334.112 131.444 334.951 131.395L335.045 131.393H347.725Z" fill="#1E3869"/>
<path fill-rule="evenodd" clip-rule="evenodd" d="M394.943 116.384C395.711 115.949 396.686 116.22 397.121 116.99C397.539 117.732 397.303 118.665 396.599 119.122L396.516 119.173L385.487 125.419C384.719 125.855 383.744 125.583 383.309 124.813C382.891 124.071 383.127 123.138 383.831 122.681L383.914 122.63L394.943 116.384Z" fill="#1E3869"/>
<path fill-rule="evenodd" clip-rule="evenodd" d="M314.905 112.333C303.253 112.333 293.807 121.798 293.807 133.475C293.807 145.152 303.253 154.617 314.905 154.617C326.558 154.617 336.004 145.152 336.004 133.475C336.004 121.798 326.558 112.333 314.905 112.333ZM314.905 115.536C324.792 115.536 332.807 123.567 332.807 133.475C332.807 143.382 324.792 151.414 314.905 151.414C305.019 151.414 297.004 143.382 297.004 133.475C297.004 123.567 305.019 115.536 314.905 115.536Z" fill="#1E3869"/>
<path fill-rule="evenodd" clip-rule="evenodd" d="M449.008 356.537H437.926L432.492 275.759C432.119 270.099 427.217 265.508 421.57 265.508H267.115C261.467 265.508 257.152 270.099 257.578 275.759L263.598 365.187C263.971 370.846 268.873 375.437 274.521 375.437L448.955 375.224C452.152 375.224 454.709 372.608 454.709 369.458V362.357C454.762 359.154 452.205 356.537 449.008 356.537Z" fill="#56B7CD"/>
<path fill-rule="evenodd" clip-rule="evenodd" d="M355.238 318.951C353.054 316.602 350.123 315.107 347.033 314.519C347.513 313.825 347.832 312.971 347.939 312.064C348.205 309.18 346.127 306.511 343.357 306.084C343.304 306.084 343.25 306.084 343.197 306.084C342.611 303.895 341.492 300.264 340.213 298.716C339.734 298.129 338.828 297.915 338.189 298.289C337.603 298.663 337.496 299.41 337.976 299.997C338.828 301.012 339.84 304.162 340.48 306.564C339.041 307.312 338.029 308.753 337.869 310.569C337.709 312.224 338.349 313.772 339.361 314.893C338.402 315.214 337.496 315.587 336.644 316.121C331.103 319.591 330.41 326.425 335.099 331.497C339.787 336.516 348.152 337.797 353.693 334.327C359.287 330.857 359.98 323.969 355.238 318.951Z" fill="white"/>
<path fill-rule="evenodd" clip-rule="evenodd" d="M352.894 298.449C352.894 298.449 344.902 296.848 343.836 303.521C343.89 303.521 350.177 305.764 352.894 298.449Z" fill="white"/>
<path fill-rule="evenodd" clip-rule="evenodd" d="M651.946 375.438C652.829 375.438 653.545 376.155 653.545 377.039C653.545 377.892 652.879 378.589 652.04 378.638L651.946 378.641H2.426C1.54325 378.641 0.827637 377.924 0.827637 377.039C0.827637 376.186 1.49304 375.489 2.33208 375.44L2.426 375.438H651.946Z" fill="#1E3869"/>
</svg>
