<svg width="232" height="203" viewBox="0 0 232 203" fill="none" xmlns="http://www.w3.org/2000/svg">
<rect x="1.06361" y="1.06361" width="229.806" height="56.3715" rx="9.02238" fill="white" stroke="#1E3869" stroke-width="2.12723" stroke-dasharray="5.29 5.29"/>
<g clip-path="url(#clip0_1468_7855)">
<path fill-rule="evenodd" clip-rule="evenodd" d="M34.9748 19.0669C33.7756 17.8655 32.3488 16.9129 30.777 16.2642C29.2052 15.6156 27.5197 15.2838 25.8181 15.2881C18.6831 15.2881 12.8747 21.0675 12.8718 28.1715C12.8718 30.442 13.4674 32.6578 14.5993 34.6125L12.7637 41.2874L19.6262 39.4949C21.5244 40.5234 23.6511 41.0626 25.8124 41.0636H25.8181C32.9517 41.0636 38.7601 35.2842 38.763 28.1802C38.7679 26.4874 38.4356 24.8104 37.7854 23.2462C37.1352 21.6819 36.1799 20.2615 34.9748 19.0669ZM25.8181 38.8893H25.8138C23.8866 38.8895 21.9948 38.3735 20.3371 37.3953L19.9448 37.1628L15.8726 38.2263L16.9585 34.2753L16.7032 33.8706C15.6257 32.1633 15.0554 30.1876 15.0579 28.1715C15.0608 22.2673 19.8872 17.4638 25.8224 17.4638C27.236 17.4607 28.6361 17.7366 29.9417 18.2756C31.2474 18.8146 32.4327 19.606 33.429 20.604C34.4307 21.5971 35.2246 22.7781 35.7649 24.0785C36.3052 25.3789 36.5812 26.773 36.5769 28.1802C36.574 34.0844 31.7476 38.8893 25.8181 38.8893ZM31.7202 30.8682C31.3958 30.706 29.8067 29.9282 29.5096 29.8205C29.214 29.7129 28.9992 29.6598 28.7829 29.9813C28.5666 30.3027 27.9465 31.0275 27.7576 31.2428C27.5687 31.4581 27.3798 31.4839 27.0568 31.3231C26.7338 31.1624 25.6912 30.8223 24.4554 29.7258C23.4936 28.8719 22.8447 27.8185 22.6558 27.4956C22.4669 27.1727 22.6356 26.999 22.7986 26.8383C22.9442 26.6948 23.1216 26.4623 23.2831 26.2743C23.4446 26.0863 23.4979 25.9528 23.6061 25.7375C23.7142 25.5222 23.6609 25.3342 23.5787 25.1735C23.4979 25.0113 22.8505 23.4269 22.5808 22.7825C22.3198 22.1582 22.0531 22.2415 21.8541 22.2329C21.648 22.2245 21.4417 22.2206 21.2354 22.2214C21.0714 22.2255 20.91 22.2634 20.7614 22.3325C20.6128 22.4017 20.4801 22.5006 20.3717 22.6232C20.0746 22.9461 19.2397 23.724 19.2397 25.3084C19.2397 26.8928 20.3991 28.4241 20.5606 28.6394C20.7221 28.8547 22.8418 32.1053 26.0863 33.5003C26.8592 33.8318 27.462 34.0299 27.9307 34.1791C28.705 34.4245 29.4102 34.3886 29.9682 34.3068C30.5897 34.215 31.8817 33.529 32.1514 32.777C32.4211 32.0249 32.4211 31.3806 32.3403 31.2456C32.2596 31.1107 32.0418 31.0289 31.7202 30.8682Z" fill="#1E3869"/>
</g>
<path d="M50.161 28.9827C50.161 26.7079 50.5423 24.9328 51.3049 23.6573C52.0807 22.3687 53.4088 21.7244 55.2891 21.7244C57.1694 21.7244 58.4909 22.3687 59.2536 23.6573C60.0294 24.9328 60.4173 26.7079 60.4173 28.9827C60.4173 31.2838 60.0294 33.0852 59.2536 34.387C58.4909 35.6756 57.1694 36.3199 55.2891 36.3199C53.4088 36.3199 52.0807 35.6756 51.3049 34.387C50.5423 33.0852 50.161 31.2838 50.161 28.9827ZM58.2082 28.9827C58.2082 27.9176 58.1359 27.0169 57.9913 26.2806C57.8598 25.5442 57.5836 24.9459 57.1629 24.4857C56.7421 24.0124 56.1175 23.7757 55.2891 23.7757C54.4607 23.7757 53.8361 24.0124 53.4154 24.4857C52.9946 24.9459 52.7119 25.5442 52.5672 26.2806C52.4358 27.0169 52.37 27.9176 52.37 28.9827C52.37 30.0873 52.4358 31.0143 52.5672 31.7638C52.6987 32.5133 52.9749 33.1181 53.3956 33.5783C53.8296 34.0386 54.4607 34.2687 55.2891 34.2687C56.1175 34.2687 56.7421 34.0386 57.1629 33.5783C57.5968 33.1181 57.8795 32.5133 58.011 31.7638C58.1425 31.0143 58.2082 30.0873 58.2082 28.9827ZM65.2224 28.8447C63.8549 28.1609 63.1712 27.0827 63.1712 25.61C63.1712 24.8999 63.3487 24.249 63.7037 23.6573C64.0587 23.0656 64.5913 22.5988 65.3013 22.257C66.0114 21.9019 66.8792 21.7244 67.9049 21.7244C68.9173 21.7244 69.7786 21.9019 70.4887 22.257C71.2119 22.5988 71.751 23.0656 72.106 23.6573C72.461 24.249 72.6385 24.8999 72.6385 25.61C72.6385 26.3463 72.4479 26.9972 72.0665 27.5626C71.6984 28.1149 71.2053 28.5422 70.5873 28.8447C71.3368 29.1208 71.9285 29.5744 72.3624 30.2056C72.7963 30.8236 73.0133 31.5534 73.0133 32.3949C73.0133 33.2496 72.7963 34.0057 72.3624 34.6631C71.9285 35.3206 71.3236 35.8268 70.5478 36.1819C69.772 36.5369 68.891 36.7144 67.9049 36.7144C66.9187 36.7144 66.0377 36.5369 65.2619 36.1819C64.4992 35.8268 63.901 35.3206 63.467 34.6631C63.0331 34.0057 62.8162 33.2496 62.8162 32.3949C62.8162 31.5402 63.0331 30.8039 63.467 30.1859C63.901 29.5679 64.4861 29.1208 65.2224 28.8447ZM70.4887 25.8861C70.4887 25.1498 70.2585 24.5843 69.7983 24.1899C69.3381 23.7954 68.707 23.5982 67.9049 23.5982C67.1159 23.5982 66.4913 23.7954 66.0311 24.1899C65.5709 24.5843 65.3408 25.1563 65.3408 25.9058C65.3408 26.5633 65.5775 27.1024 66.0508 27.5232C66.5373 27.9308 67.1554 28.1346 67.9049 28.1346C68.6544 28.1346 69.2724 27.9242 69.7589 27.5035C70.2454 27.0827 70.4887 26.5436 70.4887 25.8861ZM67.9049 29.8308C67.037 29.8308 66.327 30.0478 65.7747 30.4817C65.2356 30.9025 64.966 31.5139 64.966 32.316C64.966 33.0655 65.229 33.677 65.755 34.1503C66.2809 34.6105 66.9976 34.8407 67.9049 34.8407C68.799 34.8407 69.5025 34.604 70.0153 34.1306C70.5413 33.6572 70.8042 33.0524 70.8042 32.316C70.8042 31.5271 70.5347 30.9156 69.9956 30.4817C69.4696 30.0478 68.7727 29.8308 67.9049 29.8308ZM75.0783 24.0321V21.9808H79.1808V36.3594H76.9126V24.0321H75.0783ZM81.9738 24.0321V21.9808H86.0764V36.3594H83.8081V24.0321H81.9738ZM102.02 25.3141C101.876 24.7093 101.613 24.2556 101.232 23.9532C100.85 23.6508 100.318 23.4995 99.6339 23.4995C98.5951 23.4995 97.8193 23.9006 97.3065 24.7027C96.7937 25.4916 96.5241 26.8065 96.4978 28.6474C96.8397 28.0689 97.3394 27.6218 97.9968 27.3062C98.6543 26.9906 99.3644 26.8328 100.127 26.8328C100.995 26.8328 101.757 27.0235 102.415 27.4048C103.086 27.773 103.605 28.3121 103.973 29.0222C104.354 29.7322 104.545 30.5803 104.545 31.5665C104.545 32.487 104.361 33.3088 103.993 34.032C103.638 34.7552 103.105 35.3272 102.395 35.7479C101.685 36.1556 100.83 36.3594 99.8311 36.3594C98.4768 36.3594 97.4117 36.0635 96.6359 35.4718C95.8733 34.867 95.3342 34.0188 95.0186 32.9275C94.7161 31.8361 94.5649 30.4751 94.5649 28.8447C94.5649 24.0321 96.2612 21.6258 99.6536 21.6258C100.969 21.6258 102.001 21.9808 102.75 22.6909C103.513 23.4009 103.96 24.2753 104.091 25.3141H102.02ZM99.6339 28.7263C98.8318 28.7263 98.1481 28.9696 97.5826 29.4561C97.0304 29.9295 96.7543 30.6198 96.7543 31.5271C96.7543 32.4344 97.0107 33.1576 97.5235 33.6967C98.0494 34.2226 98.7792 34.4856 99.7128 34.4856C100.541 34.4856 101.192 34.2292 101.665 33.7164C102.152 33.2036 102.395 32.5198 102.395 31.6651C102.395 30.771 102.159 30.061 101.685 29.535C101.225 28.9959 100.541 28.7263 99.6339 28.7263ZM116.214 23.9137H109.606V27.8388C109.882 27.4706 110.29 27.1616 110.829 26.9117C111.381 26.6619 111.966 26.537 112.584 26.537C113.689 26.537 114.583 26.7737 115.267 27.247C115.964 27.7204 116.457 28.3187 116.746 29.0419C117.049 29.7651 117.2 30.5277 117.2 31.3298C117.2 32.3029 117.009 33.1707 116.628 33.9334C116.26 34.6829 115.701 35.2746 114.951 35.7085C114.215 36.1424 113.308 36.3594 112.229 36.3594C110.796 36.3594 109.646 36.0043 108.778 35.2943C107.91 34.5842 107.391 33.6441 107.22 32.4738H109.409C109.554 33.0918 109.876 33.5849 110.375 33.9531C110.875 34.3081 111.5 34.4856 112.249 34.4856C113.183 34.4856 113.88 34.2029 114.34 33.6375C114.813 33.0721 115.05 32.3226 115.05 31.389C115.05 30.4423 114.813 29.7191 114.34 29.2194C113.867 28.7066 113.17 28.4502 112.249 28.4502C111.605 28.4502 111.059 28.6146 110.612 28.9433C110.178 29.2589 109.863 29.6928 109.665 30.245H107.535V21.9414H116.214V23.9137ZM127.272 25.3141C127.128 24.7093 126.865 24.2556 126.483 23.9532C126.102 23.6508 125.569 23.4995 124.886 23.4995C123.847 23.4995 123.071 23.9006 122.558 24.7027C122.045 25.4916 121.776 26.8065 121.75 28.6474C122.091 28.0689 122.591 27.6218 123.249 27.3062C123.906 26.9906 124.616 26.8328 125.379 26.8328C126.247 26.8328 127.009 27.0235 127.667 27.4048C128.337 27.773 128.857 28.3121 129.225 29.0222C129.606 29.7322 129.797 30.5803 129.797 31.5665C129.797 32.487 129.613 33.3088 129.245 34.032C128.889 34.7552 128.357 35.3272 127.647 35.7479C126.937 36.1556 126.082 36.3594 125.083 36.3594C123.728 36.3594 122.663 36.0635 121.888 35.4718C121.125 34.867 120.586 34.0188 120.27 32.9275C119.968 31.8361 119.817 30.4751 119.817 28.8447C119.817 24.0321 121.513 21.6258 124.905 21.6258C126.22 21.6258 127.252 21.9808 128.002 22.6909C128.765 23.4009 129.212 24.2753 129.343 25.3141H127.272ZM124.886 28.7263C124.083 28.7263 123.4 28.9696 122.834 29.4561C122.282 29.9295 122.006 30.6198 122.006 31.5271C122.006 32.4344 122.262 33.1576 122.775 33.6967C123.301 34.2226 124.031 34.4856 124.964 34.4856C125.793 34.4856 126.444 34.2292 126.917 33.7164C127.404 33.2036 127.647 32.5198 127.647 31.6651C127.647 30.771 127.41 30.061 126.937 29.535C126.477 28.9959 125.793 28.7263 124.886 28.7263ZM133.438 33.3022C134.7 32.2108 135.693 31.3167 136.416 30.6198C137.152 29.9097 137.764 29.1734 138.25 28.4107C138.737 27.6481 138.98 26.8854 138.98 26.1228C138.98 25.3338 138.789 24.7158 138.408 24.2688C138.04 23.8217 137.455 23.5982 136.653 23.5982C135.877 23.5982 135.272 23.848 134.838 24.3477C134.417 24.8342 134.194 25.4916 134.168 26.32H131.998C132.037 24.821 132.484 23.6771 133.339 22.8881C134.207 22.086 135.305 21.685 136.633 21.685C138.066 21.685 139.184 22.0794 139.986 22.8684C140.801 23.6573 141.209 24.7093 141.209 26.0242C141.209 26.9709 140.966 27.8848 140.479 28.7658C140.006 29.6336 139.434 30.416 138.763 31.1129C138.106 31.7966 137.264 32.5922 136.239 33.4994L135.351 34.2884H141.603V36.1621H132.018V34.5251L133.438 33.3022ZM149.945 33.3022C151.207 32.2108 152.2 31.3167 152.923 30.6198C153.659 29.9097 154.271 29.1734 154.757 28.4107C155.244 27.6481 155.487 26.8854 155.487 26.1228C155.487 25.3338 155.296 24.7158 154.915 24.2688C154.547 23.8217 153.962 23.5982 153.16 23.5982C152.384 23.5982 151.779 23.848 151.345 24.3477C150.924 24.8342 150.701 25.4916 150.675 26.32H148.505C148.544 24.821 148.991 23.6771 149.846 22.8881C150.714 22.086 151.812 21.685 153.14 21.685C154.573 21.685 155.691 22.0794 156.493 22.8684C157.308 23.6573 157.716 24.7093 157.716 26.0242C157.716 26.9709 157.473 27.8848 156.986 28.7658C156.513 29.6336 155.941 30.416 155.27 31.1129C154.613 31.7966 153.771 32.5922 152.746 33.4994L151.858 34.2884H158.11V36.1621H148.525V34.5251L149.945 33.3022ZM160.086 28.9827C160.086 26.7079 160.467 24.9328 161.23 23.6573C162.005 22.3687 163.334 21.7244 165.214 21.7244C167.094 21.7244 168.416 22.3687 169.178 23.6573C169.954 24.9328 170.342 26.7079 170.342 28.9827C170.342 31.2838 169.954 33.0852 169.178 34.387C168.416 35.6756 167.094 36.3199 165.214 36.3199C163.334 36.3199 162.005 35.6756 161.23 34.387C160.467 33.0852 160.086 31.2838 160.086 28.9827ZM168.133 28.9827C168.133 27.9176 168.061 27.0169 167.916 26.2806C167.784 25.5442 167.508 24.9459 167.088 24.4857C166.667 24.0124 166.042 23.7757 165.214 23.7757C164.385 23.7757 163.761 24.0124 163.34 24.4857C162.919 24.9459 162.637 25.5442 162.492 26.2806C162.36 27.0169 162.295 27.9176 162.295 28.9827C162.295 30.0873 162.36 31.0143 162.492 31.7638C162.623 32.5133 162.9 33.1181 163.32 33.5783C163.754 34.0386 164.385 34.2687 165.214 34.2687C166.042 34.2687 166.667 34.0386 167.088 33.5783C167.522 33.1181 167.804 32.5133 167.936 31.7638C168.067 31.0143 168.133 30.0873 168.133 28.9827ZM172.425 24.0321V21.9808H176.528V36.3594H174.26V24.0321H172.425Z" fill="#1E3869"/>
<rect x="1.06361" y="145.064" width="229.806" height="56.3715" rx="9.02238" fill="white" stroke="#1E3869" stroke-width="2.12723" stroke-dasharray="5.29 5.29"/>
<path d="M26.4744 185.472C32.7845 185.472 37.8999 180.357 37.8999 174.047C37.8999 167.736 32.7845 162.621 26.4744 162.621C20.1642 162.621 15.0488 167.736 15.0488 174.047C15.0488 180.357 20.1642 185.472 26.4744 185.472Z" stroke="#1E3869" stroke-width="1.82809" stroke-linecap="round" stroke-linejoin="round"/>
<path d="M15.0488 174.047H37.8999" stroke="#1E3869" stroke-width="1.82809" stroke-linecap="round" stroke-linejoin="round"/>
<path d="M26.4743 162.621C29.3321 165.75 30.9562 169.81 31.0445 174.047C30.9562 178.283 29.3321 182.343 26.4743 185.472C23.6164 182.343 21.9923 178.283 21.9041 174.047C21.9923 169.81 23.6164 165.75 26.4743 162.621V162.621Z" stroke="#1E3869" stroke-width="1.82809" stroke-linecap="round" stroke-linejoin="round"/>
<path d="M52.5746 167.465C52.2117 167.465 51.9074 167.342 51.6615 167.096C51.4157 166.851 51.2928 166.546 51.2928 166.183C51.2928 165.82 51.4157 165.516 51.6615 165.27C51.9074 165.024 52.2117 164.902 52.5746 164.902C52.9258 164.902 53.2243 165.024 53.4701 165.27C53.7159 165.516 53.8388 165.82 53.8388 166.183C53.8388 166.546 53.7159 166.851 53.4701 167.096C53.2243 167.342 52.9258 167.465 52.5746 167.465ZM53.5579 180.318C53.5579 181.266 53.3179 181.951 52.838 182.373C52.3697 182.806 51.6849 183.022 50.7836 183.022H49.7476V181.337H50.4324C50.8421 181.337 51.1289 181.255 51.2928 181.091C51.4684 180.939 51.5562 180.681 51.5562 180.318V168.747H53.5579V180.318ZM64.9479 168.747V178.422H62.9462V177.281C62.6301 177.679 62.2145 177.995 61.6995 178.229C61.1961 178.451 60.6576 178.562 60.084 178.562C59.3232 178.562 58.6384 178.404 58.0297 178.088C57.4327 177.772 56.9586 177.304 56.6074 176.684C56.2679 176.063 56.0982 175.314 56.0982 174.436V168.747H58.0823V174.137C58.0823 175.004 58.2989 175.671 58.732 176.139C59.1651 176.596 59.7563 176.824 60.5055 176.824C61.2546 176.824 61.8458 176.596 62.2789 176.139C62.7237 175.671 62.9462 175.004 62.9462 174.137V168.747H64.9479ZM79.3008 168.589C80.0617 168.589 80.7406 168.747 81.3376 169.063C81.9463 169.379 82.4204 169.847 82.7599 170.468C83.1111 171.088 83.2867 171.837 83.2867 172.715V178.422H81.3025V173.014C81.3025 172.147 81.0859 171.486 80.6528 171.03C80.2197 170.561 79.6285 170.327 78.8794 170.327C78.1302 170.327 77.5332 170.561 77.0884 171.03C76.6552 171.486 76.4387 172.147 76.4387 173.014V178.422H74.4545V173.014C74.4545 172.147 74.238 171.486 73.8048 171.03C73.3717 170.561 72.7806 170.327 72.0314 170.327C71.2822 170.327 70.6852 170.561 70.2404 171.03C69.8073 171.486 69.5907 172.147 69.5907 173.014V178.422H67.589V168.747H69.5907V169.853C69.9185 169.455 70.334 169.145 70.8374 168.923C71.3407 168.7 71.8792 168.589 72.4528 168.589C73.2254 168.589 73.916 168.753 74.5248 169.081C75.1335 169.408 75.6017 169.882 75.9295 170.503C76.2221 169.918 76.6786 169.455 77.2991 169.116C77.9195 168.764 78.5867 168.589 79.3008 168.589ZM87.8355 170.169C88.175 169.724 88.6374 169.35 89.2227 169.045C89.808 168.741 90.4693 168.589 91.2068 168.589C92.0496 168.589 92.8164 168.8 93.507 169.221C94.2094 169.631 94.7596 170.21 95.1576 170.959C95.5556 171.709 95.7546 172.569 95.7546 173.54C95.7546 174.512 95.5556 175.384 95.1576 176.157C94.7596 176.918 94.2094 177.515 93.507 177.948C92.8164 178.369 92.0496 178.58 91.2068 178.58C90.4693 178.58 89.8138 178.434 89.2402 178.141C88.6666 177.837 88.1984 177.462 87.8355 177.017V183.022H85.8338V168.747H87.8355V170.169ZM93.7177 173.54C93.7177 172.873 93.5773 172.3 93.2963 171.82C93.0271 171.328 92.6642 170.959 92.2077 170.714C91.7629 170.456 91.2829 170.327 90.7678 170.327C90.2645 170.327 89.7845 170.456 89.328 170.714C88.8832 170.971 88.5203 171.346 88.2394 171.837C87.9701 172.329 87.8355 172.908 87.8355 173.576C87.8355 174.243 87.9701 174.828 88.2394 175.332C88.5203 175.823 88.8832 176.198 89.328 176.455C89.7845 176.713 90.2645 176.842 90.7678 176.842C91.2829 176.842 91.7629 176.713 92.2077 176.455C92.6642 176.186 93.0271 175.8 93.2963 175.296C93.5773 174.793 93.7177 174.208 93.7177 173.54ZM97.0668 173.54C97.0668 172.569 97.2658 171.709 97.6638 170.959C98.0735 170.21 98.6237 169.631 99.3144 169.221C100.017 168.8 100.789 168.589 101.632 168.589C102.393 168.589 103.054 168.741 103.616 169.045C104.19 169.338 104.646 169.707 104.986 170.152V168.747H107.005V178.422H104.986V176.982C104.646 177.439 104.184 177.819 103.599 178.123C103.013 178.428 102.346 178.58 101.597 178.58C100.766 178.58 100.005 178.369 99.3144 177.948C98.6237 177.515 98.0735 176.918 97.6638 176.157C97.2658 175.384 97.0668 174.512 97.0668 173.54ZM104.986 173.576C104.986 172.908 104.845 172.329 104.564 171.837C104.295 171.346 103.938 170.971 103.493 170.714C103.049 170.456 102.569 170.327 102.054 170.327C101.539 170.327 101.059 170.456 100.614 170.714C100.169 170.959 99.806 171.328 99.5251 171.82C99.2558 172.3 99.1212 172.873 99.1212 173.54C99.1212 174.208 99.2558 174.793 99.5251 175.296C99.806 175.8 100.169 176.186 100.614 176.455C101.07 176.713 101.55 176.842 102.054 176.842C102.569 176.842 103.049 176.713 103.493 176.455C103.938 176.198 104.295 175.823 104.564 175.332C104.845 174.828 104.986 174.243 104.986 173.576ZM108.967 173.54C108.967 172.569 109.166 171.709 109.564 170.959C109.974 170.21 110.524 169.631 111.215 169.221C111.917 168.8 112.695 168.589 113.55 168.589C114.182 168.589 114.803 168.729 115.411 169.01C116.032 169.28 116.523 169.642 116.886 170.099V165.428H118.905V178.422H116.886V176.964C116.558 177.433 116.102 177.819 115.517 178.123C114.943 178.428 114.282 178.58 113.532 178.58C112.69 178.58 111.917 178.369 111.215 177.948C110.524 177.515 109.974 176.918 109.564 176.157C109.166 175.384 108.967 174.512 108.967 173.54ZM116.886 173.576C116.886 172.908 116.746 172.329 116.465 171.837C116.196 171.346 115.839 170.971 115.394 170.714C114.949 170.456 114.469 170.327 113.954 170.327C113.439 170.327 112.959 170.456 112.514 170.714C112.069 170.959 111.706 171.328 111.425 171.82C111.156 172.3 111.022 172.873 111.022 173.54C111.022 174.208 111.156 174.793 111.425 175.296C111.706 175.8 112.069 176.186 112.514 176.455C112.971 176.713 113.45 176.842 113.954 176.842C114.469 176.842 114.949 176.713 115.394 176.455C115.839 176.198 116.196 175.823 116.465 175.332C116.746 174.828 116.886 174.243 116.886 173.576ZM125.731 178.58C124.818 178.58 123.993 178.375 123.255 177.965C122.518 177.544 121.938 176.959 121.517 176.209C121.096 175.449 120.885 174.571 120.885 173.576C120.885 172.592 121.102 171.72 121.535 170.959C121.968 170.198 122.559 169.613 123.308 169.203C124.057 168.794 124.894 168.589 125.819 168.589C126.744 168.589 127.581 168.794 128.33 169.203C129.079 169.613 129.67 170.198 130.103 170.959C130.537 171.72 130.753 172.592 130.753 173.576C130.753 174.559 130.531 175.431 130.086 176.192C129.641 176.953 129.032 177.544 128.26 177.965C127.499 178.375 126.656 178.58 125.731 178.58ZM125.731 176.842C126.246 176.842 126.726 176.719 127.171 176.473C127.628 176.227 127.996 175.858 128.277 175.367C128.558 174.875 128.699 174.278 128.699 173.576C128.699 172.873 128.564 172.282 128.295 171.802C128.026 171.311 127.669 170.942 127.224 170.696C126.779 170.45 126.299 170.327 125.784 170.327C125.269 170.327 124.789 170.45 124.344 170.696C123.911 170.942 123.566 171.311 123.308 171.802C123.051 172.282 122.922 172.873 122.922 173.576C122.922 174.617 123.185 175.425 123.712 175.999C124.25 176.561 124.924 176.842 125.731 176.842ZM136.56 173.593L141.02 178.422H138.316L134.734 174.26V178.422H132.732V165.428H134.734V172.979L138.245 168.747H141.02L136.56 173.593ZM144.79 170.38V175.735C144.79 176.098 144.872 176.362 145.036 176.526C145.211 176.678 145.504 176.754 145.914 176.754H147.143V178.422H145.562C144.661 178.422 143.97 178.211 143.49 177.79C143.01 177.368 142.77 176.684 142.77 175.735V170.38H141.629V168.747H142.77V166.341H144.79V168.747H147.143V170.38H144.79ZM157.855 173.347C157.855 173.71 157.831 174.038 157.785 174.331H150.392C150.451 175.103 150.738 175.724 151.253 176.192C151.768 176.66 152.4 176.894 153.149 176.894C154.226 176.894 154.987 176.444 155.432 175.542H157.591C157.299 176.432 156.766 177.163 155.994 177.737C155.233 178.299 154.285 178.58 153.149 178.58C152.224 178.58 151.393 178.375 150.656 177.965C149.93 177.544 149.356 176.959 148.935 176.209C148.525 175.449 148.32 174.571 148.32 173.576C148.32 172.581 148.519 171.709 148.917 170.959C149.327 170.198 149.895 169.613 150.621 169.203C151.358 168.794 152.201 168.589 153.149 168.589C154.062 168.589 154.876 168.788 155.59 169.186C156.304 169.584 156.86 170.146 157.258 170.872C157.656 171.586 157.855 172.411 157.855 173.347ZM155.765 172.715C155.754 171.978 155.49 171.387 154.975 170.942C154.46 170.497 153.822 170.275 153.061 170.275C152.371 170.275 151.779 170.497 151.288 170.942C150.796 171.375 150.504 171.966 150.41 172.715H155.765ZM161.826 170.152C162.119 169.66 162.505 169.28 162.985 169.01C163.477 168.729 164.056 168.589 164.724 168.589V170.661H164.214C163.43 170.661 162.833 170.86 162.423 171.258C162.025 171.656 161.826 172.346 161.826 173.33V178.422H159.825V168.747H161.826V170.152ZM167.371 178.545C167.008 178.545 166.704 178.422 166.458 178.176C166.212 177.93 166.09 177.626 166.09 177.263C166.09 176.9 166.212 176.596 166.458 176.35C166.704 176.104 167.008 175.981 167.371 175.981C167.723 175.981 168.021 176.104 168.267 176.35C168.513 176.596 168.636 176.9 168.636 177.263C168.636 177.626 168.513 177.93 168.267 178.176C168.021 178.422 167.723 178.545 167.371 178.545ZM170.132 173.576C170.132 172.581 170.331 171.709 170.729 170.959C171.139 170.198 171.7 169.613 172.414 169.203C173.129 168.794 173.948 168.589 174.873 168.589C176.043 168.589 177.009 168.87 177.77 169.432C178.543 169.982 179.063 170.772 179.333 171.802H177.173C176.997 171.322 176.716 170.948 176.33 170.678C175.944 170.409 175.458 170.275 174.873 170.275C174.053 170.275 173.398 170.567 172.906 171.152C172.426 171.726 172.186 172.534 172.186 173.576C172.186 174.617 172.426 175.431 172.906 176.016C173.398 176.602 174.053 176.894 174.873 176.894C176.032 176.894 176.798 176.385 177.173 175.367H179.333C179.052 176.35 178.525 177.134 177.752 177.72C176.98 178.293 176.02 178.58 174.873 178.58C173.948 178.58 173.129 178.375 172.414 177.965C171.7 177.544 171.139 176.959 170.729 176.209C170.331 175.449 170.132 174.571 170.132 173.576ZM185.524 178.58C184.611 178.58 183.786 178.375 183.048 177.965C182.311 177.544 181.731 176.959 181.31 176.209C180.889 175.449 180.678 174.571 180.678 173.576C180.678 172.592 180.894 171.72 181.328 170.959C181.761 170.198 182.352 169.613 183.101 169.203C183.85 168.794 184.687 168.589 185.612 168.589C186.537 168.589 187.374 168.794 188.123 169.203C188.872 169.613 189.463 170.198 189.896 170.959C190.329 171.72 190.546 172.592 190.546 173.576C190.546 174.559 190.324 175.431 189.879 176.192C189.434 176.953 188.825 177.544 188.053 177.965C187.292 178.375 186.449 178.58 185.524 178.58ZM185.524 176.842C186.039 176.842 186.519 176.719 186.964 176.473C187.42 176.227 187.789 175.858 188.07 175.367C188.351 174.875 188.492 174.278 188.492 173.576C188.492 172.873 188.357 172.282 188.088 171.802C187.819 171.311 187.461 170.942 187.017 170.696C186.572 170.45 186.092 170.327 185.577 170.327C185.062 170.327 184.582 170.45 184.137 170.696C183.704 170.942 183.359 171.311 183.101 171.802C182.843 172.282 182.715 172.873 182.715 173.576C182.715 174.617 182.978 175.425 183.505 175.999C184.043 176.561 184.716 176.842 185.524 176.842ZM204.237 168.589C204.997 168.589 205.676 168.747 206.273 169.063C206.882 169.379 207.356 169.847 207.696 170.468C208.047 171.088 208.222 171.837 208.222 172.715V178.422H206.238V173.014C206.238 172.147 206.022 171.486 205.589 171.03C205.156 170.561 204.564 170.327 203.815 170.327C203.066 170.327 202.469 170.561 202.024 171.03C201.591 171.486 201.374 172.147 201.374 173.014V178.422H199.39V173.014C199.39 172.147 199.174 171.486 198.741 171.03C198.308 170.561 197.716 170.327 196.967 170.327C196.218 170.327 195.621 170.561 195.176 171.03C194.743 171.486 194.527 172.147 194.527 173.014V178.422H192.525V168.747H194.527V169.853C194.854 169.455 195.27 169.145 195.773 168.923C196.277 168.7 196.815 168.589 197.389 168.589C198.161 168.589 198.852 168.753 199.461 169.081C200.069 169.408 200.538 169.882 200.865 170.503C201.158 169.918 201.614 169.455 202.235 169.116C202.855 168.764 203.523 168.589 204.237 168.589Z" fill="#1E3869"/>
<rect x="1.06361" y="73.0636" width="229.806" height="56.3715" rx="9.02238" fill="white" stroke="#1E3869" stroke-width="2.12723" stroke-dasharray="5.29 5.29"/>
<path d="M31.1042 88.7546H18.7515C15.3404 88.7546 12.5752 91.5199 12.5752 94.931V107.284C12.5752 110.695 15.3404 113.46 18.7515 113.46H31.1042C34.5153 113.46 37.2805 110.695 37.2805 107.284V94.931C37.2805 91.5199 34.5153 88.7546 31.1042 88.7546Z" stroke="#1E3869" stroke-width="1.97643" stroke-linecap="round" stroke-linejoin="round"/>
<path d="M29.8687 100.33C30.0212 101.358 29.8456 102.408 29.3669 103.33C28.8882 104.253 28.1309 105.001 27.2026 105.468C26.2742 105.935 25.2222 106.098 24.1961 105.933C23.17 105.768 22.2221 105.283 21.4872 104.548C20.7524 103.813 20.2679 102.865 20.1028 101.839C19.9377 100.813 20.1003 99.7612 20.5676 98.8329C21.0348 97.9046 21.7829 97.1472 22.7054 96.6685C23.6279 96.1899 24.6778 96.0143 25.7059 96.1667C26.7545 96.3222 27.7254 96.8109 28.475 97.5605C29.2246 98.3101 29.7132 99.2809 29.8687 100.33Z" stroke="#1E3869" stroke-width="1.97643" stroke-linecap="round" stroke-linejoin="round"/>
<path d="M31.7218 94.3135H31.7343" stroke="#1E3869" stroke-width="1.97643" stroke-linecap="round" stroke-linejoin="round"/>
<path d="M62.9638 94.7357C64.5591 94.7357 65.9375 95.0296 67.099 95.6173C68.2605 96.2051 69.1422 97.0307 69.7439 98.0943C70.3596 99.1438 70.6675 100.368 70.6675 101.768C70.6675 102.887 70.4716 103.958 70.0798 104.979C69.7019 106.001 69.1492 106.834 68.4215 107.477C67.7078 108.121 66.8611 108.443 65.8816 108.443C65.1679 108.443 64.6081 108.289 64.2023 107.981C63.7965 107.659 63.5446 107.211 63.4466 106.638C63.0128 107.197 62.467 107.638 61.8093 107.96C61.1516 108.282 60.4659 108.443 59.7522 108.443C58.6746 108.443 57.828 108.121 57.2123 107.477C56.6105 106.82 56.3097 105.931 56.3097 104.811C56.3097 103.748 56.5266 102.754 56.9604 101.831C57.4082 100.907 58.0309 100.172 58.8286 99.6266C59.6262 99.0669 60.5219 98.787 61.5154 98.787C62.7329 98.787 63.5865 99.1998 64.0763 100.025L64.2653 98.9759H66.3434L65.2938 104.979C65.2518 105.273 65.2308 105.532 65.2308 105.756C65.2308 106.12 65.3008 106.393 65.4407 106.575C65.5947 106.757 65.8606 106.848 66.2384 106.848C66.7702 106.848 67.225 106.589 67.6028 106.071C67.9807 105.539 68.2605 104.888 68.4425 104.119C68.6384 103.349 68.7363 102.6 68.7363 101.873C68.7363 100.095 68.2186 98.738 67.183 97.8004C66.1474 96.8628 64.6431 96.394 62.6699 96.394C61.0186 96.394 59.5353 96.7858 58.2198 97.5695C56.9184 98.3532 55.8968 99.4307 55.1552 100.802C54.4135 102.174 54.0426 103.699 54.0426 105.378C54.0426 107.169 54.5744 108.534 55.6379 109.471C56.7015 110.409 58.2198 110.878 60.193 110.878C61.5224 110.878 62.6839 110.633 63.6775 110.143L63.9924 111.738C62.7189 112.284 61.2915 112.557 59.7102 112.557C58.1849 112.557 56.8484 112.27 55.7009 111.696C54.5534 111.123 53.6648 110.304 53.0351 109.24C52.4053 108.191 52.0905 106.966 52.0905 105.567C52.0905 103.566 52.5523 101.74 53.4759 100.088C54.4135 98.4371 55.7079 97.1357 57.3592 96.1841C59.0105 95.2185 60.8787 94.7357 62.9638 94.7357ZM60.4869 106.596C61.0746 106.596 61.6064 106.428 62.0822 106.092C62.572 105.742 62.9568 105.287 63.2367 104.727C63.5166 104.154 63.6565 103.545 63.6565 102.901C63.6565 102.229 63.4676 101.684 63.0898 101.264C62.7259 100.83 62.2081 100.613 61.5364 100.613C60.9347 100.613 60.4029 100.802 59.9411 101.18C59.4933 101.544 59.1434 102.02 58.8916 102.607C58.6537 103.195 58.5347 103.811 58.5347 104.455C58.5347 105.112 58.6956 105.637 59.0175 106.029C59.3394 106.407 59.8292 106.596 60.4869 106.596ZM74.9369 95.1975C74.5031 95.1975 74.1392 95.0506 73.8454 94.7567C73.5515 94.4628 73.4045 94.099 73.4045 93.6652C73.4045 93.2313 73.5515 92.8675 73.8454 92.5736C74.1392 92.2798 74.5031 92.1328 74.9369 92.1328C75.3567 92.1328 75.7136 92.2798 76.0074 92.5736C76.3013 92.8675 76.4482 93.2313 76.4482 93.6652C76.4482 94.099 76.3013 94.4628 76.0074 94.7567C75.7136 95.0506 75.3567 95.1975 74.9369 95.1975ZM76.1124 110.563C76.1124 111.696 75.8255 112.515 75.2517 113.019C74.692 113.537 73.8733 113.796 72.7958 113.796H71.5573V111.78H72.376C72.8658 111.78 73.2086 111.682 73.4045 111.487C73.6144 111.305 73.7194 110.997 73.7194 110.563V96.7299H76.1124V110.563ZM89.7287 96.7299V108.296H87.3357V106.931C86.9578 107.407 86.4611 107.785 85.8453 108.065C85.2436 108.331 84.5999 108.464 83.9141 108.464C83.0045 108.464 82.1859 108.275 81.4582 107.897C80.7445 107.519 80.1777 106.959 79.7579 106.218C79.3521 105.476 79.1492 104.58 79.1492 103.531V96.7299H81.5212V103.174C81.5212 104.21 81.7801 105.007 82.2978 105.567C82.8156 106.113 83.5223 106.386 84.4179 106.386C85.3135 106.386 86.0202 106.113 86.538 105.567C87.0698 105.007 87.3357 104.21 87.3357 103.174V96.7299H89.7287ZM106.887 96.5409C107.797 96.5409 108.608 96.7299 109.322 97.1077C110.05 97.4855 110.616 98.0453 111.022 98.787C111.442 99.5287 111.652 100.424 111.652 101.474V108.296H109.28V101.831C109.28 100.795 109.021 100.004 108.503 99.4587C107.986 98.8989 107.279 98.619 106.383 98.619C105.488 98.619 104.774 98.8989 104.242 99.4587C103.724 100.004 103.465 100.795 103.465 101.831V108.296H101.093V101.831C101.093 100.795 100.835 100.004 100.317 99.4587C99.799 98.8989 99.0923 98.619 98.1967 98.619C97.3011 98.619 96.5874 98.8989 96.0556 99.4587C95.5379 100.004 95.279 100.795 95.279 101.831V108.296H92.886V96.7299H95.279V98.0523C95.6708 97.5765 96.1676 97.2056 96.7693 96.9398C97.3711 96.6739 98.0148 96.5409 98.7005 96.5409C99.6241 96.5409 100.45 96.7368 101.177 97.1287C101.905 97.5205 102.465 98.0873 102.857 98.829C103.207 98.1293 103.752 97.5765 104.494 97.1707C105.236 96.7508 106.033 96.5409 106.887 96.5409ZM117.09 98.4301C117.496 97.8984 118.049 97.4505 118.748 97.0867C119.448 96.7229 120.239 96.5409 121.12 96.5409C122.128 96.5409 123.044 96.7928 123.87 97.2966C124.71 97.7864 125.367 98.4791 125.843 99.3747C126.319 100.27 126.557 101.299 126.557 102.46C126.557 103.622 126.319 104.664 125.843 105.588C125.367 106.498 124.71 107.211 123.87 107.729C123.044 108.233 122.128 108.485 121.12 108.485C120.239 108.485 119.455 108.31 118.769 107.96C118.084 107.596 117.524 107.148 117.09 106.617V113.796H114.697V96.7299H117.09V98.4301ZM124.122 102.46C124.122 101.663 123.954 100.977 123.618 100.403C123.296 99.8155 122.862 99.3747 122.317 99.0808C121.785 98.773 121.211 98.619 120.595 98.619C119.994 98.619 119.42 98.773 118.874 99.0808C118.342 99.3887 117.909 99.8365 117.573 100.424C117.251 101.012 117.09 101.705 117.09 102.502C117.09 103.3 117.251 104 117.573 104.601C117.909 105.189 118.342 105.637 118.874 105.945C119.42 106.253 119.994 106.407 120.595 106.407C121.211 106.407 121.785 106.253 122.317 105.945C122.862 105.623 123.296 105.161 123.618 104.559C123.954 103.958 124.122 103.258 124.122 102.46ZM128.126 102.46C128.126 101.299 128.364 100.27 128.839 99.3747C129.329 98.4791 129.987 97.7864 130.812 97.2966C131.652 96.7928 132.576 96.5409 133.583 96.5409C134.493 96.5409 135.284 96.7229 135.955 97.0867C136.641 97.4365 137.187 97.8774 137.593 98.4091V96.7299H140.007V108.296H137.593V106.575C137.187 107.12 136.634 107.575 135.934 107.939C135.235 108.303 134.437 108.485 133.541 108.485C132.548 108.485 131.638 108.233 130.812 107.729C129.987 107.211 129.329 106.498 128.839 105.588C128.364 104.664 128.126 103.622 128.126 102.46ZM137.593 102.502C137.593 101.705 137.425 101.012 137.089 100.424C136.767 99.8365 136.34 99.3887 135.808 99.0808C135.277 98.773 134.703 98.619 134.087 98.619C133.471 98.619 132.898 98.773 132.366 99.0808C131.834 99.3747 131.4 99.8155 131.064 100.403C130.743 100.977 130.582 101.663 130.582 102.46C130.582 103.258 130.743 103.958 131.064 104.559C131.4 105.161 131.834 105.623 132.366 105.945C132.912 106.253 133.485 106.407 134.087 106.407C134.703 106.407 135.277 106.253 135.808 105.945C136.34 105.637 136.767 105.189 137.089 104.601C137.425 104 137.593 103.3 137.593 102.502ZM142.352 102.46C142.352 101.299 142.59 100.27 143.066 99.3747C143.555 98.4791 144.213 97.7864 145.039 97.2966C145.878 96.7928 146.809 96.5409 147.831 96.5409C148.586 96.5409 149.328 96.7089 150.056 97.0447C150.797 97.3666 151.385 97.8004 151.819 98.3462V92.7626H154.233V108.296H151.819V106.554C151.427 107.113 150.881 107.575 150.182 107.939C149.496 108.303 148.705 108.485 147.81 108.485C146.802 108.485 145.878 108.233 145.039 107.729C144.213 107.211 143.555 106.498 143.066 105.588C142.59 104.664 142.352 103.622 142.352 102.46ZM151.819 102.502C151.819 101.705 151.651 101.012 151.315 100.424C150.993 99.8365 150.566 99.3887 150.035 99.0808C149.503 98.773 148.929 98.619 148.313 98.619C147.698 98.619 147.124 98.773 146.592 99.0808C146.06 99.3747 145.627 99.8155 145.291 100.403C144.969 100.977 144.808 101.663 144.808 102.46C144.808 103.258 144.969 103.958 145.291 104.559C145.627 105.161 146.06 105.623 146.592 105.945C147.138 106.253 147.712 106.407 148.313 106.407C148.929 106.407 149.503 106.253 150.035 105.945C150.566 105.637 150.993 105.189 151.315 104.601C151.651 104 151.819 103.3 151.819 102.502ZM162.393 108.485C161.301 108.485 160.315 108.24 159.433 107.75C158.551 107.246 157.859 106.547 157.355 105.651C156.851 104.741 156.599 103.692 156.599 102.502C156.599 101.327 156.858 100.284 157.376 99.3747C157.894 98.4651 158.6 97.7654 159.496 97.2756C160.392 96.7858 161.392 96.5409 162.498 96.5409C163.603 96.5409 164.604 96.7858 165.499 97.2756C166.395 97.7654 167.102 98.4651 167.62 99.3747C168.137 100.284 168.396 101.327 168.396 102.502C168.396 103.678 168.13 104.72 167.599 105.63C167.067 106.54 166.339 107.246 165.416 107.75C164.506 108.24 163.498 108.485 162.393 108.485ZM162.393 106.407C163.009 106.407 163.582 106.26 164.114 105.966C164.66 105.672 165.101 105.231 165.437 104.643C165.772 104.056 165.94 103.342 165.94 102.502C165.94 101.663 165.779 100.956 165.458 100.382C165.136 99.7945 164.709 99.3537 164.177 99.0599C163.645 98.766 163.072 98.619 162.456 98.619C161.84 98.619 161.266 98.766 160.735 99.0599C160.217 99.3537 159.804 99.7945 159.496 100.382C159.188 100.956 159.034 101.663 159.034 102.502C159.034 103.748 159.349 104.713 159.979 105.399C160.623 106.071 161.427 106.407 162.393 106.407ZM175.338 102.523L180.67 108.296H177.437L173.155 103.321V108.296H170.762V92.7626H173.155V101.789L177.353 96.7299H180.67L175.338 102.523ZM185.177 98.682V105.084C185.177 105.518 185.275 105.833 185.47 106.029C185.68 106.211 186.03 106.302 186.52 106.302H187.989V108.296H186.1C185.023 108.296 184.197 108.044 183.623 107.54C183.049 107.036 182.763 106.218 182.763 105.084V98.682H181.398V96.7299H182.763V93.8541H185.177V96.7299H187.989V98.682H185.177ZM200.795 102.229C200.795 102.663 200.767 103.055 200.711 103.405H191.874C191.944 104.329 192.287 105.07 192.903 105.63C193.518 106.19 194.274 106.47 195.17 106.47C196.457 106.47 197.367 105.931 197.899 104.853H200.481C200.131 105.917 199.494 106.792 198.57 107.477C197.661 108.149 196.527 108.485 195.17 108.485C194.064 108.485 193.071 108.24 192.189 107.75C191.321 107.246 190.636 106.547 190.132 105.651C189.642 104.741 189.397 103.692 189.397 102.502C189.397 101.313 189.635 100.27 190.111 99.3747C190.601 98.4651 191.279 97.7654 192.147 97.2756C193.029 96.7858 194.036 96.5409 195.17 96.5409C196.261 96.5409 197.234 96.7788 198.088 97.2546C198.941 97.7304 199.606 98.4021 200.082 99.2698C200.557 100.123 200.795 101.11 200.795 102.229ZM198.297 101.474C198.283 100.592 197.969 99.8855 197.353 99.3537C196.737 98.822 195.974 98.5561 195.065 98.5561C194.239 98.5561 193.532 98.822 192.945 99.3537C192.357 99.8715 192.007 100.578 191.895 101.474H198.297ZM205.543 98.4091C205.893 97.8214 206.355 97.3666 206.929 97.0447C207.516 96.7089 208.209 96.5409 209.007 96.5409V99.0179H208.398C207.46 99.0179 206.747 99.2558 206.257 99.7316C205.781 100.207 205.543 101.033 205.543 102.209V108.296H203.15V96.7299H205.543V98.4091Z" fill="#1E3869"/>
<defs>
<clipPath id="clip0_1468_7855">
<rect width="25.9994" height="25.9994" fill="white" transform="translate(12.7637 15.2881)"/>
</clipPath>
</defs>
</svg>
