<svg width="157" height="216" viewBox="0 0 157 216" fill="none" xmlns="http://www.w3.org/2000/svg">
<g clip-path="url(#clip0_1911_11052)">
<path d="M88.0269 42.195C88.0269 42.195 89.675 36.9021 90.2463 35.6747C91.0781 33.8857 96.1892 17.4666 84.6995 16.5915C84.6995 16.5915 82.0839 16.1939 82.0839 15.3988C82.0839 14.6037 84.0649 5.06206 75.7447 4.82369C67.4245 4.58531 70.0393 8.79936 65.6811 8.2426C61.3229 7.68584 56.0737 2.22136 51.6555 4.82369C45.1544 8.65584 39.9282 21.0447 40.5027 24.3441C41.6584 30.9839 46.5032 39.4912 50.942 38.9353L54.6664 46.2507H87.7104L88.0269 42.195Z" fill="#24215D"/>
<path d="M76.2379 214.715H60.9891V259.77H76.2379V214.715Z" fill="#B6C4E4"/>
<path d="M39.5319 242.49L39.1357 371.541C39.1357 371.541 41.1167 375.835 47.931 375.835C54.7453 375.835 62.6693 372.734 62.6693 372.734L66.711 215.058C66.711 215.058 68.3747 225.633 69.0882 229.211C69.8017 232.789 92.5429 376.312 92.5429 376.312C92.5429 376.312 99.5561 380.248 105.499 378.101C111.442 375.954 113.343 372.377 113.343 372.377L98.2491 229.371L97.774 172.359L40.9581 174.504L39.5319 242.49Z" fill="#131B4D"/>
<path d="M50.4792 35.1846C50.4792 35.1846 47.1731 62.3289 61.9657 65.6348L61.327 75.4948C61.327 75.4948 63.5899 81.5267 67.9407 81.2364C72.2915 80.9461 76.468 73.7544 76.9316 71.8985V60.7073C79.3812 58.2921 81.2467 55.3457 82.3847 52.0944C82.3847 52.0944 89.3174 53.3704 90.1295 46.6134C90.5503 43.1079 89.8426 40.7217 87.7876 40.0808C87.2341 39.9287 86.6516 39.9165 86.0922 40.0453C85.5328 40.1741 85.0139 40.4399 84.5819 40.819C83.6475 41.5163 82.8949 42.4297 82.388 43.4816C82.388 43.4816 81.1994 37.594 82.1274 34.0563C83.0554 30.5186 83.3374 26.99 77.7709 27.6861C77.7709 27.6861 77.8876 27.4774 77.7709 26.434C77.6542 25.3906 77.4125 23.8441 76.1072 23.9884C74.8018 24.1328 74.4722 31.5331 69.5707 31.2147C64.6692 30.8964 64.2623 25.4723 59.4767 25.9358C54.691 26.3994 50.54 33.5325 50.4849 35.0997L50.4792 35.1846Z" fill="#E9AD96"/>
<path d="M61.4602 73.0922C61.4602 73.0922 64.3125 80.3086 67.6407 79.7733C70.969 79.2379 76.2576 71.4837 76.2576 71.4837L77.0303 70.5294C77.0303 70.5294 79.4675 71.9011 79.5267 73.0344C79.5859 74.1677 76.436 177.694 75.9609 182.943C75.9609 182.943 68.2745 190.298 54.8037 183.3C54.8037 183.3 55.1605 124.381 55.4769 107.205C55.7934 90.03 61.4602 73.0922 61.4602 73.0922Z" fill="#5C92E2"/>
<path d="M76.9333 68.3848C76.9333 68.3848 80.8558 71.2774 81.5693 72.3505C81.5693 72.3505 95.7133 75.5905 106.014 82.1107L120.555 255.253C120.555 255.253 105.222 266.106 77.4092 260.381C77.4092 260.381 72.2586 191.681 71.6241 176.732C70.9895 161.784 74.3185 96.0256 75.7447 86.6036C76.6166 80.5713 77.0141 74.4796 76.9333 68.3848Z" fill="#F5F7FD"/>
<path d="M61.6797 70.0847L61.3632 75.809C61.3632 75.809 54.8268 149.541 57.0461 188.183C59.2655 226.824 57.4423 262.289 57.4423 262.289C57.4423 262.289 42.4657 265.311 30.1046 261.335L34.379 192.158C34.379 192.158 22.3344 157.013 22.3344 149.698C22.3344 142.383 27.5647 90.698 30.1005 86.9615C32.6363 83.225 52.8425 74.2394 56.1699 72.8875C58.0874 72.1228 59.9316 71.1847 61.6797 70.0847Z" fill="#F5F7FD"/>
<path d="M138.293 183.679L92.0472 158.992L74.1392 192.77L120.385 217.457L138.293 183.679Z" fill="#2F4B51"/>
<path d="M143.052 183.165L95.8382 157.961L77.2325 193.055L74.7024 191.705L74.1344 192.769L76.7138 194.146L76.7146 194.145L123.882 219.324L143.052 183.165Z" fill="#15272A"/>
<path d="M95.2777 159.018L94.6528 158.684L76.6078 192.721L77.2326 193.054L95.2777 159.018Z" fill="#E1E3DE"/>
<path d="M94.3427 159.252L93.7179 158.918L75.9759 192.383L76.6007 192.717L94.3427 159.252Z" fill="#C6C7C3"/>
<path d="M102.964 196.391C102.121 197.833 101.198 199.227 100.201 200.566C99.409 201.504 99.6901 202.875 98.9766 204.725C98.2631 206.576 96.7367 208.402 97.4206 208.908C98.1045 209.415 100.082 208.657 100.082 208.657C100.082 208.657 100.32 211.986 100.884 212.314C101.397 212.499 101.949 212.55 102.488 212.463C102.697 212.493 102.905 213.357 103.855 213.417C104.805 213.478 105.638 213.268 106.055 213.536C106.472 213.804 106.352 214.55 107.362 214.461C108.004 214.339 108.639 214.179 109.264 213.984C109.739 213.954 109.412 214.341 110.482 214.341C111.552 214.341 114.107 210.167 114.107 210.167L115.266 202.146C115.266 202.146 108.817 202.267 102.964 196.391Z" fill="#E9AD96"/>
<path d="M101.656 85.1725L106.013 82.1107C106.013 82.1107 115.205 87.8358 117.503 96.7415C119.8 105.647 122.337 153.991 122.099 156.854C121.862 159.717 117.979 202.733 117.345 203.369C116.711 204.005 103.875 207.032 100.785 197.485C100.785 197.485 105.618 164.487 105.46 160.194C105.303 155.901 101.022 104.136 100.547 102.467C100.073 100.797 97.2981 87.6791 101.656 85.1725Z" fill="#F5F7FD"/>
<path d="M84.4184 45.5469C84.3435 45.547 84.2695 45.531 84.2014 45.4999C84.0739 45.4423 83.9745 45.3362 83.9249 45.2051C83.8752 45.074 83.8795 44.9284 83.9367 44.8005C84.4097 43.737 85.2478 42.8796 86.2983 42.3845C86.6366 42.272 86.995 42.2333 87.3494 42.2712C87.7038 42.309 88.0461 42.4225 88.3532 42.6039C88.4159 42.6363 88.4715 42.6809 88.5167 42.7351C88.5619 42.7893 88.5959 42.852 88.6166 42.9196C88.6374 42.9872 88.6444 43.0582 88.6374 43.1286C88.6303 43.199 88.6093 43.2672 88.5756 43.3293C88.5419 43.3914 88.4962 43.4461 88.4411 43.4902C88.386 43.5343 88.3227 43.5669 88.2549 43.586C88.187 43.6052 88.1161 43.6106 88.0462 43.6019C87.9762 43.5931 87.9088 43.5705 87.8477 43.5352C87.6683 43.4248 87.4672 43.3545 87.2583 43.3292C87.0493 43.3039 86.8374 43.324 86.6369 43.3883C85.5839 43.7422 84.9042 45.2211 84.8984 45.236C84.8563 45.3283 84.7887 45.4067 84.7036 45.4618C84.6186 45.5168 84.5196 45.5464 84.4184 45.5469Z" fill="#E47770"/>
<path d="M66.9502 36.6282C66.783 36.6286 66.62 36.5759 66.4844 36.4776C66.3489 36.3793 66.2479 36.2404 66.1959 36.081C66.1439 35.9215 66.1435 35.7496 66.1949 35.59C66.2462 35.4303 66.3466 35.291 66.4817 35.1921C67.8062 34.2485 69.379 33.7182 71.0026 33.6678C72.3683 33.6814 73.6944 34.1299 74.7895 34.9488C74.9476 35.0857 75.0454 35.2796 75.0617 35.4885C75.0781 35.6974 75.0116 35.9042 74.8768 36.0642C74.742 36.2242 74.5497 36.3243 74.3417 36.3427C74.1338 36.3612 73.9269 36.2966 73.7662 36.1629C72.9429 35.5824 71.9636 35.266 70.9574 35.2556C69.6851 35.3162 68.4562 35.739 67.4147 36.4747C67.2799 36.5739 67.1173 36.6276 66.9502 36.6282Z" fill="#181441"/>
<path d="M59.4997 36.6281C59.3325 36.6284 59.1696 36.5752 59.0345 36.4763C57.9952 35.7361 56.765 35.3128 55.4917 35.2572C54.4839 35.2668 53.5027 35.5832 52.678 36.1645C52.5167 36.2961 52.3102 36.3587 52.1033 36.339C51.8963 36.3192 51.7054 36.2186 51.5717 36.0589C51.4379 35.8991 51.3721 35.6931 51.3884 35.4851C51.4047 35.2771 51.5018 35.0839 51.6588 34.9471C52.7543 34.1285 54.0806 33.68 55.4465 33.6661C57.0698 33.7185 58.642 34.2486 59.9674 35.1904C60.102 35.2896 60.2019 35.4289 60.2529 35.5884C60.3039 35.7479 60.3034 35.9195 60.2515 36.0787C60.1995 36.2379 60.0988 36.3766 59.9636 36.475C59.8285 36.5733 59.6658 36.6263 59.4989 36.6264L59.4997 36.6281Z" fill="#181441"/>
<path d="M71.2485 44.7394C72.1786 44.7394 72.9327 43.6537 72.9327 42.3144C72.9327 40.9751 72.1786 39.8894 71.2485 39.8894C70.3183 39.8894 69.5642 40.9751 69.5642 42.3144C69.5642 43.6537 70.3183 44.7394 71.2485 44.7394Z" fill="#181441"/>
<path d="M55.9939 44.7394C56.9241 44.7394 57.6782 43.6537 57.6782 42.3144C57.6782 40.9751 56.9241 39.8894 55.9939 39.8894C55.0638 39.8894 54.3097 40.9751 54.3097 42.3144C54.3097 43.6537 55.0638 44.7394 55.9939 44.7394Z" fill="#181441"/>
<path d="M63.326 55.4136C63.2438 55.4136 63.1616 55.4136 63.0794 55.407C61.7824 55.349 60.5354 54.8878 59.5112 54.0873C59.4091 53.9939 59.3475 53.8641 59.3396 53.7257C59.3317 53.5873 59.3781 53.4513 59.4689 53.3468C59.5597 53.2423 59.6877 53.1776 59.8254 53.1666C59.9631 53.1557 60.0997 53.1992 60.2058 53.288C61.054 53.9303 62.0755 54.3011 63.137 54.352C64.5744 54.2812 65.9574 53.7783 67.1064 52.9086C67.2182 52.8297 67.356 52.7974 67.4911 52.8184C67.6261 52.8393 67.7478 52.9119 67.8306 53.021C67.9135 53.13 67.951 53.267 67.9353 53.4032C67.9197 53.5395 67.8521 53.6643 67.7467 53.7516C66.4611 54.717 64.9273 55.2936 63.326 55.4136Z" fill="#E47770"/>
<path d="M64.0174 57.4747H63.9952L63.0836 57.4351C62.9436 57.4289 62.8118 57.3672 62.717 57.2637C62.6222 57.1601 62.5723 57.023 62.5781 56.8825C62.5795 56.8124 62.595 56.7434 62.6238 56.6795C62.6526 56.6157 62.6939 56.5583 62.7454 56.511C62.7969 56.4636 62.8574 56.4273 62.9233 56.4041C62.9892 56.3809 63.0591 56.3713 63.1288 56.376L64.0404 56.4156C64.1774 56.4232 64.3061 56.4838 64.3993 56.5848C64.4925 56.6858 64.5429 56.8192 64.5399 56.9568C64.5369 57.0944 64.4808 57.2254 64.3833 57.3222C64.2857 57.419 64.1545 57.474 64.0174 57.4755V57.4747Z" fill="#E08985"/>
<path d="M64.6593 66.2526C64.1448 66.2526 63.8151 66.2238 63.7699 66.2188C63.6302 66.2057 63.5014 66.1374 63.4118 66.029C63.3222 65.9205 63.2793 65.7808 63.2923 65.6406C63.3054 65.5004 63.3735 65.3711 63.4815 65.2812C63.5896 65.1914 63.7288 65.1483 63.8686 65.1614C63.9088 65.1614 67.6818 65.4913 70.3368 63.6767C70.4527 63.6019 70.5932 63.5755 70.7282 63.6031C70.8633 63.6307 70.9822 63.7101 71.0597 63.8245C71.1372 63.9389 71.1672 64.0791 71.1431 64.2152C71.1191 64.3514 71.043 64.4728 70.9311 64.5535C69.0454 65.7099 66.8688 66.2996 64.6593 66.2526Z" fill="#E47770"/>
<path d="M76.8133 44.1365C76.6798 44.1351 76.5518 44.0832 76.4549 43.991C76.3581 43.8989 76.2995 43.7733 76.2911 43.6396C76.2827 43.506 76.325 43.374 76.4095 43.2703C76.494 43.1667 76.6145 43.0989 76.7467 43.0807L82.2738 42.3647C82.3433 42.3543 82.4142 42.3579 82.4823 42.3752C82.5504 42.3926 82.6144 42.4234 82.6704 42.4658C82.7265 42.5083 82.7736 42.5616 82.809 42.6225C82.8443 42.6835 82.8672 42.7509 82.8763 42.8208C82.8853 42.8907 82.8804 42.9617 82.8618 43.0297C82.8432 43.0977 82.8113 43.1613 82.7679 43.2168C82.7245 43.2722 82.6705 43.3184 82.6091 43.3527C82.5477 43.387 82.4801 43.4087 82.4103 43.4164L76.8832 44.1324C76.86 44.1349 76.8367 44.1363 76.8133 44.1365Z" fill="#0A1136"/>
<path d="M72.2932 52.4623C74.1286 52.4623 75.6165 50.9692 75.6165 49.1275C75.6165 47.2858 74.1286 45.7927 72.2932 45.7927C70.4577 45.7927 68.9698 47.2858 68.9698 49.1275C68.9698 50.9692 70.4577 52.4623 72.2932 52.4623Z" fill="#ED9C86"/>
<path d="M55.0881 52.0153C56.9235 52.0153 58.4114 50.5222 58.4114 48.6805C58.4114 46.8387 56.9235 45.3457 55.0881 45.3457C53.2527 45.3457 51.7648 46.8387 51.7648 48.6805C51.7648 50.5222 53.2527 52.0153 55.0881 52.0153Z" fill="#ED9C86"/>
<path d="M70.6837 49.9507C69.4405 49.9303 68.2309 49.5418 67.2071 48.834C66.1832 48.1261 65.3906 47.1304 64.9288 45.9719C64.4671 44.8135 64.3568 43.544 64.6117 42.3228C64.8667 41.1016 65.4756 39.9833 66.3619 39.1083C67.2483 38.2333 68.3725 37.6406 69.5934 37.4046C70.8144 37.1687 72.0776 37.3 73.2244 37.7822C74.3712 38.2644 75.3504 39.0758 76.0391 40.1146C76.7278 41.1534 77.0952 42.3733 77.0952 43.6209C77.0793 45.3128 76.3954 46.9293 75.1935 48.1159C73.9916 49.3025 72.3697 49.9623 70.6837 49.9507ZM70.6837 38.3511C69.6494 38.3714 68.6441 38.6977 67.794 39.2891C66.9438 39.8805 66.2866 40.7106 65.9048 41.6754C65.523 42.6401 65.4335 43.6965 65.6477 44.7121C65.8619 45.7276 66.3702 46.6571 67.1088 47.3839C67.8474 48.1107 68.7834 48.6025 69.7994 48.7975C70.8155 48.9926 71.8663 48.8822 72.8201 48.4803C73.7738 48.0784 74.5881 47.4029 75.1608 46.5384C75.7334 45.6739 76.0389 44.659 76.0389 43.6209C76.0224 42.2107 75.4495 40.8645 74.4457 39.8773C73.4419 38.8902 72.0891 38.3425 70.6837 38.3544V38.3511Z" fill="#0A1136"/>
<path d="M54.687 49.0599C53.3804 49.0749 52.1045 48.6619 51.053 47.8835C50.0015 47.1051 49.2317 46.0038 48.8604 44.7466C48.4891 43.4895 48.5365 42.1451 48.9954 40.9175C49.4544 39.6898 50.2999 38.6459 51.4036 37.944C52.5073 37.2421 53.809 36.9206 55.1113 37.0283C56.4136 37.1359 57.6453 37.6669 58.6197 38.5405C59.5941 39.4142 60.2579 40.5829 60.5105 41.8693C60.763 43.1558 60.5905 44.4898 60.0192 45.6691C59.9891 45.7317 59.9471 45.7878 59.8954 45.8342C59.8437 45.8805 59.7835 45.9162 59.7181 45.9392C59.5859 45.9856 59.4409 45.9774 59.3148 45.9165C59.1886 45.8556 59.0918 45.7469 59.0456 45.6143C58.9993 45.4818 59.0074 45.3362 59.0682 45.2096C59.5969 44.1138 59.7051 42.8611 59.3722 41.6903C59.0393 40.5196 58.2885 39.5128 57.2632 38.862C56.2378 38.2112 55.0095 37.9619 53.8127 38.1617C52.6159 38.3615 51.5342 38.9965 50.7741 39.9454C50.014 40.8943 49.6285 42.0908 49.6914 43.3067C49.7542 44.5225 50.2608 45.6726 51.1147 46.5376C51.9685 47.4025 53.1098 47.9218 54.3208 47.9963C55.5318 48.0709 56.7278 47.6955 57.6806 46.9418C57.9067 46.7595 58.404 46.7372 58.4204 47.0309C58.4336 47.2387 58.561 47.5942 58.3308 47.7732C57.2961 48.6032 56.0116 49.0568 54.687 49.0599Z" fill="#0A1136"/>
<path d="M60.4516 49.6431C60.4118 49.6432 60.3721 49.6387 60.3332 49.6299C60.2716 49.6151 60.1869 49.6019 60.0866 49.5854C59.3296 49.4625 57.5582 49.173 57.4661 47.5126C57.3922 46.1714 58.3999 45.533 59.1356 45.0703C59.3862 44.9256 59.6217 44.7559 59.8384 44.5638C60.1672 44.2339 60.353 42.3582 60.3184 40.8158C60.3151 40.6753 60.3676 40.5392 60.4642 40.4374C60.5608 40.3356 60.6938 40.2765 60.8338 40.2731H60.8462C60.9842 40.2732 61.1166 40.3275 61.2154 40.4242C61.3141 40.521 61.3713 40.6526 61.3747 40.7911C61.3944 41.6464 61.3961 44.5028 60.5856 45.3136C60.3144 45.5629 60.017 45.7819 59.6987 45.9669C58.9441 46.4436 58.4838 46.7711 58.5207 47.4515C58.5577 48.132 59.2416 48.3721 60.256 48.5378C60.3834 48.5585 60.4902 48.5766 60.5691 48.5948C60.6952 48.6244 60.8061 48.6996 60.8806 48.8058C60.9552 48.9121 60.9882 49.0422 60.9735 49.1713C60.9588 49.3004 60.8974 49.4197 60.8009 49.5063C60.7044 49.593 60.5795 49.6411 60.45 49.6415L60.4516 49.6431Z" fill="#E47770"/>
<path d="M59.5835 44.7427C59.4191 44.7427 59.6107 44.7188 59.5063 44.5777C59.4346 44.4474 59.4135 44.2951 59.4471 44.1501C59.4806 44.0052 59.5664 43.8778 59.6879 43.7925C60.4583 43.2572 61.3618 42.9474 62.2975 42.8979C63.2333 42.8484 64.1643 43.061 64.9865 43.512C65.108 43.5798 65.198 43.6928 65.237 43.8267C65.2761 43.9605 65.261 44.1045 65.1951 44.2273C65.1291 44.35 65.0176 44.4418 64.8847 44.4827C64.7518 44.5236 64.6082 44.5103 64.485 44.4457C64.3913 44.3954 61.913 43.0666 59.9715 44.5109C59.8761 44.5818 59.6928 44.7427 59.5835 44.7427Z" fill="#0A1136"/>
<path d="M78.8354 27.1476C78.7476 27.1472 78.6619 27.1212 78.5888 27.0726C78.4904 27.007 78.422 26.905 78.3984 26.7889C78.3748 26.6728 78.3981 26.5521 78.463 26.4531C78.4959 26.402 81.7173 21.4629 81.7173 16.6509C81.7173 16.5321 81.7643 16.4182 81.848 16.3342C81.9317 16.2502 82.0452 16.203 82.1636 16.203C82.282 16.203 82.3955 16.2502 82.4792 16.3342C82.5629 16.4182 82.6099 16.5321 82.6099 16.6509C82.6099 21.7376 79.3466 26.7369 79.2077 26.9464C79.1672 27.0083 79.1119 27.0591 79.0469 27.0943C78.9819 27.1294 78.9092 27.1477 78.8354 27.1476Z" fill="#141139"/>
<path d="M49.1986 37.5535C49.1143 37.5532 49.0318 37.529 48.9606 37.4838C48.8893 37.4385 48.8323 37.3741 48.7958 37.2978L48.7046 37.151C46.3076 33.398 45.3747 30.0996 46.0043 27.6152C46.1996 26.8637 46.5522 26.1626 47.0387 25.5586C47.5251 24.9546 48.1342 24.4615 48.8254 24.1121C54.858 20.7798 58.5931 24.094 58.7501 24.2375C58.8286 24.3195 58.873 24.4285 58.8744 24.5422C58.8758 24.6559 58.8341 24.7659 58.7576 24.8498C58.6812 24.9338 58.5758 24.9854 58.4628 24.9942C58.3498 25.0031 58.2377 24.9684 58.1492 24.8974C58.012 24.7737 54.7043 21.8884 49.2561 24.8924C48.6735 25.1848 48.1596 25.5983 47.7485 26.1055C47.3375 26.6126 47.0388 27.2018 46.8724 27.8338C46.3126 30.0385 47.2307 33.1762 49.4583 36.6652C49.6038 36.892 49.6334 36.9399 49.6458 37.0553C49.6523 37.114 49.6472 37.1733 49.6307 37.2299C49.6143 37.2866 49.5869 37.3394 49.5501 37.3854C49.5133 37.4314 49.4678 37.4696 49.4162 37.4979C49.3646 37.5262 49.308 37.544 49.2495 37.5502C49.2306 37.5535 49.2142 37.5535 49.1986 37.5535Z" fill="#141139"/>
<path d="M56.3712 150.764C56.2578 150.765 56.1475 150.728 56.0564 150.66C55.9654 150.593 55.8985 150.497 55.8657 150.388C54.7576 146.738 48.545 107.708 48.2812 106.049C48.2684 105.969 48.2742 105.886 48.2981 105.809C48.3221 105.731 48.3635 105.66 48.4192 105.601L52.253 101.527L49.1475 90.7459C49.1115 90.6215 49.1226 90.4881 49.1788 90.3714L57.4989 72.8389C57.5287 72.7761 57.5706 72.7198 57.622 72.6732C57.6735 72.6265 57.7337 72.5906 57.799 72.5673C57.8643 72.544 57.9336 72.5339 58.0029 72.5374C58.0721 72.541 58.14 72.5583 58.2026 72.5881C58.2652 72.618 58.3213 72.66 58.3677 72.7117C58.4142 72.7633 58.45 72.8237 58.4732 72.8892C58.4964 72.9548 58.5065 73.0243 58.503 73.0938C58.4994 73.1633 58.4822 73.2314 58.4524 73.2942L50.2186 90.6486L53.352 101.527C53.3775 101.616 53.3795 101.71 53.3577 101.799C53.336 101.889 53.2912 101.972 53.2279 102.039L49.3645 106.143C49.9186 109.613 55.8344 146.653 56.8759 150.083C56.8999 150.162 56.9051 150.246 56.891 150.328C56.8769 150.409 56.844 150.487 56.7948 150.553C56.7457 150.62 56.6817 150.674 56.608 150.711C56.5343 150.748 56.4529 150.768 56.3704 150.768L56.3712 150.764Z" fill="#DADAF7"/>
<path d="M53.0035 102.043C52.9021 102.042 52.8029 102.013 52.7177 101.958C52.6325 101.903 52.5649 101.824 52.5229 101.732C52.4809 101.639 52.4663 101.536 52.4808 101.435C52.4953 101.335 52.5384 101.24 52.6048 101.163L58.8848 93.9478C58.977 93.8419 59.1075 93.777 59.2473 93.7675C59.3872 93.7579 59.5252 93.8046 59.6308 93.8971C59.7364 93.9897 59.8011 94.1205 59.8106 94.2609C59.82 94.4013 59.7736 94.5397 59.6813 94.6456L53.4013 101.861C53.3517 101.918 53.2905 101.964 53.2219 101.995C53.1533 102.026 53.0788 102.043 53.0035 102.043Z" fill="#DADAF7"/>
<path d="M72.9516 150.884C72.8698 150.884 72.7891 150.865 72.7159 150.828C72.6426 150.792 72.5789 150.738 72.5297 150.673C72.4806 150.607 72.4472 150.531 72.4324 150.45C72.4176 150.37 72.4217 150.287 72.4444 150.208L85.0809 106.178L80.2813 100.734C80.2023 100.644 80.1561 100.529 80.1499 100.41C80.1438 100.29 80.1782 100.171 80.2476 100.074L85.2748 92.9992L80.1062 72.8405C80.0866 72.7723 80.0809 72.7009 80.0893 72.6305C80.0977 72.56 80.1202 72.492 80.1552 72.4304C80.1903 72.3689 80.2374 72.315 80.2936 72.272C80.3498 72.2289 80.414 72.1977 80.4825 72.18C80.551 72.1624 80.6223 72.1587 80.6922 72.1692C80.7621 72.1796 80.8292 72.2041 80.8895 72.2411C80.9499 72.278 81.0022 72.3268 81.0434 72.3844C81.0846 72.442 81.1139 72.5073 81.1295 72.5765L86.3599 92.972C86.3786 93.0469 86.381 93.125 86.3668 93.2009C86.3526 93.2768 86.3222 93.3487 86.2777 93.4117L81.3507 100.34L86.0648 105.69C86.1231 105.757 86.1639 105.837 86.1835 105.923C86.203 106.01 86.2006 106.1 86.1766 106.185L73.4587 150.495C73.4281 150.606 73.3619 150.705 73.2704 150.775C73.1788 150.845 73.0668 150.883 72.9516 150.884Z" fill="#DADAF7"/>
<path d="M80.6775 100.91C80.6018 100.909 80.527 100.893 80.4581 100.862C80.3892 100.83 80.3278 100.784 80.278 100.727L75.1669 94.8231C75.075 94.7168 75.029 94.5782 75.0389 94.4378C75.0489 94.2975 75.114 94.1668 75.2199 94.0746C75.3259 93.9824 75.464 93.9362 75.6039 93.9462C75.7438 93.9561 75.874 94.0215 75.9659 94.1278L81.077 100.031C81.1433 100.108 81.1861 100.202 81.2005 100.303C81.2148 100.404 81.2001 100.506 81.158 100.599C81.116 100.691 81.0483 100.77 80.9632 100.825C80.878 100.88 80.7789 100.909 80.6775 100.91Z" fill="#DADAF7"/>
<path d="M35.3324 190.144H35.3053C35.2359 190.141 35.168 190.124 35.1053 190.094C35.0426 190.064 34.9864 190.022 34.9398 189.97C34.8933 189.918 34.8575 189.858 34.8343 189.792C34.8111 189.727 34.801 189.657 34.8047 189.587C34.8441 188.807 38.7642 111.453 38.608 105.184C38.4551 99.0701 31.9672 90.4713 31.9014 90.3847C31.8228 90.2725 31.7906 90.1341 31.8115 89.9986C31.8324 89.8631 31.9048 89.741 32.0134 89.6579C32.1221 89.5748 32.2586 89.5371 32.3944 89.5528C32.5301 89.5685 32.6545 89.6364 32.7415 89.7421C33.0169 90.1042 39.5023 98.6989 39.6643 105.157C39.8213 111.466 36.0212 186.453 35.8593 189.642C35.8523 189.777 35.7938 189.905 35.6958 189.999C35.5977 190.092 35.4676 190.144 35.3324 190.144Z" fill="#DADAF7"/>
<path d="M105.342 162.512H105.306C105.166 162.503 105.036 162.438 104.943 162.333C104.851 162.227 104.804 162.089 104.813 161.948L105.407 153.003C105.243 151.428 101.368 112.3 101.723 105.421C102.085 98.3788 109.869 90.6098 110.2 90.2815C110.3 90.183 110.435 90.1284 110.575 90.1297C110.715 90.1309 110.848 90.1879 110.946 90.2881C111.045 90.3883 111.099 90.5235 111.098 90.6639C111.097 90.8044 111.04 90.9386 110.94 91.037C110.863 91.1145 103.118 98.8465 102.777 105.476C102.426 112.275 106.419 152.58 106.459 152.987L105.867 162.019C105.857 162.153 105.798 162.278 105.701 162.369C105.604 162.461 105.475 162.512 105.342 162.512Z" fill="#DADAF7"/>
<path d="M66.499 83.0882C63.336 83.0882 61.5169 79.0465 61.438 78.8667C61.3864 78.7391 61.3864 78.5964 61.4378 78.4687C61.4893 78.3411 61.5882 78.2385 61.7136 78.1827C61.839 78.1269 61.9812 78.1222 62.11 78.1696C62.2388 78.2171 62.3442 78.313 62.4038 78.437C62.4219 78.4757 64.1012 82.246 66.7127 82.0192C69.0044 81.8386 73.3815 77.3251 74.8734 75.6012C74.9659 75.4972 75.0955 75.4339 75.2341 75.425C75.3728 75.4162 75.5094 75.4624 75.6143 75.5538C75.7192 75.6452 75.784 75.7744 75.7947 75.9134C75.8054 76.0524 75.7612 76.19 75.6716 76.2965C75.0962 76.9646 69.9316 82.8283 66.7941 83.0766C66.6921 83.084 66.5927 83.0882 66.499 83.0882Z" fill="#3474CA"/>
<path d="M37.3914 149.194C37.2631 149.194 37.1393 149.147 37.043 149.061C36.9468 148.976 36.8848 148.859 36.8686 148.731C36.4938 145.798 32.411 140.127 32.3699 140.07C32.2875 139.957 32.2534 139.815 32.2752 139.676C32.2971 139.537 32.3729 139.413 32.4862 139.33C32.5994 139.247 32.7408 139.213 32.8791 139.235C33.0175 139.257 33.1415 139.333 33.2239 139.447C33.3998 139.689 37.5081 145.397 37.9167 148.597C37.9255 148.666 37.9207 148.736 37.9026 148.803C37.8844 148.87 37.8532 148.933 37.8107 148.988C37.7683 149.043 37.7154 149.09 37.6552 149.124C37.5949 149.159 37.5285 149.181 37.4596 149.19C37.437 149.192 37.4142 149.194 37.3914 149.194Z" fill="#DADAF7"/>
<path d="M99.0694 123.332H99.0373C96.6108 123.222 84.4495 122.649 83.3077 122.216C83.1981 122.18 83.1032 122.11 83.0374 122.015C82.9716 121.92 82.9386 121.806 82.9436 121.691L83.2182 118.451C83.2263 118.375 83.251 118.302 83.2907 118.237C83.3303 118.172 83.3839 118.116 83.4475 118.074C83.5867 117.981 83.7553 117.942 83.9209 117.966C88.9977 118.651 94.1156 118.982 99.2379 118.956C99.3201 118.949 99.4028 118.959 99.4811 118.986C99.5593 119.012 99.6315 119.054 99.6933 119.108C99.751 119.156 99.7972 119.217 99.8284 119.285C99.8596 119.354 99.8749 119.428 99.8733 119.504C99.8355 120.427 99.7401 122.605 99.6653 122.914C99.6258 123.04 99.546 123.149 99.4382 123.225C99.3304 123.301 99.2008 123.338 99.0694 123.332ZM84.1963 121.321C86.1099 121.599 93.5111 122.013 98.5146 122.245C98.5491 121.74 98.5968 120.892 98.6313 120.031C93.8677 120.022 89.1096 119.71 84.3854 119.097L84.1963 121.321Z" fill="#DADAF7"/>
<path d="M48.3198 130.1C52.1168 130.1 55.1949 127.011 55.1949 123.201C55.1949 119.391 52.1168 116.302 48.3198 116.302C44.5228 116.302 41.4447 119.391 41.4447 123.201C41.4447 127.011 44.5228 130.1 48.3198 130.1Z" fill="#ACB0CA"/>
<path d="M80.3083 120.238C79.0852 137.699 79.6507 139.023 79.8645 139.508C80.6182 141.24 82.6296 142.183 85.5362 142.183H85.7154C85.9906 142.174 86.2514 142.057 86.4422 141.858C86.633 141.659 86.7389 141.393 86.7371 141.116C86.7354 140.84 86.6263 140.575 86.433 140.378C86.2397 140.181 85.9775 140.068 85.7022 140.062H85.6874C84.9254 140.062 82.3822 140.001 81.8027 138.674C81.5125 137.833 81.5717 132.555 82.3921 120.72C81.6637 120.79 80.9323 120.621 80.3083 120.238Z" fill="#ACB0CA"/>
<path d="M97.5702 120.138C96.9653 120.573 96.2283 120.784 95.4856 120.733C96.0396 131.023 96.2953 137.377 96.181 138.32C96.0232 139.626 93.378 139.929 92.8495 139.977C92.5751 140.008 92.3238 140.145 92.1493 140.36C91.9748 140.575 91.8909 140.85 91.9156 141.125C91.9403 141.401 92.0716 141.657 92.2815 141.837C92.4913 142.017 92.7631 142.107 93.0386 142.089C96.1325 141.811 98.0428 140.53 98.2787 138.575C98.4366 137.291 98.0699 129.293 97.5702 120.138Z" fill="#ACB0CA"/>
<path d="M92.8544 140.018C91.9201 139.67 90.9575 139.404 89.9775 139.223C89.1456 139.163 88.6121 143.347 90.3144 143.297C91.3788 143.173 92.3874 142.753 93.2268 142.085L92.8544 140.018Z" fill="#0A1136"/>
<path d="M84.8294 140.077C85.75 139.673 86.7244 139.405 87.7219 139.282C88.7716 139.365 89.2015 143.076 87.5041 143.258C86.9696 143.289 86.4345 143.208 85.9331 143.019C85.4316 142.831 84.9748 142.54 84.5918 142.165L84.8294 140.077Z" fill="#0A1136"/>
<path d="M47.2644 119.904C47.2727 120.18 47.3876 120.441 47.5846 120.632C47.7817 120.824 48.0454 120.931 48.3198 120.931H48.3527C48.6329 120.923 48.8982 120.803 49.0904 120.598C49.2826 120.393 49.3859 120.12 49.3777 119.839C49.3637 119.39 48.2327 76.7007 61.6114 71.1133L61.7602 68.8129C46.0429 73.6167 47.2052 117.967 47.2644 119.904Z" fill="#0A1136"/>
<path d="M96.8484 107.403C96.7416 105.618 96.0272 103.924 94.8246 102.604C93.6221 101.284 92.0044 100.419 90.2421 100.152C89.2483 79.3871 84.757 72.155 81.1345 69.7639C79.9077 68.9066 78.4215 68.5052 76.9316 68.6289V70.7619C78.0406 70.6106 79.1641 70.9073 80.0552 71.5867C82.656 73.3626 87.1194 79.4399 88.1263 100.116C86.3479 100.324 84.6966 101.145 83.454 102.439C82.2115 103.732 81.4547 105.418 81.3128 107.209C80.8838 112.341 80.555 116.631 80.3084 120.237C80.9337 120.621 81.6666 120.79 82.3962 120.719C82.656 116.96 82.993 112.544 83.4204 107.392C83.5326 105.973 84.1732 104.648 85.2146 103.682C86.256 102.715 87.6219 102.178 89.0404 102.176H89.0765C90.523 102.175 91.9153 102.729 92.9685 103.724C94.0218 104.719 94.6564 106.08 94.7425 107.529C95.0327 112.446 95.2826 116.86 95.4913 120.733C96.234 120.784 96.971 120.573 97.5759 120.138C97.3458 115.957 97.0918 111.537 96.8484 107.403Z" fill="#0A1136"/>
<path d="M48.3198 127.502C50.6868 127.502 52.6056 125.576 52.6056 123.201C52.6056 120.826 50.6868 118.901 48.3198 118.901C45.9528 118.901 44.0339 120.826 44.0339 123.201C44.0339 125.576 45.9528 127.502 48.3198 127.502Z" fill="#0A1136"/>
<path d="M48.3198 126.531C50.1525 126.531 51.6382 125.04 51.6382 123.201C51.6382 121.362 50.1525 119.871 48.3198 119.871C46.4872 119.871 45.0015 121.362 45.0015 123.201C45.0015 125.04 46.4872 126.531 48.3198 126.531Z" fill="#ACB0CA"/>
<path d="M100.404 208.164C100.394 208.165 100.384 208.165 100.374 208.164C100.328 208.16 100.283 208.147 100.243 208.126C100.202 208.105 100.165 208.076 100.136 208.041C100.106 208.005 100.084 207.964 100.07 207.92C100.056 207.876 100.051 207.83 100.055 207.784C100.137 206.877 100.261 205.392 100.265 205.277C100.265 205.195 100.265 205.083 100.784 204.184C100.831 204.104 100.908 204.045 100.998 204.021C101.087 203.997 101.183 204.01 101.263 204.057C101.344 204.104 101.402 204.181 101.426 204.272C101.45 204.362 101.437 204.458 101.39 204.538C101.204 204.86 100.986 205.265 100.955 205.356C100.965 205.394 100.816 207.111 100.753 207.844C100.745 207.932 100.705 208.013 100.641 208.072C100.576 208.131 100.492 208.164 100.404 208.164Z" fill="#E47770"/>
</g>
<defs>
<clipPath id="clip0_1911_11052">
<rect width="157" height="216" fill="white"/>
</clipPath>
</defs>
</svg>
