<svg width="487" height="655" viewBox="0 0 487 655" fill="none" xmlns="http://www.w3.org/2000/svg">
<path d="M104.28 277.15C102.44 271.49 104.72 260.53 105.73 254.68C107.39 245.01 117.91 200.51 120.81 187.99C123.25 177.47 124.81 170.53 132.19 169.34C142.03 167.73 163.24 172.94 176.77 176.52C183.29 178.25 197.58 180.52 199.38 187.36C201.38 194.87 195.27 222.61 192.48 232.86C188.48 247.4 185.54 261.67 181.59 276.18C179.59 283.59 178.88 290.77 170.12 291.78L104.28 277.15Z" fill="#F15D4A" stroke="#F15D4A" stroke-width="4" stroke-linecap="round" stroke-linejoin="round"/>
<path d="M257.81 114.65L258.19 117.77C250.67 115.91 240.96 116.97 242.06 126.94C242.99 135.4 252.23 135.23 258.9 133.15C259.15 141.82 259.17 150.49 259.11 159.15" stroke="#1E3869" stroke-width="4" stroke-linecap="round" stroke-linejoin="round"/>
<path d="M308.3 102.57C307.87 90.11 307.38 76.94 305.02 65.22" stroke="#1E3869" stroke-width="4" stroke-linecap="round" stroke-linejoin="round"/>
<path d="M309.62 161.65C309.62 161.65 309.53 154.37 309.39 145.33" stroke="#1E3869" stroke-width="4" stroke-linecap="round" stroke-linejoin="round"/>
<path d="M277.06 94.43V90.71" stroke="#1E3869" stroke-width="4" stroke-linecap="round" stroke-linejoin="round"/>
<path d="M252.1 110.94C250.65 107.8 249.5 97.74 248.82 92.58C247.97 86.26 248.14 79.49 247.82 73.15C247.5 66.81 245.73 50.57 255.82 55.15C255.99 44.97 279.28 46.64 285.27 46.24C290.92 45.86 297.58 44.82 303.21 45.86C306.48 46.46 313.41 49.86 307.5 53C311.29 54.68 311.5 59.17 309.39 62.21C305.44 68.03 295.12 65.31 290.78 62.66C294.52 69.01 288.4 73.92 282.23 73.66C277.13 73.45 272.86 70.53 268.74 67.98C268.74 70.55 268.74 73.25 267.36 75.53C266.26 77.3 264.09 78.07 263.44 79.73C261.58 84.55 263.02 93.29 262.5 98.57C262.07 102.93 262.21 105.51 259.66 109.18C258 111.47 253.56 114.09 252.1 110.94Z" stroke="#1E3869" stroke-width="4" stroke-linecap="round" stroke-linejoin="round"/>
<path d="M311.07 161.51C307.7 161.77 287.69 171.42 287.69 171.42C287.69 171.42 260.28 163.53 258.17 159.14C259.03 164.87 264.55 172.42 267.63 177.5C270.383 182.301 273.495 186.888 276.94 191.22C278.36 186.98 282 182.36 284.22 178.52C285.89 175.62 287.71 171.7 287.71 171.7C287.71 171.7 300.65 185.41 302.92 186.96C305.289 181.894 307.398 176.711 309.24 171.43C310.393 168.247 311.011 164.895 311.07 161.51V161.51Z" stroke="#1E3869" stroke-width="4" stroke-linecap="round" stroke-linejoin="round"/>
<path d="M260.06 193.65C265.9 203.19 283.15 204.02 292.41 203.06C301.9 202.06 307.33 197.19 313.41 190.82" stroke="#1E3869" stroke-width="4" stroke-linecap="round" stroke-linejoin="round"/>
<path d="M288.87 178.98C289.77 186.41 289.96 203.09 289.96 203.09" stroke="#1E3869" stroke-width="4" stroke-linecap="round" stroke-linejoin="round"/>
<path d="M296.43 194.1C296.4 193.59 296.253 193.094 296 192.65" stroke="#1E3869" stroke-width="4" stroke-linecap="round" stroke-linejoin="round"/>
<path d="M364.44 217.24C366.36 221.76 366.85 226.63 367.96 231.32C370.5 241.95 370.77 253.32 372.39 264.09C380.16 315.65 383 367.84 387.79 419.7C388.37 425.97 389.35 442.17 389.79 449.04C389.85 449.988 389.614 450.932 389.114 451.74C388.614 452.548 387.875 453.181 387 453.55C384.526 454.595 381.975 455.448 379.37 456.1C372.182 457.821 364.869 458.971 357.5 459.54C348.13 460.45 339.08 461.32 328.5 461.54C325.7 412.67 323.97 363.89 320.5 315.02C316.86 264.07 313.5 213.02 313.5 161.96C322.24 161.96 325.31 163.71 329.69 174.55C332.92 182.55 335.08 192.39 339.41 199.61C337.96 202.08 326.26 207.53 324.87 209.08C335.01 207.88 339.27 211.59 338.97 218.35C338.58 227.35 336.68 238 335.78 246.93C334.56 258.93 332.66 271.74 330.67 283.66C327.88 300.41 321.91 336.8 321.91 336.8" stroke="#1E3869" stroke-width="4" stroke-linecap="round" stroke-linejoin="round"/>
<path d="M325.24 166.26C332.225 166.649 339.13 167.946 345.78 170.12C352.05 172.04 356.86 175.73 359.85 183.22C369.54 207.43 379.99 221.04 385.12 247C385.53 249.1 389.04 255.2 384.22 262.49C381.38 266.77 379.95 260.71 379.88 258.32C379.76 254.18 381.35 249.19 385.34 247.15C390.34 244.6 393.51 254.61 395.23 258.33C392.91 254.11 388.37 247.66 388.14 242.69C387.64 231.69 392 222.15 394.19 211.69C397.63 195.24 401.52 181.25 405.11 164.89C405.11 164.89 426.02 173.44 429.62 175.26C435.88 178.41 457.62 189.79 459.62 191.26C446.78 230.15 434.56 268.16 416.31 304.92C412.83 311.92 401.14 323.85 392.77 326.45C390.153 327.092 387.465 327.401 384.77 327.37C382.98 327.28 379.77 326.76 380.98 325.91" stroke="#1E3869" stroke-width="4" stroke-linecap="round" stroke-linejoin="round"/>
<path d="M338.71 232.1C342.1 231.82 358.25 232.75 358.25 232.75C358.25 232.75 360.83 251.32 361.13 256.23C361.42 260.86 362.64 265.72 362.48 270.29C353.12 269.59 343.01 269.8 333.81 269.82" stroke="#1E3869" stroke-width="4" stroke-linecap="round" stroke-linejoin="round"/>
<path d="M339.41 220.77C344.23 220.4 349.11 221.27 354.05 221.24" stroke="#1E3869" stroke-width="4" stroke-linecap="round" stroke-linejoin="round"/>
<path d="M345.44 231.16C345.44 228.56 344.91 220.46 344.44 219.16" stroke="#1E3869" stroke-width="4" stroke-linecap="round" stroke-linejoin="round"/>
<path d="M339.05 268.7C340.05 264.46 342.05 259.19 346.24 259.18C352 259.18 356.02 268.56 356.1 269.33" stroke="#1E3869" stroke-width="4" stroke-linecap="round" stroke-linejoin="round"/>
<path d="M344.71 257.96C339.05 255.85 338.01 248.47 344.48 246.37C351.33 244.14 353.48 256.99 346.13 257.37" stroke="#1E3869" stroke-width="4" stroke-linecap="round" stroke-linejoin="round"/>
<path d="M346 340.04C357.41 342.45 369 349.04 378.59 355.63" stroke="#1E3869" stroke-width="4" stroke-linecap="round" stroke-linejoin="round"/>
<path d="M350.74 350.02C357.414 353.039 363.885 356.49 370.11 360.35" stroke="#1E3869" stroke-width="4" stroke-linecap="round" stroke-linejoin="round"/>
<path d="M249.71 339.65C249.71 339.65 236.71 347.27 230.95 350.95C226.95 353.53 222.23 355.95 218.67 359.16" stroke="#1E3869" stroke-width="4" stroke-linecap="round" stroke-linejoin="round"/>
<path d="M248.25 351.85C248.25 351.85 236.11 357.66 231.25 361.3" stroke="#1E3869" stroke-width="4" stroke-linecap="round" stroke-linejoin="round"/>
<path d="M224.59 219.09C224.34 224.54 223.49 230.19 222.76 235.62C219.1 263.09 215.76 290.12 213.23 317.75C211.11 340.75 210.64 364.01 208.97 387.13C207.89 401.95 206.76 416.83 207.52 431.68C207.94 439.68 206.95 448.95 208.57 456.68C213.66 460.68 222.38 462.68 228.95 463.32C243.18 464.792 257.497 465.237 271.79 464.65C271.36 458.49 272.27 450.77 272.79 444.46C273.95 430.61 273.7 416.82 274.27 402.85C274.75 390.85 272.56 379.25 272.35 367.27C272.11 353.65 271.18 339.65 270 325.94C268.64 310.63 267.46 295.31 267.22 279.94C267.07 270.53 264.57 237.61 263.87 230.32C262.64 217.6 257.57 171.32 256.26 161.47C256.26 161.47 252.92 161.58 249.77 161.73C248.532 161.793 247.34 162.216 246.338 162.945C245.337 163.675 244.569 164.681 244.13 165.84C241.21 173.51 236.89 180.09 236.13 188.47C235.53 194.87 244.35 201.24 248.34 206.23C244.34 202.96 237.34 198.57 236.05 206.95C234.76 215.33 242.49 236.15 245.63 245.74C252.32 266.19 268.77 325.74 270.04 331.12" stroke="#1E3869" stroke-width="4" stroke-linecap="round" stroke-linejoin="round"/>
<path d="M243.85 165.87C229.85 168.77 217.46 177.34 211.27 185.76" stroke="#1E3869" stroke-width="4" stroke-linecap="round" stroke-linejoin="round"/>
<path d="M212.66 324.46C210.51 328.55 202.01 331.35 197.72 331.09C192.49 330.77 185.04 327.09 182.67 320.59" stroke="#1E3869" stroke-width="4" stroke-linecap="round" stroke-linejoin="round"/>
<path d="M408.79 164.76C408.79 164.76 411.31 152.51 413.42 146.93C421.55 147.39 433.71 152.11 440.97 155.6C446.78 158.39 454.97 162.97 460.56 165.87C458.95 170.73 453.78 187.93 453.78 187.93" stroke="#1E3869" stroke-width="4" stroke-linecap="round" stroke-linejoin="round"/>
<path d="M417.41 146.86C419.415 135.835 420.664 124.685 421.15 113.49C421.52 99.97 418.94 86.09 418.23 72.57C417.96 67.45 416.99 61.1 421.9 58.47C426.81 55.84 431.05 57.93 433.53 62.47C435.9 66.79 443.23 86.73 443.23 86.73" stroke="#1E3869" stroke-width="4" stroke-linecap="round" stroke-linejoin="round"/>
<path d="M446.51 124C442.68 124 435.41 117.48 442.12 112.17C434 110.85 434.67 99.53 441.12 99.49C438.72 97.93 438.63 92.65 441.12 89.4C446.24 82.72 471.4 76.83 476.77 84.62C477.83 86.29 479.2 89.91 478.42 92.03C484.04 94.25 484.04 98.85 481.68 102.82C488.01 106.25 484.15 114.93 479.11 116.82C481.68 119.17 478.54 125.82 473.46 128.22C464.13 132.65 447.66 133.31 446.51 124Z" stroke="#1E3869" stroke-width="4" stroke-linecap="round" stroke-linejoin="round"/>
<path d="M465.71 130.65C465.71 130.65 460.35 153.85 456.98 162.82" stroke="#1E3869" stroke-width="4" stroke-linecap="round" stroke-linejoin="round"/>
<path d="M441.11 99.49C445.11 99.81 458.03 98.18 461.95 97.28C466.49 96.28 474.95 94.78 478.41 92.03" stroke="#1E3869" stroke-width="4" stroke-linecap="round" stroke-linejoin="round"/>
<path d="M442.12 112.17C450.36 112.79 459.85 110.66 467.78 108.61C472.602 107.178 477.258 105.237 481.67 102.82" stroke="#1E3869" stroke-width="4" stroke-linecap="round" stroke-linejoin="round"/>
<path d="M437.18 139.31C437.94 139.8 438.78 140.31 439.54 140.72" stroke="#1E3869" stroke-width="4" stroke-linecap="round" stroke-linejoin="round"/>
<path d="M448.46 206.85L450.82 207.32" stroke="#1E3869" stroke-width="4" stroke-linecap="round" stroke-linejoin="round"/>
<path d="M446.17 217L448.02 217.37" stroke="#1E3869" stroke-width="4" stroke-linecap="round" stroke-linejoin="round"/>
<path d="M442.79 226.69L444.68 227.16" stroke="#1E3869" stroke-width="4" stroke-linecap="round" stroke-linejoin="round"/>
<path d="M270 305.54C274.54 307.39 276 306.54 281.36 306.63C286.86 306.74 292.97 305.13 298.31 305.58C301.7 305.87 304.75 307.34 308.47 307.47C312.73 307.62 315.31 305.27 319.09 304.58" stroke="#1E3869" stroke-width="4" stroke-linecap="round" stroke-linejoin="round"/>
<path d="M299.26 349.02C299.8 357.8 299.88 368.09 300.26 376.83C300.86 389.02 300.63 401.41 300.11 413.62C299.03 439.24 300.11 465.36 300.11 491.11C300.11 509.25 299.32 527.39 298.97 545.53C298.65 562.9 292.97 625.22 292.97 625.22C286.71 625.99 261.32 626.77 254.36 626.77C246.01 626.77 231.7 625.77 224.36 625.77C224.36 625.77 225.96 589.94 225.94 578.14C225.94 554.96 227.85 539.43 227.85 516.28V477.36C227.85 473.03 228.32 464.84 228.32 464.84" stroke="#1E3869" stroke-width="4" stroke-linecap="round" stroke-linejoin="round"/>
<path d="M374.36 457.65C376.56 464.54 375.89 474.55 374.82 481.65C373.37 491.35 365.82 496.47 358.82 502.95C343.867 516.691 327.906 529.293 311.07 540.65C308.83 542.19 298.93 549.52 298.93 549.52" stroke="#1E3869" stroke-width="4" stroke-linecap="round" stroke-linejoin="round"/>
<path d="M363.19 482.58C361.08 485.31 360.1 488.58 358.47 491.58" stroke="#1E3869" stroke-width="4" stroke-linecap="round" stroke-linejoin="round"/>
<path d="M227 523.31L202.1 543.85C202.1 543.85 207.1 560.01 208.45 565.73C211.69 578.87 217.3 588.34 220.34 601.55L225.46 598.82" stroke="#1E3869" stroke-width="4" stroke-linecap="round" stroke-linejoin="round"/>
<path d="M203.38 548.34C196.8 554.11 187.38 558.75 180.02 563.89C177.62 565.56 170.79 570.48 170.79 570.48" stroke="#1E3869" stroke-width="4" stroke-linecap="round" stroke-linejoin="round"/>
<path d="M217.51 597.88C214.11 599.88 182.72 619.08 182.72 619.08" stroke="#1E3869" stroke-width="4" stroke-linecap="round" stroke-linejoin="round"/>
<path d="M167.48 568.65L156.73 572.85C156.73 572.85 167.6 624.85 169.48 631.32C171.43 638.05 172.13 649.46 179.48 651.62C181.38 652.18 200.89 651.57 200.93 650.29C201.07 646.71 202.93 642.74 199.35 640.9C196.05 639.2 190.44 640.9 186.89 640.32C186.89 640.32 181.57 615.75 177.89 604.52C174.21 593.29 172.6 581.02 168.89 569.68C169.4 569.37 169.82 569.32 167.48 568.65Z" fill="#1E3869" stroke="#1E3869" stroke-width="4" stroke-linecap="round" stroke-linejoin="round"/>
<path d="M184.48 622.08C189.24 620.66 197.33 616.28 201.98 618.22C205.93 619.87 202.65 623.35 199.72 625.22C195.86 627.75 190.3 628.22 185.83 628.22C189.95 627.68 200.18 626.44 201.54 632.43C203.54 641.27 188.13 630.23 185.83 628.22" stroke="#1E3869" stroke-width="4" stroke-linecap="round" stroke-linejoin="round"/>
<path d="M307.4 652.59C307.48 650.671 307.41 648.748 307.19 646.84C304.39 642.06 296.91 644.69 292.53 644.97C280.353 645.66 268.147 645.66 255.97 644.97C245.97 644.49 236.69 643.18 226.59 643.83C226.09 654.46 229.37 652.6 237.27 652.59H307.4Z" fill="#1E3869" stroke="#1E3869" stroke-width="4" stroke-linecap="round" stroke-linejoin="round"/>
<path d="M228.41 641.28C227.92 639.93 228.76 628.48 228.94 627.03" stroke="#1E3869" stroke-width="4" stroke-linecap="round" stroke-linejoin="round"/>
<path d="M284.15 643.17C284.15 641.28 285.15 629.39 285.15 627.5" stroke="#1E3869" stroke-width="4" stroke-linecap="round" stroke-linejoin="round"/>
<path d="M287 643.88C290.92 637.37 294.19 623.26 303.15 622.52C306.15 628.05 301.08 635.37 295.96 637.7C298.54 633.96 306.68 630.25 310.96 631.23C313.12 639.83 293.44 644.75 287 643.88Z" stroke="#1E3869" stroke-width="4" stroke-linecap="round" stroke-linejoin="round"/>
<path d="M113.35 173.49C108.95 174.91 100.58 179.3 95.72 184.56C88.81 192.02 84.51 201.38 81.33 210.88C75.38 228.63 75.53 244.45 81.61 262.17C82.61 265.1 86.54 274.96 90.61 272.78" stroke="#1E3869" stroke-width="4" stroke-linecap="round" stroke-linejoin="round"/>
<path d="M84.13 236.73C84.64 242.06 87.13 259.33 91.77 261.35" stroke="#1E3869" stroke-width="4" stroke-linecap="round" stroke-linejoin="round"/>
<path d="M89.17 218.44C89.52 224.28 89.8 244.17 95.17 246.95" stroke="#1E3869" stroke-width="4" stroke-linecap="round" stroke-linejoin="round"/>
<path d="M106.38 202.94C102.96 206.11 103.25 210.77 104.52 215.27" stroke="#1E3869" stroke-width="4" stroke-linecap="round" stroke-linejoin="round"/>
<path d="M35.38 529.09L114.66 172.55C115.622 168.208 118.137 164.366 121.731 161.746C125.325 159.126 129.751 157.908 134.18 158.32C145.322 159.45 156.398 161.166 167.36 163.46C178.121 165.996 188.74 169.103 199.17 172.77C203.355 174.275 206.848 177.254 208.994 181.149C211.14 185.044 211.793 189.588 210.83 193.93L131.36 551.34" stroke="#1E3869" stroke-width="4" stroke-linecap="round" stroke-linejoin="round"/>
<path d="M144.92 158.73C147.18 152.98 149.1 145.93 149.1 145.93L191.2 155.49C191.2 155.49 190.81 163.57 188.07 168.77" stroke="#1E3869" stroke-width="4" stroke-linecap="round" stroke-linejoin="round"/>
<path d="M155.43 144.93C156.94 138.18 160.49 124.31 160.49 124.31C169.83 126.09 180.33 127.84 189.63 130.44C188.24 138.73 186.38 144.98 184.52 153.01" stroke="#1E3869" stroke-width="4" stroke-linecap="round" stroke-linejoin="round"/>
<path d="M175.66 125.67L195.76 35.29" stroke="#1E3869" stroke-width="4" stroke-linecap="round" stroke-linejoin="round"/>
<path d="M90.97 563.07L75.99 630.47" stroke="#1E3869" stroke-width="4" stroke-linecap="round" stroke-linejoin="round"/>
<path d="M67.46 536.22L121.13 293.81L149.44 300.1L95.5 542.7" stroke="#1E3869" stroke-width="4" stroke-linecap="round" stroke-linejoin="round"/>
<path d="M48.1799 623.3L62.95 556.61" stroke="#1E3869" stroke-width="4" stroke-linecap="round" stroke-linejoin="round"/>
<path d="M14 543.87C17.47 546.4 22.1199 546.97 26.8599 548.06C46.9699 552.7 67 557.7 87.14 562.2C100.95 565.29 114.34 568.53 128.2 571.2C139.14 573.34 150.69 574.95 151.59 565.02C152.47 555.27 134.84 552.19 125.33 549.86C105.64 545.06 85.62 540.21 65.81 535.86C55.7366 533.62 45.6666 531.38 35.6 529.14C30.29 527.94 21.33 525.51 16 526.39C9.42996 527.47 7.71995 533.28 9.86995 538.48C10.7064 540.633 12.139 542.502 14 543.87Z" stroke="#1E3869" stroke-width="4" stroke-linecap="round" stroke-linejoin="round"/>
<path d="M6.99999 627.8C9.93999 629.64 13.78 630.18 17.71 631.08C34.39 634.9 51.02 638.97 67.71 642.7C79.16 645.25 90.49 647.83 101.79 650.89C110.7 653.3 122.56 655.55 123.18 645.48C123.79 635.6 106.67 637.05 98.7 635.54C82.19 632.43 65.7 627.66 49.32 624.01C40.9667 622.15 32.6166 620.293 24.27 618.44C19.86 617.44 11.56 614.78 7.20998 615.21C1.83998 615.73 1.49001 620.36 3.42001 623.98C4.25015 625.551 5.48643 626.87 6.99999 627.8V627.8Z" stroke="#1E3869" stroke-width="4" stroke-linecap="round" stroke-linejoin="round"/>
<path d="M98.5751 279.566L97.5286 284.271C97.0981 286.207 98.3181 288.125 100.254 288.555L174.04 304.967C175.976 305.398 177.894 304.178 178.324 302.243L179.371 297.538C179.801 295.602 178.581 293.684 176.646 293.254L102.859 276.842C100.924 276.411 99.0056 277.631 98.5751 279.566Z" stroke="#1E3869" stroke-width="4" stroke-linecap="round" stroke-linejoin="round"/>
<path d="M77.74 560.07C74.88 569.61 61.14 626.78 61.14 626.78" stroke="#1E3869" stroke-width="4" stroke-linecap="round" stroke-linejoin="round"/>
<path d="M135.62 299.28C124.48 344.48 114.34 396.28 104.26 441.59C99.87 461.33 89.26 510.9 82.66 539.69" stroke="#1E3869" stroke-width="4" stroke-linecap="round" stroke-linejoin="round"/>
<path d="M119.47 248.82L120.79 254.1" stroke="#FAB550" stroke-width="4" stroke-linecap="round" stroke-linejoin="round"/>
<path d="M145.79 225.84L149.49 224.17" stroke="#FAB550" stroke-width="4" stroke-linecap="round" stroke-linejoin="round"/>
<path d="M132.76 207.9L132.23 210.27" stroke="#FAB550" stroke-width="4" stroke-linecap="round" stroke-linejoin="round"/>
<path d="M131.97 184.4L133.02 187.13" stroke="#FAB550" stroke-width="4" stroke-linecap="round" stroke-linejoin="round"/>
<path d="M166.07 199.06L167.21 197.65" stroke="#FAB550" stroke-width="4" stroke-linecap="round" stroke-linejoin="round"/>
<path d="M179.76 183.44L181.7 182.2" stroke="#FAB550" stroke-width="4" stroke-linecap="round" stroke-linejoin="round"/>
<path d="M183.72 195.27L186.36 198.35" stroke="#FAB550" stroke-width="4" stroke-linecap="round" stroke-linejoin="round"/>
<path d="M166.11 215.31L167.17 218.04" stroke="#FAB550" stroke-width="4" stroke-linecap="round" stroke-linejoin="round"/>
<path d="M162.94 245.72L166.64 244.05" stroke="#FAB550" stroke-width="4" stroke-linecap="round" stroke-linejoin="round"/>
<path d="M185.04 225L188.38 224.91" stroke="#FAB550" stroke-width="4" stroke-linecap="round" stroke-linejoin="round"/>
<path d="M178.98 234.97L179.86 238.49" stroke="#FAB550" stroke-width="4" stroke-linecap="round" stroke-linejoin="round"/>
<path d="M171.39 277.17L172.62 279.1" stroke="#FAB550" stroke-width="4" stroke-linecap="round" stroke-linejoin="round"/>
<path d="M174.82 265.46L178.34 264.58" stroke="#FAB550" stroke-width="4" stroke-linecap="round" stroke-linejoin="round"/>
<path d="M155.73 262.36L157.84 260.33" stroke="#FAB550" stroke-width="4" stroke-linecap="round" stroke-linejoin="round"/>
<path d="M154.95 279.18L152.52 279.09" stroke="#FAB550" stroke-width="4" stroke-linecap="round" stroke-linejoin="round"/>
<path d="M138.03 251.46L140.67 254.54" stroke="#FAB550" stroke-width="4" stroke-linecap="round" stroke-linejoin="round"/>
<path d="M146.53 238.19L148.74 238.79" stroke="#FAB550" stroke-width="4" stroke-linecap="round" stroke-linejoin="round"/>
<path d="M148.25 208.87L147.02 206.93" stroke="#FAB550" stroke-width="4" stroke-linecap="round" stroke-linejoin="round"/>
<path d="M121.4 232.8L118.85 233.07" stroke="#FAB550" stroke-width="4" stroke-linecap="round" stroke-linejoin="round"/>
<path d="M118.39 221.71L118.3 218.37" stroke="#FAB550" stroke-width="4" stroke-linecap="round" stroke-linejoin="round"/>
<path d="M108.55 265.46L112.07 264.58" stroke="#FAB550" stroke-width="4" stroke-linecap="round" stroke-linejoin="round"/>
<path d="M132.19 272.41L133.86 268.62" stroke="#FAB550" stroke-width="4" stroke-linecap="round" stroke-linejoin="round"/>
<path d="M154.26 189.79L153.2 187.06" stroke="#FAB550" stroke-width="4" stroke-linecap="round" stroke-linejoin="round"/>
<path d="M144.91 175.69L147.64 174.63" stroke="#FAB550" stroke-width="4" stroke-linecap="round" stroke-linejoin="round"/>
<path d="M191.35 12.22C191.24 10.61 187.59 5.46 186.35 4.5" stroke="#FAB550" stroke-width="4" stroke-linecap="round" stroke-linejoin="round"/>
<path d="M206.67 10.8C207.6 7.44 210.56 4.51 212.96 2" stroke="#FAB550" stroke-width="4" stroke-linecap="round" stroke-linejoin="round"/>
<path d="M219.56 22.4C222.703 20.6131 226.356 19.9368 229.93 20.48" stroke="#FAB550" stroke-width="4" stroke-linecap="round" stroke-linejoin="round"/>
<path d="M313.22 106.93C309.93 99.88 299.97 101.82 292.68 101.99C284.085 102.255 275.601 104.001 267.6 107.15C270.76 111.83 270.6 122.95 270.33 128.77C270.238 132.772 269.732 136.753 268.82 140.65L268.52 141.53C275.94 144.35 283.16 146.82 291.15 147.15C296.26 147.36 303.53 147.8 308.4 145.81C311.98 144.34 314.4 141.95 315.08 138.13C316.85 128.86 317.31 115.7 313.22 106.93Z" fill="#ABDDDF" stroke="#ABDDDF" stroke-width="4" stroke-linecap="round" stroke-linejoin="round"/>
<path d="M271.29 116.86C274.229 116.167 277.208 115.656 280.21 115.33" stroke="#1E3869" stroke-width="4" stroke-linecap="round" stroke-linejoin="round"/>
<path d="M270.36 131.65C271.78 132.02 277.95 134.07 279.14 134.65" stroke="#1E3869" stroke-width="4" stroke-linecap="round" stroke-linejoin="round"/>
<path d="M268.52 141.53C266.01 140.73 256.11 136.89 256.11 136.89" stroke="#ABDDDF" stroke-width="4" stroke-linecap="round" stroke-linejoin="round"/>
<path d="M255.81 113.74C255.81 113.74 262.39 109.16 267.6 107.14" stroke="#ABDDDF" stroke-width="4" stroke-linecap="round" stroke-linejoin="round"/>
<path d="M299.73 93.02V89.29" stroke="#1E3869" stroke-width="4" stroke-linecap="round" stroke-linejoin="round"/>
<path d="M338.11 239.51C340.4 239.51 349.75 239.98 352 239.76" stroke="#1E3869" stroke-width="4" stroke-linecap="round" stroke-linejoin="round"/>
<path d="M446.51 124C450.51 124.31 460.15 122.7 464.07 121.81C468.61 120.81 475.45 119.26 479.07 116.81" stroke="#1E3869" stroke-width="4" stroke-linecap="round" stroke-linejoin="round"/>
</svg>
